<svg xmlns="http://www.w3.org/2000/svg" xmlns:xlink="http://www.w3.org/1999/xlink" viewBox="0 0 102.635 112.767"><defs><style>.a{fill:#ededf4;}.b{fill:#3b477b;}.c{fill:#6a4dff;}.d,.e,.g{opacity:0.08;}.f,.g,.h{fill:#fff;}.h{opacity:0.3;}.i{fill:url(#a);}.j{fill:#f7c4a7;}.k,.p{opacity:0.1;}.l{fill:#f3b5b7;}.m{fill:#fc6681;}.n{fill:#575988;}.o{opacity:0.05;}.q{fill:#965d7b;}</style><linearGradient id="a" x1="0.5" y1="1" x2="0.5" gradientUnits="objectBoundingBox"><stop offset="0" stop-color="gray" stop-opacity="0.251"/><stop offset="0.54" stop-color="gray" stop-opacity="0.122"/><stop offset="1" stop-color="gray" stop-opacity="0.102"/></linearGradient></defs><g transform="translate(0.056)"><rect class="a" width="96.291" height="62.803" transform="translate(6.289 14.428)"/><ellipse class="b" cx="8.148" cy="1.292" rx="8.148" ry="1.292" transform="translate(14.636 64.61)"/><rect class="b" width="2.583" height="47.301" transform="translate(21.493 18.601)"/><circle class="b" cx="3.28" cy="3.28" r="3.28" transform="translate(19.505 16.613)"/><path class="c" d="M406.449,218.53a37.452,37.452,0,0,0-2.285,8.543l-5.664-6.257s1.522-.614,3.138-1.3A12.263,12.263,0,0,1,406.449,218.53Z" transform="translate(-376.411 -195.656)"/><path class="d" d="M406.449,218.53a37.452,37.452,0,0,0-2.285,8.543l-5.664-6.257s1.522-.614,3.138-1.3A12.263,12.263,0,0,1,406.449,218.53Z" transform="translate(-376.411 -195.656)"/><path class="c" d="M354.571,218.53s1.788,5.266,1.882,7.353v2.485h10.434v-2.583a29.6,29.6,0,0,0-4.292-4.4,12.68,12.68,0,0,0-8.026-2.855Z" transform="translate(-338.842 -195.656)"/><path class="c" d="M350.505,276.165a13.414,13.414,0,0,0-2.882,6.95c-.2,3.765,1.69,15.005,1.69,15.005a20.847,20.847,0,0,0,12.719,0s1.988-11.527,1.788-15.2-4.024-8.5-4.024-8.5Z" transform="translate(-332.889 -243.454)"/><path class="d" d="M412.57,266.844a4.847,4.847,0,0,1,2.087.3,5.175,5.175,0,0,0,1.839.434" transform="translate(-388.444 -236.965)"/><path class="d" d="M412.57,270.934a4.847,4.847,0,0,1,2.087.3,5.175,5.175,0,0,0,1.839.434" transform="translate(-388.444 -240.463)"/><path class="d" d="M412.57,276.454a4.847,4.847,0,0,1,2.087.3,5.175,5.175,0,0,0,1.839.434" transform="translate(-388.444 -245.184)"/><path class="d" d="M362.59,286.82a11.43,11.43,0,0,0-.7,2.385,8.31,8.31,0,0,1-.795,2.087" transform="translate(-344.426 -254.058)"/><path class="d" d="M366.71,295.74a11.431,11.431,0,0,0-.7,2.385,8.311,8.311,0,0,1-.795,2.087" transform="translate(-347.95 -261.686)"/><path class="d" d="M437.27,286.82a11.43,11.43,0,0,1,.7,2.385,8.31,8.31,0,0,0,.795,2.087" transform="translate(-409.567 -254.058)"/><path class="d" d="M433.15,295.74a11.431,11.431,0,0,1,.7,2.385,8.311,8.311,0,0,0,.795,2.087" transform="translate(-406.044 -261.686)"/><ellipse class="b" cx="8.148" cy="1.292" rx="8.148" ry="1.292" transform="translate(45.739 70.87)"/><rect class="b" width="2.583" height="47.301" transform="translate(52.595 24.862)"/><circle class="b" cx="3.28" cy="3.28" r="3.28" transform="translate(50.607 22.874)"/><path class="c" d="M513.606,343.522l-11.826,16.4,3.28,1.293s-.6.6-.2.895c0,0,1.392,1.292,5.068,1.49,0,0,1.093-1.49,3.28.5s4.87.4,4.87.4a3.537,3.537,0,0,1,4.272-.094c2.285,1.593,5.168-.795,5.168-.795a4.292,4.292,0,0,1,4.67-1.391c3.18.795,3.186-2.186,3.186-2.186L523.355,343.13Z" transform="translate(-464.736 -302.214)"/><g class="e" transform="translate(37.044 41.308)"><path class="f" d="M713.34,473.868a2.625,2.625,0,0,0,1.91-.2A4.549,4.549,0,0,0,713.34,473.868Z" transform="translate(-682.707 -455.137)"/><path class="f" d="M507.841,364.422c-.4-.3.2-.893.2-.893l-3.28-1.292,8.844-16.4-11.823,16.4,3.28,1.293s-.6.6-.2.895c0,0,1.392,1.292,5.068,1.49a1.4,1.4,0,0,1,.452-.362A6.136,6.136,0,0,1,507.841,364.422Z" transform="translate(-501.78 -345.84)"/><path class="f" d="M579.782,481.785c-2.186-1.988-3.28-.5-3.28-.5-.123,0-.245-.014-.362-.023a5.611,5.611,0,0,1,.66.521,3.98,3.98,0,0,0,4.121.724A3.84,3.84,0,0,1,579.782,481.785Z" transform="translate(-565.373 -461.216)"/><path class="f" d="M643.426,485.961a3.422,3.422,0,0,0-3.556-.336,4.156,4.156,0,0,1,.579.336,3.529,3.529,0,0,0,3.365.227A3.085,3.085,0,0,1,643.426,485.961Z" transform="translate(-619.875 -465.087)"/></g><path class="c" d="M581.85,289.764H570.72s-.7-8.446-1.69-9.738a11.318,11.318,0,0,1,1.253-.458,18.734,18.734,0,0,1,2.027-.508,19.811,19.811,0,0,1,7.153-.065,19.166,19.166,0,0,1,2.047.478q.8.233,1.628.553S581.154,287.975,581.85,289.764Z" transform="translate(-522.248 -247.115)"/><path class="g" d="M581.08,291.875H579.6c-.019-1.869-1.389-7.913-1.92-10.2a18.734,18.734,0,0,1,2.027-.508C579.822,283.575,580.808,290.107,581.08,291.875Z" transform="translate(-529.646 -249.226)"/><path class="g" d="M635.042,281.178c-.514,2.205-1.923,8.4-1.942,10.291h-1.48c.274-1.785,1.276-8.42,1.373-10.769A19.164,19.164,0,0,1,635.042,281.178Z" transform="translate(-575.776 -248.824)"/><ellipse class="b" cx="8.148" cy="1.292" rx="8.148" ry="1.292" transform="translate(76.645 64.909)"/><rect class="b" width="2.583" height="47.301" transform="translate(83.499 18.899)"/><circle class="b" cx="3.28" cy="3.28" r="3.28" transform="translate(81.513 16.911)"/><path class="c" d="M793.487,240.476c-.094-.32-.188-.621-.279-.892v-3.692l1.193-5.068c-2.783-4.075-6.661,0-6.661,0-4.273-3.776-6.459,0-6.459,0,.3.7.993,5.068.993,5.068v4.2a21.665,21.665,0,0,0-1.837,10.68l.744,12.651s7.154,2.783,13.117,0l.6-10.608A36.389,36.389,0,0,0,793.487,240.476Z" transform="translate(-703.001 -204.622)"/><g class="e" transform="translate(77.441 24.389)"><path d="M836.844,230.91a6.545,6.545,0,0,1,3.139-1.768c-1.575-.51-3.138.434-3.983,1.095A9.64,9.64,0,0,1,836.844,230.91Z" transform="translate(-828.002 -228.997)"/><path d="M783.051,264.289l-.744-12.651a21.662,21.662,0,0,1,1.838-10.68v-4.2s-.7-4.373-.993-5.068a3.657,3.657,0,0,1,2.376-1.636,3.455,3.455,0,0,0-3.866,1.538c.3.7.993,5.068.993,5.068v4.2a21.665,21.665,0,0,0-1.838,10.68l.744,12.651a21.721,21.721,0,0,0,6.523,1.228A21.431,21.431,0,0,1,783.051,264.289Z" transform="translate(-780.767 -229.781)"/></g><g class="e" transform="translate(80.489 24.392)"><path d="M804.632,231.611a6.7,6.7,0,0,1,.714-.623,4.273,4.273,0,0,0-3.526-.97A6.441,6.441,0,0,1,804.632,231.611Z" transform="translate(-801.82 -229.8)"/><path d="M835.813,240.477c-.094-.32-.188-.621-.279-.892v-3.692l1.193-5.068A3.4,3.4,0,0,0,833,229.1a3.857,3.857,0,0,1,2.237,1.725l-1.193,5.068v3.689c.091.271.184.572.279.892a36.39,36.39,0,0,1,1.41,12.334l-.6,10.608a13.862,13.862,0,0,1-5.315,1.221,14.716,14.716,0,0,0,6.805-1.221l.605-10.6A36.386,36.386,0,0,0,835.813,240.477Z" transform="translate(-825.766 -229.014)"/></g><rect class="a" width="8.688" height="4.634" transform="translate(10.126 77.322)"/><rect class="a" width="8.688" height="4.634" transform="translate(18.886 82.173)"/><rect class="a" width="8.688" height="4.634" transform="translate(27.647 77.322)"/><rect class="a" width="8.688" height="4.634" transform="translate(27.719 86.951)"/><rect class="a" width="8.688" height="4.634" transform="translate(36.407 82.173)"/><rect class="a" width="8.688" height="4.634" transform="translate(45.167 77.322)"/><rect class="a" width="8.688" height="4.634" transform="translate(53.927 82.173)"/><rect class="a" width="8.688" height="4.634" transform="translate(62.688 77.322)"/><rect class="a" width="8.688" height="4.634" transform="translate(62.76 86.951)"/><rect class="a" width="8.688" height="4.634" transform="translate(71.448 82.173)"/><rect class="a" width="8.688" height="4.634" transform="translate(93.892 77.394)"/><rect class="a" width="8.688" height="4.634" transform="translate(85.059 82.318)"/><rect class="a" width="8.688" height="4.634" transform="translate(16.569 9.774)"/><rect class="a" width="8.688" height="4.634" transform="translate(25.257 4.851)"/><rect class="a" width="8.688" height="4.634" transform="translate(34.018)"/><rect class="a" width="8.688" height="4.634" transform="translate(34.09 9.629)"/><rect class="a" width="8.688" height="4.634" transform="translate(42.778 4.851)"/><rect class="a" width="8.688" height="4.634" transform="translate(51.611 9.774)"/><rect class="a" width="8.688" height="4.634" transform="translate(60.298 4.851)"/><rect class="a" width="8.688" height="4.634" transform="translate(69.059)"/><rect class="a" width="8.688" height="4.634" transform="translate(69.131 9.629)"/><rect class="a" width="8.688" height="4.634" transform="translate(77.819 4.851)"/><path class="h" d="M69.462,99.64l-25.7,24.1v4.806l32.073-28.9Z" transform="translate(-37.471 -85.212)"/><path class="h" d="M43.76,134.35v9.7l56.471-45.387L91.905,98.5Z" transform="translate(-37.471 -84.237)"/><path class="i" d="M272.2,407.523l.012-.022.013-.028.009-.023a.35.35,0,0,0,.009-.036v-.136a.932.932,0,0,0-.3-.65,1.413,1.413,0,0,0-.982-.476c-2.085-.1-4.426-3.671-4.426-3.671l-.094.077a9.376,9.376,0,0,1-.626-1.5h.232V401h0v-.052h0l-.321-3.33.869-9.972a8.944,8.944,0,0,0,.6-1.865,3.3,3.3,0,0,0,.067-.724q0-.026,0-.052a3.357,3.357,0,0,0-.379-1.546l-3.645-7.021c.125.013.2.014.2.014,1.074-1.533.387-3.814-.379-5.457l.269-.145a.522.522,0,0,1-.1-.055l.1-.051c-.626-.227-1.138-2.027-1.377-3.041l.349-1.274a6.07,6.07,0,0,1,1.68.508s-.048-.1-.13-.275h0l.123.061s-.048-.1-.127-.268h0a20.529,20.529,0,0,1-1.934-7.314,7.277,7.277,0,0,1,.1-1.18,5.886,5.886,0,0,0,.091-1.127,4.5,4.5,0,0,0-2.375-4.151,5.644,5.644,0,0,1-1.738-2.534,2.037,2.037,0,0,0-.834-1.118,6.572,6.572,0,0,1,1.247-2.857c.062-.012.123-.023.184-.038q.107-.145.21-.266a3.817,3.817,0,0,0,2.782-3.637,3.765,3.765,0,0,0-1.671-3.113c.1-.012.206-.085.336-.29a1.085,1.085,0,0,0,.054-.961,1.748,1.748,0,0,0-.442-.589,4.49,4.49,0,0,0-.969-.7,6.912,6.912,0,0,0-2.606-1.079,6.985,6.985,0,0,0-1.441.029l-2.186.2a3.977,3.977,0,0,0-2.845,1.045c-.644.8-.547,1.968-1.195,2.751a11.046,11.046,0,0,1-1.852,1.289,3.835,3.835,0,0,0-1.115,3.724,15.81,15.81,0,0,0,1.531,3.775,7.208,7.208,0,0,1,.924,3.91c-.145,1.158-.775,2.218-1,3.368a4.959,4.959,0,0,0,.175,2.553,1.069,1.069,0,0,0,.249.45.4.4,0,0,1,.109.106,1.252,1.252,0,0,0,.841.237,5.943,5.943,0,0,1,2.131.311,2.192,2.192,0,0,1,.608.387,1.448,1.448,0,0,1,.443,1.124c-.061.637-.61,1.3-.265,1.843h.056a.722.722,0,0,0,.052.1,4.1,4.1,0,0,0,1.1.028,16.16,16.16,0,0,1,.145,1.829,3.11,3.11,0,0,1-.3,1.552h.109a1.271,1.271,0,0,1-.109.22l.427-.032a29.749,29.749,0,0,1-1.788,2.644,5.647,5.647,0,0,0-1.264,3.527,5.164,5.164,0,0,0,.02.566,4.57,4.57,0,0,0,1.41,3.007,5.974,5.974,0,0,1,.417,1.794,1.564,1.564,0,0,1-.091.529v7.493l-1.3,4.961a17.909,17.909,0,0,0-.248,3,9.112,9.112,0,0,0,.9,4.387l1.087,5.172.109.012v1.448c-.133-.116-.217-.2-.217-.2l-.323,3.167h.01l-.01.1a41.1,41.1,0,0,0,7.068.527h1.1l.22-.01h.065l.145-.009h.071l.135-.01h.062l.161-.016h.023l.172-.02h.048l.114-.017.054-.009.1-.017.048-.009.119-.025h.019l.129-.03.032-.009.088-.023.038-.012.077-.023.033-.01.085-.03h.014l.091-.038.019-.009.064-.03.023-.012.052-.029.02-.012.056-.035h.007l.058-.043h.007l.041-.036.012-.012.032-.033.009-.01.03-.039h0a.463.463,0,0,0,.028-.046h0a.4.4,0,0,0,.019-.042v-.009a.372.372,0,0,0,.01-.038v-.009a.357.357,0,0,0,0-.042h0a.362.362,0,0,0,0-.08c.056-.381-.521-.749-1.028-.749-1.087,0-4.676-3.061-4.893-3.272-.091-.088-.256-.061-.46.039a6.677,6.677,0,0,1-.518-.527.463.463,0,0,0,.109-.252l-.014-.036a.458.458,0,0,0,.014-.07,11.541,11.541,0,0,1-.769-2.653.913.913,0,0,1,.007-.091l.088-7.576a4.937,4.937,0,0,1,.9-2.751,5.672,5.672,0,0,0,.964-3.074l1.507-5.492a26.8,26.8,0,0,1,3.8,4.619,31.006,31.006,0,0,0-.763,6.41v.052a13.424,13.424,0,0,0,.237,2.644,27.119,27.119,0,0,1,.579,5.291c0,.6-.029.937-.029.937h0v.052h0v.052h.217v1.361l-.055-.042-1.36,2.375.029.028-.029.077s2.283,2.317,7.938,2.955l.316.033.09.009.219.019h.084l.274.02h0l.249.013h.967l.162-.013h.025l.133-.016h.045l.094-.016.041-.007.116-.026h.017l.087-.026.033-.012.061-.023.03-.012.074-.036.016-.01.049-.03.023-.016.033-.026.019-.017a.452.452,0,0,0,.036-.039l.014-.019Z" transform="translate(-245.62 -295.675)"/><path class="j" d="M353.35,563.581s3.235,4.8,1.461,7.409c0,0-2.606,0-1.982-2.818a10.013,10.013,0,0,0-.209-5.113Z" transform="translate(-337.174 -490.299)"/><path class="j" d="M292.8,789.194v3.756l3.339.313,1.253-1.882-.313-.521a6.01,6.01,0,0,1-1.774-2.188C294.992,787.627,292.8,789.194,292.8,789.194Z" transform="translate(-286.016 -682.935)"/><path class="k" d="M291.2,804.1s2.265-2.535,2.714-2.087c.208.209,3.652,3.235,4.7,3.235s2.4,1.67-2.606,1.565a38.476,38.476,0,0,1-6.782-.521l.313-3.131S290.678,804.31,291.2,804.1Z" transform="translate(-282.954 -694.609)"/><path class="l" d="M291.2,804.822s2.265-2.535,2.714-2.086c.208.208,3.652,3.235,4.7,3.235s2.4,1.67-2.606,1.565a38.478,38.478,0,0,1-6.782-.521l.31-3.128S290.678,805.03,291.2,804.822Z" transform="translate(-282.954 -695.224)"/><path class="j" d="M360.54,774.023v2.922l1.774,1.461,1.982-.521.521-1.148a9.293,9.293,0,0,1-1.357-3.966Z" transform="translate(-343.947 -669.644)"/><path class="k" d="M354,795.97h1.253l1.3-1.1s2.247,3.532,4.247,3.629a1.342,1.342,0,0,1,.941.472c.523.605.763,1.493-2.945,1.066-5.424-.62-7.615-2.912-7.615-2.912l1.3-2.349Z" transform="translate(-335.943 -688.467)"/><path class="l" d="M353.979,796.67h1.253l1.3-1.1s2.247,3.532,4.247,3.629a1.343,1.343,0,0,1,.941.472c.523.605.763,1.493-2.945,1.066-5.427-.626-7.618-2.922-7.618-2.922l1.3-2.349Z" transform="translate(-335.926 -689.057)"/><path class="k" d="M348.311,545.781s.626,3.339,1.461,3.652c0,0-1.774.836-1.461,1.67l-1.461-6.782,1.774.208Z" transform="translate(-332.24 -474.273)"/><path class="m" d="M348.311,545.061s.626,3.339,1.461,3.652c0,0-1.774.836-1.461,1.67L346.85,543.6l1.774.2Z" transform="translate(-332.24 -473.657)"/><path class="k" d="M348.311,545.061s.626,3.339,1.461,3.652c0,0-1.774.836-1.461,1.67L346.85,543.6l1.774.2Z" transform="translate(-332.24 -473.657)"/><path class="k" d="M324.5,581.08l6.226,12.353a3.386,3.386,0,0,1,.3,2.186,9.036,9.036,0,0,1-.579,1.845l-.835,9.913.308,3.339h-3.75a25.084,25.084,0,0,0-.521-6.261c-.73-3.655.521-8.977.521-8.977a23,23,0,0,0-4.9-5.636C318.659,587.962,324.5,581.08,324.5,581.08Z" transform="translate(-309.788 -505.71)"/><path class="n" d="M324.5,580.35l6.226,12.353a3.387,3.387,0,0,1,.3,2.186,9.036,9.036,0,0,1-.579,1.845l-.833,9.919.306,3.33h-3.75a25.084,25.084,0,0,0-.521-6.261c-.73-3.655.521-8.977.521-8.977a23,23,0,0,0-4.9-5.636C318.659,587.229,324.5,580.35,324.5,580.35Z" transform="translate(-309.788 -505.086)"/><path class="o" d="M324.5,580.72l6.226,12.353a3.387,3.387,0,0,1,.3,2.186,9.036,9.036,0,0,1-.579,1.845l-.835,9.913.308,3.339h-3.75a25.084,25.084,0,0,0-.521-6.261c-.73-3.655.521-8.977.521-8.977a23,23,0,0,0-4.9-5.636C318.659,587.6,324.5,580.72,324.5,580.72Z" transform="translate(-309.788 -505.402)"/><path class="k" d="M281.024,542.88a37.812,37.812,0,0,1-2.246,3.521,5.631,5.631,0,0,0-1.195,3.941,4.584,4.584,0,0,0,1.354,2.973,4.483,4.483,0,0,1,.313,2.4v7.409L278,568.03s-.835,4.592.626,7.2l1.044,5.113s3.339.417,3.443-.625a9.488,9.488,0,0,1-.724-2.818l.084-7.49a4.981,4.981,0,0,1,.869-2.724,5.745,5.745,0,0,0,.927-3.041l5.525-20.765Z" transform="translate(-272.987 -473.041)"/><path class="n" d="M281.024,542.16a37.812,37.812,0,0,1-2.246,3.521,5.631,5.631,0,0,0-1.195,3.941,4.584,4.584,0,0,0,1.354,2.973,4.483,4.483,0,0,1,.313,2.4v7.412l-1.253,4.9s-.835,4.592.626,7.2l1.044,5.113s3.339.417,3.443-.626a9.488,9.488,0,0,1-.724-2.818l.084-7.49a4.981,4.981,0,0,1,.869-2.724,5.745,5.745,0,0,0,.927-3.041l5.525-20.768Z" transform="translate(-272.987 -472.425)"/><path class="j" d="M340.088,593.539s.724,4.7-1.882,6.157c0,0-1.044-.724.417-3.13l.1-3.235Z" transform="translate(-324.538 -516.186)"/><path class="k" d="M358.8,813.5c-4.932-.569-7.191-2.517-7.561-2.867l-.056.154s2.191,2.3,7.618,2.922c2.776.32,3.339-.1,3.228-.579C361.921,813.507,361.161,813.769,358.8,813.5Z" transform="translate(-335.943 -702.021)"/><path class="k" d="M295.942,829.724a40.361,40.361,0,0,1-6.752-.515l-.03.307a38.451,38.451,0,0,0,6.782.521c3.117.065,3.765-.557,3.565-1.037C299.335,829.4,298.411,829.781,295.942,829.724Z" transform="translate(-282.903 -717.732)"/><path class="k" d="M292.44,609.974s2.505,0,3.235-.625,2.5,0,2.5,0" transform="translate(-285.708 -529.647)"/><path class="k" d="M279.362,574.965c-1.461-2.606-.626-7.2-.626-7.2l1.253-4.9v-7.409a4.483,4.483,0,0,0-.313-2.4,4.578,4.578,0,0,1-1.354-2.973,5.631,5.631,0,0,1,1.195-3.941,37.819,37.819,0,0,0,2.246-3.521h8.32l.027-.1h-8.766a37.812,37.812,0,0,1-2.246,3.521,5.631,5.631,0,0,0-1.2,3.943,4.584,4.584,0,0,0,1.354,2.973,4.483,4.483,0,0,1,.313,2.4v7.409l-1.253,4.9s-.835,4.592.626,7.2l1.044,5.113s.158.02.4.039Z" transform="translate(-273.256 -472.725)"/><path class="j" d="M304.458,394.137s-2.4,2.185-2.5,4.7-4.07-.521-4.07-.521a5.4,5.4,0,0,0,2.818-5.321Z" transform="translate(-290.369 -344.855)"/><path class="k" d="M290.892,425.372s-3.235-1.253-3.862,4.07l.724,6.992s1.253,5.321.417,6.678c0,0,8.558-.724,11.061.626,0,0-2.505-5.213-1.882-8.87a4.54,4.54,0,0,0-2.191-5.009,5.6,5.6,0,0,1-1.669-2.505C293.177,426,290.892,425.372,290.892,425.372Z" transform="translate(-281.081 -372.439)"/><path class="m" d="M290.866,423.925s-3.235-1.258-3.866,4.069l.6,5.711c.08.76.2,1.517.343,2.268.316,1.606.817,4.7.209,5.692,0,0,8.558-.724,11.061.626,0,0-2.505-5.213-1.882-8.87a4.54,4.54,0,0,0-2.191-5.009,5.6,5.6,0,0,1-1.669-2.505C293.154,424.549,290.866,423.925,290.866,423.925Z" transform="translate(-281.056 -371.2)"/><path class="k" d="M309.38,472.25l3.756,13.879s1.461,3.339.835,4.279c0,0,1.67.835,2.4,0s-1.565-10.436-1.565-10.436l-1.357-7.722Z" transform="translate(-300.195 -412.638)"/><path class="m" d="M310.1,471.53l3.75,13.879s1.461,3.339.835,4.279c0,0,1.67.835,2.4,0s-1.565-10.436-1.565-10.436l-1.357-7.722Z" transform="translate(-300.811 -412.022)"/><path class="k" d="M337.84,487.75s1.044,3.026,1.565,3.339.208,2.606.208,2.606" transform="translate(-324.534 -425.894)"/><path class="k" d="M316.94,395.612c.569.348,1.111,1.3,1.826,1.3a3.767,3.767,0,0,0,.885-.106,9.6,9.6,0,0,1,1.1-1.251l-3.756-1.148A2.44,2.44,0,0,1,316.94,395.612Z" transform="translate(-306.661 -346.069)"/><circle class="j" cx="3.756" cy="3.756" r="3.756" transform="translate(8.351 43.125)"/><g class="p" transform="translate(5.95 52.601)"><path d="M288.731,441.653c.579-1.03.081-4.066-.23-5.647-.145-.75-.264-1.507-.343-2.268l-.6-5.711c.391-3.32,1.8-4.082,2.8-4.185-.948-.094-2.855.227-3.32,4.185l.6,5.711c.08.76.2,1.517.343,2.268.316,1.606.817,4.7.209,5.692C288.193,441.694,288.387,441.678,288.731,441.653Z" transform="translate(-287.04 -423.83)"/><path d="M330.28,545.846c2.317.012,4.778.191,5.947.822,0,0-.045-.094-.122-.265A21.544,21.544,0,0,0,330.28,545.846Z" transform="translate(-324.019 -528.178)"/></g><path class="k" d="M262.869,344.687a7.22,7.22,0,0,1-1.5,2.155,3.451,3.451,0,0,0-1.158,2.469c-.232,1.788-.447,3.694.334,5.317a9.7,9.7,0,0,1,.657,1.36,4.121,4.121,0,0,1-.35,2.69A15.857,15.857,0,0,1,259,362.037a5.394,5.394,0,0,0-1.079,1.924,3.315,3.315,0,0,1-.372,1.423c-.41.52-1.2.479-1.853.39-.33-.539.2-1.193.253-1.822a1.7,1.7,0,0,0-1.113-1.593,5.524,5.524,0,0,0-2.046-.307,1.182,1.182,0,0,1-.807-.235,1.066,1.066,0,0,1-.239-.446,5.045,5.045,0,0,1-.159-2.492c.216-1.137.821-2.181.959-3.33a7.308,7.308,0,0,0-.888-3.87,15.856,15.856,0,0,1-1.47-3.731,3.865,3.865,0,0,1,1.07-3.682c.566-.465,1.318-.7,1.777-1.274.621-.772.537-1.936,1.147-2.716a3.79,3.79,0,0,1,2.729-1.034l2.1-.193a4.886,4.886,0,0,1,3.885,1.038,2.809,2.809,0,0,1,1.25,1.167,1.1,1.1,0,0,1-.052.95c-.385.62-.568.022-.869.162C262.774,342.562,263.111,344.065,262.869,344.687Z" transform="translate(-249.506 -298.679)"/><path class="q" d="M262.158,343.959a7.219,7.219,0,0,1-1.5,2.153,3.452,3.452,0,0,0-1.158,2.469c-.232,1.788-.447,3.694.335,5.317a9.708,9.708,0,0,1,.657,1.36,4.121,4.121,0,0,1-.35,2.69,15.858,15.858,0,0,1-1.85,3.359,5.394,5.394,0,0,0-1.079,1.924,3.315,3.315,0,0,1-.372,1.423c-.41.52-1.2.479-1.853.389-.33-.539.2-1.193.253-1.822a1.7,1.7,0,0,0-1.113-1.593,5.523,5.523,0,0,0-2.046-.307,1.182,1.182,0,0,1-.807-.235,1.066,1.066,0,0,1-.239-.446,5.045,5.045,0,0,1-.159-2.492c.216-1.137.821-2.181.959-3.33a7.308,7.308,0,0,0-.888-3.87,15.857,15.857,0,0,1-1.47-3.731,3.866,3.866,0,0,1,1.07-3.682c.566-.465,1.318-.7,1.777-1.274.621-.772.537-1.936,1.147-2.716a3.79,3.79,0,0,1,2.729-1.034l2.1-.193a4.886,4.886,0,0,1,3.885,1.038,2.809,2.809,0,0,1,1.25,1.167,1.1,1.1,0,0,1-.052.95c-.385.62-.568.022-.869.162C262.062,341.833,262.4,343.332,262.158,343.959Z" transform="translate(-248.899 -298.055)"/></g></svg>