<svg xmlns="http://www.w3.org/2000/svg" viewBox="0 0 145.459 111.392"><defs><style>.a,.b{fill:#6a4dff;}.a,.d,.m,.q{opacity:0.1;}.c,.j{fill:none;}.c{stroke:#565987;stroke-miterlimit:10;}.e{fill:#ffd037;}.f{fill:#a8a8a8;}.g{opacity:0.2;}.h{fill:#efb7b9;}.i{opacity:0.05;}.k{fill:#65617d;}.l{fill:#dce0ed;}.m,.t{fill:#fff;}.n{fill:#444053;}.o{fill:#a36468;}.p{fill:#965d7b;}.r{fill:#dda2a6;}.s{fill:#b77b7f;}.t{opacity:0.3;}</style></defs><g transform="translate(0 -0.006)"><path class="a" d="M286.652,75.651a35.426,35.426,0,0,0-5.769-9.193l-80.05-.789,65.907-9.257a37.44,37.44,0,0,0-13.373-2.652A37.48,37.48,0,0,0,208.6,52.245a37.319,37.319,0,0,0-17.135-4.131c-17.786,0-32.607,12.319-35.931,28.654Z" transform="translate(-144.008 -45.55)"/><path class="a" d="M217.319,282.621a34.607,34.607,0,0,0-2.494-12.931L76.089,284.253a34.84,34.84,0,0,0-3.246,8.209l42.965,6.4-43.948,4.67c1.322,18.493,17.175,33.1,36.541,33.1a37.077,37.077,0,0,0,25.17-9.735,37.223,37.223,0,0,0,58.5-10.43,36.116,36.116,0,0,0,24.081-24.889l-54.331-8.426h55.5C217.316,282.973,217.319,282.8,217.319,282.621Z" transform="translate(-71.86 -238.819)"/><ellipse class="a" cx="3.556" cy="0.489" rx="3.556" ry="0.489" transform="translate(0.315 101.255)"/><ellipse class="a" cx="3.556" cy="0.489" rx="3.556" ry="0.489" transform="translate(13.936 102.637)"/><ellipse class="a" cx="3.556" cy="0.489" rx="3.556" ry="0.489" transform="translate(29.981 100.766)"/><ellipse class="a" cx="2.528" cy="0.347" rx="2.528" ry="0.347" transform="translate(9.512 106.711)"/><ellipse class="a" cx="2.528" cy="0.347" rx="2.528" ry="0.347" transform="translate(23.65 106.364)"/><path class="b" d="M186.9,624.507s-4.988-16.349.779-22.9c4.316-4.9,9.213-4.313,11.406-3.707a4.054,4.054,0,0,1,2.616,2.174c.767,1.653.628,4.339-4.785,7.474C187.852,612.8,187.289,620,187.289,620Z" transform="translate(-169.331 -521.492)"/><path class="c" d="M207.828,617.23s-14.7,4.6-11.4,24.285" transform="translate(-178.854 -538.499)"/><path class="c" d="M219.91,629.2s2.024,1.363,1.377,3.414" transform="translate(-199.522 -548.821)"/><path class="c" d="M254.373,633.157a2.555,2.555,0,0,0-2.743-.565" transform="translate(-226.874 -551.566)"/><path class="c" d="M212.225,681.387s-2.173-1.1-2.735.276" transform="translate(-190.537 -593.462)"/><path class="c" d="M190.3,700.63s1.632-.13,1.662.651" transform="translate(-173.99 -610.408)"/><path class="b" d="M198,721.726s5.842-11.883,7.446-11.623c.762.124,1.113.873,1.272,1.626a4.792,4.792,0,0,1-.318,2.9A12.828,12.828,0,0,1,198,721.726Z" transform="translate(-180.629 -618.58)"/><path class="c" d="M205.915,726.51s-6.131,8.89-7.315,9.28" transform="translate(-181.147 -632.731)"/><line class="c" x1="1.431" transform="translate(23.902 95.166)"/><line class="c" x1="2.242" y2="0.096" transform="translate(21.376 98.419)"/><line class="c" x2="0.244" y2="1.168" transform="translate(22.254 95.817)"/><line class="c" x2="0.044" y2="1.062" transform="translate(19.869 99.373)"/><path class="b" d="M144.047,721.726s-5.842-11.883-7.446-11.623c-.762.124-1.113.873-1.272,1.626a4.783,4.783,0,0,0,.32,2.892A12.8,12.8,0,0,0,144.047,721.726Z" transform="translate(-126.507 -618.58)"/><path class="c" d="M145.48,726.51s6.131,8.89,7.315,9.28" transform="translate(-135.342 -632.731)"/><line class="c" x2="1.431" transform="translate(9.575 95.166)"/><line class="c" x2="2.243" y2="0.096" transform="translate(11.288 98.419)"/><line class="c" x1="0.244" y2="1.168" transform="translate(12.41 95.817)"/><line class="c" x1="0.044" y2="1.062" transform="translate(14.995 99.373)"/><path class="b" d="M251.816,804.621a1.014,1.014,0,0,0,.333-.5.446.446,0,0,0-.233-.511c-.213-.083-.442.066-.614.215a.825.825,0,0,1-.6.289.91.91,0,0,0,.275-.851.356.356,0,0,0-.077-.173c-.118-.127-.333-.072-.475.027a1.769,1.769,0,0,0-.58,1.482,2.819,2.819,0,0,1-.008-.61.623.623,0,0,0-.23-.54.671.671,0,0,0-.348-.083.752.752,0,0,0-.567.161.564.564,0,0,0,.022.7,2.219,2.219,0,0,0,.587.47,1.31,1.31,0,0,1,.413.4.416.416,0,0,1,.03.072h1.271A3.526,3.526,0,0,0,251.816,804.621Z" transform="translate(-224.247 -698.7)"/><path class="b" d="M90.181,769.869a1.012,1.012,0,0,0,.333-.5.449.449,0,0,0-.233-.512c-.213-.081-.441.068-.614.216a.824.824,0,0,1-.6.288.906.906,0,0,0,.275-.851.36.36,0,0,0-.078-.172c-.118-.127-.333-.073-.475.028a1.768,1.768,0,0,0-.58,1.482,2.831,2.831,0,0,1-.008-.611.619.619,0,0,0-.229-.538.676.676,0,0,0-.35-.083.72.72,0,0,0-.567.161.554.554,0,0,0,.022.689,2.183,2.183,0,0,0,.588.471,1.29,1.29,0,0,1,.413.4.484.484,0,0,1,.032.072h1.271A3.553,3.553,0,0,0,90.181,769.869Z" transform="translate(-84.869 -668.733)"/><path class="b" d="M144.056,804.621a1.014,1.014,0,0,0,.333-.5.446.446,0,0,0-.233-.511c-.213-.082-.442.066-.614.215a.824.824,0,0,1-.6.289.91.91,0,0,0,.275-.851.355.355,0,0,0-.077-.173c-.118-.127-.333-.072-.475.028a1.768,1.768,0,0,0-.58,1.482,2.819,2.819,0,0,1-.008-.61.622.622,0,0,0-.229-.54.68.68,0,0,0-.35-.083.752.752,0,0,0-.567.161.564.564,0,0,0,.022.7,2.22,2.22,0,0,0,.587.47,1.31,1.31,0,0,1,.413.4.409.409,0,0,1,.03.072h1.271A3.524,3.524,0,0,0,144.056,804.621Z" transform="translate(-131.327 -698.7)"/><path class="b" d="M308.862,744.43s.476.624-.22,1.564-1.27,1.735-1.038,2.322c0,0,1.051-1.748,1.906-1.772S309.8,745.481,308.862,744.43Z" transform="translate(-275.095 -648.183)"/><path class="d" d="M309.033,744.43a.794.794,0,0,1,.1.2c.834.981,1.278,1.895.476,1.918-.748.022-1.643,1.358-1.858,1.7.007.026.015.051.025.077,0,0,1.051-1.748,1.906-1.772S309.974,745.481,309.033,744.43Z" transform="translate(-275.266 -648.183)"/><path class="e" d="M322.81,749.323c0,.219-.025.4-.055.4s-.055-.178-.055-.4.032-.116.062-.116S322.81,749.1,322.81,749.323Z" transform="translate(-288.157 -652.282)"/><path class="e" d="M323.359,751.146c-.193.1-.361.168-.375.138s.129-.138.322-.238.116-.029.131,0S323.551,751.041,323.359,751.146Z" transform="translate(-288.401 -653.843)"/><path class="b" d="M292.1,744.43s-.476.624.22,1.564,1.271,1.735,1.038,2.322c0,0-1.051-1.748-1.906-1.772S291.169,745.481,292.1,744.43Z" transform="translate(-260.854 -648.183)"/><path class="d" d="M292.1,744.43a.767.767,0,0,0-.1.2c-.835.981-1.279,1.895-.478,1.918.748.022,1.644,1.358,1.859,1.7-.008.026-.017.051-.026.077,0,0-1.051-1.748-1.906-1.772S291.169,745.481,292.1,744.43Z" transform="translate(-260.854 -648.183)"/><path class="e" d="M292.36,749.323c0,.219.025.4.055.4s.055-.178.055-.4-.03-.116-.061-.116S292.36,749.1,292.36,749.323Z" transform="translate(-261.995 -652.282)"/><path class="e" d="M289.389,751.146c.193.1.361.168.376.138s-.131-.138-.322-.238-.117-.029-.138,0S289.2,751.041,289.389,751.146Z" transform="translate(-259.328 -653.843)"/><path class="f" d="M293.46,767.542a4.863,4.863,0,0,0,1.734-.326c.4-.286,2.049-.628,2.15-.169s2,2.28.5,2.293a12.741,12.741,0,0,1-3.894-.478C293.545,768.618,293.46,767.542,293.46,767.542Z" transform="translate(-262.944 -667.492)"/><path class="g" d="M297.868,773.679a12.749,12.749,0,0,1-3.9-.478c-.306-.186-.427-.852-.467-1.161h-.045s.085,1.075.486,1.319a12.739,12.739,0,0,0,3.894.478c.435,0,.584-.158.576-.387C298.354,773.591,298.19,773.676,297.868,773.679Z" transform="translate(-262.944 -671.991)"/><ellipse class="a" cx="45.364" cy="2.057" rx="45.364" ry="2.057" transform="translate(38.967 107.283)"/><path class="h" d="M619.606,389.391s2.892,5.471,3.116,6.252a1.055,1.055,0,0,0,.975.779s2.881.689,3.569.781,6.657.6,6.657.6,1.515.047,1.7-.5c.168-.5,3.094-3.152,4.788-.841a1.684,1.684,0,0,1,.245,1.5c-.311.991-.95,2.566-1.636,1.586-.964-1.377-2.085-.99-2.085-.256s-1.542.461-2.046.565c-.275.057-1.223.308-2.042.529a14.88,14.88,0,0,1-2.908.483,17.569,17.569,0,0,1-4.874-.127,13.227,13.227,0,0,0-3.58-.5,1.177,1.177,0,0,1-.7-.251,10.894,10.894,0,0,1-2.651-3.014c-1.194-2.066-3.649-6.343-3.484-7.582S619.606,389.391,619.606,389.391Z" transform="translate(-539.896 -341.561)"/><path class="i" d="M619.606,389.391s2.892,5.471,3.116,6.252a1.055,1.055,0,0,0,.975.779s2.881.689,3.569.781,6.657.6,6.657.6,1.515.047,1.7-.5c.168-.5,3.094-3.152,4.788-.841a1.684,1.684,0,0,1,.245,1.5c-.311.991-.95,2.566-1.636,1.586-.964-1.377-2.085-.99-2.085-.256s-1.542.461-2.046.565c-.275.057-1.223.308-2.042.529a14.88,14.88,0,0,1-2.908.483,17.569,17.569,0,0,1-4.874-.127,13.227,13.227,0,0,0-3.58-.5,1.177,1.177,0,0,1-.7-.251,10.894,10.894,0,0,1-2.651-3.014c-1.194-2.066-3.649-6.343-3.484-7.582S619.606,389.391,619.606,389.391Z" transform="translate(-539.896 -341.561)"/><path class="j" d="M828.5,537.787c-1.31,1.424-2.273,1.984-2.228.482.138-4.544-7.849-25.091-7.849-25.091l2.362-.179A61.177,61.177,0,0,1,828.5,537.787Z" transform="translate(-715.612 -448.623)"/><path class="k" d="M831.132,693.8a11.361,11.361,0,0,1-22.679.964c-.016-.185-.029-.369-.034-.551v-.01q-.008-.205-.008-.413a11.361,11.361,0,1,1,22.722,0Z" transform="translate(-706.981 -594.721)"/><circle class="l" cx="6.197" cy="6.197" r="6.197" transform="translate(106.593 92.876)"/><circle class="k" cx="3.718" cy="3.718" r="3.718" transform="translate(109.072 95.355)"/><path class="k" d="M502.947,556.034l-27.357.551v-4.032c.245-3.246,3.58-4.385,6.61-4.741a18.975,18.975,0,0,1,7.069.53,48.475,48.475,0,0,0,11.324,1.863,1.736,1.736,0,0,1,1.68,1.413c.087.461.172.964.252,1.46.061.388.118.771.171,1.128C502.847,555.233,502.947,556.034,502.947,556.034Z" transform="translate(-419.993 -478.536)"/><path class="b" d="M463,548.412H406.167a2.238,2.238,0,0,1-2.073-1.34,1.555,1.555,0,0,1,.81-2.059,6.438,6.438,0,0,0,2.8-3.423,34.077,34.077,0,0,0,1.431-8.968c.24-4.527,1.878-6.764,3.649-7.849h0a7.226,7.226,0,0,1,4.8-.874l23.043.185a4.425,4.425,0,0,1,1.125.734c2.053,1.911-.941,4.407-.941,4.407a10.808,10.808,0,0,0-1.562,13.679h11.791a10.85,10.85,0,0,0,6.176-1.891,6.222,6.222,0,0,0,2.448-2.811c.182-.493.366-.985.587-1.461,3.093-6.708-.638-17.62-2.247-21.7-.4-1.015-.668-1.607-.668-1.607l3.7-.275,2.341-.178h.023a61.226,61.226,0,0,1,7.712,24.788c.061.638.11,1.256.15,1.849a8.263,8.263,0,0,1-8.256,8.8Z" transform="translate(-358.219 -448.606)"/><path class="d" d="M502.7,587.938H475.59V586.81h26.936C502.586,587.192,502.644,587.574,502.7,587.938Z" transform="translate(-419.993 -512.269)"/><path class="d" d="M497.063,592.645H468.317a.554.554,0,0,1-.218-.044,7.224,7.224,0,0,1,4.8-.875l23.043.185A4.425,4.425,0,0,1,497.063,592.645Z" transform="translate(-413.534 -516.425)"/><rect class="l" width="40.17" height="1.128" rx="0.564" transform="translate(44.162 74.81)"/><path class="d" d="M828.5,537.787c-1.31,1.424-2.273,1.984-2.228.482.138-4.544-7.849-25.091-7.849-25.091l2.362-.179A61.177,61.177,0,0,1,828.5,537.787Z" transform="translate(-715.612 -448.623)"/><path class="d" d="M831.123,692.634c-1.356.325-3.03.656-5.1.964q-1.153.169-2.479.325c-2.111.251-4.553.469-7.373.638q-1.2.072-2.488.131-2.417.11-5.174.168l-.034-.551v-.01c2.568-1.037,6.61-3.8,7.26-11.01a11.366,11.366,0,0,1,15.385,9.356Z" transform="translate(-707.041 -594.806)"/><path class="b" d="M792.92,637s13.041-1.416,8.549-21.286c0,0,6.443,5.908,10.452,9.191s11.154,7.81,11.154,7.81S818.809,636.7,792.92,637Z" transform="translate(-693.624 -537.189)"/><path class="m" d="M792.92,637s13.041-1.416,8.549-21.286c0,0,6.443,5.908,10.452,9.191s11.154,7.81,11.154,7.81S818.809,636.7,792.92,637Z" transform="translate(-693.624 -537.189)"/><circle class="k" cx="11.361" cy="11.361" r="11.361" transform="translate(53.095 87.712)"/><circle class="l" cx="6.197" cy="6.197" r="6.197" transform="translate(58.259 92.876)"/><circle class="k" cx="3.718" cy="3.718" r="3.718" transform="translate(60.738 95.355)"/><path class="d" d="M469.447,656.993a13.016,13.016,0,1,0-26.027,0q0,.465.032.921h25.963Q469.447,657.459,469.447,656.993Z" transform="translate(-392.253 -561.333)"/><path class="b" d="M471.983,658.411a12.534,12.534,0,1,0-25.063,0c0,.3.011.594.03.887h25C471.972,659.005,471.983,658.71,471.983,658.411Z" transform="translate(-395.271 -562.98)"/><path class="m" d="M471.983,658.411c0,.205,0,.413-.015.611,0,.092-.01.183-.015.275h-25c0-.092-.011-.183-.015-.275-.01-.2-.015-.413-.015-.611a12.534,12.534,0,1,1,25.063,0Z" transform="translate(-395.271 -562.98)"/><path class="d" d="M472.062,743c0,.092-.01.183-.015.275h-25c0-.092-.011-.183-.015-.275Z" transform="translate(-395.366 -646.95)"/><rect class="d" width="33.667" height="2.937" rx="1.469" transform="translate(46.167 96.594)"/><rect class="l" width="33.667" height="2.937" rx="1.469" transform="translate(46.167 96.318)"/><ellipse class="d" cx="1.65" cy="4.153" rx="1.65" ry="4.153" transform="translate(105.719 70.272) rotate(-24.33)"/><ellipse class="l" cx="1.65" cy="4.153" rx="1.65" ry="4.153" transform="translate(105.856 70.134) rotate(-24.33)"/><path class="d" d="M797.625,513v2.158h-4.2a7.251,7.251,0,0,1-1.168-.094c-.4-1.015-.668-1.607-.668-1.607l3.7-.275Z" transform="translate(-692.477 -448.623)"/><path class="b" d="M767.3,445.851h-4.2a6.433,6.433,0,0,1-6.679-6.165v-.571a6.437,6.437,0,0,1,6.679-6.164l4.2.381Z" transform="translate(-662.15 -379.597)"/><path class="b" d="M756.93,458.588s2.513,1.343,1.067,3.615c0,0-1.774,2.908-4.562,2.633l-1.015-6.248A21.118,21.118,0,0,1,756.93,458.588Z" transform="translate(-658.701 -401.585)"/><path class="d" d="M755.982,458.455a2.672,2.672,0,0,1,2.044,1.077,2.2,2.2,0,0,1-.008,2.659s-1.774,2.908-4.562,2.633l-1.015-6.248A29.631,29.631,0,0,1,755.982,458.455Z" transform="translate(-658.718 -401.574)"/><path class="d" d="M762.56,390.17h.81a2.564,2.564,0,0,1,2.564,2.564v7.392a2.564,2.564,0,0,1-2.564,2.564h-.81Z" transform="translate(-657.549 -336.435)"/><path class="l" d="M763.56,390.17h.81a2.564,2.564,0,0,1,2.564,2.564v7.392a2.564,2.564,0,0,1-2.564,2.564h-.81Z" transform="translate(-658.411 -336.435)"/><path class="h" d="M618.88,513.142s.649.237,1.515.567a34.3,34.3,0,0,1,3.994,1.728,30.4,30.4,0,0,0,5.074,1.611,16.526,16.526,0,0,0,4.277.528c1.465-.014,3.24-.028,3.731-.028a1.556,1.556,0,0,1,.256.019c.515.086.495.431.482.514v.018c-3.03,1.836-6.7,10.053-6.931,11.43a29.416,29.416,0,0,1-2.432,5.265c-.251.459-.413.749-.413.749l.918,1.055,2.662,1.194,2.524,1.1a17.8,17.8,0,0,0,2.709,0c.045-.138.045-1.56.045-1.56a7.506,7.506,0,0,1-.92-.7,15.184,15.184,0,0,1-1.7-1.734c-1.468-1.745,1.469-5.1,1.469-5.1l5.646-7.344s.459-.826,2.662-4.131,0-5.1,0-5.1l-3.878-1.61c-6.726-2.517-14.838-4.535-14.838-4.535l-.116-.015-1.72-.215Z" transform="translate(-543.55 -443.328)"/><path class="n" d="M690.769,713.819s.482.569.121.62a5.991,5.991,0,0,1-1.308-.154l-6.008-3.167s-.654-.465-.808.448-.259.826-.259.826-.792,1.7,0,2.056,5.548,1.747,5.548,1.747,6.9,1.567,7.557-.241-1.171-1.5-1.171-1.5-2.272-.551-3.048-1.653C691.389,712.8,690.27,713.114,690.769,713.819Z" transform="translate(-598.112 -619.355)"/><path class="i" d="M644.447,513.235l-3.878-1.61c-6.726-2.517-14.838-4.535-14.838-4.535l-.116-.015-1.72-.215-5.016,6.282s.649.237,1.515.567a34.257,34.257,0,0,1,3.994,1.728,30.419,30.419,0,0,0,5.074,1.611,16.531,16.531,0,0,0,4.277.528c1.465-.014,3.24-.028,3.731-.028a1.537,1.537,0,0,1,.256.019c.515.085.495.431.482.514v.018c-3.03,1.836-6.7,10.053-6.931,11.43a29.42,29.42,0,0,1-2.432,5.265l-.1.185c-.2-.033-.449.039-.537.559-.155.912-.259.826-.259.826s-.792,1.7,0,2.056,5.544,1.747,5.544,1.747,6.9,1.567,7.558-.241-1.171-1.5-1.171-1.5-2.272-.551-3.047-1.653a1.519,1.519,0,0,0-.2.074c-.081-.066-.168-.138-.26-.218a15.218,15.218,0,0,1-1.7-1.734c-1.468-1.745,1.469-5.1,1.469-5.1l5.646-7.344s.459-.826,2.662-4.131S644.447,513.235,644.447,513.235Z" transform="translate(-543.55 -443.329)"/><path class="h" d="M585.3,283.266l.209.264.117.147.73.918s1.742.559,3.269.921c1.591.376,2.947.54,1.869-.359a2.362,2.362,0,0,1-.469-2.493,10.314,10.314,0,0,1,.876-2.217q.081-.157.161-.306a18.37,18.37,0,0,1,1.135-1.833,32.6,32.6,0,0,0-3.042-1.869c-1.261-.653-2.3-.938-1.64.354a3.022,3.022,0,0,1-.11,2.643c-.03.07-.063.138-.1.211a9.462,9.462,0,0,1-1.3,1.913A15.092,15.092,0,0,1,585.3,283.266Z" transform="translate(-514.595 -244.164)"/><path class="n" d="M568.442,436.24l.934.852.9,3.47h-1.505L567.11,438.4Z" transform="translate(-489.014 -376.161)"/><path class="d" d="M567.11,438.4l1.005,1.307.657.855h1.505l-.154-.594-.657-2.528-.091-.348-.934-.852-1.275,2.068Z" transform="translate(-489.014 -376.161)"/><path class="d" d="M567.11,438.4l1.005,1.307.657.855h1.505l-.154-.594-.657-2.528-.091-.348-.934-.852-1.275,2.068Z" transform="translate(-489.014 -376.161)"/><path class="h" d="M602.64,517.226s.649.237,1.515.567a34.306,34.306,0,0,1,3.994,1.728,30.393,30.393,0,0,0,5.075,1.611,16.521,16.521,0,0,0,4.277.529c1.465-.014,3.24-.027,3.731-.027a1.537,1.537,0,0,1,.256.019c.515.085.494.431.482.514v.018c-3.029,1.836-6.7,10.053-6.931,11.43a29.4,29.4,0,0,1-2.432,5.265c-.251.458-.413.749-.413.749l.919,1.055,2.661,1.193,2.524,1.1a17.785,17.785,0,0,0,2.709,0c.045-.138.045-1.56.045-1.56a7.527,7.527,0,0,1-.92-.7,15.222,15.222,0,0,1-1.7-1.734c-1.468-1.745,1.469-5.1,1.469-5.1l5.646-7.344s.458-.826,2.662-4.131,0-5.1,0-5.1l-3.534-2.02c-5.508-3.351-13.267-5.278-13.267-5.278l-.116-.015-1.72-.215Z" transform="translate(-529.547 -445.855)"/><path class="d" d="M672,721.752l.918,1.055L675.58,724l2.524,1.1a17.785,17.785,0,0,0,2.709,0c.045-.138.045-1.56.045-1.56a7.518,7.518,0,0,1-.92-.7c-.285.153-.609.439-.3.883,0,0,.482.567.121.62a5.913,5.913,0,0,1-1.308-.154l-6.008-3.167-.035-.023Z" transform="translate(-589.355 -627.98)"/><path class="n" d="M674.529,725.124s.482.567.12.62a5.876,5.876,0,0,1-1.308-.156l-6.007-3.167s-.654-.464-.81.448-.257.826-.257.826-.792,1.7,0,2.057,5.543,1.742,5.543,1.742,6.9,1.566,7.556-.241-1.17-1.5-1.17-1.5-2.272-.551-3.046-1.653C675.153,724.107,674.029,724.417,674.529,725.124Z" transform="translate(-584.108 -629.103)"/><path class="d" d="M605.3,279.077a6.385,6.385,0,0,0,3.047,1.423,5.074,5.074,0,0,0,.8-.063,18.613,18.613,0,0,1,1.3-2.139s-6.059-4.223-4.682-1.515C606.214,277.683,605.767,278.125,605.3,279.077Z" transform="translate(-531.841 -244.153)"/><path class="h" d="M591.43,240.393a4.949,4.949,0,0,0,2.26,4.159,4.587,4.587,0,0,0,.485.275,4.958,4.958,0,1,0-2.744-4.437Z" transform="translate(-519.881 -209.279)"/><path class="d" d="M602.64,517.226s.649.237,1.515.567a7.312,7.312,0,0,1,1.334-1.026c.505-.185,2.158-1.148,2.112-1.424a2.415,2.415,0,0,1,1.33-1.515c.642-.185.275-1.147.275-1.147s1.239-.459,1.548-1.1,1.253-1.469.931-1.423a1,1,0,0,1-.391-.153l-1.72-.215Z" transform="translate(-529.547 -445.855)"/><path class="n" d="M564.256,502.282s2.112,1.745,2.21,2.524,1.508.735,1.508.735a20.907,20.907,0,0,1,2.616-2.2c.5-.183,2.158-1.149,2.112-1.424a2.415,2.415,0,0,1,1.33-1.515c.642-.184.276-1.147.276-1.147s1.239-.459,1.548-1.1,1.253-1.469.931-1.423a2.335,2.335,0,0,1-.751-.357c-.453-.275-1.027-.649-1.5-.964-.5-.336-.875-.6-.875-.6s-.216-.039-.587-.092c-2-.289-8.506-1.027-10.017,1.377a3.646,3.646,0,0,0-.448,1.029C561.939,499.679,564.256,502.282,564.256,502.282Z" transform="translate(-494.928 -432.563)"/><path class="d" d="M572.1,511.37a10.892,10.892,0,0,1-2.961,1.217C568.33,512.587,572.1,511.37,572.1,511.37Z" transform="translate(-500.558 -447.217)"/><path class="d" d="M581.651,517.953s-3.211,1.08-3.211,1.928S578.14,517.609,581.651,517.953Z" transform="translate(-508.674 -452.871)"/><path class="d" d="M657.346,482.81l-.046.062A.139.139,0,0,0,657.346,482.81Z" transform="translate(-576.68 -422.59)"/><path class="d" d="M585.3,318.776l.209.264.117.147.73.919s1.742.559,3.269.921c1.591.376,2.947.54,1.869-.359a2.362,2.362,0,0,1-.469-2.493l-.048-.062s.048.928-.5.946c-.741.023-.75-.226-1.433-.514a4.609,4.609,0,0,1-2.035-1.476A15.086,15.086,0,0,1,585.3,318.776Z" transform="translate(-514.595 -279.674)"/><path class="d" d="M563.39,486.261a1.591,1.591,0,0,0,1.182.027c1.423-.46,3.673-1.567,4.728-1.082a14.17,14.17,0,0,0,5.508.051c.313-.081.492-.182.464-.3a.827.827,0,0,1,.048-.4,7.434,7.434,0,0,1,.839-1.563l-.091-.348-.934-.852-1.275,2.066c-2-.289-8.506-1.027-10.017,1.377A3.649,3.649,0,0,0,563.39,486.261Z" transform="translate(-495.702 -421.711)"/><path class="o" d="M555.508,343.64a1.562,1.562,0,0,0,1.973.826c1.423-.459,3.673-1.567,4.728-1.082s6.106.347,5.968-.249,1.239-2.479,1.239-2.479-.752-.138-1.217-2.593c-.069-.358-.131-.766-.183-1.228a15.626,15.626,0,0,1-.08-2.856,6.743,6.743,0,0,1,1.117-3.743,3.09,3.09,0,0,0,.183-3.488c-.577-1.059-2.906-3.993-2.937-5.3a5.328,5.328,0,0,0-1.164-2.567s.048.928-.5.946c-.741.023-.75-.226-1.433-.514-1-.424-2.035-1.172-2.1-1.672a5.046,5.046,0,0,0-5.127,4.058c-.918,4.269-.6,6.61-.459,7.115s1.33,7.023.366,9.777A9.489,9.489,0,0,0,555.508,343.64Z" transform="translate(-488.75 -280.164)"/><path class="d" d="M589.831,412.05a10.8,10.8,0,0,0,2.983,3.26,20.667,20.667,0,0,1,2.41.161c-.069-.358-.138-.766-.183-1.228a15.632,15.632,0,0,1-.08-2.856,1.04,1.04,0,0,1-.54-.666c-.23-.781-2.278-4.5-2.278-4.5s-4.791-1.239-4.958,0S588.637,409.984,589.831,412.05Z" transform="translate(-516.211 -356.073)"/><path class="h" d="M586.908,389.391s2.892,5.471,3.116,6.252a1.055,1.055,0,0,0,.975.779s2.881.689,3.569.781,6.661.6,6.661.6,1.515.047,1.7-.5c.168-.5,3.094-3.152,4.788-.841a1.684,1.684,0,0,1,.245,1.5c-.311.991-.95,2.566-1.636,1.586-.964-1.377-2.085-.99-2.085-.256s-1.542.461-2.046.565c-.276.057-1.223.308-2.042.529a14.877,14.877,0,0,1-2.915.483,17.571,17.571,0,0,1-4.874-.127,13.213,13.213,0,0,0-3.58-.5,1.177,1.177,0,0,1-.7-.251,10.892,10.892,0,0,1-2.65-3.014c-1.194-2.066-3.649-6.343-3.484-7.582S586.908,389.391,586.908,389.391Z" transform="translate(-511.7 -341.561)"/><path class="d" d="M583.427,333.569a37.082,37.082,0,0,1,2.267,4.407c.717,1.836,1.589,5.05,1.589,5.05l-4.316-.505-.366-.6s-3.082,1.928-2.714,2.754a7.217,7.217,0,0,1-.734-3.58c.092-2.341-.332-6.519,0-7.529S582.412,332.788,583.427,333.569Z" transform="translate(-509.182 -293.32)"/><path class="o" d="M579.164,339.1a7.219,7.219,0,0,0,.734,3.581c-.368-.826,2.714-2.754,2.714-2.754l.362.6,4.314.505s-.872-3.214-1.589-5.05a28.1,28.1,0,0,0-1.476-3.03c-.442-.8-.79-1.377-.79-1.377a4.862,4.862,0,0,0-2.859-.664,3.685,3.685,0,0,0-.467.056,1.3,1.3,0,0,0-.894.486.633.633,0,0,0-.055.121C578.828,332.585,579.252,336.763,579.164,339.1Z" transform="translate(-509.188 -291.602)"/><path class="d" d="M566,437s1.825,2.513,2.376,2.582C568.371,439.587,566.03,439.065,566,437Z" transform="translate(-497.953 -383.089)"/><path class="d" d="M566,463s3.443,3.477,4.544,3.512S566,463,566,463Z" transform="translate(-497.953 -405.508)"/><path class="d" d="M566,473.54s2.2,2.582,2.341,2.582S565.959,475.227,566,473.54Z" transform="translate(-497.95 -414.597)"/><path class="d" d="M580.33,249.055a3.056,3.056,0,0,0,1.011-.339c.118-.062.235-.131.35-.2a8.265,8.265,0,0,0,1.256-1.033,5.347,5.347,0,0,0,1.527-2.132,3.847,3.847,0,0,0,.129-.595c.157-1.059.025-2.228.782-2.948a1.8,1.8,0,0,1,.483-.326c1.074-.511,2.632-.18,3.433-1.1.51-.584.5-1.4.888-2.03a4.27,4.27,0,0,1,.763-.767,4.957,4.957,0,1,0-6.834,6.885c-.03.07-.063.138-.1.211a13.133,13.133,0,0,1-3.006,3.619l.209.264A1.349,1.349,0,0,0,580.33,249.055Z" transform="translate(-510.309 -209.202)"/><path class="p" d="M430.943,214.015c-.932,1.069-2.892.446-3.918,1.425-.9.858-.543,2.355-.91,3.543a5.357,5.357,0,0,1-1.527,2.132c-.923.9-2.1,1.809-3.364,1.552-.748-.153-1.48-.712-2.2-.454a2.576,2.576,0,0,0-.885.715,6.1,6.1,0,0,1-3.384,1.75,1.447,1.447,0,0,1-.767-.036c-.386-.157-.594-.578-.945-.8-.689-.441-1.573.011-2.287.4a16.006,16.006,0,0,1-13.148.946l1.114-.551c-.237-.483-.877-.589-1.285-.943-.84-.729-.346-2.185.543-2.853s2.038-.9,2.958-1.524a.768.768,0,0,0,.4-.519.826.826,0,0,0-.15-.46,4.8,4.8,0,0,1-.923-2.778c.168-1.515,1.822-2.446,3.341-2.552s3.023.351,4.544.377a2.979,2.979,0,0,0,1.6-.329,4.842,4.842,0,0,0,1.392-1.81,7.391,7.391,0,0,1,2.961-2.729c1.377-.7,2.936-.939,4.368-1.515a33.357,33.357,0,0,1,4.323-1.888,8.495,8.495,0,0,1,6.519,1.414c.924.6,3.875,2.521,3.856,3.751-.015.73-.964,1.125-1.323,1.7C431.44,212.62,431.453,213.431,430.943,214.015Z" transform="translate(-352.226 -182.976)"/><g class="q" transform="translate(44.776 26.759)"><path d="M421.4,287.039a.839.839,0,0,1,.15.46.467.467,0,0,1-.048.167,5.806,5.806,0,0,1-.894-2.265A8.757,8.757,0,0,0,421.4,287.039Z" transform="translate(-417.36 -279.125)"/><path d="M397.306,333.811c.406.354,1.047.46,1.285.943l-.394.2a4.429,4.429,0,0,1-.753-.45,1.3,1.3,0,0,1-.43-1.07A1.183,1.183,0,0,0,397.306,333.811Z" transform="translate(-397.01 -320.54)"/><path d="M414.411,253.65c.715-.394,1.6-.846,2.287-.4.35.224.559.646.945.8a1.442,1.442,0,0,0,.766.036,6.106,6.106,0,0,0,3.385-1.75,2.535,2.535,0,0,1,.885-.715c.719-.258,1.451.3,2.2.454,1.261.258,2.44-.654,3.364-1.552a5.343,5.343,0,0,0,1.526-2.132c.369-1.188.011-2.685.912-3.543,1.029-.979,2.984-.357,3.918-1.425.508-.584.5-1.395.888-2.03.331-.536,1.187-.916,1.308-1.562a1.2,1.2,0,0,1,.153.551c-.015.73-.964,1.125-1.323,1.7-.391.635-.38,1.446-.888,2.03-.934,1.069-2.892.446-3.918,1.425-.9.858-.543,2.355-.912,3.543a5.352,5.352,0,0,1-1.526,2.132c-.924.9-2.1,1.81-3.364,1.552-.749-.153-1.482-.712-2.2-.454a2.551,2.551,0,0,0-.885.715,6.106,6.106,0,0,1-3.385,1.75,1.442,1.442,0,0,1-.766-.036c-.386-.157-.595-.578-.945-.8-.688-.441-1.573.011-2.287.4a16.006,16.006,0,0,1-13.148.946l.77-.381A16.036,16.036,0,0,0,414.411,253.65Z" transform="translate(-400.795 -239.83)"/></g><path class="d" d="M739.982,594.648l1.158-.56v-.219a6.445,6.445,0,0,0-1.64.26C740.015,594.22,739.994,594.566,739.982,594.648Z" transform="translate(-647.56 -518.338)"/><ellipse class="b" cx="2.79" cy="3.395" rx="2.79" ry="3.395" transform="translate(90.638 56.858)"/><path class="r" d="M363.039,405.42l-4.485,4.423-14.744-.257,4.054-4.166Z" transform="translate(-296.464 -349.585)"/><path class="s" d="M455.365,420.551V405.42l-4.485,4.423V424.65Z" transform="translate(-388.79 -349.585)"/><path class="r" d="M343.81,435.67v15.064h14.744V435.927Z" transform="translate(-296.464 -375.669)"/><path class="t" d="M343.81,435.67v15.064h14.744V435.927Z" transform="translate(-296.464 -375.669)"/><path class="l" d="M364.565,455.862,353.6,453.98l-1.429,7.2,11.289,2.074Z" transform="translate(-303.673 -391.458)"/><path class="b" d="M379.136,472.608l-7.372-1.158-.185.961,7.372,1.25Z" transform="translate(-320.41 -406.522)"/><path class="b" d="M384.318,490.979l-4.193-.609-.185,1.067,4.378.614Z" transform="translate(-327.619 -422.837)"/><path class="k" d="M461.812,425.787l-.2-5.957-1.153,1.137.2,5.971Z" transform="translate(-397.051 -362.011)"/><path class="k" d="M356.6,416.49l14.169.191.476.269-1.153,1.137-.4-.234-14.034-.4Z" transform="translate(-306.683 -359.13)"/></g></svg>