<svg xmlns="http://www.w3.org/2000/svg" xmlns:xlink="http://www.w3.org/1999/xlink" viewBox="0 0 141.88 112.795"><defs><style>.a,.b{fill:#6a4dff;}.a,.e,.p,.q{opacity:0.1;}.c{fill:#444053;}.d{fill:#d5d6db;}.f,.h{fill:#fff;}.f{opacity:0.3;}.g{fill:#3a3768;}.h{opacity:0.45;}.i{fill:url(#a);}.j{fill:#be6f72;}.k{fill:#3e373a;}.l{fill:#4b4b5b;}.m{opacity:0.02;}.n{fill:#e7c7ca;}.o{fill:#c3c7d9;}.q{fill:none;stroke:#000;stroke-miterlimit:10;}.r{fill:#ffd037;}.s{fill:#65617d;}.t{fill:#9d9cb5;}</style><linearGradient id="a" x1="0.5" y1="1" x2="0.5" gradientUnits="objectBoundingBox"><stop offset="0" stop-color="gray" stop-opacity="0.251"/><stop offset="0.54" stop-color="gray" stop-opacity="0.122"/><stop offset="1" stop-color="gray" stop-opacity="0.102"/></linearGradient></defs><g transform="translate(0 -0.008)"><path class="a" d="M183.248,84.891c-8.977-.312-17.529-3.21-25.693-6.381S141.3,71.826,132.54,70.146c-5.636-1.081-12.082-1.233-16.622,1.788-4.371,2.913-5.783,7.927-6.542,12.585-.571,3.5-.907,7.191.659,10.471,1.086,2.278,3.016,4.192,4.349,6.381,4.643,7.59,1.362,16.95-3.669,24.362-2.358,3.478-5.1,6.8-6.918,10.495s-2.663,7.941-1.071,11.717c1.58,3.745,5.343,6.553,9.418,8.529,8.28,4.016,18.032,5.164,27.549,5.815,21.061,1.441,42.232.817,63.348.193a186,186,0,0,0,23.351-1.674c4.27-.671,8.676-1.735,11.777-4.307a9.864,9.864,0,0,0,2.273-12.883c-4.423-6.865-16.645-8.57-19.741-15.938-1.7-4.055.047-8.571,2.519-12.333,5.3-8.067,14.194-15.146,14.663-24.367.322-6.335-3.953-12.677-10.561-15.674-6.926-3.153-16.533-2.753-21.64,2.447C200.42,83.11,191.173,85.165,183.248,84.891Z" transform="translate(-100.04 -65.823)"/><path class="b" d="M111.356,438.642l-47.478-.232L59.16,427.345l16.681-1.211L72.934,414l32.994-4.276L74.334,398.743l2.791-.663,50.8,8.288-2.8,18.933-4,10.4Z" transform="translate(-50.954 -342.855)"/><path class="b" d="M187,698.559a5.447,5.447,0,0,1,4.661,1.592s-1.282,1.01-4.039-.388Z" transform="translate(-173.348 -607.638)"/><path class="b" d="M177.369,698.51a5.433,5.433,0,0,0-.943,4.834s1.515-.606,1.68-3.694Z" transform="translate(-164.023 -607.635)"/><path class="b" d="M172.76,666.807s1.165-2.137,5.826.854a2.616,2.616,0,0,1-2.68,1.321A3.159,3.159,0,0,1,172.76,666.807Z" transform="translate(-161.083 -579.693)"/><path class="b" d="M154.122,670.276s-2.418-.277-2.652,5.257a2.617,2.617,0,0,0,2.622-1.433A3.154,3.154,0,0,0,154.122,670.276Z" transform="translate(-142.746 -583.315)"/><path class="b" d="M160.44,625.732s1.359-3.767,6.292-1.088c0,0-1.126,3.457-5.787,2.369Z" transform="translate(-150.472 -543.187)"/><path class="b" d="M149.52,586.826s2.563-3.806,7.108-.277c0,0-1.592,3.573-6.719,1.631Z" transform="translate(-141.067 -509.913)"/><path class="b" d="M145.6,549.57s2.991-3.5,7.49,0c0,0-2.835,3.068-7.49.893Z" transform="translate(-137.691 -478.016)"/><path class="b" d="M142.24,511.248s3.029-3.651,7.341-.194c0,0-3.418,3.224-7.341,1.049Z" transform="translate(-134.797 -444.9)"/><path class="b" d="M144.2,472.091s3.19-4.7,7.224-1.515c0,0-3.418,4.039-7.224,2.408Z" transform="translate(-136.485 -410.365)"/><path class="b" d="M149.52,434.327s3.379-4.661,7.3-1.088c0,0-4,4.039-7.3,1.942Z" transform="translate(-141.067 -378)"/><path class="b" d="M156.555,395.746s4-4.38,7.49-2.635c0,0-4.168,4.652-7.665,3.8Z" transform="translate(-146.975 -344.244)"/><path class="b" d="M165.687,357.218s4.616-5.365,7.3-3.573c0,0-3.4,4.161-7.629,4.577Z" transform="translate(-154.71 -310.291)"/><path class="b" d="M178.9,321.906s4.041-4.38,6.992-3.293c0,0-3.457,4.544-7.535,4.661Z" transform="translate(-165.907 -280.285)"/><path class="b" d="M194.234,285.646s4.466-4.195,6.408-3.457c0,0-3.224,4.661-6.6,4.389Z" transform="translate(-179.412 -248.988)"/><path class="b" d="M208.32,245.77s3.845-5.012,5.944-4.623c0,0-2.332,4.468-5.944,5.132Z" transform="translate(-191.711 -213.695)"/><path class="b" d="M221.43,206.263s3.4-3.841,5.235-3.833c0,0-2.683,5.132-5.375,5.085Z" transform="translate(-202.882 -180.367)"/><path class="b" d="M227.988,150.721l3.283-8s.164,7.232-3.7,9.485Z" transform="translate(-208.291 -128.939)"/><path class="b" d="M240.052,91.925s.544-6.682.194-7.225c0,0,2.347,5.555-.216,10.177Z" transform="translate(-219.022 -78.968)"/><path class="b" d="M124.7,635.17s-3.4-2.11-5.608,3.052c0,0,3.029,2.011,6.009-1.735Z" transform="translate(-114.858 -552.713)"/><path class="b" d="M110.23,594.282s-4.175-1.9-6.2,3.484c0,0,3.225,2.219,6.58-2.122Z" transform="translate(-101.887 -517.584)"/><path class="b" d="M97.69,551.88s-2.991-3.5-7.49,0c0,0,2.835,3.068,7.49.893Z" transform="translate(-89.975 -480.006)"/><path class="b" d="M95.921,511.248s-3.029-3.651-7.341-.194c0,0,3.418,3.224,7.341,1.049Z" transform="translate(-88.58 -444.9)"/><path class="b" d="M102.324,467.189s-2.125-5.264-6.744-3c0,0,2.5,4.668,6.555,3.874Z" transform="translate(-94.609 -405.33)"/><path class="b" d="M109.247,427.344s-2.113-5.356-6.8-2.873c0,0,2.869,4.909,6.589,3.7Z" transform="translate(-100.526 -371.043)"/><path class="b" d="M131.606,375.127s-.832-5.872-4.716-6.4c0,0,.824,6.192,4.193,7.456Z" transform="translate(-121.576 -323.599)"/><path class="b" d="M146.476,336.3s-.325-7.074-3.536-7.321c0,0,.108,5.37,3.174,8.323Z" transform="translate(-135.4 -289.363)"/><path class="b" d="M159.693,301.011s-.957-5.883-4.023-6.6c0,0,.38,5.7,3.719,8.045Z" transform="translate(-146.364 -259.588)"/><path class="b" d="M184.579,264.359s-.032-6.128-1.9-7.029c0,0-1.161,5.548,1.362,7.811Z" transform="translate(-169.393 -227.652)"/><path class="b" d="M195.206,229.409s-.262-6.31-2.2-7.2c0,0-.663,4.994,1.911,7.612Z" transform="translate(-178.453 -197.403)"/><path class="b" d="M212.778,194.346s-.011-5.132-1.4-6.336c0,0-1.376,5.622.673,7.368Z" transform="translate(-193.959 -167.947)"/><path class="b" d="M217.851,145.542,216.5,137s-1.83,7,1.411,10.084Z" transform="translate(-198.317 -124.013)"/><path class="b" d="M210.269,97.751s-3.457-5.743-3.386-6.381c0,0,.368,6.019,4.716,9.016Z" transform="translate(-190.472 -84.712)"/><path class="b" d="M204.8,70.4s-3.262-8.156-4.738-8.816a10.338,10.338,0,0,1,5.01,8.583Z" transform="translate(-184.596 -59.055)"/><path class="c" d="M219.783,137.756l-.223-.068c2.753-8.979,3.44-14.7,1.935-16.139l.16-.169C223.251,122.895,222.6,128.557,219.783,137.756Z" transform="translate(-201.392 -110.56)"/><path class="c" d="M164.46,256.389l-.33-.118c.293-.823.608-1.658.938-2.48,2.874-7.163,5.321-13.827,6.89-18.942l.287-.139c-1.572,5.125-3.975,12.044-6.852,19.217C165.064,254.734,164.75,255.565,164.46,256.389Z" transform="translate(-153.65 -208.169)"/><path class="c" d="M150.491,435.58a45.373,45.373,0,0,1-7.618-13.653,50.516,50.516,0,0,1-3.006-15.644,59.036,59.036,0,0,1,3.587-20.9l.261.305c-5.388,15.2-3.247,28.222-.408,36.065a44.949,44.949,0,0,0,7.533,13.522Z" transform="translate(-132.735 -337.94)"/><path class="d" d="M537.544,670.36S534.4,674.2,536.9,680l-25.107,10.889-2.409.505-1.11-4.855.742-6.127v-3.349Z" transform="translate(-450.054 -583.39)"/><path class="b" d="M59.16,569.725l34.75-6.335,46.045,7.335-28.6,10.3Z" transform="translate(-50.954 -485.235)"/><path class="b" d="M59.16,569.725l34.75-6.335,46.045,7.335-28.6,10.3Z" transform="translate(-50.954 -485.235)"/><path class="b" d="M139.617,652.47s-3.25,6.157.5,11.845l51.531,11.166s-3.2-4.9.165-11.713Z" transform="translate(-131.411 -567.981)"/><path class="e" d="M139.617,652.47s-3.25,6.157.5,11.845l51.531,11.166s-3.2-4.9.165-11.713Z" transform="translate(-131.411 -567.981)"/><path class="e" d="M153.684,667.86s-1.857,4.505,0,7.421" transform="translate(-143.943 -581.237)"/><path class="b" d="M202.841,742.136,231.61,729.86s1.609.347.569,1.526S203.4,743.315,203.4,743.315L151.31,730.97Z" transform="translate(-142.609 -634.637)"/><path class="e" d="M202.841,742.136,231.61,729.86s1.609.347.569,1.526S203.4,743.315,203.4,743.315L151.31,730.97Z" transform="translate(-142.609 -634.637)"/><path class="e" d="M498.154,742.86s-2.774,3.329,0,8.323" transform="translate(-440.28 -645.833)"/><rect class="e" width="13.118" height="0.139" transform="translate(58.862 101.122) rotate(-18.45)"/><rect class="e" width="15.984" height="0.139" transform="translate(58.857 102.238) rotate(-20.82)"/><rect class="e" width="18.526" height="0.139" transform="translate(58.941 103.555) rotate(-22.26)"/><rect class="e" width="21.325" height="0.139" transform="translate(59.141 104.716) rotate(-24.31)"/><rect class="e" width="23.324" height="0.139" transform="matrix(0.916, -0.401, 0.401, 0.916, 59.295, 105.28)"/><rect class="e" width="27.911" height="0.139" transform="translate(59.618 106.229) rotate(-23.36)"/><path class="f" d="M152.23,582.072l24.413-5.132,14.873,2.844-20,6.45Z" transform="translate(-131.114 -496.906)"/><path class="b" d="M552.6,659.69s1.262.509.522,1.3-29.125,9-29.125,9Z" transform="translate(-463.602 -574.2)"/><path class="d" d="M636.842,574.18s-3.143,3.837-.646,9.64l-25.107,10.889-2.409.508-1.11-4.855.753-6.125v-3.353Z" transform="translate(-535.58 -500.551)"/><path class="g" d="M158.46,473.544l34.749-6.334,46.047,7.335-28.6,10.3Z" transform="translate(-136.48 -402.396)"/><path class="g" d="M238.871,556.29s-3.251,6.157.494,11.845L290.9,579.3s-3.2-4.909.171-11.714Z" transform="translate(-216.897 -485.143)"/><path class="e" d="M238.871,556.29s-3.251,6.157.494,11.845L290.9,579.3s-3.2-4.909.171-11.714l-16.3-3.527Z" transform="translate(-216.897 -485.143)"/><path class="e" d="M252.978,571.68s-1.856,4.5,0,7.421" transform="translate(-229.464 -498.398)"/><path class="g" d="M302.131,645.956,330.9,633.68s1.608.347.567,1.526-28.783,11.929-28.783,11.929L250.6,634.79Z" transform="translate(-228.126 -551.798)"/><path class="e" d="M302.131,645.956,330.9,633.68s1.608.347.567,1.526-28.783,11.929-28.783,11.929L250.6,634.79Z" transform="translate(-228.126 -551.798)"/><path class="e" d="M597.444,646.68s-2.774,3.329,0,8.323" transform="translate(-525.797 -562.995)"/><rect class="e" width="13.118" height="0.139" transform="translate(72.636 87.782) rotate(-18.45)"/><rect class="e" width="15.984" height="0.139" transform="translate(72.633 88.898) rotate(-20.82)"/><rect class="e" width="18.526" height="0.139" transform="translate(72.714 90.213) rotate(-22.26)"/><rect class="e" width="21.325" height="0.139" transform="translate(72.916 91.374) rotate(-24.31)"/><rect class="e" width="23.324" height="0.139" transform="matrix(0.916, -0.401, 0.401, 0.916, 73.068, 91.937)"/><rect class="e" width="27.911" height="0.139" transform="translate(73.392 92.885) rotate(-23.36)"/><path class="h" d="M251.53,485.892l24.413-5.132,14.873,2.844-20,6.45Z" transform="translate(-216.64 -414.067)"/><path class="g" d="M651.929,563.51s1.261.509.522,1.294-29.121,9-29.121,9Z" transform="translate(-549.154 -491.361)"/><path class="d" d="M646.268,464.15s-3.145,6.89-.648,12.692l-25.107,7.837-2.4.509L617,480.333l.742-6.127v-3.353Z" transform="translate(-543.702 -405.784)"/><path class="b" d="M167.89,363.515l34.75-6.335,46.047,7.335-28.6,10.3Z" transform="translate(-144.602 -307.629)"/><path class="b" d="M248.323,446.26s-3.256,6.157.49,11.845l51.531,11.166s-3.2-4.909.169-11.713Z" transform="translate(-225.035 -390.375)"/><path class="e" d="M248.323,446.26s-3.256,6.157.49,11.845l51.531,11.166s-3.2-4.909.169-11.713Z" transform="translate(-225.035 -390.375)"/><path class="e" d="M262.414,461.65s-1.857,4.505,0,7.421" transform="translate(-237.591 -403.63)"/><path class="b" d="M311.571,542.816l28.769-9.224s1.609.347.569,1.526S312.126,544,312.126,544L260.04,531.65Z" transform="translate(-236.257 -463.921)"/><path class="e" d="M311.571,542.816l28.769-9.224s1.609.347.569,1.526S312.126,544,312.126,544L260.04,531.65Z" transform="translate(-236.257 -463.921)"/><path class="e" d="M606.884,536.65s-2.774,3.329,0,8.323" transform="translate(-533.928 -468.227)"/><rect class="e" width="13.118" height="0.139" transform="translate(73.946 72.519) rotate(-18.45)"/><rect class="e" width="15.984" height="0.139" transform="translate(73.942 73.636) rotate(-20.82)"/><rect class="e" width="18.526" height="0.139" transform="translate(74.022 74.951) rotate(-22.26)"/><rect class="e" width="21.325" height="0.139" transform="translate(74.226 76.111) rotate(-24.31)"/><rect class="e" width="23.324" height="0.139" transform="matrix(0.916, -0.401, 0.401, 0.916, 74.378, 76.675)"/><rect class="e" width="27.911" height="0.139" transform="translate(74.701 77.625) rotate(-23.36)"/><path class="f" d="M260.96,375.862l24.413-5.132,14.873,2.844-20,6.45Z" transform="translate(-224.762 -319.299)"/><path class="b" d="M661.359,453.48s1.262.509.522,1.3-29.121,9-29.121,9Z" transform="translate(-557.276 -396.594)"/><path class="b" d="M369.784,149.878s-5.271-.318-4.655,3.38a.9.9,0,0,0,.469.95s.01-.277.541-.182a2.365,2.365,0,0,0,.574.028,1.2,1.2,0,0,0,.7-.289h0a4.189,4.189,0,0,0,2.06-3.038s.427-.528.416-.664l-.893.38a1.6,1.6,0,0,1,.065,1.176s-.029-1.153-.2-1.126c-.035,0-.462.223-.462.223a2.632,2.632,0,0,1,.128,1.932s.15-1.379-.291-1.852l-.627.366a2.767,2.767,0,0,1,.2,2.1,3.933,3.933,0,0,0-.329-2.01l-.569.444a2.7,2.7,0,0,1,.225,1.921s-.046-1.684-.347-1.812a3.428,3.428,0,0,0-.573.619s.394.832.148,1.264c0,0-.148-1.122-.277-1.128a3.734,3.734,0,0,0-.547,1.248,2.7,2.7,0,0,1,.426-1.323,1.485,1.485,0,0,0-.757.393s.076-.526.881-.571a3.409,3.409,0,0,1,.519-.6,3.247,3.247,0,0,0-1.284.147,1.455,1.455,0,0,1,1.43-.277l.555-.458a4.787,4.787,0,0,0-1.5.015,1.825,1.825,0,0,1,1.649-.119l.612-.365a5.558,5.558,0,0,0-1.431-.123,2.2,2.2,0,0,1,1.61.025l.436-.2s-.656-.129-.849-.15-.2-.074-.2-.074a2.29,2.29,0,0,1,1.235.139A5.508,5.508,0,0,0,369.784,149.878Z" transform="translate(-326.726 -135.098)"/><path class="a" d="M904.384,259.458s-5.271-.318-4.655,3.38a.9.9,0,0,0,.469.95s.01-.277.541-.182a2.444,2.444,0,0,0,.574.028,1.192,1.192,0,0,0,.694-.289h0a4.185,4.185,0,0,0,2.06-3.038s.427-.529.416-.664l-.891.38a1.6,1.6,0,0,1,.065,1.176s-.029-1.153-.2-1.126c-.035,0-.463.223-.463.223a2.637,2.637,0,0,1,.129,1.932s.15-1.379-.293-1.852l-.627.366a2.767,2.767,0,0,1,.2,2.1,3.933,3.933,0,0,0-.329-2.01l-.567.444a2.705,2.705,0,0,1,.223,1.921s-.046-1.684-.347-1.812a3.478,3.478,0,0,0-.573.619s.394.832.15,1.264c0,0-.15-1.122-.277-1.128a3.736,3.736,0,0,0-.547,1.248,2.691,2.691,0,0,1,.427-1.323,1.493,1.493,0,0,0-.759.393s.078-.526.881-.571a3.461,3.461,0,0,1,.519-.6,3.261,3.261,0,0,0-1.285.148,1.455,1.455,0,0,1,1.43-.277l.555-.458a4.787,4.787,0,0,0-1.5.015,1.823,1.823,0,0,1,1.649-.119l.61-.365a5.557,5.557,0,0,0-1.431-.123,2.2,2.2,0,0,1,1.61.025l.437-.2s-.657-.129-.85-.15-.2-.074-.2-.074a2.273,2.273,0,0,1,1.234.139A5.6,5.6,0,0,0,904.384,259.458Z" transform="translate(-787.171 -229.478)"/><path class="a" d="M426.845,295.588s-2.3-4.762-5.221-2.415a.9.9,0,0,0-.6.872s.243-.126.416.384a2.457,2.457,0,0,0,.255.513,1.2,1.2,0,0,0,.6.472h0a4.185,4.185,0,0,0,3.656.316,2.372,2.372,0,0,0,.78.035l-.766-.592a1.61,1.61,0,0,1-1,.63s.993-.587.886-.723c-.022-.028-.416-.3-.416-.3a2.634,2.634,0,0,1-1.624,1.054s1.276-.541,1.473-1.158l-.624-.369a2.768,2.768,0,0,1-1.737,1.2s1.315-.612,1.594-1.266l-.663-.277s-.714,1.057-1.569,1.133c0,0,1.448-.861,1.412-1.187a3.515,3.515,0,0,0-.82-.2s-.53.748-1.029.748c0,0,.906-.678.85-.788a3.66,3.66,0,0,0-1.359.139,2.7,2.7,0,0,1,1.364-.277,1.494,1.494,0,0,0-.713-.47s.5-.189.928.49a3.421,3.421,0,0,1,.775.161,3.257,3.257,0,0,0-.755-1.047s.641.129.934,1.11l.673.266a4.627,4.627,0,0,0-.743-1.3s.633.234.909,1.387l.616.355a5.488,5.488,0,0,0-.59-1.309,2.2,2.2,0,0,1,.763,1.418l.384.286s-.208-.637-.277-.814-.035-.214-.035-.214a2.276,2.276,0,0,1,.483,1.144A5.174,5.174,0,0,0,426.845,295.588Z" transform="translate(-374.909 -257.963)"/><path class="a" d="M810.626,191.968s-2.3-4.762-5.221-2.415a.9.9,0,0,0-.6.872s.244-.125.416.384a2.4,2.4,0,0,0,.257.515,1.19,1.19,0,0,0,.594.47h0a4.19,4.19,0,0,0,3.656.318,2.384,2.384,0,0,0,.781.033l-.761-.594a1.609,1.609,0,0,1-.995.631s.992-.588.885-.724c-.022-.028-.416-.3-.416-.3a2.629,2.629,0,0,1-1.624,1.054s1.278-.541,1.474-1.157l-.634-.366a2.769,2.769,0,0,1-1.737,1.2s1.315-.613,1.6-1.268l-.664-.277s-.714,1.058-1.567,1.133c0,0,1.447-.861,1.411-1.186a3.432,3.432,0,0,0-.818-.2s-.53.746-1.031.746c0,0,.907-.678.852-.788a3.668,3.668,0,0,0-1.361.139,2.7,2.7,0,0,1,1.364-.277,1.486,1.486,0,0,0-.712-.47s.5-.189.928.49a3.433,3.433,0,0,1,.775.162,3.246,3.246,0,0,0-.756-1.049s.641.13.934,1.117l.674.266a4.629,4.629,0,0,0-.743-1.3s.632.234.907,1.387l.617.355a5.539,5.539,0,0,0-.591-1.309,2.191,2.191,0,0,1,.763,1.418l.384.286s-.207-.637-.277-.814-.035-.212-.035-.212a2.282,2.282,0,0,1,.481,1.144A5.326,5.326,0,0,0,810.626,191.968Z" transform="translate(-705.455 -168.716)"/><path class="a" d="M863.49,361.77s-2.3-4.763-5.225-2.416a.9.9,0,0,0-.6.872s.244-.125.416.384a2.4,2.4,0,0,0,.255.515,1.19,1.19,0,0,0,.594.47h0a4.186,4.186,0,0,0,3.658.318s.669.115.78.033l-.766-.592a1.61,1.61,0,0,1-1,.631s.992-.588.885-.724c-.022-.028-.416-.3-.416-.3a2.635,2.635,0,0,1-1.624,1.056s1.278-.542,1.475-1.158l-.626-.369a2.763,2.763,0,0,1-1.737,1.2s1.315-.613,1.6-1.268l-.664-.277s-.714,1.057-1.567,1.133c0,0,1.448-.861,1.412-1.187a3.445,3.445,0,0,0-.82-.2s-.53.746-1.031.746c0,0,.907-.678.852-.788a3.668,3.668,0,0,0-1.361.139,2.707,2.707,0,0,1,1.365-.277,1.483,1.483,0,0,0-.713-.47s.5-.19.928.49a3.422,3.422,0,0,1,.775.161,3.271,3.271,0,0,0-.755-1.049s.641.13.934,1.117l.673.266a4.608,4.608,0,0,0-.744-1.3s.633.233.907,1.387l.617.354a5.541,5.541,0,0,0-.591-1.309,2.2,2.2,0,0,1,.764,1.419l.384.277s-.208-.637-.277-.814-.035-.212-.035-.212a2.267,2.267,0,0,1,.481,1.144A5.618,5.618,0,0,0,863.49,361.77Z" transform="translate(-750.983 -314.964)"/><ellipse class="a" cx="3.189" cy="0.356" rx="3.189" ry="0.356" transform="translate(24.824 108.065)"/><ellipse class="a" cx="3.189" cy="0.356" rx="3.189" ry="0.356" transform="translate(3.919 102.006)"/><ellipse class="a" cx="3.189" cy="0.356" rx="3.189" ry="0.356" transform="translate(40.759 112.089)"/><ellipse class="a" cx="3.189" cy="0.356" rx="3.189" ry="0.356" transform="translate(122.418 103.324)"/><ellipse class="a" cx="3.189" cy="0.356" rx="3.189" ry="0.356" transform="translate(95.881 101.594)"/><ellipse class="a" cx="3.772" cy="0.648" rx="3.772" ry="0.648" transform="translate(78.132 109.448)"/><path class="b" d="M670.576,790.14s-5.252,2.713-2.538,5.909a1.015,1.015,0,0,0,.993.645s-.147-.269.416-.484a2.707,2.707,0,0,0,.567-.3,1.333,1.333,0,0,0,.508-.678h0s1.074-1.437.241-4.1a2.636,2.636,0,0,0,.014-.874l-.638.875a1.787,1.787,0,0,1,.735,1.093s-.693-1.092-.832-.971c-.031.025-.316.479-.316.479a2.938,2.938,0,0,1,1.228,1.782s-.644-1.411-1.339-1.612l-.4.71a3.085,3.085,0,0,1,1.387,1.9s-.726-1.449-1.466-1.742l-.293.75s1.2.766,1.315,1.717c0,0-1.007-1.591-1.369-1.541a3.845,3.845,0,0,0-.2.922s.85.569.866,1.128c0,0-.785-.992-.906-.927a4.179,4.179,0,0,0,.191,1.516,2.993,2.993,0,0,1-.348-1.516,1.664,1.664,0,0,0-.5.81s-.226-.548.519-1.053a3.838,3.838,0,0,1,.157-.871,3.656,3.656,0,0,0-1.148.877s.126-.72,1.219-1.078l.277-.76a5.171,5.171,0,0,0-1.43.871s.243-.714,1.516-1.057l.377-.694a6.37,6.37,0,0,0-1.445.694,2.457,2.457,0,0,1,1.562-.9l.307-.437s-.7.251-.9.341-.236.046-.236.046a2.551,2.551,0,0,1,1.264-.574A6.177,6.177,0,0,0,670.576,790.14Z" transform="translate(-586.99 -686.555)"/><path class="i" d="M511.415,95.761c-.907-2.465-5.9-2.7-8.067-2.068a64.777,64.777,0,0,1-6.519,1.207l-.112-.107c.225-.067.23-.23.2-.473a7.4,7.4,0,0,1,.014-.96,2.363,2.363,0,0,0,2.009-.451h0c1.248-.555.913-2.93,1.151-3.579a41.159,41.159,0,0,0,.458-4.772h.018l.01-.479c.012-.207.018-.327.018-.327a32.8,32.8,0,0,1,.361-4.193,36.7,36.7,0,0,0,.43-4.439v-.068l-.018-.3c.012-.221.018-.466.017-.724,0-1.186-.123-2.68-.139-2.921v-.126c.01-.506-.054-3.042-2.211-4-.795-.355-1.751-.778-2.676-1.19a45.321,45.321,0,0,1-.737-6.184c0-.312.028-.624.058-.935,0,.09-.01.182-.011.277v.6c.082-2.6,1.063-5.2.971-7.744-.008.248-.026.5-.05.748A8.063,8.063,0,0,0,496.324,50a1.509,1.509,0,0,0-.436-.791,1.793,1.793,0,0,0-.76-.3,15.288,15.288,0,0,0-2-.372,3.082,3.082,0,0,0-.449-.872,9.868,9.868,0,0,0-5.953-4.161,3.957,3.957,0,0,0-3.5.849,2.629,2.629,0,0,0-.247.25c-.452.54-.646,1.248-1.11,1.787-.03.036-.065.069-.1.1-.907.811-2.321.981-3.329,1.709a4,4,0,0,0-.5.434,8.445,8.445,0,0,0-1.088,1.322,5.484,5.484,0,0,0-1.064,2.064c-.29,1.526.749,2.973.942,4.508.43,3.436-3.372,6.485-2.652,9.875a4.522,4.522,0,0,0,1.223,2.2c-1.483,1.343-2.745,2.645-2.745,2.645v.078h-.234l.024.277h-.024l.129,1.505-.129,2.192v.207h.008a35.053,35.053,0,0,0,.416,4.3A32.753,32.753,0,0,1,473.115,84s.264,4.928.5,5.58-.1,3.02,1.151,3.579h0a2.636,2.636,0,0,0,1.258.522c-.064.519-.024.895.183,1.013a.6.6,0,0,0,.291.083,3.091,3.091,0,0,0-.226.4,5.875,5.875,0,0,1-1.454-.343c-1.346-.555-5.811-1.8-7.108-.925s-4.418,1.674-2.977,5.209,2.113,3.623,2.113,3.623a5.131,5.131,0,0,1,1.153,1.158c.433.651,4.465,2.139,5.474,2.139a9.873,9.873,0,0,1,1.283.064s-1.094.96-.949,1.517a46.058,46.058,0,0,1-.333,5.021s1.11,1.118,1.584-.348l.017.022c.089.121.569.666,1.472-.022a8.253,8.253,0,0,1,1.173-.743l4.372-.619a12.375,12.375,0,0,1,1.369-.01,2.861,2.861,0,0,0,1.8-.671c.906.344,1.924.72,2.408.857.982.277,5.5,1.488,6.551,1.11a1.466,1.466,0,0,0,.569-.405l1.007.032-.472.094s.918.015,2.167.032l-.053.031,1.566-.014c2.292.021,4.866.028,5.2-.049a36.562,36.562,0,0,1,4.095,0h.226a2.485,2.485,0,0,0,1.777-3.673c-.96-2.358-3.91-3.043-5.22-3.232.369-.074.687-.13.9-.164a7.109,7.109,0,0,0,2.834-1.255c.144-.284,1.633-1.11,2.017-1.58A8.836,8.836,0,0,0,511.415,95.761Zm-25.058,6.9-.148.049-.1.033-.191.189c-.153-.1-.316-.211-.487-.322C485.731,102.626,486.04,102.644,486.357,102.659Zm13.221,3.909Z" transform="translate(-412.242 -43.42)"/><path class="j" d="M686.65,258.777s2.122,5.548,3.329,4.994.879-2.913,1.11-3.559.486-5.548.486-5.548a33.528,33.528,0,0,1,.347-4.17,38.209,38.209,0,0,0,.416-4.41v-.068l-.229-4.023-1.3-.323-3,1.11-.416,2.376-.162.928-.069.4Z" transform="translate(-603.691 -214.164)"/><path class="e" d="M691.69,358.3a14.9,14.9,0,0,0,2.636,1.8c.61.146.985,1.438.985,1.438" transform="translate(-608.032 -314.616)"/><path class="j" d="M531.687,260.527s-2.122,5.548-3.329,4.994-.879-2.913-1.11-3.559-.485-5.548-.485-5.548a33.542,33.542,0,0,0-.347-4.17,38.223,38.223,0,0,1-.416-4.41v-.068l.23-4.023,1.3-.323,3,1.11.416,2.376.162.928.069.4Z" transform="translate(-465.325 -215.671)"/><rect class="k" width="4.737" height="7.384" transform="translate(75.445 15.163)"/><rect class="e" width="4.737" height="7.384" transform="translate(75.445 15.163)"/><path class="l" d="M553.848,403.849s-1.619,1.78-1.018,2.1,4.486,6.381,4.486,6.381,12.761,1.572,15.168-.786,2.358-6.571,2.358-6.571-1.934.416-2.144.19-1.369-1.316-1.369-1.316S554.958,402.856,553.848,403.849Z" transform="translate(-488.318 -353.467)"/><path class="m" d="M553.848,403.849s-1.619,1.78-1.018,2.1,4.486,6.381,4.486,6.381,12.761,1.572,15.168-.786,2.358-6.571,2.358-6.571-1.934.416-2.144.19-1.369-1.316-1.369-1.316S554.958,402.856,553.848,403.849Z" transform="translate(-488.318 -353.467)"/><path class="j" d="M555.258,165.148l-4.161,3.329-1.258.092-.462.033-7.758.569-8.045-.588-1.2-.087-1.526-.111-3.19-3.052a54.628,54.628,0,0,1,4.236-4.052,8.69,8.69,0,0,1,2.053-1.372l.092-.032a2.284,2.284,0,0,0,.879-.613c1.562-1.61,3.006-5.585,3.006-5.585s6.89-3.559,6.057,1.11,3.1,3.515,3.1,3.515l1.3.591.512.234,1.305.6,2.945,1.351C555.449,162.143,555.258,165.148,555.258,165.148Z" transform="translate(-466.755 -137.261)"/><circle class="e" cx="6.196" cy="6.196" r="6.196" transform="translate(68.344 7.828)"/><path class="e" d="M553.838,216.053H526v-.068l.23-4.023a54.637,54.637,0,0,1,4.236-4.052l17.478-.694.813-.857,2.945,1.351c2.312,1.063,2.126,4.068,2.126,4.068S554.145,215.263,553.838,216.053Z" transform="translate(-465.325 -183.752)"/><path class="n" d="M553.838,215.053H526v-.068l.23-4.023a54.634,54.634,0,0,1,4.236-4.052l17.478-.694.813-.857,2.945,1.351c2.312,1.063,2.126,4.068,2.126,4.068S554.145,214.263,553.838,215.053Z" transform="translate(-465.325 -182.891)"/><path class="e" d="M583.024,186.395s4.392,5.6,10.241-.115.648,12.738.648,12.738l-12.623,1.5Z" transform="translate(-512.946 -165.512)"/><path class="n" d="M583.024,188.395s4.392,5.6,10.241-.115.648,12.738.648,12.738l-12.623,1.5Z" transform="translate(-512.946 -167.235)"/><path class="e" d="M569.447,201.579l.465,7.087.5,2.358.38,1.8s.971,13.871.694,14.565.139,1.248.2,1.617-.058,1.3-.013,1.712,0,.6-1.062.452-2.544-.406-2.544-.406-3.745.277-5.039-.184a14.789,14.789,0,0,0-3.745-.463s-3.7.093-4.9-.046-1.85,1.48-2.636,1.017.924-4.946,1.479-6.242-.739-4.577-.739-4.577l1.664-9.234.37-2.093v-6.58l.092-.032a2.283,2.283,0,0,0,.879-.613l.416,6.622,13.039.463V201.35" transform="translate(-487.32 -179.437)"/><path class="n" d="M569.447,199.579l.465,7.087.5,2.358.38,1.8s.971,13.871.694,14.565.139,1.248.2,1.617-.058,1.3-.013,1.712,0,.6-1.062.452-2.544-.406-2.544-.406-3.745.277-5.039-.184a14.789,14.789,0,0,0-3.745-.463s-3.7.093-4.9-.046-1.85,1.48-2.636,1.017.924-4.946,1.479-6.242-.739-4.577-.739-4.577l1.664-9.234.37-2.093v-6.58l.092-.032a2.283,2.283,0,0,0,.879-.613l.416,6.622,13.039.463V199.35" transform="translate(-487.32 -177.714)"/><path class="e" d="M558.9,53.8a1.528,1.528,0,0,0-.416-.785,1.7,1.7,0,0,0-.732-.3,14.47,14.47,0,0,0-1.925-.369,3.082,3.082,0,0,0-.416-.864,9.535,9.535,0,0,0-5.737-4.139,3.639,3.639,0,0,0-3.468.954c-.436.537-.623,1.248-1.063,1.775-.847,1.024-2.378,1.15-3.446,1.942a6.384,6.384,0,0,0-1.387,1.6,5.506,5.506,0,0,0-1.025,2.052c-.277,1.513.723,2.956.907,4.483.416,3.416-3.246,6.447-2.554,9.818.4,1.966,2.219,3.35,4.1,4.052a2.843,2.843,0,0,1,1.727,1.13c.139.277.162.6.293.878a1.752,1.752,0,0,0,2.654.29,4.134,4.134,0,0,0,1.11-2.81c.372-4.489-1.426-8.923-1.216-13.423.062-1.361.445-2.9,1.664-3.52,1.641-.832,3.615.555,5.421.29a10.754,10.754,0,0,1,.519,6.562,17.924,17.924,0,0,0-.82,3.593c-.054,1.88.96,3.6,1.837,5.259a2.8,2.8,0,0,1,.37,1.014,2.444,2.444,0,0,1-.2,1.061c-.5,1.333-1.35,2.57-1.447,3.989a.645.645,0,0,0,.1.474.6.6,0,0,0,.358.161c1.5.257,2.794-1.071,3.525-2.4a11.268,11.268,0,0,0,1.39-4.788c.151-2.824-.861-5.6-.8-8.429C558.3,60.132,559.75,56.9,558.9,53.8Z" transform="translate(-475.273 -46.72)"/><path class="k" d="M559.9,52.8a1.528,1.528,0,0,0-.416-.785,1.7,1.7,0,0,0-.732-.3,14.471,14.471,0,0,0-1.925-.369,3.083,3.083,0,0,0-.416-.864,9.535,9.535,0,0,0-5.737-4.139,3.639,3.639,0,0,0-3.468.954c-.435.537-.623,1.248-1.062,1.776-.848,1.024-2.378,1.15-3.446,1.942a6.383,6.383,0,0,0-1.387,1.6,5.5,5.5,0,0,0-1.025,2.052c-.277,1.513.723,2.956.907,4.483.416,3.416-3.246,6.447-2.554,9.818.4,1.966,2.219,3.35,4.1,4.052a2.843,2.843,0,0,1,1.727,1.13c.139.277.162.6.293.878a1.752,1.752,0,0,0,2.654.29,4.135,4.135,0,0,0,1.11-2.81c.372-4.489-1.426-8.923-1.216-13.423.062-1.361.445-2.9,1.664-3.52,1.641-.832,3.615.555,5.421.29a10.754,10.754,0,0,1,.519,6.562,17.932,17.932,0,0,0-.82,3.593c-.054,1.88.96,3.6,1.837,5.259a2.8,2.8,0,0,1,.37,1.014,2.445,2.445,0,0,1-.2,1.061c-.5,1.333-1.35,2.57-1.447,3.989a.645.645,0,0,0,.1.474.6.6,0,0,0,.358.161c1.5.257,2.794-1.071,3.525-2.4a11.268,11.268,0,0,0,1.39-4.788c.151-2.824-.861-5.6-.8-8.429C559.3,59.132,560.75,55.9,559.9,52.8Z" transform="translate(-476.134 -45.859)"/><path class="o" d="M581.79,468.485l5.5.176-.789-4.081-4.215.4Z" transform="translate(-501.089 -400.131)"/><path class="l" d="M634.529,413.032c-.37.462-1.8,1.294-1.942,1.572a6.832,6.832,0,0,1-2.728,1.248,22.713,22.713,0,0,0-4.161,1.064,40.567,40.567,0,0,1-5.217,1.38,14.811,14.811,0,0,1-1.58.284c-.832.046-9.94-3.052-9.94-3.052l1.756-1.8.1-.033c.5-.168,2.791-.943,4.064-1.312a9.35,9.35,0,0,0,3.1-2.126s2.45-.832,2.774-.925-.832-3.236-.832-3.236,5.317-.738,7.4-1.364,6.89-.394,7.768,2.057A9.032,9.032,0,0,1,634.529,413.032Z" transform="translate(-536.777 -354.351)"/><path class="n" d="M545.7,492.321a3.246,3.246,0,0,1-2.126,1.018c-1.064-.092-4.784.277-4.784.277a7.459,7.459,0,0,0-1.874,1.086c-.87.685-1.332.139-1.418.022l-.015-.022c-.463,1.458-1.526.347-1.526.347a46.932,46.932,0,0,0,.32-4.994c-.142-.555.914-1.508.914-1.508l1.248-.318,3.163-.81,4.532,1.572Z" transform="translate(-472.181 -425.826)"/><path class="e" d="M536.437,493.26l-.936,6.494-.015-.022c-.463,1.458-1.526.347-1.526.347a46.931,46.931,0,0,0,.32-4.994c-.142-.555.914-1.508.914-1.508Z" transform="translate(-472.181 -430.856)"/><path class="e" d="M599,360.08a7.57,7.57,0,0,0,4.578,0" transform="translate(-528.199 -316.149)"/><path class="e" d="M659.29,371.42a2.023,2.023,0,0,0,1.8,0" transform="translate(-580.126 -325.916)"/><path class="e" d="M659.29,378.653s1.71.229,2.035-.233" transform="translate(-580.126 -331.945)"/><path class="e" d="M655.29,392.721s3.213-.416,4.01-.971" transform="translate(-576.681 -343.426)"/><path class="e" d="M584.62,391.75a7.627,7.627,0,0,0,3.145.971" transform="translate(-515.814 -343.426)"/><path class="e" d="M620.47,475.784a14.814,14.814,0,0,1-1.58.284c-.832.046-9.94-3.052-9.94-3.052l1.756-1.8.1-.033c.277.2.5.363.667.491.764.6,1.5-.184,1.78-.184a22.448,22.448,0,0,1,2.681,1.988,8.329,8.329,0,0,1,2.59.971c.37.462,1.664.37,1.895.694A1.238,1.238,0,0,1,620.47,475.784Z" transform="translate(-536.769 -411.838)"/><path class="l" d="M484.316,407.557a10.055,10.055,0,0,1-3.539-.416c-1.294-.545-5.594-1.8-6.843-.92s-4.254,1.665-2.867,5.179,2.035,3.606,2.035,3.606a5.009,5.009,0,0,1,1.11,1.151c.416.648,4.3,2.126,5.271,2.126a8.06,8.06,0,0,1,5.085,1.665,10.452,10.452,0,0,0,4.577,1.85s3.052,1.248,4,1.526,5.292,1.479,6.31,1.11,1.665-2.683,1.665-2.683.462-2.081.23-2.4-1.526-.232-1.895-.694a8.315,8.315,0,0,0-2.59-.971,22.362,22.362,0,0,0-2.676-1.989c-.277,0-1.015.785-1.78.184a40.6,40.6,0,0,0-4.787-3.052C485.869,411.9,484.316,407.557,484.316,407.557Z" transform="translate(-417.704 -355.627)"/><path class="e" d="M536.27,427.087a2.649,2.649,0,0,1,2.273.6,40.213,40.213,0,0,0,4.844,2.783" transform="translate(-474.17 -373.815)"/><path class="e" d="M699.832,427s-4.948.749-5.872,1.766" transform="translate(-609.987 -373.787)"/><path class="n" d="M698.336,494.356h-.218a37.3,37.3,0,0,0-3.944,0c-.6.139-8.554,0-8.554,0l1.555-.323s-.577-2.022-.211-2.19c0,0-2.081-1.37-.512-2.3a4.867,4.867,0,0,1,3.26-.535l3.938-1.334.756-.257s4.439.232,5.64,3.283A2.472,2.472,0,0,1,698.336,494.356Z" transform="translate(-602.804 -425.826)"/><path class="e" d="M748.2,494.4h-.218c1.291-1.065,4.213-4.308-4.468-6.672l.756-.257s4.439.232,5.64,3.283A2.464,2.464,0,0,1,748.2,494.4Z" transform="translate(-652.664 -425.869)"/><circle class="l" cx="0.243" cy="0.243" r="0.243" transform="translate(87.129 64.449)"/><circle class="l" cx="0.243" cy="0.243" r="0.243" transform="translate(85.718 64.85)"/><g class="p" transform="translate(62.454 8.73)"><path d="M609.7,111.679a10.764,10.764,0,0,0-.8-4.458c-1.8.269-3.779-1.122-5.421-.29-1.215.616-1.6,2.16-1.664,3.52-.017.359-.019.719-.013,1.078,0-.128,0-.257.013-.384.064-1.361.445-2.9,1.664-3.52,1.642-.832,3.615.555,5.421.29A10.736,10.736,0,0,1,609.7,111.679Z" transform="translate(-593.068 -106.614)"/><path d="M551.973,113.155a4.626,4.626,0,0,0-.018-.907c-.147-1.221-.814-2.387-.935-3.577-.155,1.436.759,2.814.935,4.271A.868.868,0,0,1,551.973,113.155Z" transform="translate(-549.313 -108.343)"/><path d="M548.792,205.41a4.08,4.08,0,0,1-1.11,2.812,1.75,1.75,0,0,1-2.654-.29c-.139-.277-.16-.6-.294-.878-.308-.635-1.065-.882-1.727-1.13-1.88-.7-3.693-2.081-4.1-4.052a4.26,4.26,0,0,1-.073-.541,4.372,4.372,0,0,0,.073,1.235c.4,1.966,2.219,3.348,4.1,4.052.662.248,1.419.5,1.727,1.131.139.277.162.6.294.878a1.752,1.752,0,0,0,2.654.29,4.135,4.135,0,0,0,1.11-2.812,15.844,15.844,0,0,0,.043-1.628C548.835,204.789,548.817,205.1,548.792,205.41Z" transform="translate(-538.823 -188.15)"/><path d="M687.93,113.409v.6c.078-2.58,1.024-5.174.931-7.7C688.789,108.646,687.983,111.035,687.93,113.409Z" transform="translate(-667.247 -106.31)"/><path d="M652.96,193.636a1.786,1.786,0,0,0,.032-.5,2.775,2.775,0,0,0-.37-1.014,12.462,12.462,0,0,1-1.824-4.781c0,.072-.01.139-.011.216-.055,1.878.958,3.6,1.835,5.259A3.328,3.328,0,0,1,652.96,193.636Z" transform="translate(-635.254 -176.1)"/><path d="M660.169,216.537a11.289,11.289,0,0,1-1.4,4.788c-.732,1.333-2.027,2.66-3.526,2.4a.589.589,0,0,1-.358-.162.346.346,0,0,1-.065-.108c-.017.108-.031.218-.039.329a.64.64,0,0,0,.1.473.59.59,0,0,0,.358.162c1.5.257,2.794-1.071,3.526-2.4a11.288,11.288,0,0,0,1.4-4.788c.017-.325.018-.648.008-.971C660.174,216.353,660.174,216.444,660.169,216.537Z" transform="translate(-638.689 -201.009)"/></g><path class="q" d="M695.31,508.207a4.908,4.908,0,0,0,5.826-1.787" transform="translate(-611.15 -442.19)"/><path class="q" d="M700.29,532.6a6.844,6.844,0,0,1,6.519-.061" transform="translate(-615.439 -464.01)"/><path class="q" d="M561.93,525.971s1.2-2.716,4.419-.645" transform="translate(-496.271 -457.803)"/><path class="e" d="M533.79,228.4l2.455-2.219s9.52-.624,9.914,2.612c0,0,3.375-3.837,10.473-2.982l3,2.391-8.3,3.643-8.066,2.8-5.941-2.659Z" transform="translate(-472.034 -200.396)"/><path class="d" d="M533.79,229.4l2.455-2.219s9.52-.624,9.914,2.612c0,0,3.375-3.837,10.473-2.982l3,2.391-8.3,3.643-8.066,2.8-5.941-2.659Z" transform="translate(-472.034 -201.258)"/><path class="e" d="M437.38,204.83l1.086,12.993,11.513.578-.5-12.938-.01-.218Z" transform="translate(-376.711 -176.411)"/><path class="b" d="M437.38,202.83l1.086,12.993,11.513.578-.5-12.938-.01-.218Z" transform="translate(-376.711 -174.689)"/><path class="e" d="M561.586,202.83l-11.876,1.781v13.051l11.606-1.677Z" transform="translate(-473.459 -174.689)"/><path class="b" d="M561.586,200.83l-11.876,1.781v13.051l11.606-1.677Z" transform="translate(-473.459 -172.966)"/><path class="f" d="M575.305,223.79l-6.415.713.14,2.186L575.3,226Z" transform="translate(-489.979 -192.741)"/><path class="j" d="M536.559,318.231l.653,1.757a2.183,2.183,0,0,0,2.034.416,10.385,10.385,0,0,0,2.451-1.028,9.293,9.293,0,0,0,1.11-2.44,8.644,8.644,0,0,1,1.294-2.774c.646-.555,2.358-8.2,0-7.452s-4.161,7.683-4.161,7.683a1.645,1.645,0,0,1-1.017.555c-.6.047-1.8-.093-2.035.416S535.865,317.214,536.559,318.231Z" transform="translate(-474.179 -270.139)"/><path class="e" d="M616.663,253.688a4,4,0,0,1-3.483-.868l.5,12.936a3.53,3.53,0,0,0,2.982.985Z" transform="translate(-540.412 -223.767)"/><path class="b" d="M616.663,251.688a4,4,0,0,1-3.483-.868l.5,12.936a3.53,3.53,0,0,0,2.982.985Z" transform="translate(-540.412 -222.045)"/><path class="e" d="M616.663,251.688a4,4,0,0,1-3.483-.868l.5,12.936a3.53,3.53,0,0,0,2.982.985Z" transform="translate(-540.412 -222.045)"/><path class="e" d="M640.29,238.565s4.831-1.477,6.091-1.269" transform="translate(-563.762 -210.379)"/><path class="e" d="M567.4,236.636s-4.683-1.11-5.465-.795" transform="translate(-496.271 -209.095)"/><path class="e" d="M662.25,243.1s3.231-1.185,4.4-.621" transform="translate(-582.676 -214.728)"/><path class="e" d="M650.52,447.04a10.621,10.621,0,0,1,1.592-.989,25.978,25.978,0,0,0,2.358-1.441" transform="translate(-572.573 -388.954)"/><path class="e" d="M539.45,360.08a14.955,14.955,0,0,1-2.635,1.8c-.609.146-.985,1.438-.985,1.438" transform="translate(-473.791 -316.149)"/><path class="j" d="M661.029,316.477l-.646,1.762a2.185,2.185,0,0,1-2.035.416,10.386,10.386,0,0,1-2.451-1.028,9.246,9.246,0,0,1-1.11-2.44,8.613,8.613,0,0,0-1.294-2.774c-.648-.555-2.358-8.2,0-7.452s4.161,7.683,4.161,7.683a1.645,1.645,0,0,0,1.017.555c.6.047,1.8-.093,2.035.416S661.723,315.464,661.029,316.477Z" transform="translate(-574.094 -268.631)"/><path class="e" d="M707.15,364.94s1.325.852,1.319,1.87" transform="translate(-621.347 -320.335)"/><circle class="j" cx="6.196" cy="6.196" r="6.196" transform="translate(68.367 7.525)"/><path class="k" d="M579.019,89.738a12.7,12.7,0,0,0,2.129-.806,8.062,8.062,0,0,1,5.013.332,6.5,6.5,0,0,0,1.913.416,1.936,1.936,0,0,0,1.684-.832,1.882,1.882,0,0,0-.011-1.738,4.9,4.9,0,0,0-1.132-1.4c-1.443-1.362-3.232-2.636-5.211-2.5a7.173,7.173,0,0,0-2.29.656,25.248,25.248,0,0,0-2.688,1.354c-.667.387-1.9.9-2.287,1.612C575.264,88.431,577.66,89.951,579.019,89.738Z" transform="translate(-508.347 -77.68)"/><path class="e" d="M589.755,112.859a1.936,1.936,0,0,1-1.684.832,6.507,6.507,0,0,1-1.914-.408,8.052,8.052,0,0,0-5.013-.332,12.075,12.075,0,0,1-2.129.8c-1.1.172-2.86-.782-3.052-2-.215,1.4,1.831,2.6,3.052,2.412a12.765,12.765,0,0,0,2.129-.8,8.052,8.052,0,0,1,5.013.332,6.243,6.243,0,0,0,1.914.408,1.95,1.95,0,0,0,1.684-.832,1.624,1.624,0,0,0,.194-1.014A1.494,1.494,0,0,1,589.755,112.859Z" transform="translate(-508.344 -102.274)"/><path class="b" d="M1023.945,661.63s.823,1.075-.38,2.7-2.193,2.995-1.794,4.007c0,0,1.814-3.016,3.29-3.059S1025.566,663.443,1023.945,661.63Z" transform="translate(-892.25 -575.871)"/><path class="e" d="M1024.237,661.63a1.333,1.333,0,0,1,.168.337c1.44,1.692,2.208,3.272.823,3.311-1.29.037-2.837,2.344-3.207,2.925a1.344,1.344,0,0,0,.043.139s1.814-3.016,3.29-3.059S1025.858,663.443,1024.237,661.63Z" transform="translate(-892.541 -575.871)"/><path class="r" d="M1047.82,670.008c0,.379-.043.685-.094.685s-.1-.307-.1-.685.053-.2.105-.2S1047.82,669.629,1047.82,670.008Z" transform="translate(-914.599 -582.878)"/><path class="r" d="M1048.766,673.113c-.331.18-.621.29-.646.244s.223-.23.555-.416.2-.05.226,0S1049.1,672.931,1048.766,673.113Z" transform="translate(-915.019 -585.531)"/><path class="b" d="M995.2,661.63s-.823,1.075.38,2.7,2.193,2.995,1.792,4.007c0,0-1.813-3.016-3.29-3.059S993.587,663.443,995.2,661.63Z" transform="translate(-867.857 -575.871)"/><path class="e" d="M995.2,661.63a1.332,1.332,0,0,0-.168.337c-1.44,1.692-2.208,3.272-.823,3.311,1.289.037,2.837,2.344,3.207,2.925a1.062,1.062,0,0,1-.044.139s-1.813-3.016-3.29-3.059S993.587,663.443,995.2,661.63Z" transform="translate(-867.857 -575.871)"/><path class="r" d="M995.64,670.008c0,.379.042.685.094.685s.1-.307.1-.685-.054-.2-.105-.2S995.64,669.629,995.64,670.008Z" transform="translate(-869.821 -582.878)"/><path class="r" d="M990.607,673.113c.331.18.621.29.646.244s-.223-.23-.555-.416-.2-.05-.226,0S990.274,672.931,990.607,673.113Z" transform="translate(-865.312 -585.531)"/><ellipse class="a" cx="8.6" cy="1.319" rx="8.6" ry="1.319" transform="translate(120.921 98.056)"/><path class="s" d="M999.254,696.412l-.042.336-.058.474-.024.2-.058.474-.025.2-.057.473-.659,5.4c-.058.481-.845.857-1.795.857h-3.419c-.95,0-1.735-.376-1.795-.857l-.659-5.4-.058-.473-.024-.2-.058-.474-.025-.2-.057-.474-.042-.336c-.032-.277.393-.5.931-.5h6.994C998.861,695.91,999.287,696.139,999.254,696.412Z" transform="translate(-865.306 -605.396)"/><path class="t" d="M910.9,658.53l-.057.474h-8.656l-.058-.474Z" transform="translate(-776.995 -567.178)"/><path class="t" d="M911.327,663.38l-.057.474h-8.492l-.058-.474Z" transform="translate(-777.503 -571.355)"/><path class="t" d="M911.762,668.23l-.058.474h-8.327l-.057-.474Z" transform="translate(-778.02 -575.533)"/></g></svg>