<svg xmlns="http://www.w3.org/2000/svg" xmlns:xlink="http://www.w3.org/1999/xlink" viewBox="0 0 147.821 111.767"><defs><style>.a,.e,.f{fill:#6a4dff;}.a,.c,.u,.v{opacity:0.1;}.b{fill:#535f89;}.d{fill:#dce2ed;}.f,.j{opacity:0.2;}.g{fill:#dea3a2;}.h{fill:none;}.i{fill:#a8a8a8;}.k{fill:#dce0ed;}.l{fill:#f0f0f4;}.m{fill:#636780;}.n{fill:url(#a);}.o{fill:#f899a5;}.p{fill:#f3b4b4;}.q{fill:#bdd3e8;}.r{opacity:0.05;}.s{fill:#e6ebef;}.t{fill:#4b3648;}.v,.z{fill:#fff;}.w{fill:#4c4981;}.x{fill:#ceddf9;}.y{fill:#fec2be;}.aa{fill:#9a5e7f;}.ab{opacity:0.15;}</style><linearGradient id="a" x1="0.5" y1="1" x2="0.5" gradientUnits="objectBoundingBox"><stop offset="0" stop-color="gray" stop-opacity="0.251"/><stop offset="0.54" stop-color="gray" stop-opacity="0.122"/><stop offset="1" stop-color="gray" stop-opacity="0.102"/></linearGradient></defs><g transform="translate(0 -0.07)"><path class="a" d="M99.6,363.79a23.089,23.089,0,0,0,14.573,14.15c15.678,5.4,51.035,2.613,77.423-.582,13.651-1.652,25.646-6.211,34.362-12.631Z" transform="translate(-92.743 -319.394)"/><path class="a" d="M261.535,102.534H247.063c-.687,0-1.252-.362-1.252-.8s.564-.8,1.252-.8h2.5c-.689,0-1.252-.362-1.252-.8s.563-.8,1.252-.8h-1.788c-.689,0-1.252-.362-1.252-.8s.563-.8,1.252-.8h7.555a28.819,28.819,0,0,0-5.9-1.045c-20.609-1.7-27.967-.575-30.563.579a38.458,38.458,0,0,1-10.586,2.986c-12.719,1.686-36.5,3.716-58.045-.655-10.711-2.169-18.672,1.5-23.443,7.625H264.05a10.3,10.3,0,0,0-1.7-4.866A1.7,1.7,0,0,1,261.535,102.534Z" transform="translate(-116.298 -87.31)"/><path class="a" d="M88.42,267.25a26.6,26.6,0,0,0,.561,10.813l127.122,2.99a42.11,42.11,0,0,0,8.832-8.66Zm50.278,7.713h-2.5c.687,0,1.25.363,1.25.8s-.563.8-1.25.8H121.729c-.689,0-1.252-.362-1.252-.8s.563-.8,1.252-.8h2.5c-.687,0-1.252-.362-1.252-.8s.564-.8,1.252-.8h-1.8c-.687,0-1.252-.363-1.252-.8s.564-.8,1.252-.8h14.479c.689,0,1.252.362,1.252.8s-.563.8-1.252.8H138.7c.689,0,1.252.362,1.252.8S139.388,274.963,138.7,274.963Z" transform="translate(-82.792 -235.79)"/><path class="a" d="M232.68,181.35,93.893,183.521a25.516,25.516,0,0,0-3.323,9.217H230.248a27.013,27.013,0,0,0,2.01-5.875A17.9,17.9,0,0,0,232.68,181.35Zm-113.931,7.113h-2.5c.689,0,1.252.363,1.252.8s-.563.8-1.252.8H101.774c-.689,0-1.252-.362-1.252-.8s.563-.8,1.252-.8h2.5c-.689,0-1.252-.362-1.252-.8s.563-.8,1.252-.8h-1.794c-.689,0-1.252-.363-1.252-.8s.563-.8,1.252-.8h14.472c.687,0,1.25.362,1.25.8s-.563.8-1.25.8h1.788c.687,0,1.25.362,1.25.8S119.438,188.463,118.749,188.463Z" transform="translate(-84.923 -161.401)"/><rect class="b" width="0.746" height="41.145" transform="translate(77.818 35.393)"/><path class="b" d="M624.062,611.32a1.947,1.947,0,0,1-2.389,0c-.334-2.2.513-6.529.713-7.5l.042-.2h.965a.67.67,0,0,1,.149.224C624.2,605.255,624.062,611.32,624.062,611.32Z" transform="translate(-544.791 -527.087)"/><path class="c" d="M630.892,596.9v.888h-.4V596.9a1.175,1.175,0,0,1,.2-.016A1.32,1.32,0,0,1,630.892,596.9Z" transform="translate(-552.494 -521.25)"/><path class="c" d="M628.656,603.9a1.139,1.139,0,0,1-.552.134,1.092,1.092,0,0,1-.594-.158l.042-.2h.962A.669.669,0,0,1,628.656,603.9Z" transform="translate(-549.913 -527.139)"/><ellipse class="d" cx="0.805" cy="0.478" rx="0.805" ry="0.478" transform="translate(77.385 75.783)"/><path class="e" d="M557.1,196.05l2.835-1.357,4.181,1-3.244-2.452Z" transform="translate(-482.448 -167.285)"/><path class="e" d="M557.929,205.872l-.829-.434,2.835-1.357,4.181,1-.736.358-3.445-.773Z" transform="translate(-482.448 -176.673)"/><path class="c" d="M557.929,205.872l-.829-.434,2.835-1.357,4.181,1-.736.358-3.445-.773Z" transform="translate(-482.448 -176.673)"/><path class="f" d="M562.45,207.379l2.282,6.395h1.131l2.113-6.791-3.408-.792Z" transform="translate(-487.081 -178.5)"/><path class="e" d="M577.179,246.466l-.45,1.45-.11.35h-1.131l-.084-.237-.533-1.494.856-.515Z" transform="translate(-497.837 -212.993)"/><path class="f" d="M565.3,208.44l.54,7.282h-.377l-2.169-6.074Z" transform="translate(-487.809 -180.448)"/><path class="c" d="M560.872,193.24l-.937,1.453L557.1,196.05Z" transform="translate(-482.448 -167.285)"/><path class="c" d="M628.605,292.082l-.109.35h-1.132l-.084-.237a.948.948,0,0,1,.726-.268A1.087,1.087,0,0,1,628.605,292.082Z" transform="translate(-549.714 -257.158)"/><path class="c" d="M630.883,296.6v.623h-.106a1.239,1.239,0,0,1-.3-.035V296.6Z" transform="translate(-552.485 -261.207)"/><ellipse class="d" cx="0.805" cy="0.478" rx="0.805" ry="0.478" transform="translate(77.486 34.914)"/><rect class="b" width="0.493" height="27.202" transform="translate(107.077 55.404)"/><path class="b" d="M844.158,654a1.286,1.286,0,0,1-1.579,0,19.144,19.144,0,0,1,.47-4.958c.017-.084.028-.134.028-.134h.631a.447.447,0,0,1,.1.147C844.245,649.994,844.158,654,844.158,654Z" transform="translate(-736.119 -566.308)"/><path class="c" d="M848.638,644.48v.588h-.268v-.588a.671.671,0,0,1,.134-.011A.9.9,0,0,1,848.638,644.48Z" transform="translate(-741.178 -562.462)"/><path class="c" d="M847.179,649.021a.765.765,0,0,1-.366.086.737.737,0,0,1-.393-.1c.017-.084.028-.134.028-.134h.631a.447.447,0,0,1,.1.151Z" transform="translate(-739.489 -566.273)"/><ellipse class="d" cx="0.532" cy="0.316" rx="0.532" ry="0.316" transform="translate(106.792 82.108)"/><path class="e" d="M783.46,368.307l1.875-.9,2.764.662-2.145-1.621Z" transform="translate(-678.476 -317.285)"/><path class="e" d="M784.008,374.795l-.548-.287,1.875-.9,2.764.662-.486.236L785.335,374Z" transform="translate(-678.476 -323.485)"/><path class="c" d="M784.008,374.795l-.548-.287,1.875-.9,2.764.662-.486.236L785.335,374Z" transform="translate(-678.476 -323.485)"/><path class="f" d="M786.99,375.8l1.509,4.228h.749l1.4-4.489-2.253-.524Z" transform="translate(-681.533 -324.698)"/><path class="e" d="M796.736,401.643l-.3.959-.072.232h-.749l-.055-.157-.352-.988.565-.34Z" transform="translate(-688.652 -347.508)"/><path class="f" d="M788.877,376.5l.358,4.813h-.251L787.55,377.3Z" transform="translate(-682.018 -325.988)"/><path class="c" d="M785.954,366.45l-.619.959-1.875.9Z" transform="translate(-678.476 -317.285)"/><path class="c" d="M847.146,442.938l-.072.23h-.748l-.056-.157a.627.627,0,0,1,.48-.18A.718.718,0,0,1,847.146,442.938Z" transform="translate(-739.359 -387.843)"/><path class="c" d="M848.655,445.905v.41h-.07a.824.824,0,0,1-.2-.023V445.9Z" transform="translate(-741.195 -390.501)"/><ellipse class="d" cx="0.532" cy="0.316" rx="0.532" ry="0.316" transform="translate(106.859 55.088)"/><ellipse class="a" cx="59.63" cy="5.896" rx="59.63" ry="5.896" transform="translate(0 100.045)"/><path class="g" d="M167.879,125.151s-11.953-.5-13.211-23.906,11.2-27.367,11.2-27.367,3.946-2.2,5.7-2.3,7.6.46,7.6.46L172.714,70.8s9.073-3.453,11.792-3.729L174.7,69.141s-.134-5.434,2.211-7.229c0,0-2.01-.15-3.07,3.764A7.477,7.477,0,0,1,169.36,70.7c-3.638,1.419-8.669,3.66-9.814,5.578,0,0-2.119,2.211-1.8-3.546s1.841-10.685,2.395-10.823c0,0,4.328-4.6,10.408-4.88,0,0-3.546-1.428-9.533,3.039,0,0-.507-2.257,1.75-4.929s5.762-8.289,9.578-8.887c0,0-5.341-.323-9.578,6.585,0,0-1.566,1.013-1.7-1.565a31.805,31.805,0,0,0-1.059-5.8s-1.29,5.942,1.427,8.612c0,0-5.2,6.77-4.974,14.369,0,0-1.608,3.453-2.21-.6,0,0-.347-5.581-1.04-10.318a14.019,14.019,0,0,1,2.94-10.815c1.151-1.432,1.952-2.823,1.507-3.554l-6.03,7.184s-5.072-11.74-8.756-14.267A30.387,30.387,0,0,1,138.727,33l5.94,6.953-7.46-2.634,7.46,3.453s3.455,2.814,5.435,10.5a65.594,65.594,0,0,1,2.164,12.479S141.628,55.324,139.6,55.6l6.884,5.207a16.4,16.4,0,0,1,6.471,11.97h0s-13.309-3.408-16.533-4.052l-6.078-6.218,4.606,5.9-9.487-.134L120.03,64.4s4.288,3.593,3.867,3.823-6.677.507-6.677.507,15.934-.092,17.688,1.059,5.664,1.566,5.664,1.566l-11.283,1.7,13.448-.966s10.177,1.841,10.729,5.02a60,60,0,0,1-3.453,7.552A35.038,35.038,0,0,0,146.1,97.284c-.46,5.067-1.106,12.848.645,17.592s2.395,7.461,1.52,8.888-1.7,3.27,1.151,3.638,15.382-.184,15.382-.184S168.617,127.969,167.879,125.151Z" transform="translate(-108.002 -32.93)"/><path class="c" d="M378.576,697.7a6.017,6.017,0,0,0-4.062-.508,24.483,24.483,0,0,1-6.265.182" transform="translate(-325.394 -607.989)"/><path class="c" d="M388.286,496.14s-.571,9,.444,10.778Z" transform="translate(-342.606 -434.009)"/><path class="c" d="M373.6,576.57s.732,8.431,1.238,10.08S373.6,576.57,373.6,576.57Z" transform="translate(-330.027 -503.661)"/><path class="c" d="M353.084,421.86c-.519.19-2.738,4.69-2.293,6.023S353.084,421.86,353.084,421.86Z" transform="translate(-310.224 -369.683)"/><path class="c" d="M403.165,387a7.178,7.178,0,0,0-1.072,3.468C402.294,391.234,403.165,387,403.165,387Z" transform="translate(-354.68 -339.494)"/><path class="c" d="M338.56,499.81a33.735,33.735,0,0,1,.233,6.419,24.751,24.751,0,0,0,.07,4.882" transform="translate(-299.682 -437.187)"/><path class="c" d="M538.271,272.66a2.087,2.087,0,0,0-.431,1.325c-.015.474.046.949.015,1.422-.034.5-.268,1.081-.764,1.147" transform="translate(-471.609 -240.475)"/><path class="c" d="M453.29,156.35a11.974,11.974,0,0,0-1.667,2.069,4.932,4.932,0,0,1-.473.67,8.185,8.185,0,0,1-.914.749,4.3,4.3,0,0,0-1.457,2.278" transform="translate(-395.133 -139.751)"/><path class="c" d="M302.78,55.93a2.977,2.977,0,0,0,.591.791c.209.2.448.367.637.584a4.632,4.632,0,0,1,.4.6,15.909,15.909,0,0,0,1.7,2.144" transform="translate(-268.697 -52.787)"/><path class="c" d="M379.513,155.35a1.38,1.38,0,0,0-.492,1.246,3.572,3.572,0,0,1-.084,1.39c-.079.2-.208.373-.291.568a2.629,2.629,0,0,0-.134,1.083c.007.423.02.848.039,1.272a2.2,2.2,0,0,0,.417,1.438" transform="translate(-334.278 -138.885)"/><path class="h" d="M361.09,254a5.486,5.486,0,0,1,1.033.712,1.854,1.854,0,0,1,.6,1.072c.023.178.011.36.051.536a1.691,1.691,0,0,0,.352.647,8.9,8.9,0,0,0,.872.966" transform="translate(-319.193 -224.316)"/><path class="c" d="M355.134,333.054a6.292,6.292,0,0,0-.833-.579,3.463,3.463,0,0,0-.856-.377,9.158,9.158,0,0,0-1.415-.153,1.965,1.965,0,0,1-1.289-.536" transform="translate(-310.23 -291.353)"/><path class="c" d="M243.79,300.26a3.792,3.792,0,0,1,1.64.292c.255.134.476.319.725.458a2.192,2.192,0,0,0,1.057.275" transform="translate(-217.612 -264.377)"/><path class="c" d="M292.079,317.242a.311.311,0,0,0-.4.094c-.1.115-.154.268-.257.375a1.16,1.16,0,0,1-.84.257" transform="translate(-258.132 -279.046)"/><path class="c" d="M325.68,228.69l.536.283a9.525,9.525,0,0,1,1.591.965" transform="translate(-288.528 -202.397)"/><path class="c" d="M371.6,267.923c.354-.084.659.293.722.651a10.4,10.4,0,0,0,.09,1.085,2.025,2.025,0,0,0,.536.795" transform="translate(-328.295 -236.363)"/><path class="c" d="M412.784,272.89c.323.962-.36,2.01-.161,3.006.06.3.2.584.268.886a2.694,2.694,0,0,1-.651,2.261" transform="translate(-363.489 -240.675)"/><rect class="b" width="0.931" height="51.36" transform="translate(29.11 24.41)"/><path class="b" d="M259.333,607.526a2.428,2.428,0,0,1-2.982,0c-.415-2.748.641-8.15.89-9.361l.052-.245h1.193a.883.883,0,0,1,.186.279C259.5,599.957,259.333,607.526,259.333,607.526Z" transform="translate(-228.407 -522.15)"/><path class="c" d="M267.823,589.51v1.11h-.5v-1.111a1.46,1.46,0,0,1,.245-.019A1.607,1.607,0,0,1,267.823,589.51Z" transform="translate(-237.989 -514.85)"/><path class="c" d="M265.041,598.2a1.425,1.425,0,0,1-.689.162,1.375,1.375,0,0,1-.742-.2l.052-.245h1.193A.883.883,0,0,1,265.041,598.2Z" transform="translate(-234.776 -522.15)"/><ellipse class="d" cx="1.005" cy="0.596" rx="1.005" ry="0.596" transform="translate(28.572 74.829)"/><path class="e" d="M187.74,97.3l3.54-1.7,5.219,1.248-4.051-3.061Z" transform="translate(-162.583 -81.161)"/><path class="e" d="M188.776,109.556l-1.036-.541,3.54-1.7,5.219,1.248-.919.448-4.3-.965Z" transform="translate(-162.583 -92.878)"/><path class="c" d="M188.776,109.556l-1.036-.541,3.54-1.7,5.219,1.248-.919.448-4.3-.965Z" transform="translate(-162.583 -92.878)"/><path class="f" d="M194.42,111.443l2.849,7.981h1.412l2.637-8.476-4.253-.989Z" transform="translate(-168.368 -95.165)"/><path class="e" d="M212.812,160.236l-.564,1.81-.135.437H210.7l-.106-.3-.665-1.864L211,159.68Z" transform="translate(-181.799 -138.222)"/><path class="f" d="M197.974,112.77l.674,9.088h-.47l-2.708-7.582Z" transform="translate(-169.277 -97.598)"/><path class="c" d="M192.449,93.79,191.28,95.6l-3.54,1.7Z" transform="translate(-162.583 -81.161)"/><path class="c" d="M264.984,208.977l-.134.437h-1.415l-.1-.3a1.177,1.177,0,0,1,.906-.34A1.366,1.366,0,0,1,264.984,208.977Z" transform="translate(-234.533 -185.152)"/><path class="c" d="M267.805,214.64v.777c-.043,0-.087.007-.134.007a1.557,1.557,0,0,1-.371-.044v-.74Z" transform="translate(-237.971 -190.23)"/><ellipse class="d" cx="1.005" cy="0.596" rx="1.005" ry="0.596" transform="translate(28.696 23.814)"/><ellipse class="a" cx="2.254" cy="0.381" rx="2.254" ry="0.381" transform="translate(120.225 91.835)"/><path class="i" d="M951.16,702.95a4.71,4.71,0,0,0,1.672-.316c.387-.276,1.978-.6,2.073-.162s1.932,2.2.481,2.212a12.263,12.263,0,0,1-3.759-.462C951.242,703.985,951.16,702.95,951.16,702.95Z" transform="translate(-830.194 -612.504)"/><path class="j" d="M955.455,709.011a12.183,12.183,0,0,1-3.752-.462c-.293-.18-.411-.823-.45-1.119h-.043s.08,1.036.468,1.272a12.312,12.312,0,0,0,3.759.462c.419,0,.563-.153.556-.374C955.927,708.925,955.767,709.009,955.455,709.011Z" transform="translate(-830.237 -616.986)"/><ellipse class="a" cx="1.734" cy="0.293" rx="1.734" ry="0.293" transform="translate(133.816 87.484)"/><path class="i" d="M1051.3,673.905a3.642,3.642,0,0,0,1.288-.243c.3-.212,1.521-.466,1.595-.126s1.487,1.694.37,1.7a9.45,9.45,0,0,1-2.892-.355C1051.363,674.7,1051.3,673.905,1051.3,673.905Z" transform="translate(-916.915 -587.491)"/><path class="j" d="M1054.572,678.567a9.456,9.456,0,0,1-2.892-.355c-.227-.134-.318-.634-.347-.862h-.033s.063.8.36.978a9.457,9.457,0,0,0,2.892.355c.323,0,.434-.117.427-.287C1054.936,678.5,1054.812,678.565,1054.572,678.567Z" transform="translate(-916.915 -590.937)"/><ellipse class="a" cx="4.139" cy="0.699" rx="4.139" ry="0.699" transform="translate(123.542 105.61)"/><path class="i" d="M980.53,793.309a8.664,8.664,0,0,0,3.073-.58c.712-.507,3.633-1.112,3.81-.3s3.548,4.042.882,4.063-6.193-.414-6.9-.847S980.53,793.309,980.53,793.309Z" transform="translate(-855.628 -690.252)"/><path class="j" d="M988.342,804.435c-2.667.021-6.195-.415-6.905-.847-.536-.33-.756-1.513-.828-2.058h-.079s.15,1.908.867,2.341,4.238.87,6.9.847c.771,0,1.036-.279,1.021-.685C989.208,804.273,988.914,804.431,988.342,804.435Z" transform="translate(-855.628 -698.477)"/><path class="g" d="M620.809,238.126s6.865-.289,7.587-13.73-6.432-15.718-6.432-15.718a12.215,12.215,0,0,0-3.271-1.319c-1.005-.052-4.364.268-4.364.268l3.7-.714a51.554,51.554,0,0,0-6.771-2.144l5.628,1.19s.079-3.121-1.27-4.154c0,0,1.15-.086,1.763,2.161a4.288,4.288,0,0,0,2.572,2.886c2.09.816,4.979,2.1,5.637,3.2,0,0,1.217,1.27,1.03-2.037s-1.057-6.137-1.375-6.216a9.723,9.723,0,0,0-5.978-2.8s2.037-.819,5.475,1.742a3.516,3.516,0,0,0-1.005-2.83c-1.3-1.534-3.306-4.761-5.5-5.1,0,0,3.069-.186,5.5,3.781,0,0,.9.582.978-.9a18.224,18.224,0,0,1,.608-3.333s.741,3.412-.82,4.946c0,0,2.99,3.886,2.857,8.253,0,0,.926,1.983,1.27-.344,0,0,.2-3.205.6-5.924a8.058,8.058,0,0,0-1.688-6.212c-.661-.821-1.122-1.621-.866-2.041l3.465,4.126s2.909-6.744,5.025-8.2a17.882,17.882,0,0,0,2.381-1.771l-3.406,3.995,4.288-1.508-4.288,1.985s-1.983,1.608-3.121,6.03a37.8,37.8,0,0,0-1.244,7.168s6.106-4.831,7.275-4.678l-3.954,2.99a9.422,9.422,0,0,0-3.717,6.876h0s7.638-1.958,9.5-2.328l3.484-3.571-2.638,3.385,5.448-.079,3.122-2.222s-2.46,2.064-2.226,2.2,3.836.291,3.836.291-9.152-.052-10.157.608a9.7,9.7,0,0,1-3.254.9l6.483.986-7.724-.556s-5.845,1.059-6.164,2.884a34.445,34.445,0,0,0,1.985,4.338,20.135,20.135,0,0,1,2.247,7.247c.264,2.909.635,7.379-.37,10.1s-1.375,4.288-.872,5.105.978,1.876-.662,2.089-8.835-.106-8.835-.106S620.384,239.744,620.809,238.126Z" transform="translate(-535.841 -164.726)"/><path class="c" d="M711.21,567.029a3.452,3.452,0,0,1,2.33-.291,14.244,14.244,0,0,0,3.6.1" transform="translate(-622.397 -495.073)"/><path class="c" d="M741.725,451.26s.327,5.171-.255,6.189Z" transform="translate(-648.602 -395.143)"/><path class="c" d="M747.458,497.45s-.419,4.843-.71,5.79S747.458,497.45,747.458,497.45Z" transform="translate(-653.127 -435.143)"/><path class="c" d="M755.45,408.6c.3.11,1.572,2.695,1.317,3.459S755.45,408.6,755.45,408.6Z" transform="translate(-660.709 -358.199)"/><path class="c" d="M731.34,388.58a4.12,4.12,0,0,1,.612,1.991C731.833,391.011,731.34,388.58,731.34,388.58Z" transform="translate(-639.83 -340.862)"/><path class="c" d="M771.394,453.37a19.673,19.673,0,0,0-.134,3.686,14.126,14.126,0,0,1-.04,2.8" transform="translate(-674.365 -396.97)"/><path class="c" d="M653.43,322.91a1.206,1.206,0,0,1,.249.761c.009.268-.027.544-.009.816s.155.62.44.659" transform="translate(-572.36 -283.992)"/><path class="c" d="M689.89,256.1a6.864,6.864,0,0,1,.953,1.193,2.788,2.788,0,0,0,.268.387,4.421,4.421,0,0,0,.525.43,2.474,2.474,0,0,1,.836,1.312" transform="translate(-603.934 -226.134)"/><path class="c" d="M780.686,198.43a1.733,1.733,0,0,1-.339.454c-.121.114-.257.21-.366.335a2.642,2.642,0,0,0-.234.344,9.314,9.314,0,0,1-.977,1.236" transform="translate(-680.904 -176.192)"/><path class="c" d="M745.28,255.53a.8.8,0,0,1,.283.716,2.05,2.05,0,0,0,.05.8c.046.114.119.214.166.327a1.532,1.532,0,0,1,.079.62c0,.244-.012.488-.023.73a1.268,1.268,0,0,1-.239.827" transform="translate(-651.902 -225.641)"/><path class="h" d="M748.781,312.16a3.178,3.178,0,0,0-.594.4,1.064,1.064,0,0,0-.344.619c-.013.1-.007.206-.029.307a.978.978,0,0,1-.2.371,5.038,5.038,0,0,1-.5.555" transform="translate(-653.487 -274.682)"/><path class="c" d="M746.69,357.664a3.767,3.767,0,0,1,.478-.332,2.025,2.025,0,0,1,.493-.217,5.3,5.3,0,0,1,.812-.08,1.151,1.151,0,0,0,.741-.3" transform="translate(-653.123 -313.28)"/><path class="c" d="M814.322,338.76a2.147,2.147,0,0,0-.938.168c-.146.075-.268.184-.417.268a1.25,1.25,0,0,1-.607.158" transform="translate(-709.993 -297.718)"/><path class="c" d="M793.65,348.532a.181.181,0,0,1,.232.054c.058.066.088.151.149.216a.658.658,0,0,0,.481.147" transform="translate(-693.79 -306.162)"/><path class="c" d="M772.031,297.66l-.31.161a5.485,5.485,0,0,0-.911.556" transform="translate(-674.011 -262.125)"/><path class="c" d="M748.562,320.176c-.2-.048-.379.169-.415.375s0,.422-.052.623a1.165,1.165,0,0,1-.3.457" transform="translate(-654.075 -281.618)"/><path class="c" d="M727.256,323c-.185.552.208,1.155.092,1.726-.035.174-.115.336-.157.509a1.549,1.549,0,0,0,.374,1.3" transform="translate(-636.21 -284.07)"/><path class="e" d="M375.542,405.72c-2.2,2.967-4.012,11.694-4.52,14.325l-3.832-.151c.241-2.263,4.875-11.4,6.164-13.909C374.044,405.892,374.782,405.8,375.542,405.72Z" transform="translate(-324.476 -355.705)"/><rect class="k" width="1.699" height="2.393" transform="translate(97.248 48.961)"/><path class="c" d="M775.868,397.86v.779a1.308,1.308,0,0,1-.368.05l-1.329-.011v-.817Z" transform="translate(-676.92 -348.899)"/><path class="k" d="M768.81,352.36h1.608a1.926,1.926,0,0,1,1.784,1.206,5.438,5.438,0,0,1-.178,4.824,1.324,1.324,0,0,1-1.162.67l-2.048-.017Z" transform="translate(-672.279 -309.496)"/><ellipse class="l" cx="1.718" cy="3.341" rx="1.718" ry="3.341" transform="translate(94.813 42.866)"/><rect class="k" width="1.699" height="2.094" transform="translate(82.16 48.99)"/><path class="c" d="M663.259,398.07v.67a1.311,1.311,0,0,1-.37.05l-1.329-.012v-.7Z" transform="translate(-579.4 -349.08)"/><path class="k" d="M656.21,352.58h1.608a1.922,1.922,0,0,1,1.782,1.206,5.433,5.433,0,0,1-.177,4.824,1.327,1.327,0,0,1-1.163.67l-2.046-.019Z" transform="translate(-574.767 -309.686)"/><ellipse class="l" cx="1.718" cy="3.341" rx="1.718" ry="3.341" transform="translate(79.725 42.894)"/><path class="k" d="M656.83,361.69s-.634.1-.3.938a5.718,5.718,0,0,1,.379,1.266s.634.33.608-.76A1.629,1.629,0,0,0,656.83,361.69Z" transform="translate(-574.958 -317.575)"/><ellipse class="m" cx="10.022" cy="10.984" rx="10.022" ry="10.984" transform="translate(7.479 80.867)"/><path class="c" d="M146.317,641.07c-5.243.352-9.4,5.125-9.4,10.963a10.994,10.994,0,0,0,6.492,10.282c5.245-.352,9.4-5.125,9.4-10.963A11,11,0,0,0,146.317,641.07Z" transform="translate(-125.062 -559.518)"/><ellipse class="m" cx="8.134" cy="10.606" rx="8.134" ry="10.606" transform="translate(87.802 57.237)"/><path class="c" d="M709.687,462.93c-3.374,1.293-5.837,5.36-5.837,10.177,0,5.148,2.814,9.439,6.545,10.4,3.373-1.293,5.837-5.36,5.837-10.177C716.232,468.185,713.418,463.895,709.687,462.93Z" transform="translate(-616.023 -405.249)"/><path class="e" d="M506.53,483.7l.151-3.85s-.756-1.662-1.51-1.812-2.491-.245-2.491-.245-1.359,5.529-.453,7.19S506.53,483.7,506.53,483.7Z" transform="translate(-441.149 -418.118)"/><path class="c" d="M506.53,483.7l.151-3.85s-.756-1.662-1.51-1.812-2.491-.245-2.491-.245-1.359,5.529-.453,7.19S506.53,483.7,506.53,483.7Z" transform="translate(-441.149 -418.118)"/><path class="e" d="M432.233,481.781s-.468-5.339,2.466-5.435c.378-.012.756-.021,1.132-.058,2.033-.2,7.579-.624,6.914.642,0,0-1.321,4.643-.415,5.813Z" transform="translate(-380.78 -416.617)"/><path class="e" d="M738.118,513.427l3.934.114s.679-7.248.906-7.814.34-3.284-.4-3.68a19.022,19.022,0,0,0-3.2-.878l-1.814,4.131-.141,3.737Z" transform="translate(-645.086 -438.365)"/><path class="c" d="M738.118,513.427l3.934.114s.679-7.248.906-7.814.34-3.284-.4-3.68a19.022,19.022,0,0,0-3.2-.878l-1.814,4.131-.141,3.737Z" transform="translate(-645.086 -438.365)"/><path class="e" d="M626.512,494.6l-.017-.8a.465.465,0,0,1,.485-.474c1.951.082,9.048.422,10.29,1.056,0,0-1.359,10.106.142,12.513l-.509,8.1-17.383-1.3Z" transform="translate(-542.994 -431.564)"/><path class="c" d="M661.56,406.64c.482-.048,1.057-.1,1.7-.15v.966h-1.7Z" transform="translate(-579.4 -356.372)"/><path class="c" d="M775.868,410.842v.122h-1.7v-.734a7.253,7.253,0,0,1,1.7.612Z" transform="translate(-676.92 -359.611)"/><path class="n" d="M320.4,480.318a.158.158,0,0,1,.064-.1.226.226,0,0,1,.117-.011h0v.068h0a2.623,2.623,0,0,0-.243.248C320.358,480.454,320.376,480.386,320.4,480.318Zm6.149-1.8a.206.206,0,0,0,0-.028,5.941,5.941,0,0,1,.293-.627A6.1,6.1,0,0,0,326.545,478.514Zm.917-1.734c-.145.216-.32.494-.493.817A3.8,3.8,0,0,1,327.462,476.78ZM303.52,495.532c.682.027,1.25.015,1.25.015A5.018,5.018,0,0,1,303.52,495.532Zm1.252.013a1.427,1.427,0,0,1,.866-.1A2.387,2.387,0,0,0,304.772,495.545Zm22.889-10.307.249-4.288s-.092,2.19-.062,3.137a3.082,3.082,0,0,1-.188,1.152Z" transform="translate(-269.338 -417.243)"/><path class="o" d="M347.893,593.161s-.071.22-.165.5a6.509,6.509,0,0,1-.442,1.13,6.375,6.375,0,0,1-1.266.134,3.915,3.915,0,0,1-2.669-.848s.326-.234.67-.506a3.788,3.788,0,0,0,.78-.732,3.628,3.628,0,0,1,1.048-.766c.159-.091.268-.15.268-.15Z" transform="translate(-303.831 -516.954)"/><path class="p" d="M325.709,598.8s-6.266-.288-6.64-.371a.668.668,0,0,1-.45-.523c-.125-.292.536-.229.536-.229h0c.067.011.8.134,1.5.222h0a4.564,4.564,0,0,0,1.206.067h0a2.367,2.367,0,0,1,.839-.067,1.987,1.987,0,0,0-1.691-1.36l.025-.026a2.108,2.108,0,0,1,.358-.268c1.277.052,1.952,1.813,1.952,1.813h.011c.145.046,1.684.523,1.99.567h0C325.662,598.679,325.709,598.8,325.709,598.8Z" transform="translate(-282.4 -520.704)"/><path class="o" d="M298.738,593.976c-.024.079-.134.134-.314.149a2.029,2.029,0,0,1-.292,0h0a6.634,6.634,0,0,1-1.742-.391c-.1-.034-.188-.063-.276-.088H296.1a3.8,3.8,0,0,0-.651-.134,1.331,1.331,0,0,0-.835.1h0s-.549.012-1.206-.015h0a9.806,9.806,0,0,1-1.5-.158h0c-.071-.015-.134-.032-.2-.05a1.394,1.394,0,0,1-.336-.134c-.691-.415,1.637-.7,1.637-.7a1.214,1.214,0,0,0,.7-.34l.024-.027.059-.059h0a3.2,3.2,0,0,1,.283-.22l.086-.058c.464-.314,1.088-.649,1.088-.649a2.645,2.645,0,0,0,1.154-.659,1.369,1.369,0,0,0,.161-.19h0l1.288-.332.887,2.131s.007.115.013.288A10.13,10.13,0,0,1,298.738,593.976Z" transform="translate(-258.706 -515.318)"/><path class="c" d="M301.427,605.946a2.038,2.038,0,0,1-.292,0h0a6.634,6.634,0,0,1-1.742-.391c-.1-.034-.188-.063-.276-.088h-.011a3.791,3.791,0,0,0-.651-.134,1.331,1.331,0,0,0-.835.1h0s-.549.012-1.206-.015h0a9.8,9.8,0,0,1-1.5-.158h0c-.071-.015-.134-.032-.2-.05a1.592,1.592,0,0,1,.259-.011h0c.066.008.811.1,1.5.157h0a4.541,4.541,0,0,0,1.206.015h0a2.249,2.249,0,0,1,.835-.1,1.991,1.991,0,0,0-1.749-1.285c.008-.009.017-.017.024-.027h0a2.213,2.213,0,0,1,.342-.279h.027c1.261.02,2,1.725,2,1.725h.011c.146.039,1.706.45,2.01.481h0A.768.768,0,0,1,301.427,605.946Z" transform="translate(-261.708 -527.139)"/><path class="p" d="M299.245,606.512s-6.273-.016-6.649-.082-.473-.5-.473-.5c-.134-.285.521-.251.521-.251h0c.066.008.8.1,1.5.158h0a4.664,4.664,0,0,0,1.206.015h0a2.239,2.239,0,0,1,.835-.1,1.993,1.993,0,0,0-1.749-1.285l.024-.027a2.29,2.29,0,0,1,.346-.283c1.278,0,2.03,1.726,2.03,1.726h.011c.146.037,1.706.449,2.01.48h0C299.193,606.389,299.245,606.512,299.245,606.512Z" transform="translate(-259.453 -527.546)"/><path class="c" d="M364.009,593.187s-.071.22-.165.5A11.907,11.907,0,0,1,362.1,592.3a1.018,1.018,0,0,1-.142-.2c.159-.091.268-.15.268-.15Z" transform="translate(-319.947 -516.98)"/><path class="q" d="M368.148,565.3l-.222.72-2.131,1.16a3.266,3.266,0,0,0-.67.6.6.6,0,0,1-.34.268,4.728,4.728,0,0,0-.295.41,11.914,11.914,0,0,1-1.742-1.386c-.147-.169-.218-.311-.151-.39a22.375,22.375,0,0,1,1.951-1.538s1.021-1.34,1.065-1.316a6.778,6.778,0,0,0,.859-.75l.206-.193Z" transform="translate(-320.476 -491.814)"/><path class="o" d="M435.479,451.392l-2.074,3.669-.761,1.451-4.054-.591.091-.194.343-.72.157-.33.024-.044.449-.813.025-.034.326-.461.655-.926a.592.592,0,0,0,.214-.056.507.507,0,0,0,.245-.279,3.083,3.083,0,0,0-.193-1.676s1.538-3.752,2.072-1.687a3.93,3.93,0,0,0,2.144,2.546A2.942,2.942,0,0,0,435.479,451.392Z" transform="translate(-377.648 -392.39)"/><path class="q" d="M428,566.92v.355s1.34,1.282,1.163,2.328a6.329,6.329,0,0,0,.2,2.348l1.348-.1-.2-4.776Z" transform="translate(-377.137 -495.304)"/><path class="r" d="M430.708,571.854l-1.348.1a6.324,6.324,0,0,1-.2-2.348c.177-1.047-1.163-2.328-1.163-2.328v-.355l2.5.158.013.311Z" transform="translate(-377.137 -495.304)"/><path class="r" d="M366.6,564.522a11.252,11.252,0,0,0-1.182,1.282c-.474.631-1.282,1.538-1.282,1.538l-.966.572-.4.39c-.147-.169-.218-.311-.151-.39a22.387,22.387,0,0,1,1.951-1.538s1.021-1.34,1.065-1.316a6.777,6.777,0,0,0,.859-.75Z" transform="translate(-320.493 -493.044)"/><path class="c" d="M332.082,592.466a1.3,1.3,0,0,0-.111.107s-.02.63-.513-.85a1.418,1.418,0,0,0-1.717-1.124.023.023,0,0,1-.009-.027c0-.04.071-.11.161-.19h0l1.288-.332.887,2.131S332.075,592.293,332.082,592.466Z" transform="translate(-292.036 -515.335)"/><path class="q" d="M337.386,545.28l-.75.02-.513.73s-.848.907-1.1,1.134a17.418,17.418,0,0,0-2.387,2.594s-.434.217-.434.434-.828.848-.828.848-.868.591-.75.67a1.418,1.418,0,0,1,1.717,1.124c.493,1.479.513.848.513.848a1.151,1.151,0,0,1,.3-.233c.118-.043.679-.851.852-.871a.852.852,0,0,0,.351-.158l1.005-.986.967-.572s.8-.907,1.281-1.538a11.35,11.35,0,0,1,1.183-1.282Z" transform="translate(-292.796 -476.564)"/><path class="c" d="M353.22,580.91s1.34.65,1.282.788S353.22,580.91,353.22,580.91Z" transform="translate(-312.378 -507.42)"/><path class="c" d="M361.12,579.73s.1.586.638.559S361.12,579.73,361.12,579.73Z" transform="translate(-319.219 -506.398)"/><path class="c" d="M347.18,592a.605.605,0,0,0,.572.394C348.245,592.453,347.18,592,347.18,592Z" transform="translate(-307.147 -517.024)"/><path class="c" d="M384.65,580.91s.65.268.709.641S384.65,580.91,384.65,580.91Z" transform="translate(-339.596 -507.42)"/><path class="c" d="M372.72,591.21a3.613,3.613,0,0,1,.962,1.01A9.06,9.06,0,0,1,372.72,591.21Z" transform="translate(-329.265 -516.34)"/><path class="c" d="M381.33,586.738a.435.435,0,0,1,.445.094C381.956,587.019,381.33,586.738,381.33,586.738Z" transform="translate(-336.721 -512.445)"/><path class="o" d="M401.924,536.47s-2.515-.815-2.322,0,2.322,1.272,2.322,1.272Z" transform="translate(-352.535 -468.621)"/><path class="c" d="M435.479,471.9l-2.074,3.669-.761,1.451-4.054-.591.091-.194a2.339,2.339,0,0,1,.323-.362,1.34,1.34,0,0,1,.02-.358.7.7,0,0,1,.181-.374l.016-.015a2.5,2.5,0,0,0,.458-.832c.035-.092.054-.154.054-.154l.268-.307.87-.982.245-.279.23-.26-.825,1.174s-.394.71-.414.8-.67.966-.67.966-1.1.967.868.986a4.162,4.162,0,0,0,3.176-1.9l1.664-2.578A2.946,2.946,0,0,0,435.479,471.9Z" transform="translate(-377.648 -412.896)"/><path class="c" d="M382.079,534.468l-.773-.054-1.746-.146V534l2.506.157Z" transform="translate(-328.699 -462.383)"/><path class="s" d="M432.122,470.21a1.314,1.314,0,0,0,.71.414,4.741,4.741,0,0,0-.888,1.361s-1.107,1.863-.315,2.5a4.035,4.035,0,0,0,1.252.769l-.24,4.288a22.53,22.53,0,0,0,.8,3.168,1.025,1.025,0,0,1,.158.71s-.143.493.007.67a3.41,3.41,0,0,1,.19,1.085,6.2,6.2,0,0,0-1.072-.454c-.185,0-.67-.927-.67-.927l-4.824-.335-2.121-.177.335-5.9a2.271,2.271,0,0,1,.355-2.8,1,1,0,0,1,.217-.746,3.062,3.062,0,0,0,.513-.986l1.617-1.828h0l-.828,1.178s-.4.71-.414.8-.67.967-.67.967-1.1.966.868.986a4.158,4.158,0,0,0,3.176-1.914Z" transform="translate(-374.632 -411.554)"/><path class="c" d="M465.68,528.21a2.922,2.922,0,0,0,1.42.523C467.835,528.753,465.68,528.21,465.68,528.21Z" transform="translate(-409.768 -461.782)"/><path class="c" d="M472.3,515.458s.543-.268.848-.044S472.3,515.458,472.3,515.458Z" transform="translate(-415.501 -450.623)"/><path class="c" d="M470.39,523s.035.316.839.355S470.39,523,470.39,523Z" transform="translate(-413.847 -457.27)"/><path class="o" d="M460.071,473.3l.169.09a3.764,3.764,0,0,0,1.064.226,1.7,1.7,0,0,1,1.391,1.331c.029.155.054.363.074.586a12.026,12.026,0,0,1-.038,2.412,7.666,7.666,0,0,0-.1,1.3c.059.177-.326,2.929-.326,2.929s-.088,2.249-.651,2.456a25.666,25.666,0,0,1-3.7.206l-1.331-2.307,3.106.147a3.039,3.039,0,0,0,.385-1.6c-.029-.947.059-3.137.059-3.137s-1.876-.4-1.5-1.867A8.976,8.976,0,0,1,460.071,473.3Z" transform="translate(-401.931 -414.23)"/><path class="q" d="M383.956,543.124a3.692,3.692,0,0,1-1.742.2,12.018,12.018,0,0,1-1.553-1.045s-.683-.67-1.333-1.419l-.083-.1h0a4.211,4.211,0,0,1-1.072-1.679,1.427,1.427,0,0,0-.052-.417,1.743,1.743,0,0,0-.268-.545,1.63,1.63,0,0,0-.23-.26l-2.052-2.644s.592-.631.592-.8a1.171,1.171,0,0,1,1.617-.63A19.611,19.611,0,0,1,380,535.65c1.28,1.174,2.589,2.451,2.589,2.451s.092.1.228.253a4.83,4.83,0,0,1,1.024,1.542C383.917,540.422,383.956,543.124,383.956,543.124Z" transform="translate(-331.733 -466.478)"/><path class="r" d="M397.5,551.308a9.741,9.741,0,0,1-3.495,2.51l-.028.007-.055-.1h0l-1.12-2.1-.284-.536.015-.015,2.152-2.475c1.28,1.174,2.589,2.451,2.589,2.451Z" transform="translate(-346.412 -479.439)"/><path class="q" d="M404.585,522.006v.449s.622,2.195-.5,2.814a7.149,7.149,0,0,1-2.837.387,3,3,0,0,1-2.965-2.472,1.8,1.8,0,0,1-.012-.636s-.5-3.6-.622-3.618c0,0-2.826,3.236-4.556,3.609l-1.461-2.731,2.333-2.68a18.328,18.328,0,0,1,2.234-3,3.632,3.632,0,0,0,1.006-.957s2.027-1.691,3.373,1.164,2.219,5.162,2.546,6.018c0,0,.474.97.769.968h.009a.691.691,0,0,1,.685.689Z" transform="translate(-345.641 -448.324)"/><path class="c" d="M436.09,550.4a2.924,2.924,0,0,0,.606-1.036c.224-.651-.067.661-.547,1.183Z" transform="translate(-384.143 -479.946)"/><path class="t" d="M416.417,424.4a.986.986,0,0,0,.306.512,9.779,9.779,0,0,0,.989.931,1.026,1.026,0,0,1,.362.417.655.655,0,0,1-.024.362,6.2,6.2,0,0,1-.525,1.305.8.8,0,0,0-.146.445c.036.351.536.548.9.78a1.466,1.466,0,0,1,.737,1.244c-.029.728-.72,1.356-.882,2.074a3.484,3.484,0,0,0,1.3-.268.981.981,0,0,0,.654-.831.235.235,0,0,1,.02-.154.331.331,0,0,1,.188-.1c.358-.087.795-.059,1.057-.259s.2-.551.09-.831c-.306-.767-.748-1.5-1.014-2.278a1.635,1.635,0,0,1-.115-.815,2.732,2.732,0,0,1,.354-.779,4.958,4.958,0,0,0,.587-1.788,1.665,1.665,0,0,0-.145-1.049,1.768,1.768,0,0,0-1.17-.775c-1.006-.221-1.542.268-2.329.594C417.028,423.394,416.358,423.84,416.417,424.4Z" transform="translate(-367.103 -370.233)"/><path class="c" d="M418.131,431.99c.082,0,.163-.009.245-.016.167-.712.847-1.34.876-2.057a1.467,1.467,0,0,0-.737-1.245c-.359-.232-.864-.429-.9-.779a.811.811,0,0,1,.146-.446,6.2,6.2,0,0,0,.525-1.305.655.655,0,0,0,.024-.362,1.015,1.015,0,0,0-.362-.415,9.949,9.949,0,0,1-.989-.938.977.977,0,0,1-.306-.511c-.062-.563.6-1.01,1.2-1.258a5.062,5.062,0,0,1,1.734-.646,4.124,4.124,0,0,0-1.974.646c-.592.248-1.258.7-1.2,1.258a.977.977,0,0,0,.306.511,9.949,9.949,0,0,0,.989.938,1.015,1.015,0,0,1,.362.415.655.655,0,0,1-.024.362,6.2,6.2,0,0,1-.525,1.305.811.811,0,0,0-.146.446c.036.35.536.547.9.779a1.468,1.468,0,0,1,.737,1.245C418.983,430.643,418.293,431.273,418.131,431.99Z" transform="translate(-367.101 -369.81)"/><circle class="c" cx="3.152" cy="3.152" r="3.152" transform="translate(50.136 52.575)"/><circle class="o" cx="3.152" cy="3.152" r="3.152" transform="translate(50.195 52.458)"/><path class="t" d="M426.872,414.24a1.249,1.249,0,0,1-.67-.382.626.626,0,0,1,.016-.792,1.385,1.385,0,0,1,.379-.165c.529-.234.619-1.056.978-1.569a1.177,1.177,0,0,1,1.085-.523,5.228,5.228,0,0,1,.655.193c.524.142,1.084.029,1.616.126a3.406,3.406,0,0,1,2.278,2.278c.2.508.339,1.045.5,1.574a20.857,20.857,0,0,0,.858,2.332,1.639,1.639,0,0,0,.293.494c.335.342.927.316,1.134.776a1.629,1.629,0,0,1,.023.855,6.8,6.8,0,0,0,.247,2.9c.226.718.659,1.445,1.32,1.548a.734.734,0,0,1-1.063.067,3.475,3.475,0,0,1-.712-1.032,6.563,6.563,0,0,0-.607-.891,1.252,1.252,0,0,0-.46-.4c-.45-.182-.929.19-1.331.515a2.29,2.29,0,0,1-1.084.569.871.871,0,0,1-.958-.588c-.151-.513.154-1.206-.18-1.579a2.383,2.383,0,0,0-.442-.287,1.748,1.748,0,0,1-.421-1.583,3.537,3.537,0,0,0-.05-1.733,2.087,2.087,0,0,0-.536-.67,11.792,11.792,0,0,0-3.237-2.125" transform="translate(-375.466 -360.109)"/><g class="u" transform="translate(50.584 50.717)"><path d="M432.534,422.757a.871.871,0,0,1-.959-.588c-.151-.512.155-1.206-.18-1.579a2.342,2.342,0,0,0-.441-.285,1.741,1.741,0,0,1-.421-1.583,3.51,3.51,0,0,0-.051-1.734,2.1,2.1,0,0,0-.536-.67,11.792,11.792,0,0,0-3.237-2.137l.373.088a1.253,1.253,0,0,1-.67-.382.628.628,0,0,1,.017-.793,1.375,1.375,0,0,1,.378-.163c.536-.234.619-1.056.978-1.569a1.3,1.3,0,0,1,.452-.4,1.232,1.232,0,0,0-.811.519c-.359.513-.448,1.34-.978,1.569a1.385,1.385,0,0,0-.379.165.621.621,0,0,0-.016.792,1.293,1.293,0,0,0,.67.382l-.371-.087a11.792,11.792,0,0,1,3.236,2.133,2.086,2.086,0,0,1,.536.67,3.505,3.505,0,0,1,.05,1.733,1.759,1.759,0,0,0,.421,1.583,2.255,2.255,0,0,1,.442.287c.334.374.028,1.065.18,1.579a.871.871,0,0,0,.958.588,1.391,1.391,0,0,0,.431-.134A.66.66,0,0,1,432.534,422.757Z" transform="translate(-425.919 -410.96)"/><path d="M490.523,492.9a3.457,3.457,0,0,1-.71-1.03,6.37,6.37,0,0,0-.608-.891,1.23,1.23,0,0,0-.46-.4.831.831,0,0,0-.7.078.682.682,0,0,1,.346.042,1.242,1.242,0,0,1,.46.4,6.565,6.565,0,0,1,.607.891,3.551,3.551,0,0,0,.712,1.032.782.782,0,0,0,.923.074.87.87,0,0,1-.564-.194Z" transform="translate(-479.716 -479.87)"/></g><path class="k" d="M745.407,462.827l-2.567.038-5.3-9.639-.886-1.609.679-4.076.523.986Z" transform="translate(-637.939 -387.509)"/><path class="k" d="M592.172,435.6l-1.056,1.585-3.16-4.272-1.446-1.956.868-1.17.665.807Z" transform="translate(-507.917 -372.137)"/><path class="c" d="M636.473,463.525c0,.082.009.166.015.251l-.1,2.07-1.446-1.956.868-1.17Z" transform="translate(-556.347 -405.067)"/><path class="c" d="M737.852,448.526l-.316,4.7-.886-1.609.679-4.076Z" transform="translate(-637.939 -387.509)"/><path class="k" d="M622.971,416.905s-1.268-9.467,3.35-10.884a1.174,1.174,0,0,1,.181-.038c1.063-.127,10.961-1.269,16.1.087,0,0,3.511.529,3.473,2.412l-1.557,23.067H641.99l.829-15.249s1.206-6.644-.792-7.1-11.1-1.206-14.306-.3c0,0-2.341-.529-1.963,5.246l-.151,3.1Z" transform="translate(-545.844 -355.44)"/><path class="e" d="M640.623,492.76a1.458,1.458,0,0,0-.595-1.3c-.708-.536-2.888-1.7-2.888-1.7l-.708.056-2.123,5.266.141,11.182,3.822,4.728Z" transform="translate(-555.802 -428.484)"/><path class="c" d="M640.623,492.76a1.458,1.458,0,0,0-.595-1.3c-.708-.536-2.888-1.7-2.888-1.7l-.708.056-2.123,5.266.141,11.182,3.822,4.728Z" transform="translate(-555.802 -428.484)"/><path class="e" d="M567.62,496.185l.075-11.476s-.339-4.454,2.322-4.529c0,0,6.275.046,9,.931a.608.608,0,0,1,.343.879c-.536.945-1.458,3.446-1.9,9.862v6.88Z" transform="translate(-498.048 -420.188)"/><path class="e" d="M507.852,570.359l-11.419-.267h-.011l-5.612-.13.65-7.5,3.114.114,9.909,2.208,3.028,4.756Z" transform="translate(-425.041 -487.029)"/><path class="c" d="M507.852,570.359l-11.419-.267h-.011l-5.612-.13.65-7.5,3.114.114,9.909,2.208,3.028,4.756Z" transform="translate(-425.041 -487.029)"/><path class="e" d="M542.977,585.367l-11.419-.267-.188-5.028,8.238-.283,3.028,4.756Z" transform="translate(-460.166 -502.037)"/><path class="v" d="M544.852,602.988l-5.612-.134.651-7.5s1.755,2.8,4.784,2.6Z" transform="translate(-473.471 -519.925)"/><path class="k" d="M850.23,685.807c-.226,2.152-1.755,1.812-1.755,1.812l-.285-.025-2.829-.257.114-3.341a12.311,12.311,0,0,1,2.869.173C849.4,684.388,850.33,684.852,850.23,685.807Z" transform="translate(-738.571 -596.675)"/><path class="w" d="M533.3,454.27s-5.209,2.376-5.586,3.057-2.948,3.618-2.948,3.618l1.114,1.876,5.152-4.1Z" transform="translate(-460.94 -397.75)"/><path class="x" d="M431.524,542.59l-2.412-.36-1.774,2.093s-2.472,1.226-2.76,1.762-1.187,2.106-1.584,2.119-.768.591-.77.82a11.88,11.88,0,0,1-1.884,3.012,2.619,2.619,0,0,0-1.006,1.175,15.683,15.683,0,0,1-1.407,1.852,34.165,34.165,0,0,1-2.771,3.9c-.359.121-1.749,2.558-2.1,2.848s-1.34.549-1.219.784,2.546,3.55,2.4,4.489c0,0,1.8-1.428,1.876-1.868a18.859,18.859,0,0,1,2.3-2.758l11.7-12.151,2.255-7.658Z" transform="translate(-363.129 -473.923)"/><path class="c" d="M438.838,536.812s.481,5.523-1.114,6.36-2.68.74-2.987,1.108-2.176.694-2.374,1.029-5.436,3.263-5.436,3.263-3.583,2.112-4.145,2.571-3.618,1.8-4.139,2.436a33.578,33.578,0,0,1-3.794,2.706s-.958-2.948-2.06-3.207c0,0,2.648-.521,2.8-.938s.947-.864.947-.864,3.769-2.187,3.886-2.68,1.045-1.2,1.045-1.2,1.5-2.046,2.048-2.243a39.029,39.029,0,0,0,3.816-3.55,14.481,14.481,0,0,0,2.467-1.56,41.71,41.71,0,0,1,4.454-2.573l-4.8-5.959,1.517-.466,4.493,1.206.8,1.457Z" transform="translate(-363.966 -464.241)"/><path class="x" d="M440.858,537.343s.482,5.523-1.112,6.36-2.68.741-2.988,1.108-2.176.7-2.374,1.029-5.435,3.264-5.435,3.264-3.583,2.11-4.146,2.566-3.618,1.8-4.139,2.437a33.535,33.535,0,0,1-3.794,2.7s-.962-2.94-2.06-3.208c0,0,2.649-.52,2.8-.938s.947-.866.947-.866,3.769-2.187,3.886-2.68,1.047-1.2,1.047-1.2,1.5-2.046,2.048-2.242a38.842,38.842,0,0,0,3.815-3.551,14.476,14.476,0,0,0,2.467-1.56c.247-.386-1.9-5.494-1.9-5.494l1.565-3.042L433,531.57l4.493,1.206.8,1.457Z" transform="translate(-365.715 -464.691)"/><path class="y" d="M605.354,432.84l-3.665,2.546s-4.429-1.643-2.68-2.3c1.147-.433,1.56-2.667,1.707-4.154.078-.775.082-1.34.082-1.34s5-.008,4.078,1.587a2.51,2.51,0,0,0-.306,1.442A5,5,0,0,0,605.354,432.84Z" transform="translate(-524.877 -374.645)"/><path class="c" d="M618.184,430.654a3.513,3.513,0,0,1-3.854-1.684c.078-.775.082-1.34.082-1.34s5-.008,4.078,1.587A2.51,2.51,0,0,0,618.184,430.654Z" transform="translate(-538.499 -374.679)"/><path class="y" d="M617.841,402.288a3.522,3.522,0,1,1,.079-.323C617.9,402.072,617.873,402.18,617.841,402.288Z" transform="translate(-535.565 -348.818)"/><path class="c" d="M554.531,456.11s-.615,0-.654.875-.661.811-.661.811l-2.889,3s-1.3,3.106-1.286,3.232-.292.651-.224.917-.027,1.072-.268,1a.57.57,0,0,0-.638.572c.005.4-2.03,1.608-1.947,1.9s5.8,3.33,5.8,3.33l2.377,1.842,2.219-4.134,1.849-5.7,1.028-3.307.851-.951-.391-2.232s-.351-.966-.638-.831-1.34,1.273-2.329,1.372-1.567.22-1.8,0S553.3,457.435,554.531,456.11Z" transform="translate(-479.292 -399.343)"/><path class="c" d="M555.248,453.94a.84.84,0,0,0-.772.9c-.04.874-.661.811-.661.811l-2.889,3s-1.3,3.1-1.285,3.232-.293.65-.225.917-.026,1.072-.268,1a.571.571,0,0,0-.639.572c.005.4-2.03,1.608-1.946,1.9s5.794,3.33,5.794,3.33l2.378,1.843,2.219-4.135,1.849-5.7,1.037-3.306.85-.951-.391-2.232s-.351-.966-.638-.831-1.34,1.273-2.328,1.371-1.566.221-1.8,0S555.445,455.192,555.248,453.94Z" transform="translate(-479.811 -397.464)"/><path class="z" d="M555.057,454.61a.839.839,0,0,0-.772.9c-.039.874-.661.812-.661.812l-2.889,3s-1.3,3.106-1.285,3.232-.293.651-.225.917-.025,1.072-.268,1a.57.57,0,0,0-.638.572c.005.4-2.03,1.608-1.946,1.9s5.794,3.331,5.794,3.331l2.377,1.841,2.219-4.134,1.851-5.7,1.036-3.307.851-.951-.391-2.232s-.351-.966-.638-.829-1.34,1.272-2.328,1.371-1.568.221-1.8,0S555.254,455.868,555.057,454.61Z" transform="translate(-479.647 -398.044)"/><path class="c" d="M531.881,452.857a5.432,5.432,0,0,1-1.012-.2,7.059,7.059,0,0,0-1.663-.029s-1.5.092-1.781.527-1.474,2.783-1.884,2.931-2.834,4.049-3.33,4.393-2.632,4.528-2.632,4.528,1.579-.745,2.3.346c.019.028.038.056.055.087.694,1.217,1.34.279,1.34.279a31.132,31.132,0,0,0,2.482-2.458c.184-.364,1.542-3.106,1.892-3.863s3.311-4.5,3.41-4.663S531.881,452.857,531.881,452.857Z" transform="translate(-456.446 -396.295)"/><path class="w" d="M530.712,452.511a8.479,8.479,0,0,1-1.191-.252,7.072,7.072,0,0,0-1.664-.029s-1.5.092-1.781.525-1.474,2.785-1.884,2.931-2.834,4.049-3.33,4.394-2.632,4.528-2.632,4.528,1.579-.745,2.3.346c.017.027.036.056.054.087.694,1.215,1.34.279,1.34.279a31.142,31.142,0,0,0,2.482-2.458c.182-.363,1.542-3.106,1.892-3.863s3.311-4.5,3.41-4.665S530.712,452.511,530.712,452.511Z" transform="translate(-455.277 -395.949)"/><path class="c" d="M603.511,455.62a15.725,15.725,0,0,1,2.144,1.8,15.482,15.482,0,0,0,2.732,1.726s.938,1.731.8,2.354a3.484,3.484,0,0,0-.167,1.549c.122.332.2.33.016.768s-.118.481.134.875-3.752,1.608-3.752,1.608-.536.083-.594.339-3.128,7.011-3.571,8.084-1.845,5.36-3.022,5.42-.268.016-.268.016.181-3.484-.543-4.69.7-5.86.7-5.86S602.878,455.923,603.511,455.62Z" transform="translate(-523.676 -398.919)"/><path class="w" d="M604.671,455.62A16.713,16.713,0,0,1,607,457.471a15.583,15.583,0,0,0,2.739,1.726s.938,1.731.8,2.354a3.485,3.485,0,0,0-.167,1.549c.122.331.2.33.016.768s-.119.481.134.876-3.752,1.608-3.752,1.608-.536.084-.594.339-3.134,7.014-3.581,8.086-1.845,5.353-3.022,5.416-.268.016-.268.016.181-3.484-.543-4.69.717-5.863.717-5.863S604.038,455.923,604.671,455.62Z" transform="translate(-524.836 -398.919)"/><path class="y" d="M619.154,558.55a30.416,30.416,0,0,0-4.347,1.206c-.131.268-3.618,2.346-1.789,3.35s4.7-1.414,4.7-1.414L620,560.238Z" transform="translate(-536.905 -488.056)"/><path class="w" d="M657.472,516.61c.068.02,1.537.951,1.537.951s.691,2.3.843,2.86a16.644,16.644,0,0,1,.511,1.751c-.025.188.418,1.231-.289,1.708s-1.45.4-1.79.721a18.546,18.546,0,0,1-2.983,1.42c-.3.08,1.463-3.5-.709-4.049,0,0,1.556.146,1.636-.126s.17-.982-.121-1.241-1.546-1.5-1.546-1.5Z" transform="translate(-573.338 -451.736)"/><path class="c" d="M618.032,402.007a.968.968,0,0,1-.419-.44c-.143-.279-.287-.619-.592-.69-.172-.042-.379.009-.507-.113a.536.536,0,0,1-.1-.391,1.592,1.592,0,0,0-.256-.888.93.93,0,0,0-.795-.414c-.435.029-.815.426-1.244.347-.189-.035-.37-.162-.555-.113a.545.545,0,0,0-.2.11,2.85,2.85,0,0,0-.894,1.206c-.177.45-.236.938-.448,1.379-.084.172-.247.355-.429.3-.284-.084-.134-.442-.292-.6a.433.433,0,0,0-.224-.09,3.512,3.512,0,1,1,6.947.394Z" transform="translate(-535.679 -348.861)"/><path class="aa" d="M604.414,388.85c.182.054.344-.134.429-.3.212-.435.268-.929.448-1.379a2.844,2.844,0,0,1,.9-1.206.544.544,0,0,1,.194-.111c.185-.048.367.078.555.113.429.08.8-.318,1.243-.347a.93.93,0,0,1,.795.415,1.573,1.573,0,0,1,.256.887.535.535,0,0,0,.1.391c.126.123.334.072.507.113.306.072.448.411.592.69s.435.571.726.45a2.79,2.79,0,0,1,.248-.134c.165-.055.362.035.509-.056.188-.115.134-.4.012-.594s-.268-.4-.192-.607a.823.823,0,0,1,.2-.26,1.288,1.288,0,0,0-.078-1.767c-.119-.107-.259-.19-.375-.3a3.946,3.946,0,0,1-.536-.8,2.45,2.45,0,0,0-.854-.8,1.22,1.22,0,0,0-.5-.173,4.191,4.191,0,0,0-.724.1c-.812.082-1.51-.56-2.3-.742a.654.654,0,0,0-.545.064c-.158.123-.192.344-.268.536a1.61,1.61,0,0,1-.955.855c-.473.181-1.072.279-1.269.744-.172.4.051.863-.039,1.286a2.591,2.591,0,0,1-.509.868.936.936,0,0,0-.166.949.844.844,0,0,0,.434.339c.222.091.718.043.868.19S604.13,388.768,604.414,388.85Z" transform="translate(-528.462 -335.5)"/><path class="c" d="M674.47,546.66c.08.008,1.545.268,1.889.761S674.47,546.66,674.47,546.66Z" transform="translate(-590.58 -477.759)"/><path class="c" d="M669,535a11.808,11.808,0,0,1,1.782.516A11.8,11.8,0,0,1,669,535Z" transform="translate(-585.843 -467.662)"/><path class="c" d="M672.92,505.57s1.175.515,1.309.833S672.92,505.57,672.92,505.57Z" transform="translate(-589.238 -442.175)"/><path class="c" d="M560.84,605c.122.086,3.008,2.227,2.772,2.3A20.6,20.6,0,0,1,560.84,605Z" transform="translate(-492.177 -528.282)"/><path class="c" d="M560.68,615s1.691.817,1.408,1.159S560.68,615,560.68,615Z" transform="translate(-492.038 -536.942)"/><g class="u" transform="translate(74.283 49.113)"><path d="M608.27,400.1c.076-.363-.076-.756-.013-1.112V399c-.169.391.044.848-.035,1.266A1.128,1.128,0,0,0,608.27,400.1Z" transform="translate(-607.465 -398.99)"/><path d="M670.109,412.644a.345.345,0,0,0-.019.11,1.483,1.483,0,0,1,.167-.189,1.168,1.168,0,0,0,.283-.555,1.134,1.134,0,0,1-.229.374A.824.824,0,0,0,670.109,412.644Z" transform="translate(-661.07 -410.265)"/><path d="M627.925,407.885c-.147.091-.346,0-.511.056-.09.031-.161.1-.248.134-.291.121-.583-.17-.726-.449s-.287-.619-.592-.691c-.172-.04-.381.011-.507-.113a.537.537,0,0,1-.1-.39,1.588,1.588,0,0,0-.255-.888.938.938,0,0,0-.8-.415c-.434.029-.813.427-1.242.348-.189-.036-.371-.162-.556-.114a.565.565,0,0,0-.194.111,2.845,2.845,0,0,0-.9,1.206,4.082,4.082,0,0,0-.134.393c.023-.071.047-.142.075-.212a2.845,2.845,0,0,1,.9-1.206.544.544,0,0,1,.194-.111c.185-.048.367.078.555.113.429.08.8-.318,1.244-.347a.93.93,0,0,1,.795.415,1.573,1.573,0,0,1,.256.887.535.535,0,0,0,.1.391c.126.123.334.072.507.113.305.072.448.411.592.69s.436.571.726.45a2.782,2.782,0,0,1,.248-.134c.165-.055.362.035.509-.056a.268.268,0,0,0,.121-.241A.238.238,0,0,1,627.925,407.885Z" transform="translate(-618.706 -404.306)"/><path d="M604.931,418.721c-.083.172-.247.354-.429.3-.284-.083-.134-.441-.291-.6s-.646-.1-.868-.19a.849.849,0,0,1-.434-.339.642.642,0,0,1-.056-.454.733.733,0,0,0,0,.635.844.844,0,0,0,.434.339c.222.091.718.043.868.19s.007.515.291.6c.182.054.344-.134.429-.3a3.5,3.5,0,0,0,.208-.579A2.871,2.871,0,0,1,604.931,418.721Z" transform="translate(-602.78 -414.968)"/></g><path class="c" d="M567.572,477.3s-1.154,1.722-1.016,2.082S567.572,477.3,567.572,477.3Z" transform="translate(-497.117 -417.694)"/><path class="c" d="M575.47,519.17a3.235,3.235,0,0,1,.836.5C576.53,519.906,575.47,519.17,575.47,519.17Z" transform="translate(-504.846 -453.953)"/><path class="c" d="M585.51,532.27s1.308.316,1.419.521S585.51,532.27,585.51,532.27Z" transform="translate(-513.541 -465.298)"/><path class="c" d="M587.21,545.63s1.183.155,1.317.614S587.21,545.63,587.21,545.63Z" transform="translate(-515.013 -476.867)"/><path class="c" d="M865.6,687.049c-.226,2.152-1.755,1.812-1.755,1.812l-.285-.026a2.891,2.891,0,0,1-.45-1.616,2.714,2.714,0,0,1,.6-1.809C864.771,685.63,865.7,686.093,865.6,687.049Z" transform="translate(-753.938 -597.917)"/><path class="m" d="M524.979,487.22c-2.585,0-4.679,2.831-4.679,6.323s2.094,6.322,4.679,6.322,4.681-2.831,4.681-6.322S527.565,487.22,524.979,487.22Zm-.661,11.324c-1.97,0-3.566-2.053-3.566-4.587s1.6-4.586,3.566-4.586,3.567,2.053,3.567,4.586S526.29,498.544,524.319,498.544Z" transform="translate(-457.069 -426.284)"/><path class="m" d="M507.259,505.494l2.19,2.151.792-1.926-3.17-1.849Z" transform="translate(-439.122 -436.291)"/><path class="e" d="M448.568,357.07l1.905.232.708.84-1.072,4.824-2.278,7.772-1.5,5.336-1.051,3.24-.67,4.288-.67,2.948-2.01,2.01-4.087-4.824-.67-1.608-1.608-3.283,4.154-1.943,4.556-.4,2.144-5.494,1.742-6.365Z" transform="translate(-377.203 -309.162)"/><path class="e" d="M228.721,511.834l-2.491,20.912,31.367-1.321-3.623-10.267-6.039-3.926,13.815.226.075-5.737-5.586-1.209-11.248-.906-8.455-.377-8.078,2.641" transform="translate(-195.915 -440.932)"/><path class="c" d="M228.721,511.834l-2.491,20.912,31.367-1.321-3.623-10.267-6.039-3.926,13.815.226.075-5.737-5.586-1.209-11.248-.906-8.455-.377-8.078,2.641" transform="translate(-195.915 -440.932)"/><path class="m" d="M528.824,658.534c0,5.2-1.727,9.927-6.518,9.409-6.042-.134-6.516-4.213-6.516-9.409s2.917-9.064,6.516-9.064S528.824,653.337,528.824,658.534Z" transform="translate(-453.163 -566.793)"/><path class="c" d="M550.027,662.241c0-4.02-1.749-7.249-4.209-8.5-3.16.6-5.588,4.234-5.588,8.978,0,4.259.319,7.772,3.76,8.969C548.416,671.843,550.027,667.259,550.027,662.241Z" transform="translate(-474.329 -570.49)"/><path class="e" d="M598.663,565.515l-1.843,2.111,3.317-.57,2.479-2.278,2.211-4.422,3.116-1.909,7.638,1.039,7.069.268,2.609-2.317-2.911-.4-2.948-.067L612,556.8l-8.811-.234-1.809,4.824L600,564.711Z" transform="translate(-516.846 -481.929)"/><path class="e" d="M208.813,435.754a46.284,46.284,0,0,1-5.092.982l-13.668,2.491-23.474.339-2.755-2.341-1.447.257-.059.011-19.334,3.432-.315-.044-5.269-.752-27.52-3.922.308-3.995.182-2.358.377-4.9.268-1.284,2.451-.225,1.144-.1,17.861-1.639,2.336-.214,1.309-.119,12.758-1.742,18.609.453.075-5.738,7.361-22.646c1.623.268,1.585,1.359,1.585,1.359l-6.267,21.328-.076,13.1c13.032,1.316,13.452-1.524,15.513-.567l2.492-7.964,21.892.114C210.932,420.127,208.813,435.754,208.813,435.754Z" transform="translate(-101.646 -343.564)"/><path class="e" d="M394.4,598.8l6.945,14.91,2.34.754.567-2.416-2.6-8.267-2.68-4.793Z" transform="translate(-341.55 -518.5)"/><path class="ab" d="M394.4,598.8l6.945,14.91,2.34.754.567-2.416-2.6-8.267-2.68-4.793Z" transform="translate(-341.55 -518.5)"/><ellipse class="m" cx="12.579" cy="14.268" rx="12.579" ry="14.268" transform="translate(35.75 82.451)"/><path class="c" d="M366.372,654.43c-6.582.458-11.792,6.657-11.792,14.239,0,6.112,3.388,11.326,8.149,13.357,6.582-.458,11.792-6.657,11.792-14.239C374.521,661.675,371.133,656.461,366.372,654.43Z" transform="translate(-313.556 -571.088)"/><path class="e" d="M87.605,568.07l-.623,2.939L85.077,580l-8.191-.793s-.49-1.509.793-2.076c0,0,.421-5.109,1.935-6.719a1.525,1.525,0,0,1,.594-.414Z" transform="translate(-72.993 -496.3)"/><path class="v" d="M86.982,586.155l-1.905,8.993-8.191-.793s-.49-1.509.793-2.076c0,0,.421-5.109,1.935-6.719Z" transform="translate(-72.993 -511.447)"/><path class="e" d="M155.449,530.561c1.056,1.771-1.5,18.116-1.5,18.116l-20.124-3.322.717-14.306c.415-2.566,1.926-2.868,1.926-2.868,7.1-3.586,23.4-4.342,23.4-4.342a119.285,119.285,0,0,1,28.423,4.945C171.378,526.181,155.449,530.561,155.449,530.561Z" transform="translate(-122.378 -457.997)"/><path class="c" d="M153.944,575.1,133.82,571.78l.717-14.306c.415-2.566,1.926-2.868,1.926-2.868s14.682-1.4,18.987,2.38C156.5,558.758,153.944,575.1,153.944,575.1Z" transform="translate(-122.378 -484.422)"/><path class="e" d="M159.372,587.742l-16.822-2.834.6-12.206c.347-2.19,1.608-2.447,1.608-2.447s12.277-1.193,15.875,2.029C161.518,573.8,159.372,587.742,159.372,587.742Z" transform="translate(-129.938 -498.006)"/><ellipse class="c" cx="2.302" cy="4.19" rx="2.302" ry="4.19" transform="translate(25.748 75.506)"/><ellipse class="k" cx="2.302" cy="4.19" rx="2.302" ry="4.19" transform="translate(25.748 75.393)"/><path class="l" d="M256.173,603.28s-.938.15-.453,1.4a9.016,9.016,0,0,1,.565,1.887s.938.492.906-1.132A2.406,2.406,0,0,0,256.173,603.28Z" transform="translate(-227.822 -526.792)"/><ellipse class="c" cx="2.152" cy="3.915" rx="2.152" ry="3.915" transform="translate(13.555 74.12)"/><ellipse class="k" cx="2.152" cy="3.915" rx="2.152" ry="3.915" transform="translate(13.555 74.006)"/><path class="l" d="M164.073,590.88s-.938.151-.453,1.4a9.1,9.1,0,0,1,.567,1.887s.938.49.906-1.132A2.412,2.412,0,0,0,164.073,590.88Z" transform="translate(-148.064 -516.054)"/><path class="c" d="M188.24,589.7c-.15,1.548-.906,13.022-.906,13.022l-1.281-.214-.712-.117-.949-.159-.115-.019-3.737-.623.738-12.171a1.522,1.522,0,0,1,1.546-1.426,1.074,1.074,0,0,1,.114,0c.259.023.536.05.827.082.122.013.247.027.371.043.359.043.73.1,1.093.154.185.032.367.066.548.1.3.06.6.127.871.2.184.051.359.106.52.166C187.844,588.983,188.285,589.3,188.24,589.7Z" transform="translate(-162.837 -513.55)"/><path class="e" d="M190.177,587.991l-.732,13.668-.415-.038.725-13.589A1.512,1.512,0,0,1,190.177,587.991Z" transform="translate(-170.19 -513.551)"/><path class="e" d="M198.807,588.634l-.685,13.813h-.642l.955-13.857C198.557,588.6,198.682,588.618,198.807,588.634Z" transform="translate(-177.507 -514.071)"/><path class="e" d="M209.957,590.214l-1.08,13.861h-.417v-.019l.947-13.936C209.594,590.145,209.776,590.179,209.957,590.214Z" transform="translate(-187.016 -515.396)"/><path class="e" d="M218.188,592.506l-1.111,13.767v.027l-.717-.076v-.067l1.3-13.817C217.853,592.391,218.028,592.446,218.188,592.506Z" transform="translate(-193.857 -517.318)"/><path class="c" d="M113.488,623.918s-1.387-7.162,1.784-7.531,13.589.4,13.277,3.341-.647,7.417-.647,7.417l-2.151-.481s1.608-6.738-.906-6.992-8.691-.964-8.691-.964-1.671-.283-.708,5.628Z" transform="translate(-104.509 -538.069)"/><path class="k" d="M113.488,626.061s-1.387-7.615,1.784-7.984,13.589.4,13.277,3.341-.647,7.417-.647,7.417l-2.151-.481s1.608-6.738-.906-6.992-8.7-.957-8.7-.957-1.671.17-.708,6.088Z" transform="translate(-104.509 -539.533)"/><path class="e" d="M310.207,617.787l-2.793-.038a54.007,54.007,0,0,0-5.4-14.57c-1.136-.6-13.517-.523-13.517-.523-1.284.226-1.623,4.3-1.623,4.3s1.095.938.038,1.548a10.49,10.49,0,0,1-3.816.228,30.2,30.2,0,0,1-6.148-.87c-2.412-.756-.492-2.152-.492-2.152s.34-.453.567-2.948a10.084,10.084,0,0,1,1.378-4.112c.1-.173.17-.268.17-.268a1.294,1.294,0,0,1,.441-.276c3.2-1.34,18.885-.064,18.885-.064l5.813,1.851c.161.064.409.474.714,1.13C306.262,604.964,310.207,617.787,310.207,617.787Z" transform="translate(-245.275 -521.785)"/><path class="c" d="M310.207,617.787l-2.793-.038a54.007,54.007,0,0,0-5.4-14.57c-1.136-.6-13.517-.523-13.517-.523-1.284.226-1.623,4.3-1.623,4.3s1.095.938.038,1.548a10.49,10.49,0,0,1-3.816.228,30.2,30.2,0,0,1-6.148-.87c-2.412-.756-.492-2.152-.492-2.152s.34-.453.567-2.948a10.084,10.084,0,0,1,1.378-4.112c.1-.173.17-.268.17-.268a1.294,1.294,0,0,1,.441-.276c3.2-1.34,18.885-.064,18.885-.064l5.813,1.851c.161.064.409.474.714,1.13C306.262,604.964,310.207,617.787,310.207,617.787Z" transform="translate(-245.275 -521.785)"/><path class="e" d="M321.673,601.008c-5.36-2.085-20.154-.978-20.154-.978-1.57-1.34-4.525-1.431-5.869-1.395.1-.173.17-.268.17-.268a1.293,1.293,0,0,1,.441-.276c3.2-1.34,18.885-.064,18.885-.064l5.813,1.851C321.12,599.942,321.367,600.352,321.673,601.008Z" transform="translate(-262.522 -521.767)"/><path class="e" d="M285.157,604.537c-.339,1.17-1.733,5.852-1.733,5.852a19.809,19.809,0,0,0-.307,2.266,30.2,30.2,0,0,1-6.148-.87c-2.412-.756-.492-2.152-.492-2.152s.34-.453.567-2.948a10.032,10.032,0,0,1,1.548-4.379,1.293,1.293,0,0,1,.441-.276C281.129,602.529,285.415,603.651,285.157,604.537Z" transform="translate(-245.292 -525.71)"/><path class="v" d="M285.157,604.537c-.339,1.17-1.733,5.852-1.733,5.852a19.809,19.809,0,0,0-.307,2.266,30.2,30.2,0,0,1-6.148-.87c-2.412-.756-.492-2.152-.492-2.152s.34-.453.567-2.948a10.032,10.032,0,0,1,1.548-4.379,1.293,1.293,0,0,1,.441-.276C281.129,602.529,285.415,603.651,285.157,604.537Z" transform="translate(-245.292 -525.71)"/><path class="e" d="M331.458,385.278c-1.5.226-2.152,3.341-2.152,3.341l-4.076,13.617,28.818,4.728,7.361-22.646C354.643,381.258,331.458,385.278,331.458,385.278Zm23.182,14.551s-.17,1.3-1.274,1.416l-18.684-.73-3.832-.151-1.285-.05h-.091s-1.416.255-1.19-.938c0,0,1.557-11.323,4.3-12.173,0,0,.285-.06.785-.154.785-.149,2.1-.382,3.639-.595.691-.1,1.43-.186,2.19-.268a32.9,32.9,0,0,1,6.153-.147s13.758-1.274,12.768,1.784c0,0-2.885,11.072-3.48,12.006Z" transform="translate(-288.139 -336.176)"/><path class="e" d="M349.163,425.395h-.091s-1.416.255-1.19-.938c0,0,1.557-11.323,4.3-12.173,0,0,.285-.06.785-.154C351.974,414.076,348.774,420.737,349.163,425.395Z" transform="translate(-307.734 -361.256)"/><path class="c" d="M349.163,425.395h-.091s-1.416.255-1.19-.938c0,0,1.557-11.323,4.3-12.173,0,0,.285-.06.785-.154C351.974,414.076,348.774,420.737,349.163,425.395Z" transform="translate(-307.734 -361.256)"/><path class="c" d="M147.6,682.182a1.822,1.822,0,0,1-1.706.957l-.578-.025-5.442-.234-1.962-.084-1.812-.15-23.924-3.886.182-2.358,2.751.394,1.139.163,16.891,2.412,2.223.327,1.079.154,4.568-.034,4.945-.036a1.86,1.86,0,0,1,.729.134,1.773,1.773,0,0,1,.958.91,1.489,1.489,0,0,1-.042,1.357Z" transform="translate(-103.637 -590.114)"/><path class="k" d="M106.98,665.393a1.822,1.822,0,0,1-1.706.957L97.293,666l-1.812-.151-25.514-4.139-2.01-.326-1.088-.182a1.985,1.985,0,0,1-1.509-2.6c.15-.982,3.85-1.888,5.057-1.849.812.026.925,1.276.911,2.094a5.4,5.4,0,0,1-.043.7l1.194.172,23.342,3.339,9.514-.07a1.828,1.828,0,0,1,1.687,1.051A1.489,1.489,0,0,1,106.98,665.393Z" transform="translate(-63.014 -573.098)"/><path class="c" d="M90.72,666.94a4.383,4.383,0,0,0,2.6,1.434A2.853,2.853,0,0,0,90.72,666.94Z" transform="translate(-85.053 -581.922)"/><path class="c" d="M67.039,693.137s-3.359-.076-3.359,1.742,2.115,2.115,2.115,2.115L95.8,702.766l8.53.15s2.982-2.377-.114-3.434l-8.6.222L67,694.458S67.756,693.439,67.039,693.137Z" transform="translate(-61.636 -604.608)"/><path class="k" d="M104.333,704.577l-8.53-.15L69.12,699.292l-1.952-.377-1.374-.268s-2.115-.3-2.115-2.115c0-1.3,1.731-1.628,2.708-1.71.385-.031.651-.025.651-.025.717.3-.038,1.32-.038,1.32l1.041.192,27.572,5.06,8.606-.226C107.315,702.194,104.333,704.577,104.333,704.577Z" transform="translate(-61.636 -606.046)"/><path class="k" d="M95.184,676.781l1.774-.793.906-.038-.075,7.625L95,683.009l-1.171-.754-.565-3.17a8.625,8.625,0,0,1,.339-1.434C93.712,677.538,95.184,676.781,95.184,676.781Z" transform="translate(-87.253 -589.724)"/><path class="c" d="M95.184,676.781l1.774-.793.906-.038-.075,7.625L95,683.009l-1.171-.754-.565-3.17a8.625,8.625,0,0,1,.339-1.434C93.712,677.538,95.184,676.781,95.184,676.781Z" transform="translate(-87.253 -589.724)"/><path class="c" d="M85.46,699.3l.032.039-1.962-.378-.023-.038a4.8,4.8,0,0,1-.78-4.091c.385-.031.651-.025.651-.025.717.3-.038,1.32-.038,1.32l1.041.192A4.782,4.782,0,0,0,85.46,699.3Z" transform="translate(-77.976 -606.055)"/><path class="c" d="M90.763,672.363q-.5.19-.921.4a6,6,0,0,0-2.513,1.993l-2.01-.326a6.122,6.122,0,0,1,2.948-2.632l.421.1Z" transform="translate(-80.377 -586.13)"/><path class="k" d="M87.524,671.73s-5.51,2.19-2.34,7.247l1.963.378s-3.886-4.454,2.868-7.059Z" transform="translate(-79.408 -586.07)"/><path class="k" d="M132.278,656.625l2.038-.075-.34,8.19-3.284-.6-1.4-.679-.642-1.624-.453-1.623,1.095-1.473,1.246-.829Z" transform="translate(-111.021 -568.511)"/><path class="c" d="M132.278,656.625l2.038-.075-.34,8.19-3.284-.6-1.4-.679-.642-1.624-.453-1.623,1.095-1.473,1.246-.829Z" transform="translate(-111.021 -568.511)"/><ellipse class="k" cx="0.981" cy="1.66" rx="0.981" ry="1.66" transform="translate(20.049 90.681)"/><path class="k" d="M115.789,744.336a2.185,2.185,0,0,0-1.387-1.755,1.634,1.634,0,0,0-2.18,1.734s.028,1.445.992,1.9l.056,1.608s.084,1.5-.765,1.359-.736-1.474-.736-1.474-.453-1.415-1.557-.679a1.112,1.112,0,0,0,.312,1.19,1.086,1.086,0,0,1,.295,1.056,1.536,1.536,0,0,0,.354,1.23,1.427,1.427,0,0,0,1.361.488,2.112,2.112,0,0,0,1.179-.678,3.093,3.093,0,0,0,.817-2.062l.042-2.072A1.615,1.615,0,0,0,115.789,744.336Zm-1.742,1.458a1.653,1.653,0,1,0,0-.005Z" transform="translate(-101.883 -647.362)"/><path class="m" d="M133.391,729.144a.536.536,0,0,0-.268.744,3.731,3.731,0,0,1,.464,1.1c-.043.24.5.043.565-.015s1.048,0,1.1-.67a1.146,1.146,0,0,0-.523-1.02l.226-1.458-1.34-.113.015,1.331Z" transform="translate(-121.721 -634.548)"/><path class="c" d="M133.391,729.144a.536.536,0,0,0-.268.744,3.731,3.731,0,0,1,.464,1.1c-.043.24.5.043.565-.015s1.048,0,1.1-.67a1.146,1.146,0,0,0-.523-1.02l.226-1.458-1.34-.113.015,1.331Z" transform="translate(-121.721 -634.548)"/><path class="c" d="M138.26,738.21s.453,1.557.255,1.608S138.26,738.21,138.26,738.21Z" transform="translate(-126.223 -643.642)"/><path class="c" d="M142.06,735.46s.453,1.557.255,1.608S142.06,735.46,142.06,735.46Z" transform="translate(-129.514 -641.26)"/><path class="m" d="M117.441,691.921l-.756,4.681s-.938-.127-1.45-.239a1.045,1.045,0,0,1-.324-.1c-.027-.027-.082-.024-.155-.009h0c-.252.051-.7.259-.787.083a.125.125,0,0,0-.025-.036h0c-.088-.1-.26-.027-.426,0a.362.362,0,0,1-.268-.035c-.134-.094-.422.056-.653.106-.146.032-.268.026-.33-.106a.3.3,0,0,0-.225-.161h0c-.217-.055-.521-.017-.7-.055a.159.159,0,0,1-.134-.087c-.035-.1-.229-.15-.437-.19-.253-.048-.525-.084-.545-.186,0-.035-.031-.05-.068-.051a2.336,2.336,0,0,0-.413.1h0c-.113.029-.208.029-.234-.051s-.159-.08-.308-.044c-.119.029-.252.076-.354.1s-.158.024-.169-.02c-.038-.15-.528.19-.641-.113a4.03,4.03,0,0,1,.346-4.91s.536.038.954.113a1.5,1.5,0,0,1,.4.113h0a2.308,2.308,0,0,0,.728.084.938.938,0,0,1,.4.1.268.268,0,0,1,.114.121c.063.143.208.173.366.165.214-.013.453-.094.536-.051h.008c.158.068.75,0,.851.1l.008.009c.043.063.268,0,.512-.035h0a.573.573,0,0,1,.469.074.512.512,0,0,0,.367.109,2.158,2.158,0,0,1,.481.019.2.2,0,0,1,.1.06c.1.119.326.1.536.114a.547.547,0,0,1,.3.075.281.281,0,0,0,.109.046,3.227,3.227,0,0,0,.91-.046Z" transform="translate(-99.467 -602.411)"/><path class="c" d="M114.176,696.267c-.119.029-.252.076-.354.1a3.727,3.727,0,0,1,.484-4.927,1.5,1.5,0,0,1,.4.113A4.566,4.566,0,0,0,114.176,696.267Z" transform="translate(-104.438 -603.139)"/><path class="c" d="M122,697.542a2.342,2.342,0,0,0-.413.1h0a3.728,3.728,0,0,1,.72-4.724.939.939,0,0,1,.4.1A4.429,4.429,0,0,0,122,697.542Z" transform="translate(-111.31 -604.42)"/><path class="c" d="M130.035,700.115a.159.159,0,0,1-.134-.087c-.035-.1-.229-.15-.437-.19a3.674,3.674,0,0,1,.576-4.477c.214-.013.453-.094.536-.051h.008A4.589,4.589,0,0,0,130.035,700.115Z" transform="translate(-118.158 -606.479)"/><path class="c" d="M139.171,701.019c-.146.032-.268.025-.33-.106a.3.3,0,0,0-.225-.161h0a3.734,3.734,0,0,1,.709-4.757l.008.009c.043.063.268,0,.512-.035C137.937,697.9,138.918,700.452,139.171,701.019Z" transform="translate(-126.04 -607.062)"/><path class="c" d="M149.644,702.1c-.088-.1-.26-.027-.426,0a3.719,3.719,0,0,1,.594-4.8,2.161,2.161,0,0,1,.481.019A4.518,4.518,0,0,0,149.644,702.1Z" transform="translate(-135.171 -608.211)"/><path class="c" d="M159.186,703.453a1.045,1.045,0,0,1-.324-.1c-.027-.027-.082-.024-.155-.009h0a3.668,3.668,0,0,1,.461-4.556.546.546,0,0,1,.3.075.281.281,0,0,0,.109.046A4.639,4.639,0,0,0,159.186,703.453Z" transform="translate(-143.418 -609.501)"/><ellipse class="m" cx="6.152" cy="9.058" rx="6.152" ry="9.058" transform="translate(46.207 88.342)"/><ellipse class="c" cx="4.473" cy="7.342" rx="4.473" ry="7.342" transform="translate(47.679 90.189)"/><ellipse class="l" cx="4.473" cy="7.342" rx="4.473" ry="7.342" transform="translate(47.679 89.963)"/><ellipse class="m" cx="0.528" cy="0.906" rx="0.528" ry="0.906" transform="translate(52.434 91.473)"/><ellipse class="m" cx="0.528" cy="0.906" rx="0.528" ry="0.906" transform="translate(54.549 99.401)"/><ellipse class="m" cx="0.528" cy="0.906" rx="0.528" ry="0.906" transform="translate(48.849 95.626)"/><ellipse class="m" cx="0.528" cy="0.906" rx="0.528" ry="0.906" transform="translate(50.396 100.909)"/><path class="e" d="M775.22,634.26s4.422,11.777,4.19,12.513c0,0,1.868,1.132,2.321.85s.058-5.494.058-5.494l-.85-4.586-.963-2.718Z" transform="translate(-677.83 -553.621)"/><path class="ab" d="M775.22,634.26s4.422,11.777,4.19,12.513c0,0,1.868,1.132,2.321.85s.058-5.494.058-5.494l-.85-4.586-.963-2.718Z" transform="translate(-677.83 -553.621)"/><ellipse class="m" cx="0.528" cy="0.906" rx="0.528" ry="0.906" transform="translate(55.303 94.493)"/><ellipse class="m" cx="1.548" cy="2.152" rx="1.548" ry="2.152" transform="translate(51.415 95.435)"/><path class="m" d="M701.5,674.89c0,6.817-2.265,13.022-8.549,12.343-7.926-.17-8.549-5.526-8.549-12.343S688.224,663,692.947,663,701.5,668.072,701.5,674.89Z" transform="translate(-599.18 -578.51)"/><path class="c" d="M729.292,679.741c0-5.277-2.294-9.514-5.522-11.151-4.145.788-7.33,5.556-7.33,11.775,0,5.586.419,10.184,4.933,11.765C727.179,692.339,729.292,686.333,729.292,679.741Z" transform="translate(-626.926 -583.351)"/><path class="c" d="M562.137,629.8s-1.132.962-1.755.283c0,0-1.529-12.23-3.453-12.286l-6.625-.056s-.792.339-1.132,1.812l-4.288,12.194-23.47.338-1.793-3.752,19.421.056v-.008c.1-.377,3.35-11.964,5.53-13.4h0a.938.938,0,0,1,.24-.117s8.1-1.072,10.758-.34c0,0,2.774.623,3.453,1.474h0c.091.1,1.142,1.278,1.467,4.69Z" transform="translate(-456.48 -536.303)"/><path class="e" d="M562.137,631.486s-1.132.962-1.755.283c0,0-1.529-12.23-3.453-12.286l-6.625-.056s-.792.339-1.132,1.812l-4.288,12.194-23.47.338-1.793-3.752,19.421.056v-.008c.1-.377,3.35-11.964,5.53-13.4h0a.94.94,0,0,1,.24-.117s8.1-1.072,10.758-.34c0,0,2.774.623,3.453,1.474v.007c.091.1,1.142,1.278,1.467,4.69Z" transform="translate(-456.48 -537.767)"/><path class="c" d="M562.137,631.486s-1.132.962-1.755.283c0,0-1.529-12.23-3.453-12.286l-6.625-.056s-.792.339-1.132,1.812l-4.288,12.194-23.47.338-1.793-3.752,19.421.056v-.008c.1-.377,3.35-11.964,5.53-13.4h0a.94.94,0,0,1,.24-.117s8.1-1.072,10.758-.34c0,0,2.774.623,3.453,1.474v.007c.091.1,1.142,1.278,1.467,4.69Z" transform="translate(-456.48 -537.767)"/><path class="e" d="M673.239,622.7c-.567,1.072-5.435,14.325-5.435,14.325l-3.284-2.378v-.008c.1-.377,3.35-11.976,5.533-13.4C671.473,621.476,673.624,621.972,673.239,622.7Z" transform="translate(-581.964 -542.346)"/><path class="e" d="M575.423,586.94l-2.661,8.718-13.872-.4.113,1.3s10.871,1.585,15.513-.567l2.492-7.964,21.892.113-4.17-.981Z" transform="translate(-490.488 -512.642)"/><path class="v" d="M575.423,586.94l-2.661,8.718-13.872-.4.113,1.3s10.871,1.585,15.513-.567l2.492-7.964,21.892.113-4.17-.981Z" transform="translate(-490.488 -512.642)"/><path class="c" d="M171.336,689.47s-7.436,3.737-1.926,7.248l1.474.339s-5.4-3.886,3.618-7.587Z" transform="translate(-151.439 -601.433)"/><path class="k" d="M173.026,689.47s-7.436,3.737-1.926,7.248l1.474.339s-5.4-3.886,3.618-7.587Z" transform="translate(-152.902 -601.433)"/><ellipse class="m" cx="4.133" cy="7.078" rx="4.133" ry="7.078" transform="translate(92.917 90.264)"/><ellipse class="c" cx="3.004" cy="5.735" rx="3.004" ry="5.735" transform="translate(93.906 91.76)"/><ellipse class="l" cx="3.004" cy="5.735" rx="3.004" ry="5.735" transform="translate(93.906 91.533)"/><ellipse class="m" cx="0.355" cy="0.708" rx="0.355" ry="0.708" transform="translate(97.101 92.713)"/><ellipse class="m" cx="0.355" cy="0.708" rx="0.355" ry="0.708" transform="translate(98.521 98.906)"/><ellipse class="m" cx="0.355" cy="0.708" rx="0.355" ry="0.708" transform="translate(94.691 95.957)"/><ellipse class="m" cx="0.355" cy="0.708" rx="0.355" ry="0.708" transform="translate(95.731 100.085)"/><ellipse class="m" cx="0.355" cy="0.708" rx="0.355" ry="0.708" transform="translate(99.028 95.072)"/><ellipse class="m" cx="1.04" cy="1.68" rx="1.04" ry="1.68" transform="translate(96.416 95.809)"/><path class="c" d="M324.8,524a140.165,140.165,0,0,1,28.876,4.926Z" transform="translate(-287.766 -458.136)"/><path class="k" d="M769.575,359.77s-.682.11-.327,1.01a6.446,6.446,0,0,1,.414,1.365s.683.355.655-.82A1.749,1.749,0,0,0,769.575,359.77Z" transform="translate(-672.569 -315.913)"/><path class="y" d="M520.625,493.755l-.008.011a1.278,1.278,0,0,0-.268.618c-.11.716-.214,2.182.827,1.939a3.216,3.216,0,0,0,1.552-.843,1.272,1.272,0,0,0,.344-.938h0a.978.978,0,0,0-.43-.817l-.387-.222a.67.67,0,0,0-.362-.094l-.67.024A.836.836,0,0,0,520.625,493.755Z" transform="translate(-457.054 -431.643)"/><path class="e" d="M556.917,404.5l-2,9.94-1.416,2.991.938,1.742,2.077-4.891s2.278-7.169,2.278-7.37A25.2,25.2,0,0,0,556.917,404.5Z" transform="translate(-485.82 -354.649)"/></g></svg>