<svg xmlns="http://www.w3.org/2000/svg" xmlns:xlink="http://www.w3.org/1999/xlink" viewBox="0 0 150.988 111.937"><defs><style>.a,.g{fill:#6a4dff;}.a,.c,.e{opacity:0.1;}.b{fill:#464a5f;}.d{fill:#9c9ca1;}.f{fill:#939498;}.h{fill:none;stroke:#565987;stroke-miterlimit:10;}.i{fill:#ffd037;}.j{fill:#a8a8a8;}.k{opacity:0.2;}.l{fill:url(#a);}.m{fill:#464353;}.n{fill:#ecb4b6;}.o{fill:#c17174;}.p{fill:#5e5a6b;}</style><linearGradient id="a" x1="3.455" y1="1" x2="3.455" gradientUnits="objectBoundingBox"><stop offset="0" stop-color="gray" stop-opacity="0.251"/><stop offset="0.54" stop-color="gray" stop-opacity="0.122"/><stop offset="1" stop-color="gray" stop-opacity="0.102"/></linearGradient></defs><g transform="translate(0 -0.01)"><path class="a" d="M135.278,41.374c-5.976-2.429-12.289-4.457-18.734-4.2A27.861,27.861,0,0,0,93.519,51.613c-3.781,7.09-4.247,15.4-5.875,23.268-2.009,9.7-5.851,18.906-9.956,27.916-2.2,4.84-4.531,9.784-4.891,15.09-.5,7.364,3.018,14.7,8.541,19.6s12.854,7.485,20.214,8.048c3.916.3,8.009.022,11.489-1.8,3.679-1.928,6.363-5.413,10.058-7.314,3.424-1.762,7.43-2.01,11.275-1.78a50.521,50.521,0,0,1,14.72,3.129c5.374,2.019,10.371,4.94,15.732,6.987s11.352,3.187,16.833,1.48c5.143-1.6,9.218-5.5,12.879-9.443a165.229,165.229,0,0,0,16.426-20.782c3.309-4.956,6.389-10.186,7.853-15.964a31.881,31.881,0,0,0-9.593-31.044c-7.071-6.254-16.566-8.965-25.86-10.616-8.476-1.5-18.276-1.594-26.077-5.507C149.846,49.152,143.076,44.546,135.278,41.374Z" transform="translate(-68.729 -37.14)"/><path class="b" d="M933.65,573.41l.226.228.1-.392-.108-.386h-.279Z" transform="translate(-807.028 -495.192)"/><path class="c" d="M933.65,573.41l.226.228.1-.392-.108-.386h-.279Z" transform="translate(-807.028 -495.192)"/><path class="d" d="M932.154,576.92l.22.234-.22.258-.236-.088-.058-.114Z" transform="translate(-805.532 -498.701)"/><path class="c" d="M932.154,576.92l.22.234-.22.258-.236-.088-.058-.114Z" transform="translate(-805.532 -498.701)"/><path class="d" d="M506.772,310.28,481.98,335.072a2.383,2.383,0,0,0-.007,3.363l38,38.3a2.383,2.383,0,0,0,3.365.018l25.162-24.8Z" transform="translate(-421.88 -273.243)"/><path class="c" d="M506.772,310.28,481.98,335.072a2.383,2.383,0,0,0-.007,3.363l38,38.3a2.383,2.383,0,0,0,3.365.018l25.162-24.8Z" transform="translate(-421.88 -273.243)"/><path class="d" d="M506.772,306.65,481.98,331.442a2.383,2.383,0,0,0-.007,3.363l38,38.3a2.383,2.383,0,0,0,3.365.019L548.5,348.319Z" transform="translate(-421.88 -270.105)"/><path class="b" d="M674,175.306l-2.275,17.263,41.73,41.674,2.4-17.548a2.538,2.538,0,0,0-.737-2.16l-40.263-39.525a.5.5,0,0,0-.851.3Z" transform="translate(-586.51 -156.188)"/><path class="c" d="M674,175.306l-2.275,17.263,41.73,41.674,2.4-17.548a2.538,2.538,0,0,0-.737-2.16l-40.263-39.525a.5.5,0,0,0-.851.3Z" transform="translate(-586.51 -156.188)"/><path class="b" d="M671.585,176.516l-2.275,17.263,41.73,41.674,2.4-17.548a2.538,2.538,0,0,0-.737-2.16l-40.263-39.525a.5.5,0,0,0-.851.3Z" transform="translate(-584.418 -157.234)"/><g class="e" transform="translate(74.666 44.338)"><path d="M659.612,364.278,658.1,365.8a.479.479,0,0,0,0,.678l1.529,1.569a.48.48,0,0,0,.678.014l1.5-1.418a.479.479,0,0,0,.024-.671l-1.529-1.673a.478.478,0,0,0-.7-.02Z" transform="translate(-649.274 -364.138)"/><path d="M680.408,385l-1.5,1.521a.479.479,0,0,0,0,.671l1.529,1.568a.478.478,0,0,0,.678.014l1.5-1.417a.481.481,0,0,0,.024-.678L681.1,385.01a.478.478,0,0,0-.7-.011Z" transform="translate(-667.259 -382.046)"/><path d="M702.191,406.754l-1.5,1.522a.48.48,0,0,0,0,.671l1.531,1.569a.48.48,0,0,0,.678.014l1.5-1.418a.479.479,0,0,0,.024-.671l-1.529-1.673a.479.479,0,0,0-.7-.014Z" transform="translate(-686.09 -400.85)"/><path d="M724.22,428.811l-1.5,1.529a.48.48,0,0,0,0,.671l1.531,1.568a.48.48,0,0,0,.678.014l1.5-1.418a.477.477,0,0,0,.026-.671l-1.537-1.68a.48.48,0,0,0-.7-.014Z" transform="translate(-705.133 -419.921)"/><path d="M746.229,450.842l-1.5,1.525a.48.48,0,0,0,0,.678l1.531,1.568a.48.48,0,0,0,.678.014l1.5-1.418a.477.477,0,0,0,.026-.671l-1.529-1.673a.48.48,0,0,0-.7-.023Z" transform="translate(-724.155 -438.965)"/><path d="M767.808,471.922l-1.867,1.891a.225.225,0,0,0,0,.314l1.88,1.926a.225.225,0,0,0,.314,0L770,474.292a.224.224,0,0,0,.011-.315l-1.879-2.055a.225.225,0,0,0-.327,0Z" transform="translate(-742.56 -457.25)"/><path d="M789.839,493.973l-1.867,1.9a.224.224,0,0,0,0,.313l1.88,1.928a.225.225,0,0,0,.315,0l1.867-1.762a.224.224,0,0,0,.011-.315l-1.879-2.055a.225.225,0,0,0-.327-.007Z" transform="translate(-761.604 -476.314)"/><path d="M809.339,513.5l-1.867,1.9a.224.224,0,0,0,0,.313l1.88,1.928a.225.225,0,0,0,.315,0l1.867-1.762a.224.224,0,0,0,.011-.315l-1.88-2.048a.225.225,0,0,0-.325-.014Z" transform="translate(-778.461 -493.196)"/><path d="M831.175,535.288l-1.867,1.89a.224.224,0,0,0,0,.315l1.88,1.926a.224.224,0,0,0,.314,0l1.867-1.762a.225.225,0,0,0,.011-.315l-1.879-2.055a.225.225,0,0,0-.327,0Z" transform="translate(-797.336 -512.024)"/><path d="M852.325,556.485l-1.867,1.89a.224.224,0,0,0,0,.315l1.88,1.928a.225.225,0,0,0,.315,0l1.867-1.762a.225.225,0,0,0,.011-.315l-1.886-2.048a.225.225,0,0,0-.32-.007Z" transform="translate(-815.619 -530.355)"/><path d="M873.462,577.582l-1.87,1.9a.224.224,0,0,0,0,.313l1.88,1.928a.225.225,0,0,0,.315,0l1.867-1.762a.224.224,0,0,0,.011-.315l-1.879-2.055a.225.225,0,0,0-.324-.007Z" transform="translate(-833.888 -548.59)"/><path d="M894.628,598.781l-1.867,1.891a.225.225,0,0,0,0,.315l1.875,1.926a.225.225,0,0,0,.315.007l1.867-1.762a.224.224,0,0,0,.011-.315l-1.879-2.055a.225.225,0,0,0-.321-.007Z" transform="translate(-852.188 -566.916)"/><path d="M639.525,384.4l-1.5,1.521a.479.479,0,0,0,0,.678l1.531,1.568a.479.479,0,0,0,.678.014l1.5-1.417a.48.48,0,0,0,.026-.678l-1.539-1.674a.48.48,0,0,0-.694-.012Z" transform="translate(-631.916 -381.531)"/><path d="M595.52,428.392l-1.5,1.521a.48.48,0,0,0,0,.678l1.529,1.556a.479.479,0,0,0,.671.015l1.5-1.418a.477.477,0,0,0,.024-.671l-1.529-1.667a.479.479,0,0,0-.694-.014Z" transform="translate(-593.876 -419.558)"/><path d="M660.256,405.1l-1.5,1.521a.479.479,0,0,0,0,.678l1.529,1.569a.48.48,0,0,0,.678.015l1.5-1.425a.481.481,0,0,0,.024-.678l-1.529-1.672a.477.477,0,0,0-.7-.008Z" transform="translate(-649.836 -399.421)"/><path d="M682.056,426.873l-1.5,1.521a.478.478,0,0,0,0,.671l1.53,1.568a.479.479,0,0,0,.678.014l1.5-1.417a.48.48,0,0,0,.026-.678l-1.529-1.673a.48.48,0,0,0-.7-.007Z" transform="translate(-668.685 -418.238)"/><path d="M704.086,448.966l-1.5,1.522a.479.479,0,0,0,0,.671l1.53,1.569a.477.477,0,0,0,.671.014l1.5-1.417a.48.48,0,0,0,.026-.678l-1.532-1.661a.481.481,0,0,0-.7-.02Z" transform="translate(-687.729 -437.346)"/><path d="M616.988,448.388l-1.5,1.521a.478.478,0,0,0,0,.671l1.529,1.569a.479.479,0,0,0,.678.014l1.5-1.417a.481.481,0,0,0,.024-.678l-1.529-1.671a.477.477,0,0,0-.7-.008Z" transform="translate(-612.436 -436.838)"/><path d="M638.745,470.178l-1.5,1.522a.478.478,0,0,0,0,.678l1.531,1.568a.478.478,0,0,0,.678.014l1.5-1.417a.48.48,0,0,0,.026-.678l-1.529-1.673a.48.48,0,0,0-.7-.015Z" transform="translate(-631.242 -455.676)"/><path d="M660.8,492.2l-1.5,1.522a.479.479,0,0,0,0,.671l1.531,1.568a.48.48,0,0,0,.678.014l1.5-1.418a.477.477,0,0,0,.026-.671l-1.529-1.673a.48.48,0,0,0-.7-.013Z" transform="translate(-650.307 -474.715)"/><path d="M726.116,470.98l-1.5,1.522a.479.479,0,0,0,0,.671l1.531,1.568a.478.478,0,0,0,.678.014l1.5-1.417a.478.478,0,0,0,.024-.678L726.81,471a.478.478,0,0,0-.694-.016Z" transform="translate(-706.772 -456.374)"/><path d="M748.138,493l-1.5,1.522a.478.478,0,0,0,0,.671l1.531,1.568a.479.479,0,0,0,.678.014l1.5-1.418a.477.477,0,0,0,.024-.671l-1.537-1.674a.479.479,0,0,0-.694-.012Z" transform="translate(-725.807 -475.405)"/><path d="M769.685,514.073l-1.867,1.9a.224.224,0,0,0,0,.315L769.7,518.2a.224.224,0,0,0,.315,0l1.867-1.762a.225.225,0,0,0,.011-.315l-1.879-2.055a.225.225,0,0,0-.328,0Z" transform="translate(-744.182 -493.685)"/><path d="M789.2,533.573l-1.867,1.9a.224.224,0,0,0,0,.315l1.88,1.926a.224.224,0,0,0,.315,0l1.867-1.762a.225.225,0,0,0,.011-.315l-1.879-2.055a.225.225,0,0,0-.327-.007Z" transform="translate(-761.056 -510.546)"/><path d="M811.04,555.448l-1.868,1.9a.224.224,0,0,0,0,.313l1.879,1.928a.225.225,0,0,0,.315,0l1.867-1.762a.224.224,0,0,0,.012-.315l-1.879-2.055a.225.225,0,0,0-.325-.007Z" transform="translate(-779.93 -529.456)"/><path d="M832.195,576.573l-1.867,1.9a.224.224,0,0,0,0,.315l1.879,1.926a.226.226,0,0,0,.316,0l1.865-1.762a.224.224,0,0,0,.012-.315l-1.879-2.055a.225.225,0,0,0-.327-.007Z" transform="translate(-798.218 -547.716)"/><path d="M661.118,447.848l-1.5,1.524a.479.479,0,0,0,0,.671l1.531,1.568a.477.477,0,0,0,.678.014l1.5-1.417a.48.48,0,0,0,.024-.678l-1.537-1.669a.477.477,0,0,0-.694-.014Z" transform="translate(-650.584 -436.376)"/><path d="M683.148,469.829l-1.5,1.52a.478.478,0,0,0,0,.671l1.531,1.568a.477.477,0,0,0,.678.014l1.5-1.417a.481.481,0,0,0,.024-.678l-1.529-1.672a.477.477,0,0,0-.7-.007Z" transform="translate(-669.627 -455.371)"/><path d="M705.178,491.851l-1.5,1.516a.479.479,0,0,0,0,.671l1.529,1.569a.479.479,0,0,0,.678.014l1.5-1.417a.481.481,0,0,0,.024-.678l-1.529-1.673a.479.479,0,0,0-.7,0Z" transform="translate(-688.671 -474.406)"/><path d="M727.208,513.9l-1.5,1.521a.478.478,0,0,0,0,.671l1.529,1.568a.479.479,0,0,0,.678.014l1.5-1.417a.481.481,0,0,0,.024-.678l-1.529-1.673a.479.479,0,0,0-.7-.007Z" transform="translate(-707.714 -493.467)"/><path d="M748.77,535.014,746.9,536.9a.225.225,0,0,0,0,.315l1.879,1.926a.224.224,0,0,0,.314,0l1.867-1.762a.224.224,0,0,0,.012-.315l-1.879-2.057a.224.224,0,0,0-.325,0Z" transform="translate(-726.101 -511.787)"/><path d="M768.27,554.548l-1.868,1.89a.225.225,0,0,0,0,.314l1.879,1.926a.224.224,0,0,0,.315,0l1.867-1.762a.224.224,0,0,0,.012-.315l-1.878-2.054a.224.224,0,0,0-.327,0Z" transform="translate(-742.958 -528.674)"/><path d="M790.108,576.4l-1.867,1.9a.225.225,0,0,0,0,.315l1.879,1.926a.224.224,0,0,0,.315.007l1.867-1.762a.224.224,0,0,0,.012-.314l-1.88-2.055a.225.225,0,0,0-.325-.014Z" transform="translate(-761.837 -547.568)"/><path d="M811.26,597.539l-1.868,1.884a.225.225,0,0,0,0,.315l1.879,1.926a.224.224,0,0,0,.314.007l1.867-1.762a.224.224,0,0,0,.012-.314l-1.876-2.055a.222.222,0,0,0-.328,0Z" transform="translate(-780.12 -565.836)"/><path d="M853.345,597.763l-1.867,1.9a.224.224,0,0,0,0,.315l1.88,1.926a.224.224,0,0,0,.315.007l1.867-1.762a.225.225,0,0,0,.011-.315l-1.879-2.055a.225.225,0,0,0-.327-.014Z" transform="translate(-816.5 -566.037)"/><path d="M874.46,618.9l-1.872,1.89a.224.224,0,0,0,0,.315l1.884,1.926a.224.224,0,0,0,.315.007l1.867-1.762a.225.225,0,0,0,.011-.315l-1.879-2.055a.224.224,0,0,0-.325-.005Z" transform="translate(-834.749 -584.305)"/><path d="M767.873,599.008l-1.762,1.78a.3.3,0,0,0,0,.422l1.775,1.819a.3.3,0,0,0,.422.008l1.762-1.658a.3.3,0,0,0,.019-.415l-1.775-1.941a.3.3,0,0,0-.441-.015Z" transform="translate(-742.687 -567.092)"/><path d="M789.023,620.165l-1.762,1.78a.3.3,0,0,0,0,.422l1.775,1.819a.3.3,0,0,0,.422.008l1.762-1.658a.3.3,0,0,0,.016-.422l-1.78-1.941a.3.3,0,0,0-.432-.008Z" transform="translate(-760.97 -585.381)"/><path d="M810.213,641.293l-1.762,1.78a.3.3,0,0,0,0,.422l1.775,1.819a.3.3,0,0,0,.422.009l1.762-1.659a.3.3,0,0,0,.016-.422l-1.775-1.94a.3.3,0,0,0-.438-.01Z" transform="translate(-779.287 -603.643)"/><path d="M831.218,662.152l-1.867,1.891a.225.225,0,0,0,0,.314l1.88,1.926a.224.224,0,0,0,.314,0l1.867-1.762a.224.224,0,0,0,.011-.315l-1.879-2.055a.225.225,0,0,0-.327,0Z" transform="translate(-797.374 -621.691)"/><path d="M617.085,405.038l-1.6,1.635a.479.479,0,0,0,0,.678l4.474,4.429a.48.48,0,0,0,.666.008l1.67-1.571a.48.48,0,0,0,.01-.69l-4.541-4.493A.478.478,0,0,0,617.085,405.038Z" transform="translate(-612.432 -399.372)"/><path d="M831.309,618.848l-1.959,2a.228.228,0,0,0,0,.317l4.827,4.779a.224.224,0,0,0,.312,0l2.042-1.921a.224.224,0,0,0,0-.323l-4.911-4.859A.225.225,0,0,0,831.309,618.848Z" transform="translate(-797.372 -584.26)"/><path d="M681.66,513.4l-1.869,1.852a.222.222,0,0,0,0,.316l10.41,10.67a.225.225,0,0,0,.315,0l2.033-1.918a.224.224,0,0,0,0-.321l-10.574-10.6A.225.225,0,0,0,681.66,513.4Z" transform="translate(-668.086 -493.107)"/></g><path class="b" d="M659.633,361.846l-1.509,1.525a.479.479,0,0,0,0,.671l1.529,1.568a.48.48,0,0,0,.678.014l1.5-1.418a.478.478,0,0,0,.024-.671l-1.529-1.673a.479.479,0,0,0-.7-.016Z" transform="translate(-574.63 -317.696)"/><path class="b" d="M680.408,382.583l-1.5,1.521a.479.479,0,0,0,0,.671l1.529,1.568a.479.479,0,0,0,.678.014l1.5-1.417a.481.481,0,0,0,.024-.678L681.1,382.6a.478.478,0,0,0-.7-.012Z" transform="translate(-592.593 -335.62)"/><path class="b" d="M702.191,404.314l-1.5,1.522a.48.48,0,0,0,0,.671l1.528,1.566a.48.48,0,0,0,.678.013l1.5-1.418a.478.478,0,0,0,.024-.678l-1.529-1.673a.479.479,0,0,0-.7,0Z" transform="translate(-611.424 -354.4)"/><path class="b" d="M724.2,426.391l-1.5,1.521a.481.481,0,0,0,0,.678l1.531,1.568a.48.48,0,0,0,.678.014l1.5-1.418a.477.477,0,0,0,.026-.671L724.9,426.4a.48.48,0,0,0-.7-.014Z" transform="translate(-630.449 -373.491)"/><path class="b" d="M746.229,448.39l-1.5,1.521a.48.48,0,0,0,0,.678l1.531,1.567a.48.48,0,0,0,.678.015l1.5-1.418a.477.477,0,0,0,.026-.678l-1.529-1.673a.48.48,0,0,0-.7-.012Z" transform="translate(-649.489 -392.502)"/><path class="b" d="M767.809,469.556l-1.867,1.884a.224.224,0,0,0,0,.313l1.88,1.928a.225.225,0,0,0,.315.007L770,471.926a.224.224,0,0,0,.011-.315l-1.88-2.055a.225.225,0,0,0-.325,0Z" transform="translate(-667.895 -410.867)"/><path class="b" d="M789.839,491.557l-1.867,1.891a.223.223,0,0,0,0,.313l1.88,1.928a.225.225,0,0,0,.315,0l1.867-1.762a.224.224,0,0,0,.011-.315l-1.88-2.055a.225.225,0,0,0-.325,0Z" transform="translate(-686.938 -429.885)"/><path class="b" d="M809.339,511.054l-1.867,1.891a.224.224,0,0,0,0,.313l1.879,1.933a.225.225,0,0,0,.315,0l1.867-1.762a.224.224,0,0,0,.011-.315l-1.879-2.055a.225.225,0,0,0-.325-.005Z" transform="translate(-703.795 -446.741)"/><path class="b" d="M831.175,532.885l-1.867,1.89a.224.224,0,0,0,0,.314l1.88,1.926a.224.224,0,0,0,.314.007l1.867-1.762a.225.225,0,0,0,.011-.315l-1.879-2.057a.225.225,0,0,0-.327,0Z" transform="translate(-722.67 -465.612)"/><path class="b" d="M852.325,554.065l-1.867,1.89a.224.224,0,0,0,0,.314l1.879,1.935a.225.225,0,0,0,.314,0l1.867-1.762a.225.225,0,0,0,.011-.315l-1.884-2.055a.225.225,0,0,0-.32-.007Z" transform="translate(-740.953 -483.925)"/><path class="b" d="M873.479,575.193l-1.867,1.9a.224.224,0,0,0,0,.313l1.88,1.928a.225.225,0,0,0,.315,0l1.867-1.762a.224.224,0,0,0,.011-.315l-1.879-2.055a.225.225,0,0,0-.327-.007Z" transform="translate(-759.24 -502.185)"/><path class="b" d="M894.628,596.34l-1.867,1.9a.225.225,0,0,0,0,.314l1.875,1.92a.225.225,0,0,0,.315,0l1.867-1.762a.224.224,0,0,0,.011-.314l-1.879-2.055a.225.225,0,0,0-.321,0Z" transform="translate(-777.522 -520.465)"/><path class="b" d="M639.546,381.99l-1.5,1.521a.478.478,0,0,0,0,.671l1.531,1.569a.478.478,0,0,0,.678.014l1.5-1.417a.48.48,0,0,0,.026-.678L640.24,382a.48.48,0,0,0-.694-.015Z" transform="translate(-557.272 -335.11)"/><path class="b" d="M595.52,425.976l-1.5,1.521a.48.48,0,0,0,0,.678l1.531,1.567a.479.479,0,0,0,.671.015l1.5-1.418a.48.48,0,0,0,.024-.678l-1.531-1.669a.477.477,0,0,0-.694-.016Z" transform="translate(-519.21 -373.133)"/><path class="b" d="M660.278,402.674l-1.5,1.521a.479.479,0,0,0,0,.671l1.529,1.568a.479.479,0,0,0,.678.014l1.5-1.419a.481.481,0,0,0,.024-.678l-1.529-1.672a.477.477,0,0,0-.7-.005Z" transform="translate(-575.192 -352.982)"/><path class="b" d="M682.056,424.5l-1.5,1.522a.478.478,0,0,0,0,.671l1.53,1.568a.479.479,0,0,0,.678.014l1.5-1.417a.48.48,0,0,0,.026-.678l-1.537-1.667a.481.481,0,0,0-.7-.014Z" transform="translate(-594.019 -371.852)"/><path class="b" d="M704.086,446.5l-1.5,1.522a.479.479,0,0,0,0,.671l1.53,1.568a.479.479,0,0,0,.671.014l1.5-1.417a.48.48,0,0,0,.026-.678l-1.529-1.673a.48.48,0,0,0-.7-.008Z" transform="translate(-613.063 -390.866)"/><path class="b" d="M616.988,446l-1.5,1.521a.478.478,0,0,0,0,.671l1.529,1.568a.479.479,0,0,0,.678.014l1.5-1.417a.481.481,0,0,0,.024-.678l-1.536-1.669a.477.477,0,0,0-.694-.011Z" transform="translate(-537.77 -390.439)"/><path class="b" d="M638.766,467.737l-1.5,1.522a.478.478,0,0,0,0,.671l1.531,1.569a.48.48,0,0,0,.678.014l1.5-1.417a.48.48,0,0,0,.026-.678l-1.529-1.673a.48.48,0,0,0-.7-.008Z" transform="translate(-556.598 -409.225)"/><path class="b" d="M660.8,489.8l-1.5,1.529a.479.479,0,0,0,0,.671l1.531,1.569a.48.48,0,0,0,.678.014l1.5-1.418a.477.477,0,0,0,.026-.671l-1.529-1.673a.48.48,0,0,0-.7-.02Z" transform="translate(-575.641 -428.306)"/><path class="b" d="M726.116,468.5l-1.5,1.522a.479.479,0,0,0,0,.671l1.531,1.568a.478.478,0,0,0,.678.014l1.5-1.418a.477.477,0,0,0,.024-.678l-1.529-1.673a.478.478,0,0,0-.7-.007Z" transform="translate(-632.106 -409.883)"/><path class="b" d="M748.138,490.554l-1.5,1.522a.478.478,0,0,0,0,.671l1.531,1.568a.479.479,0,0,0,.678.014l1.5-1.418a.477.477,0,0,0,.024-.671l-1.529-1.673a.479.479,0,0,0-.7-.014Z" transform="translate(-651.141 -428.952)"/><path class="b" d="M769.685,511.662l-1.867,1.891a.224.224,0,0,0,0,.314l1.88,1.926a.224.224,0,0,0,.315,0l1.867-1.762a.225.225,0,0,0,.011-.315l-1.879-2.055a.225.225,0,0,0-.327,0Z" transform="translate(-669.516 -447.264)"/><path class="b" d="M789.2,531.162l-1.867,1.891a.224.224,0,0,0,0,.315l1.88,1.926a.224.224,0,0,0,.315,0l1.867-1.762a.225.225,0,0,0,.011-.315l-1.879-2.055a.225.225,0,0,0-.327,0Z" transform="translate(-686.39 -464.121)"/><path class="b" d="M811.04,553.028l-1.868,1.891a.224.224,0,0,0,0,.313l1.879,1.928a.225.225,0,0,0,.314,0l1.867-1.762a.224.224,0,0,0,.012-.315l-1.879-2.048a.225.225,0,0,0-.325-.007Z" transform="translate(-705.265 -483.025)"/><path class="b" d="M832.195,574.152l-1.867,1.891a.224.224,0,0,0,0,.315l1.879,1.926a.226.226,0,0,0,.316,0l1.865-1.762a.224.224,0,0,0,.012-.315l-1.879-2.055a.225.225,0,0,0-.327,0Z" transform="translate(-723.552 -501.283)"/><path class="b" d="M661.118,445.428l-1.5,1.521a.479.479,0,0,0,0,.671l1.531,1.569a.477.477,0,0,0,.678.014l1.5-1.417a.48.48,0,0,0,.024-.678l-1.537-1.666a.477.477,0,0,0-.694-.014Z" transform="translate(-575.918 -389.946)"/><path class="b" d="M683.126,467.434l-1.5,1.521a.478.478,0,0,0,0,.678l1.53,1.568a.477.477,0,0,0,.678.014l1.5-1.417a.481.481,0,0,0,.024-.678l-1.529-1.672a.477.477,0,0,0-.7-.015Z" transform="translate(-594.94 -408.966)"/><path class="b" d="M705.178,489.448l-1.5,1.521a.479.479,0,0,0,0,.671l1.529,1.569a.479.479,0,0,0,.678.013l1.5-1.417a.481.481,0,0,0,.024-.678l-1.529-1.673a.478.478,0,0,0-.7-.007Z" transform="translate(-614.005 -427.993)"/><path class="b" d="M727.186,511.5l-1.5,1.522a.479.479,0,0,0,0,.678l1.529,1.568a.479.479,0,0,0,.678.013l1.5-1.417a.481.481,0,0,0,.024-.678l-1.529-1.673a.48.48,0,0,0-.7-.015Z" transform="translate(-633.027 -447.057)"/><path class="b" d="M748.77,532.62l-1.868,1.891a.225.225,0,0,0,0,.315l1.879,1.926a.223.223,0,0,0,.314.007L750.962,535a.225.225,0,0,0,.012-.316l-1.879-2.055a.223.223,0,0,0-.325-.005Z" transform="translate(-651.435 -465.383)"/><path class="b" d="M768.27,552.115,766.4,554a.225.225,0,0,0,0,.315l1.879,1.924a.224.224,0,0,0,.315.007l1.867-1.762a.225.225,0,0,0,.012-.316L768.6,552.12a.224.224,0,0,0-.327-.005Z" transform="translate(-668.292 -482.235)"/><path class="b" d="M790.108,573.958l-1.867,1.9a.225.225,0,0,0,0,.315l1.879,1.926a.224.224,0,0,0,.315,0l1.867-1.762a.224.224,0,0,0,.012-.314l-1.88-2.055a.225.225,0,0,0-.325-.007Z" transform="translate(-687.171 -501.118)"/><path class="b" d="M811.26,595.1l-1.868,1.89a.225.225,0,0,0,0,.314l1.879,1.925a.224.224,0,0,0,.314,0l1.867-1.762a.224.224,0,0,0,.012-.315l-1.876-2.047a.222.222,0,0,0-.328-.005Z" transform="translate(-705.454 -519.388)"/><path class="b" d="M853.345,595.328l-1.867,1.9a.224.224,0,0,0,0,.314l1.88,1.926a.224.224,0,0,0,.315,0l1.867-1.762a.225.225,0,0,0,.011-.315l-1.88-2.055a.225.225,0,0,0-.325-.007Z" transform="translate(-741.834 -519.591)"/><path class="b" d="M874.495,616.5l-1.867,1.9a.224.224,0,0,0,0,.314l1.88,1.926a.224.224,0,0,0,.314,0l1.867-1.762a.225.225,0,0,0,.011-.315l-1.88-2.048a.225.225,0,0,0-.325-.014Z" transform="translate(-760.117 -537.894)"/><path class="b" d="M767.873,596.577l-1.762,1.78a.3.3,0,0,0,0,.422l1.775,1.819a.3.3,0,0,0,.422.008l1.762-1.658a.3.3,0,0,0,.016-.422l-1.775-1.941a.3.3,0,0,0-.438-.008Z" transform="translate(-668.021 -520.651)"/><path class="b" d="M789.023,617.745l-1.762,1.78a.3.3,0,0,0,0,.422l1.779,1.825a.3.3,0,0,0,.416,0l1.762-1.658a.3.3,0,0,0,.016-.422l-1.779-1.939a.3.3,0,0,0-.432-.008Z" transform="translate(-686.304 -538.951)"/><path class="b" d="M810.213,638.873l-1.762,1.78a.3.3,0,0,0,0,.422l1.775,1.819a.3.3,0,0,0,.422.008l1.762-1.658a.3.3,0,0,0,.016-.422l-1.775-1.941a.3.3,0,0,0-.438-.008Z" transform="translate(-704.621 -557.212)"/><path class="b" d="M831.218,659.773l-1.867,1.9a.225.225,0,0,0,0,.315l1.88,1.926a.225.225,0,0,0,.314.007l1.867-1.762a.224.224,0,0,0,.011-.315l-1.879-2.055a.225.225,0,0,0-.327-.014Z" transform="translate(-722.708 -575.302)"/><path class="b" d="M617.085,402.623l-1.6,1.636a.479.479,0,0,0,0,.678l4.474,4.429a.48.48,0,0,0,.666.008l1.67-1.571a.48.48,0,0,0,.01-.69l-4.541-4.493A.478.478,0,0,0,617.085,402.623Z" transform="translate(-537.766 -352.946)"/><path class="b" d="M831.309,616.439l-1.959,2a.228.228,0,0,0,0,.317l4.827,4.779a.224.224,0,0,0,.312,0l2.042-1.921a.224.224,0,0,0,0-.323l-4.911-4.859A.224.224,0,0,0,831.309,616.439Z" transform="translate(-722.706 -537.84)"/><path class="b" d="M681.66,510.978l-1.869,1.852a.222.222,0,0,0,0,.316l10.41,10.67a.225.225,0,0,0,.315,0l2.033-1.918a.224.224,0,0,0,0-.321l-10.574-10.6A.225.225,0,0,0,681.66,510.978Z" transform="translate(-593.42 -446.677)"/><path class="c" d="M585.126,518.729l-8.219,8.165a1.22,1.22,0,0,0-.014,1.716l15.2,15.612a1.22,1.22,0,0,0,1.73.019l8.463-8.325a1.22,1.22,0,0,0,.007-1.731l-15.446-15.456A1.22,1.22,0,0,0,585.126,518.729Z" transform="translate(-504.231 -453.126)"/><path class="f" d="M585.126,516.285l-8.219,8.172a1.22,1.22,0,0,0-.014,1.716l15.2,15.612a1.22,1.22,0,0,0,1.73.019l8.463-8.325a1.22,1.22,0,0,0,.007-1.731l-15.446-15.454A1.22,1.22,0,0,0,585.126,516.285Z" transform="translate(-504.231 -451.017)"/><path class="g" d="M684.8,199.689l-2.081,14.549,38.557,38.434,1.963-14.421a2.549,2.549,0,0,0-.725-2.146l-36.859-36.7a.5.5,0,0,0-.855.287Z" transform="translate(-596.01 -177.269)"/><ellipse class="a" cx="3.133" cy="0.43" rx="3.133" ry="0.43" transform="translate(36.871 92.083)"/><ellipse class="a" cx="3.133" cy="0.43" rx="3.133" ry="0.43" transform="translate(24.868 93.3)"/><ellipse class="a" cx="3.133" cy="0.43" rx="3.133" ry="0.43" transform="translate(10.731 91.653)"/><ellipse class="a" cx="2.227" cy="0.306" rx="2.227" ry="0.306" transform="translate(30.578 96.889)"/><ellipse class="a" cx="2.227" cy="0.306" rx="2.227" ry="0.306" transform="translate(18.121 96.582)"/><path class="g" d="M164.09,576.124s4.394-14.405-.689-20.168a9.566,9.566,0,0,0-10.049-3.266,3.571,3.571,0,0,0-2.3,1.914c-.678,1.459-.553,3.824,4.216,6.586,7.987,4.624,8.484,10.967,8.484,10.967Z" transform="translate(-136.155 -482.49)"/><path class="h" d="M175,569.93s12.955,4.049,10.051,21.4" transform="translate(-157.119 -497.694)"/><path class="h" d="M222.35,580.64a2.87,2.87,0,0,0-1.22,3.008" transform="translate(-196.9 -506.952)"/><path class="h" d="M184.61,584.185a2.245,2.245,0,0,1,2.417-.5" transform="translate(-165.426 -509.427)"/><path class="h" d="M222.38,627.336s1.914-.972,2.41.245" transform="translate(-198.076 -547)"/><path class="h" d="M247.994,644.575s-1.438-.114-1.464.573" transform="translate(-218.952 -562.213)"/><path class="g" d="M200.958,663.3s-5.151-10.47-6.561-10.241c-.671.108-.98.769-1.12,1.433a4.224,4.224,0,0,0,.279,2.549A11.293,11.293,0,0,0,200.958,663.3Z" transform="translate(-172.846 -569.548)"/><path class="h" d="M202.36,667.73s5.4,7.834,6.445,8.177" transform="translate(-180.77 -582.235)"/><line class="h" x2="1.261" transform="translate(21.093 86.717)"/><line class="h" x2="1.977" y2="0.084" transform="translate(22.603 89.583)"/><line class="h" x1="0.214" y2="1.029" transform="translate(23.591 87.291)"/><line class="h" x1="0.039" y2="0.935" transform="translate(25.869 90.424)"/><path class="g" d="M249.34,663.3s5.151-10.47,6.56-10.241c.678.108.981.769,1.121,1.433a4.213,4.213,0,0,1-.281,2.549A11.287,11.287,0,0,1,249.34,663.3Z" transform="translate(-221.381 -569.548)"/><path class="h" d="M256.346,667.73s-5.4,7.834-6.446,8.177" transform="translate(-221.865 -582.235)"/><line class="h" x1="1.261" transform="translate(33.716 86.717)"/><line class="h" x1="1.977" y2="0.084" transform="translate(31.49 89.583)"/><line class="h" x2="0.214" y2="1.029" transform="translate(32.264 87.291)"/><line class="h" x2="0.038" y2="0.935" transform="translate(30.163 90.424)"/><path class="g" d="M182.2,737.627a.888.888,0,0,1-.293-.442.393.393,0,0,1,.2-.45.578.578,0,0,1,.542.19.732.732,0,0,0,.527.255.8.8,0,0,1-.248-.75.3.3,0,0,1,.069-.153c.1-.111.293-.064.418.024a1.551,1.551,0,0,1,.511,1.305,2.46,2.46,0,0,0,.007-.542.554.554,0,0,1,.2-.476.617.617,0,0,1,.308-.072.635.635,0,0,1,.5.136.494.494,0,0,1-.02.613,1.929,1.929,0,0,1-.517.415,1.135,1.135,0,0,0-.37.352.373.373,0,0,0-.027.062H182.9a3.124,3.124,0,0,1-.694-.468Z" transform="translate(-163.081 -641.433)"/><path class="g" d="M326.865,706.523a.9.9,0,0,1-.294-.442.394.394,0,0,1,.2-.45.578.578,0,0,1,.542.19.722.722,0,0,0,.526.254.8.8,0,0,1-.248-.75.318.318,0,0,1,.069-.152c.1-.113.293-.064.419.024a1.549,1.549,0,0,1,.51,1.3,2.448,2.448,0,0,0,.008-.542.542.542,0,0,1,.2-.476.6.6,0,0,1,.308-.072.637.637,0,0,1,.5.136.5.5,0,0,1-.019.614,1.931,1.931,0,0,1-.518.407,1.173,1.173,0,0,0-.369.352.3.3,0,0,0-.027.064h-1.121A3.119,3.119,0,0,1,326.865,706.523Z" transform="translate(-288.132 -614.545)"/><path class="g" d="M278.653,737.627a.888.888,0,0,1-.293-.442.393.393,0,0,1,.2-.45.578.578,0,0,1,.542.19.732.732,0,0,0,.527.255.8.8,0,0,1-.248-.75.3.3,0,0,1,.069-.153c.1-.111.293-.064.418.024a1.555,1.555,0,0,1,.511,1.305,2.456,2.456,0,0,0,.007-.542.555.555,0,0,1,.2-.474.617.617,0,0,1,.308-.072.635.635,0,0,1,.5.135.494.494,0,0,1-.02.613,1.927,1.927,0,0,1-.517.415,1.136,1.136,0,0,0-.37.352.375.375,0,0,0-.027.062h-1.12A3.126,3.126,0,0,1,278.653,737.627Z" transform="translate(-246.456 -641.433)"/><path class="g" d="M137.86,683.78s-.42.549.194,1.377,1.12,1.529.915,2.046c0,0-.926-1.54-1.68-1.56S137.03,684.706,137.86,683.78Z" transform="translate(-124.199 -596.11)"/><path class="c" d="M137.86,683.78a.69.69,0,0,0-.085.172c-.736.863-1.128,1.67-.42,1.69.658.018,1.448,1.2,1.636,1.491a.564.564,0,0,1-.022.068s-.926-1.54-1.68-1.56S137.03,684.706,137.86,683.78Z" transform="translate(-124.199 -596.11)"/><path class="i" d="M138.11,688.152c0,.194.022.35.049.35s.049-.156.049-.35-.027-.1-.054-.1S138.11,687.958,138.11,688.152Z" transform="translate(-125.23 -599.782)"/><path class="i" d="M135.484,689.792c.169.092.317.149.329.125s-.114-.117-.283-.21-.1-.024-.115,0S135.315,689.705,135.484,689.792Z" transform="translate(-122.871 -601.192)"/><path class="g" d="M152.865,683.78s.419.549-.194,1.377-1.12,1.529-.915,2.046c0,0,.926-1.54,1.68-1.56S153.693,684.706,152.865,683.78Z" transform="translate(-136.986 -596.11)"/><path class="c" d="M153.012,683.78a.691.691,0,0,1,.085.172c.735.863,1.127,1.67.42,1.69-.659.018-1.448,1.2-1.638,1.491a.567.567,0,0,0,.023.068s.926-1.54,1.68-1.56S153.84,684.706,153.012,683.78Z" transform="translate(-137.133 -596.11)"/><path class="i" d="M165.386,688.152c0,.194-.022.35-.047.35s-.049-.156-.049-.35.027-.1.054-.1S165.386,687.958,165.386,688.152Z" transform="translate(-148.725 -599.782)"/><path class="i" d="M165.885,689.792c-.169.092-.317.149-.331.125s.115-.117.285-.21.1-.024.115,0S166.049,689.705,165.885,689.792Z" transform="translate(-148.952 -601.192)"/><path class="j" d="M137.12,704.46a4.325,4.325,0,0,1-1.528-.287c-.354-.251-1.806-.553-1.9-.149s-1.762,2.009-.438,2.02a11.211,11.211,0,0,0,3.432-.422C137.043,705.406,137.12,704.46,137.12,704.46Z" transform="translate(-120.595 -613.438)"/><path class="k" d="M133.262,709.934a11.2,11.2,0,0,0,3.432-.422c.271-.164.376-.751.407-1.022h.045s-.075.949-.427,1.162a11.3,11.3,0,0,1-3.432.422c-.382,0-.515-.136-.508-.34C132.833,709.855,132.978,709.931,133.262,709.934Z" transform="translate(-120.621 -617.47)"/><path class="l" d="M215.556,250.4a2.939,2.939,0,0,0,.466,1.326A18.342,18.342,0,0,0,218,253.751l1.356.906a7.6,7.6,0,0,1-.859.549,2.881,2.881,0,0,0-1.021,1.455s-1,2.4,1.021,2.741l.038.007.182.2a13.4,13.4,0,0,0,1.184,1.188,13.137,13.137,0,0,1,1.383,1.982s1.1,1.814,2.576,1.9,1.467-1.6,1.356-1.708a.677.677,0,0,1-.091-.23,9.144,9.144,0,0,0,.984,1.411,10.445,10.445,0,0,1,1.085,1.491s1.043,2.382,1.212,2.635a9.471,9.471,0,0,1,.468,1.518,9.733,9.733,0,0,0,.873,1.982,2.518,2.518,0,0,1,.424,1.075s.872,1.265,1.021,1.475a8.964,8.964,0,0,1,.468.949,3.613,3.613,0,0,1,.468,1.055c0,.3.979.8.979.8a4.484,4.484,0,0,0,1.106.971c.4.148.786,1.117.85,1.053a.253.253,0,0,1,.121-.024l.165.165c.645.643,1.935,1.924,2.265,2.221a3.018,3.018,0,0,0,2.318.3,3.461,3.461,0,0,0,1.381-.883.949.949,0,0,0,.016-1.371,5.051,5.051,0,0,0-1.085-.888,6.368,6.368,0,0,1-1.977-1.518,4.28,4.28,0,0,0-1.147-.866l-.049-.028a4.23,4.23,0,0,1-.123-.708s.7-1.581.319-1.665-1.829-2.593-1.829-2.593a5.669,5.669,0,0,0-1.762-3.5s-.872-2.066-1.127-2.508a.678.678,0,0,1,0-.759,2.807,2.807,0,0,1-.573-.569c-.084-.19-.489-1.627-.489-1.627a4.6,4.6,0,0,1-.511-1.265c-.022-.4-.975-1.516-.975-1.516s-.386-1.879-.813-2.216c-.083-.065-.07-.313,0-.67l.02-.022.065-.064.019-.019a6.938,6.938,0,0,0,.55-.611l.008-.011c.027-.034.053-.066.077-.1a9.466,9.466,0,0,0,1-2.847s.122-.057.281-.144a2.676,2.676,0,0,0,.613-.422.135.135,0,0,0,.022-.033.027.027,0,0,0,0-.011.209.209,0,0,0,.011-.026.072.072,0,0,0,0-.015.191.191,0,0,0,0-.03v-.064a.153.153,0,0,0-.007-.054.063.063,0,0,1,0-.007.239.239,0,0,0-.011-.05v-.016a.16.16,0,0,0-.014-.046.121.121,0,0,0,0-.018L231.8,252a.048.048,0,0,1,0-.012c-.026-.068-.057-.136-.092-.209h0l-.037-.069h0a3.691,3.691,0,0,0-.209-.357l-.011-.016a4.836,4.836,0,0,1,.706-1.426c.382-.38-.213-2.4-.213-2.4a11.223,11.223,0,0,0-.3-1.855c-.171-.422,0-.483-.136-.843-.164-.407-.283-.38-.072-1.307.08-.35.2-.735.315-1.094l.136.125c.786.742,2.021,1.707,2.021,1.707s2.424,2.192,2.637,2.256a10.681,10.681,0,0,1,.851,2.214s-.149,3.563,1.807,3.71c.831.062,1.183-.58,1.311-1.338a4.037,4.037,0,0,0-.958-3.309l-1.171-1.331-1.042-1.855a18.89,18.89,0,0,1-1.669-3.313,9.23,9.23,0,0,0-2.044-3.022l-.084-.083.108-.1a8.92,8.92,0,0,0-.3-1.559,5.386,5.386,0,0,1-.6-1.356c0-.217-.3-.252-.468-.506,0,0-.3-.59-.575-.678a.407.407,0,0,1-.136-.087,3.053,3.053,0,0,0-1.738-.752l-.169-.016a9.5,9.5,0,0,0-1.131.016h-.009a2.057,2.057,0,0,1-.731-.512,5.746,5.746,0,0,0-1.189-.82,2.325,2.325,0,0,0-1.432-.323,9.5,9.5,0,0,0-1.1.381c-.534.15-1.19.119-1.526.557-.161.209-.207.487-.358.7-.214.306-.607.449-.828.751a1.152,1.152,0,0,0-.191.748,2.078,2.078,0,0,0,.076.633,3.3,3.3,0,0,1,.123.542.683.683,0,0,1-.015.089c-.03.136-.1.249-.126.381a.688.688,0,0,0-.007.217,1.824,1.824,0,0,0,.309.933,2.494,2.494,0,0,1,.213.743,7.022,7.022,0,0,0-1.029.395,2.933,2.933,0,0,0-1.144.876,5.794,5.794,0,0,1-1.532,1.479,12.051,12.051,0,0,0-.468,1.388,5.069,5.069,0,0,1-.637,1.9,5.155,5.155,0,0,0-.559,1.845,5.3,5.3,0,0,0-.511.991,7.281,7.281,0,0,0,0,1.179.69.69,0,0,0,.148.193l-.038.136A12.139,12.139,0,0,0,215.556,250.4Zm11.989-9.5a1.319,1.319,0,0,1-.038.136c0-.043.007-.085.009-.129ZM222.7,258.924l-.068-.062-.033-.03a.279.279,0,0,1,.012-.051Zm-3.525-8.629.027-.05.1-.182.813-.664.1.095s-.085.885-.3.843c-.049-.009-.07.194-.076.512-.384-.328-.676-.555-.676-.555Z" transform="translate(-192.176 -205.103)"/><path class="m" d="M296.41,248.186s2.531-.228,3.133-.165l.164.015a2.966,2.966,0,0,1,1.688.75.407.407,0,0,0,.136.085c.271.083.56.664.56.664s-.643,5.082-.643,5.145-1.329,2.364-1.329,2.364l-1.286.5-2.219.313-.062-.957a1.926,1.926,0,0,0,.949-1.8C297.381,253.892,296.41,248.186,296.41,248.186Z" transform="translate(-262.07 -219.415)"/><path class="n" d="M264.547,279.709s-.542,2.448,0,3.236-5.352-1.285-5.352-1.285l-1.085-1.951s.407-.289.865-.662c.645-.519,1.418-1.2,1.418-1.491C260.4,277.053,264.547,279.709,264.547,279.709Z" transform="translate(-228.962 -244.9)"/><path class="c" d="M264.547,279.709s-.542,2.448,0,3.236-5.352-1.285-5.352-1.285l-1.085-1.951s.407-.289.865-.662c.645-.519,1.418-1.2,1.418-1.491C260.4,277.053,264.547,279.709,264.547,279.709Z" transform="translate(-228.962 -244.9)"/><circle class="c" cx="3.61" cy="3.61" r="3.61" transform="translate(30.73 29.211)"/><circle class="n" cx="3.61" cy="3.61" r="3.61" transform="translate(30.73 29.044)"/><path class="n" d="M330.833,286.779a2.206,2.206,0,0,0,.621.748c.767.729,1.972,1.68,1.972,1.68s2.366,2.157,2.576,2.219a10.413,10.413,0,0,1,.83,2.179s-.145,3.506,1.762,3.651c.813.061,1.155-.569,1.28-1.316a4,4,0,0,0-.934-3.254l-1.133-1.319-1.017-1.826a18.549,18.549,0,0,1-1.639-3.254,9.074,9.074,0,0,0-1.991-2.982c-.213-.211-.35-.324-.35-.324l-.949.29A28.332,28.332,0,0,0,330.833,286.779Z" transform="translate(-291.825 -249.644)"/><path class="o" d="M357.62,561.984l.363.365c.629.633,1.887,1.9,2.21,2.185a2.939,2.939,0,0,0,2.261.29,3.332,3.332,0,0,0,1.348-.868.933.933,0,0,0,.015-1.349,4.844,4.844,0,0,0-1.052-.874,6.232,6.232,0,0,1-1.929-1.491,4.119,4.119,0,0,0-1.117-.853c-.358-.2-.647-.329-.647-.329Z" transform="translate(-314.982 -488.297)"/><path class="c" d="M361.4,564.759s.121.123.308.31c.535.542,1.605,1.611,1.88,1.859a2.507,2.507,0,0,0,1.922.247,2.568,2.568,0,0,0,1.015-.618.934.934,0,0,0,.034-1.375,3.585,3.585,0,0,0-.785-.636,5.261,5.261,0,0,1-1.64-1.27,3.481,3.481,0,0,0-.949-.725c-.3-.172-.549-.281-.549-.281Z" transform="translate(-318.25 -491.072)"/><path class="o" d="M236,433.122s.285.321.63.7a12.877,12.877,0,0,0,1.154,1.169,12.964,12.964,0,0,1,1.349,1.951s1.085,1.784,2.511,1.867,1.432-1.577,1.327-1.68-.248-1.038-.456-1.723a10.348,10.348,0,0,0-2.059-2.317c-.2-.183-.327-.3-.327-.3Z" transform="translate(-209.85 -379.145)"/><path class="c" d="M238.25,435.072s.258.293.573.637a12.032,12.032,0,0,0,1.052,1.066,11.743,11.743,0,0,1,1.23,1.779s.984,1.627,2.29,1.7,1.3-1.437,1.211-1.532-.228-.949-.416-1.57a9.449,9.449,0,0,0-1.878-2.112c-.18-.167-.3-.271-.3-.271Z" transform="translate(-211.794 -380.857)"/><path class="c" d="M236,433.122s.285.321.63.7a6.06,6.06,0,0,0,2.669-.034,8.514,8.514,0,0,1,1.037-.395c.047,0,.081-.123.119-.3-.2-.183-.327-.3-.327-.3Z" transform="translate(-209.85 -379.145)"/><path class="p" d="M232.923,399.13a14.864,14.864,0,0,1-1.788,1.265,2.806,2.806,0,0,0-.992,1.429s-.975,2.366,1,2.7a6.292,6.292,0,0,0,2.885,0,8.554,8.554,0,0,1,1.037-.393c.187-.02.186-1.806.87-2.345s2.261-1.762,2.261-1.762Z" transform="translate(-204.577 -350.048)"/><path class="c" d="M232.923,399.13a14.864,14.864,0,0,1-1.788,1.265,2.806,2.806,0,0,0-.992,1.429s-.975,2.366,1,2.7a6.292,6.292,0,0,0,2.885,0,8.554,8.554,0,0,1,1.037-.393c.187-.02.186-1.806.87-2.345s2.261-1.762,2.261-1.762Z" transform="translate(-204.577 -350.048)"/><path class="p" d="M311.268,378.16s.813,1.108.561,1.373a3.779,3.779,0,0,1-.87.556,9.379,9.379,0,0,1-.976,2.8,10.95,10.95,0,0,1-1.783,1.743l.828-4.627Z" transform="translate(-272.262 -331.921)"/><path class="c" d="M308.21,384.633a13.679,13.679,0,0,0,1.06-.93,6.646,6.646,0,0,0,.721-.813,9.379,9.379,0,0,0,.976-2.8,3.694,3.694,0,0,0,.87-.556c.152-.161-.088-.632-.3-.977-.136-.225-.26-.4-.26-.4l-1.175.968-1.066.878-.313,1.792Z" transform="translate(-272.27 -331.921)"/><path class="c" d="M357.62,561.967l.363.365c.229,0,.571.028.571.028s1.68-2.013,1.41-2.366a1.719,1.719,0,0,1-.245-.625c-.358-.2-.647-.329-.647-.329Z" transform="translate(-314.982 -488.28)"/><path class="p" d="M263.05,389.256a54.32,54.32,0,0,0,2.821,4.668,17.053,17.053,0,0,0,1.349,2.033,10.277,10.277,0,0,1,1.057,1.472s1.017,2.344,1.183,2.593a9.2,9.2,0,0,1,.456,1.491,9.572,9.572,0,0,0,.851,1.949,2.491,2.491,0,0,1,.415,1.059s.85,1.245,1,1.452a8.91,8.91,0,0,1,.457.933,3.565,3.565,0,0,1,.457,1.038c0,.291.949.788.949.788a4.087,4.087,0,0,0,1.078.949c.4.136.769,1.1.83,1.037a3.159,3.159,0,0,1,.769,0s1.68-2.012,1.41-2.364a2.9,2.9,0,0,1-.332-1.183s.678-1.555.312-1.638-1.777-2.545-1.777-2.545a5.591,5.591,0,0,0-1.722-3.443s-.851-2.033-1.1-2.469a.67.67,0,0,1,0-.747,2.752,2.752,0,0,1-.56-.56c-.083-.187-.477-1.6-.477-1.6a4.563,4.563,0,0,1-.5-1.246c-.022-.395-.949-1.491-.949-1.491a6.4,6.4,0,0,0-.792-2.18c-.081-.065-.068-.308,0-.66a30.878,30.878,0,0,1,1.22-3.706c.24-.629.418-1.07.418-1.07l-.8.2-6.832,1.708s-.37.994-.7,1.93A11.022,11.022,0,0,0,263.05,389.256Z" transform="translate(-233.232 -336.814)"/><path class="c" d="M348.185,547.276s2.136-.83,1.084.228a4.766,4.766,0,0,1-3.069,1Z" transform="translate(-305.11 -477.844)"/><path class="c" d="M327.5,518s-1.2.664-.975,1.307S327.5,518,327.5,518Z" transform="translate(-288.079 -452.803)"/><path class="c" d="M316.092,480.08a1.258,1.258,0,0,1-1.183.643C314.042,480.7,316.092,480.08,316.092,480.08Z" transform="translate(-277.876 -420.024)"/><path class="c" d="M240.485,412s.457,1.411,0,1.514S240.485,412,240.485,412Z" transform="translate(-213.551 -361.173)"/><path class="c" d="M330.833,286.8a2.207,2.207,0,0,0,.621.748c.2-.637.382-1.22.271-1.413-.165-.29.483-.912.366-1.327-.089-.317.691-1.121,1.063-1.48-.213-.211-.35-.324-.35-.324l-.949.29A28.359,28.359,0,0,0,330.833,286.8Z" transform="translate(-291.825 -249.661)"/><path class="c" d="M266.64,382.741a16.891,16.891,0,0,0,2.625-.613,26.58,26.58,0,0,0,3.525-.355c.678-.136,1.171-.329,1.171-.586a2.45,2.45,0,0,1,.6-1.22,9.716,9.716,0,0,1,.7-.79,1.26,1.26,0,0,0,.289-.468c.019-.056.042-.118.065-.183-.136-.225-.26-.4-.26-.4l-1.175.968-6.832,1.708S266.96,381.8,266.64,382.741Z" transform="translate(-236.336 -331.895)"/><path class="m" d="M227.363,278.593s1.535.912,1.991,1.078a11.482,11.482,0,0,0,2.9-.591s4.689-.155,4.689-.949c0-.609.889-1.587,1.3-2a1.254,1.254,0,0,0,.289-.469,4.888,4.888,0,0,1,.7-1.429c.374-.373-.207-2.364-.207-2.364a11.257,11.257,0,0,0-.29-1.826c-.165-.415,0-.476-.136-.83-.16-.4-.271-.374-.069-1.287s.7-2.074.542-2.366.483-.912.366-1.327,1.251-1.659,1.251-1.659a9.1,9.1,0,0,0-.294-1.531,5.547,5.547,0,0,1-.58-1.327c0-.207-.291-.249-.457-.5s-2.081,6.431-2.081,6.431l-2.791.629-.155.034a5.852,5.852,0,0,1-2.618-.5s-1.78-.29-2.362-3.236a6.822,6.822,0,0,0-1.291.466,2.869,2.869,0,0,0-1.116.861,5.647,5.647,0,0,1-1.491,1.456,12.091,12.091,0,0,0-.457,1.365,4.927,4.927,0,0,1-.622,1.868,5.089,5.089,0,0,0-.542,1.825l3.74,3.4s-.083.872-.29.83S227.363,278.593,227.363,278.593Z" transform="translate(-199.329 -229.097)"/><path class="c" d="M255.06,285.745l2,4.16s.83.542,1.121.248,1.39-.29,1.39-.29l.145.29,2.1-.5-.329-.678-.155.035a5.851,5.851,0,0,1-2.618-.5s-1.78-.291-2.362-3.237A6.822,6.822,0,0,0,255.06,285.745Z" transform="translate(-226.326 -251.632)"/><path class="m" d="M255.06,284.516l2,4.159s.83.542,1.121.249,1.39-.29,1.39-.29l.145.29,2.1-.5-.329-.678-.155.034a5.852,5.852,0,0,1-2.618-.5s-1.78-.29-2.362-3.236A6.821,6.821,0,0,0,255.06,284.516Z" transform="translate(-226.326 -250.569)"/><path class="c" d="M261.52,376.78s4.4,1.385,4.73,1.56S261.54,377.257,261.52,376.78Z" transform="translate(-231.91 -330.728)"/><path class="c" d="M271.609,392.39s-1.158.644-1.573.415S271.609,392.39,271.609,392.39Z" transform="translate(-239.223 -344.222)"/><path class="c" d="M305.413,335.63s1.114,5.953-.533,7.695Z" transform="translate(-269.392 -295.156)"/><path class="c" d="M266.961,241.6a1.247,1.247,0,0,0,.045-1.646,4.319,4.319,0,0,1-.45-.469,2.016,2.016,0,0,0-.22-.361c-.214-.22-.575-.161-.869-.251a1.953,1.953,0,0,1-.712-.5,5.592,5.592,0,0,0-1.159-.813,2.288,2.288,0,0,0-1.4-.317,10.261,10.261,0,0,0-1.078.376c-.521.148-1.162.118-1.491.549-.156.2-.2.477-.348.69-.209.3-.592.442-.813.739a1.43,1.43,0,0,0-.112,1.194,1.643,1.643,0,0,1,.106.785c-.03.127-.1.245-.122.374a1.653,1.653,0,0,0,.294.967,2.44,2.44,0,0,1,.225,1.078.484.484,0,0,0,.034.245.429.429,0,0,0,.164.146l.624.393a.271.271,0,0,0,.1.043c.122.019.2-.121.271-.214a.761.761,0,0,1,.9-.089c.294.141.535.373.831.507a3.75,3.75,0,0,0,2.241-.11,4.947,4.947,0,0,0,.758-.171,3.526,3.526,0,0,0,.664-.357,2.368,2.368,0,0,0,.568-.446.8.8,0,0,0,.188-.735c-.061-.218-.256-.415-.217-.657C266.061,242.123,266.689,241.872,266.961,241.6Z" transform="translate(-229.109 -210.085)"/><path class="m" d="M266.961,240.367a1.248,1.248,0,0,0,.045-1.647,4.31,4.31,0,0,1-.45-.468,2.078,2.078,0,0,0-.22-.362c-.214-.218-.575-.16-.869-.249a1.956,1.956,0,0,1-.712-.5,5.534,5.534,0,0,0-1.159-.813,2.288,2.288,0,0,0-1.4-.317,10.268,10.268,0,0,0-1.078.376c-.521.148-1.162.117-1.491.542-.156.206-.2.479-.348.691-.209.3-.592.442-.813.739a1.43,1.43,0,0,0-.112,1.194,1.641,1.641,0,0,1,.106.785c-.03.127-.1.245-.122.374a1.646,1.646,0,0,0,.294.965,2.44,2.44,0,0,1,.232,1.094.49.49,0,0,0,.034.247.453.453,0,0,0,.164.146l.624.392a.271.271,0,0,0,.1.045c.122.018.2-.121.271-.216a.763.763,0,0,1,.9-.09c.294.14.535.373.831.507a3.76,3.76,0,0,0,2.241-.108,5.12,5.12,0,0,0,.758-.172,3.526,3.526,0,0,0,.664-.355,2.375,2.375,0,0,0,.568-.447.8.8,0,0,0,.188-.733c-.061-.22-.256-.416-.217-.658C266.061,240.893,266.689,240.642,266.961,240.367Z" transform="translate(-229.109 -209.021)"/><path class="n" d="M217.905,357.82a2.914,2.914,0,0,0,.455,1.307,18.028,18.028,0,0,0,1.929,1.991l1.411.949s1.888,1.162,2.334,1.369a2.135,2.135,0,0,1,.649.971c.186.428.314.813.314.813a1.856,1.856,0,0,0,1.577-1.648,3.865,3.865,0,0,0,.042-1.024c-.1-.02-1.266-.892-1.266-.892a6.092,6.092,0,0,1-1.784-1.742,10.187,10.187,0,0,0-2.137-2.2l.027-.05.1-.179.207-.685-3.254-1.452s-.08.264-.183.626A11.6,11.6,0,0,0,217.905,357.82Z" transform="translate(-194.207 -312.203)"/><path class="c" d="M221,356.006a18.04,18.04,0,0,0,1.967,1.677,3.036,3.036,0,0,0,1.169.012l.1-.179.207-.685-3.254-1.452S221.1,355.642,221,356.006Z" transform="translate(-196.883 -312.229)"/><path class="m" d="M223.364,333.633s1.659,1,1.577,1.432a16.431,16.431,0,0,1-.786,1.94l-.79.653a3.632,3.632,0,0,1-1.266,0,13.73,13.73,0,0,1-2.074-1.825,7.214,7.214,0,0,1,0-1.162,5.286,5.286,0,0,1,.5-.976l.727-1.285Z" transform="translate(-196.015 -292.373)"/><path class="c" d="M225.179,370.45l.488,1.311-.823.778-.038.235-1.826,1.051-.58-1.465Z" transform="translate(-192.25 -320.221)"/><path class="p" d="M225.179,369.84l.488,1.31-.823.779-.038.235-1.826,1.051-.58-1.465Z" transform="translate(-192.25 -319.694)"/><g class="e" transform="translate(29.18 29.836)"><path d="M315.179,262.731a.471.471,0,0,1-.027-.235c.068-.424.7-.678.968-.949a1.183,1.183,0,0,0,.321-.678,1.227,1.227,0,0,1-.321,1.015C315.869,262.131,315.318,262.364,315.179,262.731Z" transform="translate(-307.447 -260.367)"/><path d="M258.7,270.68a3.447,3.447,0,0,0,.286.662,2.441,2.441,0,0,1,.226,1.078.486.486,0,0,0,.033.247.45.45,0,0,0,.164.146l.624.392a.251.251,0,0,0,.1.045c.121.018.2-.121.271-.214a.763.763,0,0,1,.9-.091c.293.14.535.373.831.508a3.76,3.76,0,0,0,2.241-.11,4.949,4.949,0,0,0,.758-.172,3.475,3.475,0,0,0,.664-.355,2.372,2.372,0,0,0,.569-.447.9.9,0,0,0,.193-.376.805.805,0,0,1-.193.708,2.407,2.407,0,0,1-.569.447,3.475,3.475,0,0,1-.664.355,5.121,5.121,0,0,1-.758.172,3.76,3.76,0,0,1-2.241.108c-.3-.136-.542-.366-.831-.507a.762.762,0,0,0-.9.089c-.079.095-.153.233-.271.216a.271.271,0,0,1-.1-.045l-.624-.392a.476.476,0,0,1-.164-.146.49.49,0,0,1-.033-.247,2.441,2.441,0,0,0-.226-1.078,1.646,1.646,0,0,1-.294-.965A.224.224,0,0,1,258.7,270.68Z" transform="translate(-258.631 -268.847)"/><path d="M258.423,257.53a1.717,1.717,0,0,1,.108.769c-.024-.146-.071-.293-.108-.437a1.959,1.959,0,0,1-.068-.7A2.228,2.228,0,0,0,258.423,257.53Z" transform="translate(-258.348 -257.16)"/></g><circle class="a" cx="2.932" cy="2.932" r="2.932" transform="translate(0 15.124)"/><circle class="a" cx="2.932" cy="2.932" r="2.932" transform="translate(79.592 2.769)"/><circle class="a" cx="2.932" cy="2.932" r="2.932" transform="translate(126.111 14.353)"/><circle class="a" cx="4.914" cy="4.914" r="4.914" transform="translate(3.881 29.319)"/><circle class="a" cx="4.914" cy="4.914" r="4.914" transform="translate(63.904 102.119)"/><circle class="a" cx="4.914" cy="4.914" r="4.914" transform="translate(129.37 99.286)"/></g></svg>