<svg xmlns="http://www.w3.org/2000/svg" xmlns:xlink="http://www.w3.org/1999/xlink" viewBox="0 0 246.173 192.62">
  <defs>
    <style>
      .cls-1, .cls-10 {
        fill: #6a4dff;
      }

      .cls-1, .cls-12, .cls-4, .cls-7 {
        opacity: 0.1;
      }

      .cls-2 {
        fill: url(#linear-gradient);
      }

      .cls-3 {
        fill: #efb7b9;
      }

      .cls-5 {
        fill: #dce6f2;
      }

      .cls-6 {
        fill: #965d7b;
      }

      .cls-8 {
        fill: #444053;
      }

      .cls-9 {
        fill: #a36468;
      }

      .cls-11 {
        opacity: 0.05;
      }

      .cls-12 {
        fill: #fff;
      }

      .cls-13 {
        fill: #a8a8a8;
      }

      .cls-14 {
        opacity: 0.2;
      }
    </style>
    <linearGradient id="linear-gradient" y1="0.5" x2="1" y2="0.5" gradientUnits="objectBoundingBox">
      <stop offset="0" stop-color="gray" stop-opacity="0.251"/>
      <stop offset="0.54" stop-color="gray" stop-opacity="0.122"/>
      <stop offset="1" stop-color="gray" stop-opacity="0.102"/>
    </linearGradient>
  </defs>
  <g id="undraw_empty_xct9" transform="translate(0.004 -0.003)">
    <ellipse id="Ellipse_215" data-name="Ellipse 215" class="cls-1" cx="42.941" cy="8.135" rx="42.941" ry="8.135" transform="translate(43.409 172.623)"/>
    <path id="Path_874" data-name="Path 874" class="cls-1" d="M238.254,82.2c-15.782-.546-30.812-5.643-45.165-11.217s-28.569-11.748-43.973-14.7c-9.907-1.9-21.239-2.17-29.22,3.136-7.684,5.121-10.166,13.936-11.5,22.122-1,6.16-1.595,12.643,1.156,18.41,1.912,4,5.3,7.369,7.647,11.2,8.162,13.343,2.392,29.8-6.45,42.827-4.145,6.111-8.961,11.948-12.163,18.447s-4.682,13.97-1.88,20.617c2.775,6.584,9.39,11.519,16.557,14.994,14.555,7.059,31.7,9.078,48.43,10.224,37.023,2.531,74.241,1.436,111.362.337,13.738-.4,27.535-.817,41.049-2.941,7.506-1.18,15.253-3.053,20.7-7.574,6.915-5.738,8.63-15.452,3.994-22.646-7.774-12.07-29.261-15.067-34.7-28.018-2.99-7.13.08-15.07,4.428-21.68,9.325-14.184,24.953-26.628,25.774-42.839.566-11.134-6.947-22.285-18.564-27.555-12.175-5.523-29.061-4.828-38.04,4.314C268.445,79.061,252.19,82.682,238.254,82.2Z" transform="translate(-95.23 -55.03)"/>
    <path id="Path_875" data-name="Path 875" class="cls-2" d="M394.233,215.916l-7.469-5.035h0l3.767-5.608L370.8,203.7l-7.089,5.482-8.874-4.974-7.4.89-.088-1.951a55.061,55.061,0,0,0-.612-6.072c.032-.61.054-1.309.051-2.07,0-3.207-.434-7.457-2.341-10.29l.439-3.945-3.56-4.206a26.909,26.909,0,0,1,1.951-3.282c.122-.176.244-.346.376-.512a8.854,8.854,0,0,0,8.266-8.778,5.625,5.625,0,0,0-.024-.641,2.327,2.327,0,0,0-.027-.258c.451.244.907.488,1.363.732.085.122.183.244.29.388h0l.022.027.137.168.044.051c.049.059.1.115.151.173l.034.039c.129.144.266.29.412.434a.443.443,0,0,1,.049.046l.183.171.051.046c.156.139.322.273.488.4l.054.039.21.144.068.044c.08.049.163.1.244.146l.029.017c.1.051.193.1.29.146l.049.02.244.1.076.027c.085.029.168.056.256.08l.054.015c.107.027.215.049.324.066H357a2.656,2.656,0,0,0,.312.032h.071a2.686,2.686,0,0,0,.28,0h.061a2.887,2.887,0,0,0,.349-.041,3.848,3.848,0,0,0,1.536-.551,1.341,1.341,0,0,0,.312-.29,1.149,1.149,0,0,0-.049-1.339h0c-.19-.454-1.424-.773-1.424-.773s-3.9-1.629-3.9-2.926-.975-8.027-11.044-9.566c0,0-6.55-.368-8.391,3.138l-.039.41c-.541.339-.99,1.019-1.524,1.219a2.49,2.49,0,0,0-.661.244v-.046h0a.628.628,0,0,0-.149.193,1.951,1.951,0,0,0-.2.732,2.756,2.756,0,0,1-.319.885,1.967,1.967,0,0,1-.146.224h0l-.041.066a1.78,1.78,0,0,0,.829-.134,4.127,4.127,0,0,1-.244.975.809.809,0,0,0,.751-.449v-.019l.032-.044a2.058,2.058,0,0,0,.151-.354l-.027.029c.049-.158.093-.319.146-.476a.746.746,0,0,1,.12-.244.59.59,0,0,1,.5-.168l-.1,2.114h.044a2.888,2.888,0,0,1-.215.444c-.346.561-.975.944-1.207,1.558a2.292,2.292,0,0,0-.112.922c0,.183.022.368.037.551v-.015a2.056,2.056,0,0,1-.219,1.344c-.18.268-.471.471-.571.775a.757.757,0,0,0-.037.263,2.957,2.957,0,0,0,.166.783.035.035,0,0,0,0-.015,1.19,1.19,0,0,1,.041.575c-.11.488-.7.895-.673,1.361a.524.524,0,0,0,.027.18.988.988,0,0,0,.551.488,2.146,2.146,0,0,0,1.239.273,1.629,1.629,0,0,0,.463-.158c-.171.393-.346.78-.524,1.148-.027.059-.056.117-.085.176,0,0-1.507-1.007-2.363,1.046a4.555,4.555,0,0,0-.529,1.375,3.274,3.274,0,0,1-.18.566,3.641,3.641,0,0,1-1.629,1.463c-1.746.8-8.8,9.6-8.922,11.873a13.285,13.285,0,0,1-.449,2.629,15.642,15.642,0,0,0-.419,6.216,11.893,11.893,0,0,0,.432,1.982,44.414,44.414,0,0,1,1.248,6.52l.81,7.369a20.972,20.972,0,0,0,.132,3.046c-.827.944-4.145,4.877-2.877,5.947.975.844,2.682.7,3.641.532a30.982,30.982,0,0,0-2.246,7.854c-.244,3.528.417,8.2,1.463,10s4.533,6.4,4.533,6.4-.163,6.316,1.083,8.61,1.748,7.054,1.748,7.054,1.163,4.019.58,5.5,1.08,2.707-.666,3.689-3.98,23.131-3.98,23.131-.9,14.516,0,15.255a.917.917,0,0,0,.154.09v4.877s-.624,1.024,1.914,1.231c1.739.139,6.667.454,9.59.636l2.265.141s5.365,1.068,7.735,0,6.572-1.044,5.947-3.865a8.023,8.023,0,0,0-.332-1.129c-.685-1.751-1.848-1.951-3.992-2.438-.124-.027-.244-.051-.354-.071-2.258-.393-3,.658-4.265-.71-1.1-1.183-4.6-2.507-5.794-2.926.029-.088.066-.173.1-.263a1.785,1.785,0,0,1-.9-.441l3.231.2,1.924.119s4.56.91,6.584,0,5.584-.885,5.052-3.282a6.883,6.883,0,0,0-.28-.961c-.583-1.487-1.573-1.651-3.394-2.063-.1-.022-.2-.044-.3-.061-1.919-.334-2.548.558-3.624-.6-.922-.99-3.831-2.1-4.877-2.477,0-.541-.732-1.312-1.192-2.085-.541-.9.458-4.06.458-4.06l.571-13.1a2.533,2.533,0,0,1,.683-.2s2.58-2.463,2-5.087a16.851,16.851,0,0,1-.185-2.4,12.318,12.318,0,0,0,2.348-2.668c.541-1.168,0-6.828,0-6.828V236.1l4.316.436,3.916.4,1.192.122,3.916.4,9,.91,8.11-1.536,3.509-.663,7.215-1.366V217.15Zm-59.4-58.5-.5-.054C334.493,157.369,334.669,157.4,334.829,157.415Z" transform="translate(-263.749 -127.705)"/>
    <path id="Path_876" data-name="Path 876" class="cls-3" d="M499.913,436.385c-2.439,3.489-11.2,1.641-11.2,1.641l-6.794-6.357-.914-.861,1.534-3.258s.488.134,1.324.373C488.25,429.2,501.971,433.451,499.913,436.385Z" transform="translate(-386.935 -336.71)"/>
    <path id="Path_877" data-name="Path 877" class="cls-4" d="M483.853,427.923a14.3,14.3,0,0,1-1.939,3.745l-.914-.861,1.534-3.258S483.026,427.684,483.853,427.923Z" transform="translate(-386.935 -336.71)"/>
    <path id="Path_878" data-name="Path 878" class="cls-5" d="M378.651,278.1s-6.262,2.777-5.955,9.6a112.432,112.432,0,0,0,1.434,13.109s-1.28,10.263,4.05,12.909,10.263,4.821,10.263,4.821,8.339.9,9.376,1.268,4.275-5.3,3.677-6.179-8.252-2.734-9.227-4.206a8.143,8.143,0,0,0-3.231-2.382s-2.329-1.409-2.487-2.682a5.79,5.79,0,0,1,.612-2.78c.156-.558.551-5.95.551-5.95S390.343,276.437,378.651,278.1Z" transform="translate(-305.032 -223.627)"/>
    <path id="Path_879" data-name="Path 879" class="cls-4" d="M389.863,370.39s-8.591,1.439-7.759,4.445A18.212,18.212,0,0,1,389.863,370.39Z" transform="translate(-312.111 -293.488)"/>
    <path id="Path_880" data-name="Path 880" class="cls-4" d="M402.217,375.38s-4.723,3.855-3.8,4.053S402.217,375.38,402.217,375.38Z" transform="translate(-324.4 -297.262)"/>
    <path id="Path_881" data-name="Path 881" class="cls-4" d="M421.384,380.89s-1.266,2.592-.488,2.417S421.384,380.89,421.384,380.89Z" transform="translate(-341.296 -301.428)"/>
    <path id="Path_882" data-name="Path 882" class="cls-4" d="M403.243,315.962l-.522-.149a1.491,1.491,0,0,0,.068-1.066c-.6-.883-8.247-2.731-9.22-4.206a8.1,8.1,0,0,0-3.231-2.382s-2.329-1.409-2.487-2.682a5.791,5.791,0,0,1,.612-2.78c.156-.558.551-5.952.551-5.952s2.621-19.188-9.071-17.523c0,0-6.262,2.78-5.957,9.6a112.129,112.129,0,0,0,1.436,13.109s-1.28,10.263,4.05,12.909,10.263,4.821,10.263,4.821,8.337.895,9.376,1.268c.393.141,1.1-.588,1.8-1.59l.4.368,6.794,6.355s8.766,1.851,11.2-1.639C421.363,321.488,407.645,317.235,403.243,315.962Z" transform="translate(-306.008 -224.474)"/>
    <path id="Path_883" data-name="Path 883" class="cls-6" d="M377.818,169.091a2.072,2.072,0,0,0-.675.261c-.244.2-.244.549-.3.851a2.8,2.8,0,0,1-.488,1.166,1.753,1.753,0,0,0,.812-.134,4.177,4.177,0,0,1-.244.975.79.79,0,0,0,.732-.446,4.7,4.7,0,0,0,.3-.856.706.706,0,0,1,.117-.244c.224-.266.641-.146.988-.112a1.622,1.622,0,0,0,1.483-.712c.368-.558.39-1.987-.488-2.139C379.137,167.55,378.567,168.813,377.818,169.091Z" transform="translate(-307.803 -140.215)"/>
    <g id="Group_819" data-name="Group 819" class="cls-7" transform="translate(68.583 29.074)">
      <path id="Path_884" data-name="Path 884" d="M378.305,174.613c.022-.119.037-.244.063-.363h0a1.43,1.43,0,0,0-.3.851,2.684,2.684,0,0,1-.144.515A2.793,2.793,0,0,0,378.305,174.613Z" transform="translate(-377.574 -174.25)"/>
      <path id="Path_885" data-name="Path 885" d="M377.31,180.975a4.056,4.056,0,0,0,.244-.975,1.746,1.746,0,0,1-.773.134,2.819,2.819,0,0,1-.28.488,1.736,1.736,0,0,0,.81-.132,4.056,4.056,0,0,1-.244.975.792.792,0,0,0,.732-.446,1.821,1.821,0,0,0,.146-.349.732.732,0,0,1-.634.3Z" transform="translate(-376.5 -178.598)"/>
      <path id="Path_886" data-name="Path 886" d="M384.986,175.347c-.346-.034-.766-.154-.99.112a.754.754,0,0,0-.117.244c-.022.063-.041.129-.059.2.232-.183.607-.085.922-.054a1.629,1.629,0,0,0,1.483-.712,1.35,1.35,0,0,0,.163-.383A1.624,1.624,0,0,1,384.986,175.347Z" transform="translate(-382.035 -174.628)"/>
    </g>
    <path id="Path_887" data-name="Path 887" class="cls-5" d="M313.331,201l3.719,4.472-.485,4.514-4.494-7.035Z" transform="translate(-235.976 -151.984)"/>
    <path id="Path_888" data-name="Path 888" class="cls-4" d="M317.047,205.472l-.456,4.245-.029.268-4.055-6.35-.436-.685.127-.2L313.328,201l.251.3Z" transform="translate(-235.976 -151.984)"/>
    <path id="Path_889" data-name="Path 889" class="cls-3" d="M387.863,210.822a7.455,7.455,0,0,0-3.506,3.1,26.486,26.486,0,0,0-1.892,3.253c-.344.688-.646,1.348-.9,1.924l-.176.41c-.424,1-.661,1.673-.661,1.673s-9.632-7.242-8.108-7.73c.512-.163,1.185-1.261,1.851-2.643l.083-.176c.422-.888.836-1.878,1.2-2.809.753-1.914,1.312-3.577,1.312-3.577S391.7,209.724,387.863,210.822Z" transform="translate(-304.861 -167.861)"/>
    <path id="Path_890" data-name="Path 890" class="cls-8" d="M459.26,202.58s2.224,4.023,5.211,3.475,1.758-2.16,1.758-2.16Z" transform="translate(-370.496 -166.598)"/>
    <path id="Path_891" data-name="Path 891" class="cls-9" d="M386.043,744.285c-1.97.9-6.425,0-6.425,0l-1.878-.117c-2.438-.156-6.52-.419-7.964-.536-2.107-.173-1.59-1.036-1.59-1.036V737.38l10.222-2.59s4.04,1.383,5.148,2.59c1.051,1.151,1.665.266,3.541.6.093.017.19.037.293.061,1.78.407,2.746.568,3.316,2.043a6.852,6.852,0,0,1,.276.951C391.508,743.408,388.011,743.39,386.043,744.285Z" transform="translate(-301.588 -569.031)"/>
    <path id="Path_892" data-name="Path 892" class="cls-4" d="M390.705,749.964a7.65,7.65,0,0,1-1.151.59c-1.341.612-2.616,1.358-3.972,1.936a9.289,9.289,0,0,1-4.284.88,6.391,6.391,0,0,0-2.287-.024,5.281,5.281,0,0,0-1.27.7c-2.438-.156-6.52-.419-7.964-.536-2.107-.173-1.59-1.036-1.59-1.036v-.61c.076,0,.161-.022.258-.029a4.6,4.6,0,0,1,1.487.222c1.058.288,2.112.571,3.17.854a2.5,2.5,0,0,1,1.219-1.556,3.887,3.887,0,0,1,1.965-.451c1.641.022,3.194.8,4.833.878a2.663,2.663,0,0,0,1.339-.224c.224-.112.422-.276.641-.4a4.68,4.68,0,0,1,1.1-.373,24.336,24.336,0,0,0,3.158-1.019c.293-.115.634-.322.595-.634-.051-.414-.7-.463-.873-.844a.488.488,0,0,1,.02-.432c.093.017.19.037.293.061C389.169,748.328,390.135,748.489,390.705,749.964Z" transform="translate(-301.588 -578.914)"/>
    <path id="Path_893" data-name="Path 893" class="cls-9" d="M367.7,785.876c-2.317,1.058-7.559,0-7.559,0l-2.207-.129c-2.858-.183-7.671-.488-9.371-.632-2.48-.2-1.87-1.219-1.87-1.219v-6.147l12.029-3.048s4.755,1.626,6.057,3.048c1.236,1.353,1.951.312,4.167.7.11.02.224.044.344.071,2.095.488,3.231.671,3.9,2.407a7.822,7.822,0,0,1,.324,1.119C374.122,784.842,370.018,784.82,367.7,785.876Z" transform="translate(-285.329 -599.209)"/>
    <path id="Path_894" data-name="Path 894" class="cls-4" d="M373.188,792.6a9.082,9.082,0,0,1-1.353.7c-1.578.719-3.08,1.6-4.675,2.277a10.957,10.957,0,0,1-5.043,1.036,7.36,7.36,0,0,0-2.682-.029,6.217,6.217,0,0,0-1.5.839c-2.858-.183-7.671-.488-9.371-.632-2.48-.2-1.87-1.219-1.87-1.219v-.717a3.04,3.04,0,0,1,.3-.034,5.351,5.351,0,0,1,1.751.261l3.728,1a2.951,2.951,0,0,1,1.446-1.831,4.551,4.551,0,0,1,2.314-.532c1.931.027,3.758.941,5.686,1.034a3.149,3.149,0,0,0,1.57-.261c.266-.134.488-.327.756-.471a5.307,5.307,0,0,1,1.3-.439,29.193,29.193,0,0,0,3.7-1.2c.344-.137.746-.38.7-.746-.061-.488-.827-.546-1.029-.995a.588.588,0,0,1,.024-.507c.11.02.224.044.344.071C371.382,790.669,372.518,790.859,373.188,792.6Z" transform="translate(-285.329 -610.877)"/>
    <path id="Path_895" data-name="Path 895" class="cls-8" d="M386.771,647.54l-.651,15.321s-.975,3.128-.446,4.023,1.422,1.787,1.1,2.317-4.226,6.25-5.487,4.055-2.5-11.7-2.5-11.7l1.163-11.746Z" transform="translate(-309.641 -503.057)"/>
    <path id="Path_896" data-name="Path 896" class="cls-8" d="M411.788,491l1.809,2.419v21.039s.529,5.608,0,6.767-3.211,3.475-3.211,3.475l-2.256-11.583.488-12.253Z" transform="translate(-331.834 -384.688)"/>
    <path id="Path_897" data-name="Path 897" class="cls-4" d="M386.771,647.54l-.651,15.321s-.975,3.128-.446,4.023,1.422,1.787,1.1,2.317-4.226,6.25-5.487,4.055-2.5-11.7-2.5-11.7l1.163-11.746Z" transform="translate(-309.641 -503.057)"/>
    <path id="Path_898" data-name="Path 898" class="cls-4" d="M411.788,491l1.809,2.419v21.039s.529,5.608,0,6.767-3.211,3.475-3.211,3.475l-2.256-11.583.488-12.253Z" transform="translate(-331.834 -384.688)"/>
    <path id="Path_899" data-name="Path 899" class="cls-8" d="M352.25,436.052v11.38l-2.031,8.859s-.651,21.378-.083,23.977-1.951,5.04-1.951,5.04-1.463.163-1.463,1.3S344.284,491,344.284,491l.081,6.34s1.058,11.868-.568,14.143.568,2.6.568,2.6c-2.031,6.664-11.785,5.121-12.665,4.389s0-15.118,0-15.118,2.18-21.946,3.887-22.922.083-2.195.651-3.658-.568-5.445-.568-5.445-.488-4.716-1.707-6.991S332.9,455.8,332.9,455.8s-3.414-4.553-4.428-6.34-1.668-6.42-1.424-9.917a31.158,31.158,0,0,1,2.195-7.784c.378-.949.651-1.563.651-1.563l.232.061,13.319,3.487Z" transform="translate(-270.487 -338.714)"/>
    <path id="Path_900" data-name="Path 900" class="cls-4" d="M398.095,210.769a7.456,7.456,0,0,0-3.507,3.1h-.273a8.71,8.71,0,0,1-7.559-4.372,8.577,8.577,0,0,1-.766-1.743c.753-1.914,1.312-3.577,1.312-3.577S401.935,209.671,398.095,210.769Z" transform="translate(-315.093 -167.808)"/>
    <path id="Path_901" data-name="Path 901" class="cls-3" d="M401.815,179.147a8.717,8.717,0,1,1-16.308-4.272,8.515,8.515,0,0,1,.922-1.331,8.822,8.822,0,0,1,2-1.761,8.717,8.717,0,0,1,13.37,6.725C401.807,178.723,401.815,178.935,401.815,179.147Z" transform="translate(-313.875 -142.282)"/>
    <path id="Path_902" data-name="Path 902" class="cls-4" d="M385.476,245.4l-.029.268-4.055-6.34c-.424,1-.661,1.673-.661,1.673s-9.632-7.252-8.108-7.74c.512-.163,1.185-1.261,1.851-2.643l.083-.176c.707,2.107,4.816,6.318,6.525,8.005.2.2.361.356.488.473l.261.244.137.137C382.589,239.94,385.213,242.769,385.476,245.4Z" transform="translate(-304.861 -187.665)"/>
    <path id="Path_903" data-name="Path 903" class="cls-5" d="M349.208,266.69l-.444,14.282-.078,2.543s-5.257-.488-10.163-1.024a66.187,66.187,0,0,1-8.247-1.17,15.522,15.522,0,0,0-3.536-.778c-.956-.129-1.707-.2-1.707-.2s-.28.083-.712.161c-.941.171-2.594.31-3.558-.527-1.231-1.07,2-4.96,2.812-5.894l.178-.2-.3-2.816-.792-7.3a44.559,44.559,0,0,0-1.219-6.462,11.92,11.92,0,0,1-.422-1.963,15.723,15.723,0,0,1,.41-6.16,13.434,13.434,0,0,0,.439-2.607c.122-2.256,7.011-10.973,8.717-11.766a3.619,3.619,0,0,0,1.746-1.741,3.324,3.324,0,0,0,.266-.758c.732-3.17,2.582-1.912,2.582-1.912.446,2.48,7.354,9.044,7.354,9.044l.137.137c.685.7,3.738,4,3.521,6.813a8.258,8.258,0,0,0,.461,3.082,52.122,52.122,0,0,1,2.4,13.655Z" transform="translate(-265.562 -187.445)"/>
    <path id="Path_904" data-name="Path 904" class="cls-4" d="M388.2,310.45s-1.707,4.145-2.987,4.816S388.81,316.68,388.2,310.45Z" transform="translate(-314.342 -248.164)"/>
    <path id="Path_905" data-name="Path 905" class="cls-4" d="M391.282,342.2s-3.9.488-3.9,1.219S391.282,342.2,391.282,342.2Z" transform="translate(-316.144 -272.172)"/>
    <path id="Path_906" data-name="Path 906" class="cls-4" d="M397.044,361.7s-5.669,12.07-7.254,12.436S397.044,361.7,397.044,361.7Z" transform="translate(-317.822 -286.917)"/>
    <path id="Path_907" data-name="Path 907" class="cls-4" d="M378.349,241.527l-4.689,2.039L368,235.016a3.324,3.324,0,0,0,.266-.758c.732-3.17,2.582-1.912,2.582-1.912.446,2.48,7.354,9.044,7.354,9.044Z" transform="translate(-301.489 -188.919)"/>
    <path id="Path_908" data-name="Path 908" class="cls-5" d="M379.349,239.527l-4.689,2.039L369,233.016a3.322,3.322,0,0,0,.266-.758c.732-3.17,2.582-1.912,2.582-1.912.446,2.48,7.354,9.044,7.354,9.044Z" transform="translate(-302.246 -187.407)"/>
    <path id="Path_909" data-name="Path 909" class="cls-4" d="M356.543,330.157s-5.257-.488-10.163-1.024l8.8,2.3v2.682c-.385.349-.719.529-.936.436-1.014-.427-9.293-1.768-9.293-1.768s-4.809-2.438-10-5.365a4.011,4.011,0,0,1-.366-.229,5.764,5.764,0,0,1-1.536-1.539,10.92,10.92,0,0,1-1.629-4.918,21.269,21.269,0,0,1-.127-3.019,24.748,24.748,0,0,1,.312-3.411,112.179,112.179,0,0,1-.732-13.168c.061-6.828,6.462-9.266,6.462-9.266,11.766-1.036,8.118,17.984,8.118,17.984s-.68,5.365-.866,5.913a5.79,5.79,0,0,0-.761,2.743c.09,1.28,2.338,2.812,2.338,2.812a8.21,8.21,0,0,1,3.1,2.553c.658,1.124,4.935,2.648,7.352,3.736Z" transform="translate(-273.419 -234.087)"/>
    <path id="Path_910" data-name="Path 910" class="cls-4" d="M400.886,170.215a2.76,2.76,0,0,1-.244,1.166,7.209,7.209,0,0,1-.434.868,4,4,0,0,1-1.068,1.327,5.463,5.463,0,0,1-1.951.678,2.823,2.823,0,0,0-1.763,1,3.5,3.5,0,0,0-.412,1.195,2.57,2.57,0,0,1-.488,1.156.958.958,0,0,1-1.141.273,1.154,1.154,0,0,1-.441-.568,8.149,8.149,0,0,1-.461-2,4.249,4.249,0,0,0-.685-1.914,1.714,1.714,0,0,0-1.8-.69,1.734,1.734,0,0,0-.975.946,5.423,5.423,0,0,0-.368,1.346q-.454,2.482-1.07,4.935a.454.454,0,0,1-.081.185.351.351,0,0,1-.244.1c-.546.073-1.07-.31-1.622-.268a.931.931,0,0,0-.168.027,8.713,8.713,0,0,1,.88-9.949l.044-.012a2.629,2.629,0,0,0,.975-.614,10.3,10.3,0,0,0,.975-1.129l.2-.244a11.12,11.12,0,0,1,1.9-1.807,1.95,1.95,0,0,1,.649-.351,1.921,1.921,0,0,1,.614-.02,15.5,15.5,0,0,0,2.538.1,16.286,16.286,0,0,1,1.783-.18,5.487,5.487,0,0,1,3.836,2.329A3.607,3.607,0,0,1,400.886,170.215Z" transform="translate(-313.822 -138.764)"/>
    <path id="Path_911" data-name="Path 911" class="cls-6" d="M376.528,170.855c-.339.556-.951.934-1.18,1.544-.336.885.232,1.987-.29,2.777-.173.266-.458.463-.556.768-.166.515.288,1.063.171,1.592s-.814.975-.629,1.492a.975.975,0,0,0,.536.488,2.1,2.1,0,0,0,1.219.271c.666-.11,1.161-.763,1.836-.812.549-.039,1.073.341,1.619.271a.366.366,0,0,0,.244-.1.421.421,0,0,0,.08-.185q.615-2.451,1.073-4.935a5.318,5.318,0,0,1,.366-1.346,1.748,1.748,0,0,1,.975-.946,1.72,1.72,0,0,1,1.8.69,4.223,4.223,0,0,1,.688,1.914,8.258,8.258,0,0,0,.458,2,1.165,1.165,0,0,0,.444.571.955.955,0,0,0,1.139-.273,2.544,2.544,0,0,0,.488-1.158,3.481,3.481,0,0,1,.412-1.192,2.829,2.829,0,0,1,1.763-1,5.517,5.517,0,0,0,1.951-.68,4.014,4.014,0,0,0,1.068-1.324,3.9,3.9,0,0,0,.668-2.036,3.738,3.738,0,0,0-1-2.109,5.481,5.481,0,0,0-3.838-2.326,15.173,15.173,0,0,0-1.783.18,15.258,15.258,0,0,1-2.538-.1,2,2,0,0,0-.614.022,1.839,1.839,0,0,0-.646.351,11.126,11.126,0,0,0-1.9,1.8,13.981,13.981,0,0,1-1.175,1.366,2.646,2.646,0,0,1-.975.617c-.244.068-.488.02-.719.1C376.957,169.365,376.862,170.3,376.528,170.855Z" transform="translate(-306.036 -138.031)"/>
    <path id="Path_912" data-name="Path 912" class="cls-4" d="M464.471,206.052c-1.951.358-3.567-1.219-4.462-2.37a9.563,9.563,0,0,1-.749-1.1l6.7,1.263.271.051S467.458,205.506,464.471,206.052Z" transform="translate(-370.496 -166.598)"/>
    <g id="Group_820" data-name="Group 820" class="cls-7" transform="translate(67.965 30.964)">
      <path id="Path_913" data-name="Path 913" d="M376.076,211.266a2.032,2.032,0,0,0-.141-.936c0,.024-.022.049-.029.073a1.815,1.815,0,0,0,.127,1A.733.733,0,0,0,376.076,211.266Z" transform="translate(-375.403 -203.422)"/>
      <path id="Path_914" data-name="Path 914" d="M379.054,197.8a5.419,5.419,0,0,0,.02,1.012A5.435,5.435,0,0,0,379.054,197.8Z" transform="translate(-377.801 -193.947)"/>
      <path id="Path_915" data-name="Path 915" d="M392.151,183.573a4,4,0,0,1-1.068,1.327,5.447,5.447,0,0,1-1.951.678,2.817,2.817,0,0,0-1.763,1,3.515,3.515,0,0,0-.412,1.195,2.553,2.553,0,0,1-.488,1.158.952.952,0,0,1-1.139.273,1.165,1.165,0,0,1-.444-.571,8.115,8.115,0,0,1-.458-2,4.213,4.213,0,0,0-.688-1.914,1.714,1.714,0,0,0-1.8-.69,1.741,1.741,0,0,0-.975.946,5.313,5.313,0,0,0-.366,1.346q-.456,2.485-1.073,4.935a.421.421,0,0,1-.08.185.366.366,0,0,1-.244.1c-.546.071-1.07-.31-1.619-.271-.675.049-1.17.7-1.836.81a2.06,2.06,0,0,1-1.219-.271,1.3,1.3,0,0,1-.446-.317.658.658,0,0,0-.09.568.951.951,0,0,0,.536.488,2.06,2.06,0,0,0,1.219.271c.666-.107,1.161-.761,1.836-.81.549-.039,1.073.341,1.619.271a.366.366,0,0,0,.244-.1.421.421,0,0,0,.08-.185q.615-2.439,1.073-4.935a5.315,5.315,0,0,1,.366-1.346,1.741,1.741,0,0,1,.975-.946,1.716,1.716,0,0,1,1.8.69,4.224,4.224,0,0,1,.688,1.914,8.256,8.256,0,0,0,.458,2,1.165,1.165,0,0,0,.444.571.955.955,0,0,0,1.139-.273,2.553,2.553,0,0,0,.488-1.158,3.513,3.513,0,0,1,.412-1.195,2.841,2.841,0,0,1,1.763-1,5.563,5.563,0,0,0,1.951-.678,4,4,0,0,0,1.068-1.327,3.883,3.883,0,0,0,.668-2.034,2.613,2.613,0,0,0-.029-.278A4.792,4.792,0,0,1,392.151,183.573Z" transform="translate(-373.964 -182)"/>
    </g>
    <path id="Path_916" data-name="Path 916" class="cls-4" d="M404.176,174.9a8.615,8.615,0,0,1,1.085,3.621c-2.173-1.219-4.216-2.558-5.248-3.024-1.8-.812-8.518-.69-11.044-.614a8.518,8.518,0,0,1,.922-1.331,8.823,8.823,0,0,1,2.012-1.761,8.722,8.722,0,0,1,12.285,3.1Z" transform="translate(-317.346 -142.289)"/>
    <path id="Path_917" data-name="Path 917" class="cls-4" d="M465.081,205.018c-1.173.361-3.087-.337-5.072-1.336a9.563,9.563,0,0,1-.749-1.1l6.7,1.263C466.4,204.146,466.512,204.577,465.081,205.018Z" transform="translate(-370.496 -166.598)"/>
    <path id="Path_918" data-name="Path 918" class="cls-8" d="M394.116,154.046s-6.4-.366-8.2,3.109l-.29,3.08-.488-.054-.1,2.095s9.783-.427,12.009.578,9.144,6.067,11.917,5.213-.244-1.646-.244-1.646-3.816-1.617-3.816-2.885S403.96,155.57,394.116,154.046Z" transform="translate(-314.374 -129.89)"/>
    <path id="Path_919" data-name="Path 919" class="cls-4" d="M371.63,622.28s4.084,3.963,5.852,3.658C377.482,625.938,372.483,625.511,371.63,622.28Z" transform="translate(-304.234 -483.956)"/>
    <path id="Path_920" data-name="Path 920" class="cls-4" d="M368.13,629.81s.366,2.039,1.341,1.839S368.13,629.81,368.13,629.81Z" transform="translate(-301.588 -489.65)"/>
    <path id="Path_921" data-name="Path 921" class="cls-4" d="M379.086,769.53s-5.8,4.511-4.821,4.633S379.086,769.53,379.086,769.53Z" transform="translate(-306.143 -595.3)"/>
    <path id="Path_922" data-name="Path 922" class="cls-10" d="M330.96,337.855l18.776-3.055v17.776l-17.84-.934Z" transform="translate(-250.26 -253.158)"/>
    <path id="Path_923" data-name="Path 923" class="cls-11" d="M330.96,337.855l18.776-3.055v17.776l-17.84-.934Z" transform="translate(-250.26 -253.158)"/>
    <path id="Path_924" data-name="Path 924" class="cls-10" d="M407.96,334.8l22.517,1.685-1.246,15.47-21.271.622Z" transform="translate(-308.484 -253.158)"/>
    <path id="Path_925" data-name="Path 925" class="cls-4" d="M407.96,334.8l22.517,1.685-1.246,15.47-21.271.622Z" transform="translate(-308.484 -253.158)"/>
    <path id="Path_926" data-name="Path 926" class="cls-10" d="M414.883,312.55l-6.923,5.426,22.517,1.685,3.68-5.552Z" transform="translate(-308.484 -236.334)"/>
    <path id="Path_927" data-name="Path 927" class="cls-10" d="M303.08,316.648l16.9-2.058,8.671,4.928-18.776,3.055Z" transform="translate(-229.178 -237.876)"/>
    <path id="Path_928" data-name="Path 928" class="cls-10" d="M353.852,348.891v24.3l-8.8-.9-3.826-.39-1.166-.122-3.823-.393-5.282-.541V347.33l18.774,1.278Z" transform="translate(-250.26 -262.633)"/>
    <path id="Path_929" data-name="Path 929" class="cls-10" d="M443.241,341.71v23.7l-7.05,1.353-3.428.658-7.923,1.522v-24.3Z" transform="translate(-321.248 -258.383)"/>
    <path id="Path_930" data-name="Path 930" class="cls-11" d="M443.241,341.71v23.7l-7.05,1.353-3.428.658-7.923,1.522v-24.3Z" transform="translate(-321.248 -258.383)"/>
    <path id="Path_931" data-name="Path 931" class="cls-10" d="M303.08,352.446l6.8-5.116,22.892,1.561-3.37,5.677Z" transform="translate(-229.178 -262.633)"/>
    <path id="Path_932" data-name="Path 932" class="cls-12" d="M303.08,352.446l6.8-5.116,22.892,1.561-3.37,5.677Z" transform="translate(-229.178 -262.633)"/>
    <path id="Path_933" data-name="Path 933" class="cls-10" d="M443.241,341.71l-18.4,2.931,5.989,5.365,19.71-3.307Z" transform="translate(-321.248 -258.383)"/>
    <path id="Path_934" data-name="Path 934" class="cls-12" d="M443.241,341.71l-18.4,2.931,5.989,5.365,19.71-3.307Z" transform="translate(-321.248 -258.383)"/>
    <path id="Path_935" data-name="Path 935" class="cls-12" d="M460.758,428.286l-3.428.658V423.88l3.211-.81Z" transform="translate(-345.815 -319.904)"/>
    <path id="Path_936" data-name="Path 936" class="cls-12" d="M376.906,435.96v3.35l-3.826-.39v-2.96Z" transform="translate(-282.109 -329.651)"/>
    <path id="Path_937" data-name="Path 937" class="cls-12" d="M356.443,440.29v1.782l-3.823-.393v-1.39Z" transform="translate(-266.638 -332.925)"/>
    <path id="Path_938" data-name="Path 938" class="cls-4" d="M453,453.454c-2.621,3.353-11.278,1.036-11.278,1.036l-6.433-6.711-.873-.91,1.707-3.17s.488.161,1.3.444C441.74,445.651,455.21,450.633,453,453.454Z" transform="translate(-351.713 -348.922)"/>
    <path id="Path_939" data-name="Path 939" class="cls-3" d="M452,451.454c-2.621,3.353-11.278,1.036-11.278,1.036l-6.433-6.711-.873-.91,1.707-3.17s.488.161,1.3.444C440.74,443.651,454.21,448.633,452,451.454Z" transform="translate(-350.957 -347.41)"/>
    <path id="Path_940" data-name="Path 940" class="cls-4" d="M436.389,442.144a14.416,14.416,0,0,1-2.136,3.636l-.873-.91,1.707-3.17S435.577,441.861,436.389,442.144Z" transform="translate(-350.927 -347.41)"/>
    <path id="Path_941" data-name="Path 941" class="cls-5" d="M338.34,287.87s-6.4,2.438-6.462,9.266a112.173,112.173,0,0,0,.732,13.168s-1.829,10.181,3.353,13.107,10,5.365,10,5.365,8.279,1.341,9.3,1.768,4.55-5.06,4-5.974-8.086-3.17-8.981-4.694a8.12,8.12,0,0,0-3.1-2.551s-2.248-1.534-2.339-2.814a5.761,5.761,0,0,1,.761-2.743c.188-.549.868-5.913.868-5.913S350.106,286.822,338.34,287.87Z" transform="translate(-274.175 -231.059)"/>
    <path id="Path_942" data-name="Path 942" class="cls-4" d="M345.5,380.7s-8.656.975-7.986,4.023A18.212,18.212,0,0,1,345.5,380.7Z" transform="translate(-278.41 -301.284)"/>
    <path id="Path_943" data-name="Path 943" class="cls-4" d="M357.6,385.7s-4.913,3.6-4.011,3.841S357.6,385.7,357.6,385.7Z" transform="translate(-290.507 -305.065)"/>
    <path id="Path_944" data-name="Path 944" class="cls-4" d="M376.737,391.7s-1.4,2.521-.61,2.39S376.737,391.7,376.737,391.7Z" transform="translate(-307.451 -309.602)"/>
    <path id="Path_945" data-name="Path 945" class="cls-10" d="M723.351,167.383s-9.266-.558-8.183,5.943a1.586,1.586,0,0,0,.824,1.67s.017-.488.951-.319a4.269,4.269,0,0,0,1.007.049,2.09,2.09,0,0,0,1.234-.51h0s2.607-1.075,3.621-5.338c0,0,.751-.931.732-1.17l-1.565.671a2.805,2.805,0,0,1,.112,2.068s-.049-2.026-.351-1.98c-.061,0-.812.393-.812.393a4.625,4.625,0,0,1,.224,3.4s.263-2.424-.512-3.255l-1.1.644a4.865,4.865,0,0,1,.346,3.689s.188-2.543-.578-3.533l-1,.778s1.012,2,.4,3.38c0,0-.081-2.96-.612-3.185a6.033,6.033,0,0,0-1,1.088s.69,1.463.261,2.221c0,0-.263-1.973-.488-1.982a6.565,6.565,0,0,0-.961,2.195,4.746,4.746,0,0,1,.749-2.326,2.612,2.612,0,0,0-1.331.69s.134-.924,1.546-1a6.675,6.675,0,0,1,.912-1.053,5.717,5.717,0,0,0-2.255.261,2.555,2.555,0,0,1,2.514-.488l.975-.8a8.413,8.413,0,0,0-2.633.027s.9-.771,2.9-.21l1.073-.641a9.633,9.633,0,0,0-2.514-.217,3.857,3.857,0,0,1,2.829.044l.768-.344s-1.156-.227-1.492-.263-.356-.129-.356-.129a3.989,3.989,0,0,1,2.168.244A9.568,9.568,0,0,0,723.351,167.383Z" transform="translate(-563.935 -139.974)"/>
    <path id="Path_946" data-name="Path 946" class="cls-1" d="M838.811,300.723s-9.266-.558-8.183,5.943a1.586,1.586,0,0,0,.824,1.67s.017-.488.953-.319a4.271,4.271,0,0,0,1.007.049,2.087,2.087,0,0,0,1.219-.507h0s2.609-1.078,3.624-5.34c0,0,.749-.929.719-1.168l-1.565.668a2.814,2.814,0,0,1,.115,2.068s-.051-2.026-.351-1.98c-.061,0-.814.393-.814.393s.922,1.968.227,3.4c0,0,.263-2.424-.515-3.255l-1.09.636a4.865,4.865,0,0,1,.346,3.689s.188-2.543-.578-3.533l-1,.78s1.01,2,.4,3.377c0,0-.08-2.96-.612-3.185a6.118,6.118,0,0,0-1.007,1.088s.693,1.463.263,2.221c0,0-.263-1.973-.488-1.982a6.562,6.562,0,0,0-.961,2.195,4.76,4.76,0,0,1,.751-2.326,2.624,2.624,0,0,0-1.334.69s.137-.924,1.548-1a6.091,6.091,0,0,1,.912-1.053,5.717,5.717,0,0,0-2.255.261,2.533,2.533,0,0,1,2.512-.476l.975-.8a8.417,8.417,0,0,0-2.634.027s.9-.771,2.9-.21l1.073-.641a9.771,9.771,0,0,0-2.516-.217,3.865,3.865,0,0,1,2.831.044l.768-.344s-1.156-.227-1.495-.263-.356-.129-.356-.129a4,4,0,0,1,2.17.244A9.84,9.84,0,0,0,838.811,300.723Z" transform="translate(-651.24 -240.8)"/>
    <path id="Path_947" data-name="Path 947" class="cls-1" d="M614,248.669s2.134-9.044-4.46-9.076a1.584,1.584,0,0,0-1.785.527s.471.1.151.992a4.345,4.345,0,0,0-.219.975,2.1,2.1,0,0,0,.29,1.3h0s.617,2.755,4.633,4.482c0,0,.79.9,1.029.907l-.39-1.656a2.8,2.8,0,0,1-2.058-.244s2.007.3,2.009,0c0-.061-.244-.868-.244-.868a4.63,4.63,0,0,1-3.387-.358s2.343.673,3.3.051l-.439-1.2a4.866,4.866,0,0,1-3.7-.288s2.475.619,3.582.034l-.6-1.117s-2.146.654-3.4-.188c0,0,2.926.424,3.243-.059a6.059,6.059,0,0,0-.9-1.178s-1.551.434-2.234-.12c0,0,1.987.076,2.034-.134a6.574,6.574,0,0,0-2.007-1.324,4.779,4.779,0,0,1,2.168,1.136,2.631,2.631,0,0,0-.453-1.431s.888.293.731,1.707a6.071,6.071,0,0,1,.88,1.078,5.735,5.735,0,0,0,.127-2.268,2.535,2.535,0,0,1,.041,2.558l.624,1.109a8.092,8.092,0,0,0,.422-2.6s.607,1.019-.288,2.892l.451,1.168a9.762,9.762,0,0,0,.641-2.438,3.854,3.854,0,0,1-.527,2.782l.21.814s.419-1.1.512-1.426.188-.329.188-.329a3.994,3.994,0,0,1-.607,2.1A9.709,9.709,0,0,0,614,248.669Z" transform="translate(-482.72 -194.518)"/>
    <path id="Path_948" data-name="Path 948" class="cls-1" d="M517.7,282.466s-7.442-5.567-10.1.463a1.587,1.587,0,0,0-.229,1.848s.278-.393.975.258a4.27,4.27,0,0,0,.814.595,2.092,2.092,0,0,0,1.309.244h0s2.77.534,5.96-2.468c0,0,1.139-.366,1.246-.58l-1.68-.3a2.817,2.817,0,0,1-1.041,1.79s1.071-1.722.793-1.846c-.056-.027-.9-.122-.9-.122s-.312,2.151-1.677,2.963c0,0,1.553-1.88,1.361-3l-1.275-.068a4.864,4.864,0,0,1-1.739,3.275s1.553-2.022,1.463-3.27l-1.263.1s-.256,2.226-1.526,3.036c0,0,1.558-2.516,1.239-2.994a6.13,6.13,0,0,0-1.439.354s-.222,1.595-1,2c0,0,.866-1.792.69-1.917a6.553,6.553,0,0,0-2.014,1.309,4.762,4.762,0,0,1,1.907-1.531,2.626,2.626,0,0,0-1.492-.156s.619-.7,1.844.012a6.156,6.156,0,0,1,1.341-.378,5.707,5.707,0,0,0-2.029-1.022,2.539,2.539,0,0,1,2.363.975l1.265-.129a8.351,8.351,0,0,0-2.214-1.424s1.178-.149,2.536,1.417l1.248.056a9.734,9.734,0,0,0-1.98-1.565,3.856,3.856,0,0,1,2.339,1.592l.832.134s-.841-.824-1.1-1.039-.227-.3-.227-.3a4.006,4.006,0,0,1,1.68,1.395A9.854,9.854,0,0,0,517.7,282.466Z" transform="translate(-406.713 -225.233)"/>
    <path id="Path_949" data-name="Path 949" class="cls-1" d="M619.309,70.353s-7.442-5.569-10.1.463a1.587,1.587,0,0,0-.229,1.848s.278-.393.975.258a4.339,4.339,0,0,0,.817.593,2.09,2.09,0,0,0,1.309.244h0s2.77.534,5.96-2.47c0,0,1.139-.363,1.244-.58l-1.68-.29a2.8,2.8,0,0,1-1.041,1.79s1.073-1.722.8-1.846c-.056-.027-.895-.122-.895-.122s-.322,2.156-1.687,2.963c0,0,1.551-1.88,1.361-3l-1.275-.068a4.868,4.868,0,0,1-1.739,3.272s1.553-2.021,1.463-3.27l-1.261.1s-.259,2.229-1.529,3.038c0,0,1.561-2.516,1.241-2.994a6.131,6.131,0,0,0-1.439.354s-.222,1.595-1,2c0,0,.866-1.792.69-1.919a6.579,6.579,0,0,0-2.014,1.312,4.74,4.74,0,0,1,1.907-1.531,2.609,2.609,0,0,0-1.495-.156s.622-.7,1.846.012a6.021,6.021,0,0,1,1.341-.378,5.739,5.739,0,0,0-2.029-1.024,2.542,2.542,0,0,1,2.36.975l1.266-.129a8.36,8.36,0,0,0-2.214-1.426s1.178-.146,2.538,1.419l1.249.054a9.636,9.636,0,0,0-1.982-1.563,3.857,3.857,0,0,1,2.341,1.592l.829.134s-.844-.814-1.107-1.024-.227-.3-.227-.3a4,4,0,0,1,1.68,1.395A10.528,10.528,0,0,0,619.309,70.353Z" transform="translate(-483.546 -64.842)"/>
    <path id="Path_950" data-name="Path 950" class="cls-1" d="M738.162,87.477s-2.975-8.805-8.586-5.345a1.6,1.6,0,0,0-1.236,1.392s.451-.166.651.761a4.4,4.4,0,0,0,.334.953,2.112,2.112,0,0,0,.936.949h0s1.98,2.012,6.311,1.346c0,0,1.144.346,1.353.227l-1.219-1.2a2.8,2.8,0,0,1-1.873.883s1.86-.81,1.707-1.07c-.032-.051-.668-.6-.668-.6s-1.478,1.592-3.063,1.487c0,0,2.343-.668,2.821-1.707l-1.01-.778a4.859,4.859,0,0,1-3.289,1.707s2.438-.783,3.055-1.865l-1.1-.632s-1.463,1.69-2.98,1.636c0,0,2.712-1.188,2.719-1.763a6.1,6.1,0,0,0-1.385-.524s-1.088,1.188-1.951,1.08c0,0,1.726-.988,1.653-1.19a6.542,6.542,0,0,0-2.4-.061,4.753,4.753,0,0,1,2.438-.183A2.632,2.632,0,0,0,730.24,82s.907-.222,1.514,1.056a6.141,6.141,0,0,1,1.317.449,5.732,5.732,0,0,0-1.09-1.992,2.539,2.539,0,0,1,1.387,2.151l1.117.61a8.232,8.232,0,0,0-1.017-2.438s1.056.546,1.285,2.607l1,.753a9.694,9.694,0,0,0-.746-2.414,3.861,3.861,0,0,1,1.024,2.641l.607.58s-.224-1.156-.317-1.483-.017-.349-.017-.349a4.021,4.021,0,0,1,.592,2.1A9.717,9.717,0,0,0,738.162,87.477Z" transform="translate(-573.962 -74.911)"/>
    <path id="Path_951" data-name="Path 951" class="cls-1" d="M662.57,108.148s-9.242-1.029-8.479,5.528a1.583,1.583,0,0,0,.732,1.707s.041-.488.975-.268a4.487,4.487,0,0,0,1,.1,2.1,2.1,0,0,0,1.256-.446h0s2.66-.944,3.9-5.15c0,0,.795-.89.778-1.131l-1.6.59a2.719,2.719,0,0,1,0,2.07s.051-2.026-.244-1.995c-.061,0-.831.351-.831.351a4.651,4.651,0,0,1,.054,3.414s.385-2.409-.349-3.277l-1.134.585a4.847,4.847,0,0,1,.159,3.7s.317-2.531-.4-3.558l-1.036.732s.907,2.051.222,3.394c0,0,.071-2.96-.449-3.211a6.344,6.344,0,0,0-1.061,1.034s.617,1.487.151,2.231c0,0-.163-1.982-.378-2a6.558,6.558,0,0,0-1.073,2.151,4.748,4.748,0,0,1,.868-2.287,2.623,2.623,0,0,0-1.365.622s.18-.914,1.595-.924c0,0,.768-.953.975-1a5.733,5.733,0,0,0-2.268.146,2.53,2.53,0,0,1,2.534-.349l1.027-.753a7.908,7.908,0,0,0-2.641-.132s.941-.732,2.907-.061l1.1-.588a9.709,9.709,0,0,0-2.5-.344,3.83,3.83,0,0,1,2.824.188l.785-.3s-1.144-.285-1.48-.339-.349-.146-.349-.146a4.011,4.011,0,0,1,2.156.351A9.975,9.975,0,0,0,662.57,108.148Z" transform="translate(-517.785 -95.148)"/>
    <path id="Path_952" data-name="Path 952" class="cls-1" d="M994.185,402.318s-9.237-1.029-8.474,5.521a1.583,1.583,0,0,0,.732,1.707s.041-.488.975-.271a4.216,4.216,0,0,0,1,.1,2.081,2.081,0,0,0,1.256-.446h0s2.66-.944,3.889-5.148c0,0,.795-.892.778-1.131l-1.6.588a2.726,2.726,0,0,1,0,2.073s.051-2.029-.244-1.995c-.061,0-.832.349-.832.349a4.651,4.651,0,0,1,.054,3.414s.385-2.407-.349-3.277l-1.134.588a4.854,4.854,0,0,1,.161,3.7s.315-2.531-.4-3.56l-1.036.732s.907,2.051.222,3.392c0,0,.071-2.96-.449-3.209a6.44,6.44,0,0,0-1.061,1.034s.619,1.487.151,2.231c0,0-.163-1.982-.378-2a6.558,6.558,0,0,0-1.073,2.151,4.747,4.747,0,0,1,.868-2.287,2.6,2.6,0,0,0-1.366.622s.181-.917,1.595-.927c0,0,.771-.953.975-1a5.714,5.714,0,0,0-2.268.144,2.537,2.537,0,0,1,2.536-.346l1.024-.754a8.15,8.15,0,0,0-2.631-.107s.941-.732,2.907-.063l1.1-.585a9.71,9.71,0,0,0-2.5-.344,3.83,3.83,0,0,1,2.824.188l.785-.307s-1.144-.285-1.48-.337-.349-.146-.349-.146a4,4,0,0,1,2.156.349A9.55,9.55,0,0,0,994.185,402.318Z" transform="translate(-768.541 -317.586)"/>
    <path id="Path_953" data-name="Path 953" class="cls-1" d="M1052.095,437.7s-9.237-1.027-8.474,5.521a1.587,1.587,0,0,0,.731,1.707s.042-.488.976-.268a4.307,4.307,0,0,0,1,.1,2.106,2.106,0,0,0,1.251-.444h0s2.658-.944,3.887-5.15c0,0,.8-.89.778-1.131l-1.6.588a2.726,2.726,0,0,1,0,2.073s.051-2.026-.244-1.995c-.061,0-.832.349-.832.349a4.651,4.651,0,0,1,.054,3.414s.385-2.407-.349-3.275l-1.134.585a4.854,4.854,0,0,1,.161,3.7s.315-2.531-.4-3.558l-1.036.732s.907,2.051.224,3.394c0,0,.068-2.963-.451-3.211a6.434,6.434,0,0,0-1.061,1.034s.619,1.487.151,2.231c0,0-.163-1.982-.378-2a6.521,6.521,0,0,0-1.071,2.151,4.762,4.762,0,0,1,.866-2.287,2.624,2.624,0,0,0-1.365.622s.183-.917,1.6-.924c0,0,.768-.953.975-1a5.734,5.734,0,0,0-2.268.146,2.533,2.533,0,0,1,2.536-.349l1.024-.754a8.15,8.15,0,0,0-2.631-.107s.941-.732,2.907-.061l1.1-.588a9.71,9.71,0,0,0-2.5-.344,3.83,3.83,0,0,1,2.824.188l.785-.3s-1.144-.285-1.478-.339-.351-.146-.351-.146a4.012,4.012,0,0,1,2.156.351A9.646,9.646,0,0,0,1052.095,437.7Z" transform="translate(-812.329 -344.34)"/>
    <path id="Path_954" data-name="Path 954" class="cls-1" d="M917.249,132.606s-7.442-5.567-10.1.463a1.587,1.587,0,0,0-.229,1.848s.278-.393.975.258a4.273,4.273,0,0,0,.814.595,2.1,2.1,0,0,0,1.309.244h0s2.77.534,5.962-2.468c0,0,1.136-.366,1.244-.58l-1.675-.3a2.818,2.818,0,0,1-1.041,1.79s1.07-1.722.792-1.846c-.056-.027-.892-.122-.892-.122s-.315,2.151-1.68,2.963c0,0,1.553-1.88,1.361-3l-1.275-.068a4.864,4.864,0,0,1-1.739,3.275s1.556-2.021,1.463-3.27l-1.263.1s-.244,2.226-1.526,3.036c0,0,1.561-2.516,1.239-2.994a6.13,6.13,0,0,0-1.439.354s-.219,1.595-1,2c0,0,.863-1.792.688-1.917a6.553,6.553,0,0,0-2.014,1.309,4.762,4.762,0,0,1,1.907-1.531,2.626,2.626,0,0,0-1.492-.156s.622-.7,1.846.012a6.13,6.13,0,0,1,1.339-.378,5.7,5.7,0,0,0-2.029-1.022,2.539,2.539,0,0,1,2.363.975l1.266-.129a8.309,8.309,0,0,0-2.214-1.424s1.178-.149,2.536,1.417l1.251.056a9.778,9.778,0,0,0-1.982-1.565,3.849,3.849,0,0,1,2.339,1.592l.831.134s-.841-.824-1.1-1.039-.224-.285-.224-.285a4.008,4.008,0,0,1,1.678,1.395A9.8,9.8,0,0,0,917.249,132.606Z" transform="translate(-708.835 -111.916)"/>
    <path id="Path_955" data-name="Path 955" class="cls-1" d="M943.644,284.781s-2.565-8.932-8.335-5.725a1.584,1.584,0,0,0-1.3,1.334s.458-.144.617.79a4.32,4.32,0,0,0,.292.975,2.1,2.1,0,0,0,.893.995h0s1.887,2.1,6.242,1.629c0,0,1.127.4,1.341.288l-1.153-1.253a2.8,2.8,0,0,1-1.909.8s1.892-.732,1.746-.992c-.029-.054-.639-.636-.639-.636s-1.546,1.526-3.126,1.348c0,0,2.373-.561,2.895-1.57l-.975-.824a4.872,4.872,0,0,1-3.363,1.561s2.458-.675,3.136-1.726l-1.068-.68s-1.548,1.622-3.05,1.5c0,0,2.763-1.066,2.8-1.639a6.09,6.09,0,0,0-1.363-.585s-1.139,1.136-2,.99c0,0,1.77-.91,1.707-1.114a6.585,6.585,0,0,0-2.4-.171,4.757,4.757,0,0,1,2.438-.071,2.616,2.616,0,0,0-1.1-1.024s.917-.183,1.463,1.122a6.087,6.087,0,0,1,1.295.507,5.7,5.7,0,0,0-1-2.039,2.533,2.533,0,0,1,1.29,2.209l1.088.661a8.109,8.109,0,0,0-.907-2.473s1.029.593,1.168,2.66l.975.8a9.671,9.671,0,0,0-.636-2.438,3.854,3.854,0,0,1,.9,2.682l.58.61s-.171-1.166-.244-1.5,0-.378,0-.378a4,4,0,0,1,.5,2.126A9.67,9.67,0,0,0,943.644,284.781Z" transform="translate(-729.48 -223.9)"/>
    <path id="Path_956" data-name="Path 956" class="cls-1" d="M706.533,372.815s-4.982-7.847-9.607-3.15a1.577,1.577,0,0,0-.873,1.646s.4-.268.817.585a4.173,4.173,0,0,0,.551.844,2.082,2.082,0,0,0,1.134.7h0s2.4,1.483,6.45-.2c0,0,1.192.063,1.368-.1l-1.463-.878a2.8,2.8,0,0,1-1.609,1.3s1.614-1.219,1.4-1.444c-.041-.044-.793-.429-.793-.429s-1.056,1.9-2.621,2.173c0,0,2.119-1.207,2.339-2.324l-1.168-.515a4.857,4.857,0,0,1-2.787,2.438s2.17-1.339,2.524-2.538l-1.219-.351s-1.029,1.992-2.5,2.3c0,0,2.351-1.8,2.221-2.36a6.058,6.058,0,0,0-1.463-.178s-.773,1.412-1.646,1.514c0,0,1.444-1.37,1.324-1.551a6.57,6.57,0,0,0-2.348.512,4.745,4.745,0,0,1,2.326-.756,2.616,2.616,0,0,0-1.339-.675s.827-.432,1.707.666a6.021,6.021,0,0,1,1.388.122A5.613,5.613,0,0,0,699.1,368.5s1.146.1,1.858,1.758l1.231.327a8.152,8.152,0,0,0-1.565-2.117s1.153.278,1.868,2.226l1.151.488a9.719,9.719,0,0,0-1.3-2.165,3.842,3.842,0,0,1,1.622,2.319l.732.422s-.488-1.07-.661-1.366-.1-.363-.1-.363a4,4,0,0,1,1.075,1.9A9.914,9.914,0,0,0,706.533,372.815Z" transform="translate(-549.531 -291.807)"/>
    <path id="Path_957" data-name="Path 957" class="cls-10" d="M840.977,207.783s-4.738-8-9.51-3.446a1.586,1.586,0,0,0-.922,1.619s.407-.258.8.607a4.211,4.211,0,0,0,.524.863,2.07,2.07,0,0,0,1.112.732h0s2.353,1.556,6.452,0c0,0,1.19.1,1.37-.059l-1.431-.922a2.8,2.8,0,0,1-1.648,1.253s1.651-1.178,1.444-1.4c-.044-.046-.78-.456-.78-.456s-1.114,1.865-2.682,2.092c0,0,2.156-1.141,2.407-2.248l-1.151-.541a4.863,4.863,0,0,1-2.863,2.356s2.212-1.27,2.6-2.458l-1.2-.39s-1.092,1.951-2.575,2.219c0,0,2.4-1.726,2.292-2.29a6.021,6.021,0,0,0-1.463-.224s-.817,1.387-1.692,1.463c0,0,1.485-1.322,1.373-1.507a6.564,6.564,0,0,0-2.363.439,4.76,4.76,0,0,1,2.348-.683,2.622,2.622,0,0,0-1.319-.717s.841-.407,1.707.717a6.176,6.176,0,0,1,1.383.166,5.832,5.832,0,0,0-1.48-1.722s1.141.132,1.8,1.814l1.219.366a8.1,8.1,0,0,0-1.5-2.165s1.146.315,1.8,2.282l1.134.529a9.8,9.8,0,0,0-1.219-2.195,3.857,3.857,0,0,1,1.551,2.368l.714.444s-.458-1.085-.619-1.385-.093-.366-.093-.366a4.006,4.006,0,0,1,1.017,1.931A9.442,9.442,0,0,0,840.977,207.783Z" transform="translate(-651.234 -166.869)"/>
    <path id="Path_958" data-name="Path 958" class="cls-10" d="M726.084,266.619s.244-9.291-6.211-7.981a1.589,1.589,0,0,0-1.644.88s.488,0,.351.939a4.284,4.284,0,0,0-.015,1.01,2.085,2.085,0,0,0,.549,1.219h0s1.163,2.57,5.457,3.443c0,0,.953.719,1.192.68l-.732-1.541a2.815,2.815,0,0,1-2.063.183s2.024-.119,1.968-.417c0-.061-.419-.8-.419-.8s-1.936.988-3.387.339c0,0,2.438.183,3.236-.619l-.68-1.08a4.871,4.871,0,0,1-3.677.468s2.548.1,3.514-.695l-.812-.975s-1.968,1.078-3.363.507c0,0,2.955-.178,3.17-.717a6.326,6.326,0,0,0-1.122-.975s-1.429.732-2.209.337c0,0,1.951-.327,1.963-.544a6.544,6.544,0,0,0-2.234-.888,4.748,4.748,0,0,1,2.353.673,2.621,2.621,0,0,0-.732-1.309s.929.1,1.056,1.512a6.062,6.062,0,0,1,1.083.878,5.7,5.7,0,0,0-.337-2.246,2.53,2.53,0,0,1,.561,2.495l.836.961a8.164,8.164,0,0,0-.115-2.631s.8.875.307,2.89l.675,1.051a9.724,9.724,0,0,0,.134-2.521,3.87,3.87,0,0,1,.049,2.831l.371.756s.188-1.163.212-1.5.117-.361.117-.361a4,4,0,0,1-.168,2.178A9.294,9.294,0,0,0,726.084,266.619Z" transform="translate(-566.318 -208.891)"/>
    <ellipse id="Ellipse_216" data-name="Ellipse 216" class="cls-1" cx="6.567" cy="1.109" rx="6.567" ry="1.109" transform="translate(163.871 173.56)"/>
    <ellipse id="Ellipse_217" data-name="Ellipse 217" class="cls-1" cx="6.567" cy="1.109" rx="6.567" ry="1.109" transform="translate(139.932 190.404)"/>
    <ellipse id="Ellipse_218" data-name="Ellipse 218" class="cls-1" cx="6.567" cy="1.109" rx="6.567" ry="1.109" transform="translate(16.142 181.775)"/>
    <ellipse id="Ellipse_219" data-name="Ellipse 219" class="cls-1" cx="6.567" cy="1.109" rx="6.567" ry="1.109" transform="translate(189.74 189.295)"/>
    <ellipse id="Ellipse_220" data-name="Ellipse 220" class="cls-10" cx="9.805" cy="1.658" rx="9.805" ry="1.658" transform="translate(193.34 174.669)"/>
    <path id="Path_959" data-name="Path 959" class="cls-10" d="M916.875,753a2.831,2.831,0,0,0,.934-1.409,1.253,1.253,0,0,0-.651-1.436,1.841,1.841,0,0,0-1.729.6,2.317,2.317,0,0,1-1.678.812,2.56,2.56,0,0,0,.79-2.392,1,1,0,0,0-.219-.488c-.334-.356-.936-.2-1.336.078-1.268.892-1.622,2.614-1.629,4.165a7.834,7.834,0,0,1-.022-1.707,1.751,1.751,0,0,0-.646-1.517,1.928,1.928,0,0,0-.975-.244,2.037,2.037,0,0,0-1.595.454,1.571,1.571,0,0,0,.061,1.951,6.305,6.305,0,0,0,1.651,1.322,3.691,3.691,0,0,1,1.18,1.124,1.147,1.147,0,0,1,.085.2h3.575a9.856,9.856,0,0,0,2.2-1.517Z" transform="translate(-709.665 -579.383)"/>
    <path id="Path_960" data-name="Path 960" class="cls-13" d="M170.29,777.595s3.743-.115,4.877-.919,5.762-1.763,6.042-.473,5.628,6.411,1.4,6.445-9.825-.658-10.951-1.346S170.29,777.595,170.29,777.595Z" transform="translate(-151.99 -599.868)"/>
    <path id="Path_961" data-name="Path 961" class="cls-14" d="M182.68,788.459c-4.228.034-9.825-.658-10.951-1.346-.858-.522-1.2-2.4-1.314-3.263h-.124s.244,3.021,1.363,3.706,6.723,1.38,10.951,1.346c1.219,0,1.641-.444,1.619-1.088C184.053,788.208,183.587,788.451,182.68,788.459Z" transform="translate(-151.99 -606.128)"/>
  </g>
</svg>
