<svg xmlns="http://www.w3.org/2000/svg" xmlns:xlink="http://www.w3.org/1999/xlink" viewBox="0 0 139.948 112.767"><defs><style>.a,.z{opacity:0.5;}.b{fill:url(#a);}.c{fill:#6a4dff;}.d{opacity:0.3;}.e{fill:url(#b);}.f{fill:#f55f44;}.g,.r,.v{opacity:0.1;}.h{fill:url(#c);}.i{fill:url(#d);}.j{fill:url(#e);}.k{fill:url(#f);}.l{fill:#f99f8f;}.m,.t{fill:#fff;}.m{opacity:0.15;}.n{fill:#fda57d;}.o{fill:url(#g);}.p{fill:#4d8af0;}.q{fill:#ffd180;}.s{fill:url(#h);}.u,.z{fill:#58555d;}.v{fill:url(#i);}.w{fill:url(#j);}.x{fill:#333;}.y{fill:#3ad29f;}.aa{fill:url(#k);}.ab{fill:url(#l);}.ac{fill:none;stroke:#000;stroke-miterlimit:10;opacity:0.2;}</style><linearGradient id="a" x1="0.5" y1="1" x2="0.5" gradientUnits="objectBoundingBox"><stop offset="0" stop-color="gray" stop-opacity="0.251"/><stop offset="0.54" stop-color="gray" stop-opacity="0.122"/><stop offset="1" stop-color="gray" stop-opacity="0.102"/></linearGradient><linearGradient id="b" x1="7.194" y1="-9.858" x2="7.194" y2="-10.955" xlink:href="#a"/><linearGradient id="c" x1="47.005" y1="-76.977" x2="47.005" y2="-77.977" xlink:href="#a"/><linearGradient id="d" x1="45.78" y1="-75.851" x2="45.78" y2="-76.851" xlink:href="#a"/><linearGradient id="e" x1="45.657" y1="-78.237" x2="45.657" y2="-79.237" xlink:href="#a"/><linearGradient id="f" x1="44.401" y1="-77.207" x2="44.401" y2="-78.207" xlink:href="#a"/><linearGradient id="g" y1="1.001" y2="0" xlink:href="#a"/><linearGradient id="h" y1="1" y2="0" xlink:href="#a"/><linearGradient id="i" x1="0.501" y1="1" x2="0.501" gradientUnits="objectBoundingBox"><stop offset="0" stop-color="#fff"/><stop offset="1"/></linearGradient><linearGradient id="j" y1="1" y2="0" xlink:href="#a"/><linearGradient id="k" x1="5.982" y1="-11.162" x2="5.982" y2="-12.162" xlink:href="#a"/><linearGradient id="l" x1="3.661" y1="-6.311" x2="3.661" y2="-7.416" xlink:href="#a"/></defs><g transform="translate(0 0.007)"><g class="a" transform="translate(0 13.06)"><path class="b" d="M247.567,164.775H228.4v-7.334a7.681,7.681,0,0,0-7.681-7.681H132.967A6.969,6.969,0,0,0,126,156.729v8.051h-2.886a8.11,8.11,0,0,0-8.113,8.1v36.358a8.108,8.108,0,0,0,7.5,8.079v8.224h8.192v-8.2H141.01v8.268H149.2V217.34h73.725v8.268h8.192V217.34h6.827v8.192h8.2V217.34h1.476a7.324,7.324,0,0,0,7.325-7.325V172.157a7.381,7.381,0,0,0-7.383-7.383ZM226.958,196.86V203h-30.54a3.966,3.966,0,0,0,.5-1.938V196.86Z" transform="translate(-115 -149.76)"/></g><rect class="c" width="7.888" height="9.86" transform="translate(9.828 77.567)"/><rect class="c" width="7.888" height="9.86" transform="translate(106.529 77.641)"/><rect class="c" width="7.888" height="9.86" transform="translate(120.99 77.567)"/><rect class="c" width="7.888" height="9.86" transform="translate(27.649 77.641)"/><rect class="d" width="7.888" height="9.86" transform="translate(9.828 77.567)"/><rect class="d" width="7.888" height="9.86" transform="translate(106.529 77.641)"/><rect class="d" width="7.888" height="9.86" transform="translate(120.99 77.567)"/><rect class="d" width="7.888" height="9.86" transform="translate(27.649 77.641)"/><path class="c" d="M765.2,200.52h19.844a7.107,7.107,0,0,1,7.107,7.107v36.457a7.051,7.051,0,0,1-7.051,7.051H765.2Z" transform="translate(-654.8 -171.596)"/><path class="d" d="M765.2,200.52h19.844a7.107,7.107,0,0,1,7.107,7.107v36.457a7.051,7.051,0,0,1-7.051,7.051H765.2Z" transform="translate(-654.8 -171.596)"/><path class="c" d="M98.11,100.29H136.1v45.356H91.4V107a6.71,6.71,0,0,1,6.709-6.709Z" transform="translate(-78.213 -85.826)"/><path class="d" d="M98.327,100.29H136.1v45.356H91.4V107.215a6.925,6.925,0,0,1,6.927-6.925Z" transform="translate(-78.213 -85.826)"/><path class="c" d="M162.546,100.29H199.38v45.356h-44.7V108.154a7.864,7.864,0,0,1,7.864-7.864Z" transform="translate(-132.363 -85.826)"/><path class="c" d="M463,100.29h37.591a7.4,7.4,0,0,1,7.4,7.4v37.959H463Z" transform="translate(-396.2 -85.826)"/><path class="c" d="M851.77,200.52h7.358a7.107,7.107,0,0,1,7.1,7.107v36.457a7.051,7.051,0,0,1-7.051,7.051h-7.41Z" transform="translate(-728.88 -171.596)"/><rect class="c" width="90.712" height="13.804" transform="translate(32.176 65.735)"/><rect class="e" width="26.786" height="28.196" rx="13.393" transform="translate(35.206 35.896) rotate(-16.25)"/><rect class="f" width="24.979" height="26.293" rx="12.489" transform="translate(35.862 36.891) rotate(-16.25)"/><rect class="g" width="24.979" height="26.293" rx="12.489" transform="translate(35.862 36.891) rotate(-16.25)"/><rect class="f" width="24.979" height="26.293" rx="12.489" transform="translate(36.339 36.556) rotate(-16.25)"/><circle class="h" cx="1.972" cy="1.972" r="1.972" transform="matrix(0.818, -0.575, 0.575, 0.818, 47.092, 38.692)"/><circle class="i" cx="1.972" cy="1.972" r="1.972" transform="matrix(0.818, -0.575, 0.575, 0.818, 56.528, 44.109)"/><circle class="j" cx="1.972" cy="1.972" r="1.972" transform="matrix(0.818, -0.575, 0.575, 0.818, 41.892, 49.579)"/><circle class="k" cx="1.972" cy="1.972" r="1.972" transform="matrix(0.818, -0.575, 0.575, 0.818, 50.789, 55.376)"/><circle class="l" cx="1.314" cy="1.314" r="1.314" transform="matrix(0.818, -0.575, 0.575, 0.818, 48.008, 38.851)"/><circle class="l" cx="1.314" cy="1.314" r="1.314" transform="matrix(0.818, -0.575, 0.575, 0.818, 57.444, 44.269)"/><circle class="l" cx="1.314" cy="1.314" r="1.314" transform="matrix(0.818, -0.575, 0.575, 0.818, 42.808, 49.739)"/><circle class="l" cx="1.314" cy="1.314" r="1.314" transform="matrix(0.818, -0.575, 0.575, 0.818, 51.706, 55.536)"/><path class="c" d="M25.81,200.52h29v50.615h-29A7.81,7.81,0,0,1,18,243.327v-35a7.81,7.81,0,0,1,7.81-7.81Z" transform="translate(-15.403 -171.596)"/><path class="d" d="M25.864,200.52H47.533a7.277,7.277,0,0,1,7.277,7.283v36.055a7.277,7.277,0,0,1-7.277,7.277H25.864A7.864,7.864,0,0,1,18,243.27V208.38A7.864,7.864,0,0,1,25.864,200.52Z" transform="translate(-15.403 -171.596)"/><path class="g" d="M173.41,200.52h12.666a2.453,2.453,0,0,1,2.453,2.453v45.71a2.453,2.453,0,0,1-2.453,2.453H173.41Z" transform="translate(-148.391 -171.596)"/><path class="c" d="M168.35,200.52h12.666a2.453,2.453,0,0,1,2.453,2.453v45.71a2.453,2.453,0,0,1-2.453,2.453H168.35Z" transform="translate(-144.061 -171.596)"/><rect class="c" width="45.356" height="12.49" transform="translate(36.121 55.219)"/><rect class="c" width="45.356" height="12.49" transform="translate(81.551 55.291)"/><rect class="m" width="45.356" height="12.49" rx="6.245" transform="translate(36.121 55.219)"/><circle class="c" cx="2.629" cy="2.629" r="2.629" transform="translate(84.143 26.99)"/><circle class="d" cx="2.629" cy="2.629" r="2.629" transform="translate(84.143 26.99)"/><circle class="c" cx="2.629" cy="2.629" r="2.629" transform="translate(43.39 26.99)"/><circle class="d" cx="2.629" cy="2.629" r="2.629" transform="translate(43.39 26.99)"/><ellipse class="n" cx="0.658" cy="0.985" rx="0.658" ry="0.985" transform="translate(44.045 13.77)"/><rect class="m" width="45.356" height="12.49" rx="6.245" transform="translate(81.551 55.291)"/><g class="a" transform="translate(86.733 20.63)"><path class="o" d="M726.444,211.607a21.122,21.122,0,0,0-1.3-4.877,10.709,10.709,0,0,0-3.427-4.265,1.154,1.154,0,0,0-.773-.231h0a.657.657,0,0,0-.633.577c-.009.033-.016.065-.022.1a5.066,5.066,0,0,0,.19,2.492,28.437,28.437,0,0,0,1.251,3.01,20.076,20.076,0,0,1,1.519,5.569,7.652,7.652,0,0,1,.062.776,4.531,4.531,0,0,1-.012.466,2.778,2.778,0,0,1-.2.884q-.03.069-.065.144a.858.858,0,0,1-.075.133,4,4,0,0,1-1.073,1.046,5.049,5.049,0,0,1-1.335.794h.016a1.926,1.926,0,0,1-.7.114c-.74-.023-1.529-.619-2.274-.479h0l-.084.019a2.5,2.5,0,0,0-1.352,2.164h0v.176a.175.175,0,0,0,.007.061c.007.02.009.076.014.113a.5.5,0,0,0,.014.066c.006.022.013.065.022.1s.013.045.02.066.019.059.029.088.017.043.026.063.023.055.036.081l.032.061c.014.025.027.051.043.075l.038.058.049.069.042.053.056.063.046.049.062.059.05.045.068.055.053.042.074.051.055.038.081.048.056.032.091.045.053.026c.043.02.088.039.133.056l.065.025.1.038.075.023.085.026.084.022.081.02.089.019.078.016.094.016.075.012.1.013.072.009.1.009h.736l.127-.01h.025a4.162,4.162,0,0,0,1.055-.232,9.035,9.035,0,0,0,2.839-1.938c1.679-1.551,3.266-3.476,3.4-5.758A10.363,10.363,0,0,0,726.444,211.607Z" transform="translate(-716.16 -202.232)"/></g><rect class="g" width="13.601" height="3.937" transform="translate(76.313 29.457)"/><rect class="c" width="13.601" height="3.579" transform="translate(76.313 29.457)"/><circle class="c" cx="2.147" cy="2.147" r="2.147" transform="translate(82.041 25.641)"/><path class="p" d="M670.306,270.675l-.026-.026a.4.4,0,0,0,0-.63l.023-.029a.433.433,0,0,1,0,.684Z" transform="translate(-590.166 -239.584)"/><path class="g" d="M670.306,270.675l-.026-.026a.4.4,0,0,0,0-.63l.023-.029a.433.433,0,0,1,0,.684Z" transform="translate(-590.166 -239.584)"/><path class="p" d="M669.287,270.684a.433.433,0,0,1,0-.684l.023.029a.4.4,0,0,0,0,.63Z" transform="translate(-589.173 -239.592)"/><path class="p" d="M555.37,210.9h0" transform="translate(-475.243 -180.478)"/><path class="q" d="M723.191,248.812a8.3,8.3,0,0,0,2.6-1.772c1.535-1.417,2.984-3.174,3.108-5.262a9.6,9.6,0,0,0-.229-2.272,19.48,19.48,0,0,0-1.182-4.455,9.787,9.787,0,0,0-3.131-3.9,1.053,1.053,0,0,0-.708-.211c-.433.039-.542.336-.6.62-.351,1.731.612,3.411,1.316,5.027a18.347,18.347,0,0,1,1.388,5.089,3.388,3.388,0,0,1-.268,2.19,3.679,3.679,0,0,1-.981.955,3.083,3.083,0,0,1-1.841.828c-.687-.02-1.454-.61-2.164-.42a2.257,2.257,0,0,0-1.235,1.982C719.251,249.112,721.873,249.311,723.191,248.812Z" transform="translate(-632.08 -206.17)"/><g class="r" transform="translate(87.182 24.77)"><path d="M747.448,243.857a3.681,3.681,0,0,1-.981.955,4.559,4.559,0,0,1-1.221.721,3.307,3.307,0,0,0,1.688-.821,3.7,3.7,0,0,0,.981-.955,3.393,3.393,0,0,0,.268-2.19,18.347,18.347,0,0,0-1.388-5.089c-.7-1.617-1.668-3.3-1.316-5.027a.749.749,0,0,1,.289-.522.941.941,0,0,0-.16,0c-.433.039-.542.336-.6.62-.351,1.731.612,3.411,1.316,5.027a18.345,18.345,0,0,1,1.388,5.089A3.362,3.362,0,0,1,747.448,243.857Z" transform="translate(-741.231 -230.926)"/><path d="M719.739,331.671a2.41,2.41,0,0,1,1.079-1.923,1.133,1.133,0,0,0-.313.036,2.28,2.28,0,0,0-1.235,1.982c-.009,1.769,2.269,2.057,3.647,1.687C721.548,333.652,719.73,333.247,719.739,331.671Z" transform="translate(-719.27 -315.49)"/></g><g class="a" transform="translate(69.743 18.366)"><path class="s" d="M606.259,189.4s3.93-.786,5.9,0c0,0,1.179-2.751,2.357-2.751s1.571,4.328,1.571,4.328l1.571,6.288s7.466,13.361,0,20.434-19.254-.791-19.254-5.9,2.357-15.717,2.357-15.717,2.357-8.645,3.144-9.431S606.259,189.4,606.259,189.4Z" transform="translate(-598.4 -186.539)"/></g><path class="q" d="M608.967,193.844s3.777-.756,5.666,0c0,0,1.133-2.645,2.267-2.645s1.511,4.155,1.511,4.155l1.511,6.044s7.178,12.841,0,19.643-18.511-.756-18.511-5.666,2.267-15.11,2.267-15.11,2.267-8.31,3.023-9.066S608.967,193.844,608.967,193.844Z" transform="translate(-531.233 -172.067)"/><g class="r" transform="translate(70.619 19.023)"><path class="t" d="M732.323,269.609a29.881,29.881,0,0,0-2.643-7.059l.238.955A29.869,29.869,0,0,1,732.323,269.609Z" transform="translate(-711.615 -252.24)"/><path class="t" d="M604.708,214.361c0-4.905,1.828-13.138,1.828-13.138s2.267-8.31,3.023-9.066,2.267,2.645,2.267,2.645,3.777-.756,5.666,0c0,0,1.134-2.645,2.267-2.645.433,0,.766.626,1,1.392-.231-1.121-.623-2.347-1.238-2.347-1.133,0-2.267,2.645-2.267,2.645-1.889-.756-5.666,0-5.666,0s-1.511-3.4-2.267-2.645-3.023,9.066-3.023,9.066-1.828,8.224-1.828,13.138C604.468,213.85,604.708,214.5,604.708,214.361Z" transform="translate(-604.47 -191.092)"/></g><circle class="u" cx="0.756" cy="0.756" r="0.756" transform="translate(84.345 27.632)"/><circle class="u" cx="0.756" cy="0.756" r="0.756" transform="translate(75.657 27.632)"/><ellipse class="u" cx="1.133" cy="0.756" rx="1.133" ry="0.756" transform="translate(79.813 28.388)"/><rect class="q" width="3.483" height="0.378" transform="translate(87.327 28.197) rotate(-12.52)"/><rect class="q" width="3.852" height="0.378" transform="translate(87.332 29.706) rotate(-11.27)"/><rect class="q" width="0.378" height="4.069" transform="translate(69.92 26.673) rotate(-68.2)"/><rect class="q" width="0.378" height="4.969" transform="matrix(0.152, -0.988, 0.988, 0.152, 68.833, 28.578)"/><path class="g" d="M620.427,275.777a17.282,17.282,0,0,1-2.95-.251,16.3,16.3,0,0,1-5.327-1.915l.131-.61a17.926,17.926,0,0,0,5.338,1.876,19.238,19.238,0,0,0,12.151-2.3l.317.577A20.817,20.817,0,0,1,620.427,275.777Z" transform="translate(-540.423 -241.8)"/><path class="f" d="M628.478,271.61a19.246,19.246,0,0,1-12.151,2.3,17.926,17.926,0,0,1-5.338-1.876l-.349.557a18.218,18.218,0,0,0,5.544,1.964,17.284,17.284,0,0,0,2.952.252,20.9,20.9,0,0,0,9.667-2.616Zm-9.221,3.142a.074.074,0,1,1,.074-.074.074.074,0,0,1-.074.074Z" transform="translate(-539.131 -240.97)"/><path class="v" d="M665.3,296.14h0a.73.73,0,0,0,.73.73h0a.73.73,0,0,0,.73-.73h0a.73.73,0,0,0-.73-.73h0A.73.73,0,0,0,665.3,296.14Zm.73-.365a.121.121,0,1,1,.121-.121.121.121,0,0,1-.121.121Z" transform="translate(-585.905 -261.336)"/><path class="p" d="M665.81,296.568h0a.658.658,0,0,0,.658.658h0a.658.658,0,0,0,.658-.658h0a.658.658,0,0,0-.658-.658h0a.658.658,0,0,0-.658.658Zm.658-.329a.11.11,0,1,1,.11-.11A.11.11,0,0,1,666.468,296.239Z" transform="translate(-586.341 -261.764)"/><path class="q" d="M633.569,273.13c-10.055,5.915-15.849.433-15.849.433Z" transform="translate(-545.19 -242.271)"/><path class="w" d="M394.736,119.121c-.616-1.747-7.214,3.174-7.214,3.174L386,122.2l-2.935-2.718,2.049-2.049-17.2-14.752a4.34,4.34,0,0,0-3.363-1.01l-14.3,1.783a6.07,6.07,0,0,0-1.281-2.787,30.814,30.814,0,0,0-5.7-6.088l-1.749-11.756L343,80.6a7.48,7.48,0,0,1-.808-.271l.313-.47-.115-.032.144-.17h-.017l3.691-4.271a1.619,1.619,0,0,0-.121-2.243l-8.26-6.276a4.555,4.555,0,0,0,.352-1.89c.065-1.247-.493-2.512-2.365-3.448a18.252,18.252,0,0,0-3.618-1.278,11.874,11.874,0,0,0-6.256.092c-.033-.042-.069-.084-.107-.127-2.542-2.906-5.876,1.27-6.006,1.443L306.794,76.155a2.647,2.647,0,0,0,.652,3.529l6.9,5.172-.022.045.39.289a1.634,1.634,0,0,1-1.218,1.026l1.056.528a1.215,1.215,0,0,1-.563.212l4.836,2.418c0,2.513.26,14.019,4.346,19.668a10.444,10.444,0,0,0,1.485,1.919s.348-.189.983-.495l.73,1.462a8.547,8.547,0,0,0,8.854,4.638l22.7-3.243-.241.721.13-.019L350.453,136.1l1.215.405-.023.043.172.074-1.531,2.886-4.817,3.705s14.08,7.039,15.562,5.928-5.194-5.928-5.194-5.928l-.371-1.482,1.62-3.421,1.358.453,10.91-21.82h0l.371-.742,7.384,9.234,2.082-2.08.225.228.019-.019,2.886,2.92,2.091,5.706S395.349,120.868,394.736,119.121ZM337.458,76.689l-.144-.167a13.838,13.838,0,0,1-4.172,3.334V78.643l.082-.072v-.528a8.007,8.007,0,0,0,2.265-8.13l4.793,3.68ZM321.191,63.007l-.115-.115.117.115Zm-3.831,7.716q-.048.577-.039,1.161a12.065,12.065,0,0,0,.094,1.692c.247,1.961.949,3.564,2.4,4.328,1.261.664,2.091.628,2.619.175l.058.052a5.688,5.688,0,0,0,.586,2.2,23.318,23.318,0,0,1-7.619-3.069s.009.1.019.274l-1.982-1.982Z" transform="translate(-278.774 -59.2)"/><path class="n" d="M498.959,507.27l-3.239,6.119,5.038,2.158L504,508.71Z" transform="translate(-424.199 -434.089)"/><path class="x" d="M588,611.047l.359,1.443s6.478,4.679,5.038,5.758-15.116-5.758-15.116-5.758l4.679-3.6Z" transform="translate(-511.44 -529.589)"/><path class="g" d="M511.474,511.578l-5.1-1.7-1.516,2.862,5.038,2.16Z" transform="translate(-432.021 -436.322)"/><path class="n" d="M677.69,401.884l4.865,4.926,3.571-4.159-5.552-5.141Z" transform="translate(-579.916 -340.165)"/><path class="g" d="M681.964,399.17l-2.884,4.376,1.844,1.866,3.741-3.741Z" transform="translate(-581.105 -341.585)"/><path class="x" d="M829.989,472.42l1.482.088s6.406-4.777,7-3.08-10.026,12.7-10.026,12.7l-2.03-5.543Z" transform="translate(-723.779 -409.936)"/><path class="n" d="M466.886,99.666l7.476-8.657a1.573,1.573,0,0,0-.118-2.18L457.975,76.5,456,79.582l12.608,9.705-5.353,5.869Z" transform="translate(-406.802 -74.01)"/><path class="g" d="M509.986,184.82l-2.616,2.868L511,192.2l3.751-4.337A10.93,10.93,0,0,1,509.986,184.82Z" transform="translate(-450.76 -166.702)"/><path class="n" d="M324.692,108.51l-8.465-6.348a2.572,2.572,0,0,1-.633-3.428L328.26,84.64l2.6,2.6L322.1,98.151l5.18,5.18Z" transform="translate(-286.315 -80.976)"/><path class="g" d="M368.59,197.391l1.385,1.039,2.6-5.18L369.311,190C369.381,191.1,369.575,195.386,368.59,197.391Z" transform="translate(-332.003 -171.135)"/><path class="p" d="M504.6,349.78,496.83,373.09l7.771,2.59,12.949-25.9-10.359-2.59Z" transform="translate(-425.149 -297.105)"/><path class="g" d="M545.888,354.77l-.388,1.166,8.159-1.166,3.187,3.985,1.992-3.985-10.36-2.59Z" transform="translate(-466.797 -301.375)"/><path class="n" d="M405.61,70.54s3.318-4.279,5.839-1.4-3.959,3.239-3.959,3.239Z" transform="translate(-363.682 -66.86)"/><path class="p" d="M432.32,358.93l2.5,5.008a8.3,8.3,0,0,0,8.6,4.506l30.335-4.328,10.36,12.95,7.769-7.769-16.714-14.327a4.216,4.216,0,0,0-3.266-.983Z" transform="translate(-386.538 -311.434)"/><path class="g" d="M368.247,190.537s.682,8.411-1.907,8.7l5.18,2.6s-.289,15.251,5.18,20.719c0,0,10.072-5.468,20.719-5.18s-2.6-10.36-2.6-10.36l-1.749-11.79,1.443-2.164a10.821,10.821,0,0,1-5.038-3.239h0c-1.443,1.8-4.741,4.239-7.6,4.239h-1.238a23.28,23.28,0,0,1-12.395-3.16Z" transform="translate(-330.078 -170.981)"/><path class="y" d="M364.909,185.539s.688,8.411-1.909,8.7l5.18,2.6s-.289,15.251,5.18,20.719c0,0,10.072-5.468,20.719-5.18s-2.6-10.36-2.6-10.36l-1.749-11.79,1.443-2.164a10.821,10.821,0,0,1-5.038-3.239h0c-1.443,1.8-4.741,4.239-7.6,4.239H377.3a23.564,23.564,0,0,1-12.395-3.52Z" transform="translate(-327.22 -166.702)"/><path class="n" d="M423.52,173.36v2.886a5.526,5.526,0,0,0,1.618,3.907l6.152,6.152,2.047-4.1a5.136,5.136,0,0,0,.542-2.3V173.36Z" transform="translate(-379.008 -156.895)"/><path class="g" d="M424.07,179.3c0,.107,0,.212.01.319a7.768,7.768,0,0,0,10.35-.009v-3.2H424.07Z" transform="translate(-379.479 -159.505)"/><circle class="n" cx="7.769" cy="7.769" r="7.769" transform="translate(41.922 6.107)"/><path class="g" d="M393.81,84.634h12.95s5.18-5.18,0-7.769a17.73,17.73,0,0,0-3.515-1.241A11.562,11.562,0,0,0,388.893,88.2c.24,1.9.922,3.463,2.327,4.2C396.686,95.277,393.81,84.634,393.81,84.634Z" transform="translate(-349.298 -72.949)"/><path class="x" d="M393.81,82.144h12.95s5.18-5.18,0-7.769a17.73,17.73,0,0,0-3.515-1.241,11.562,11.562,0,0,0-14.353,12.579c.24,1.9.922,3.463,2.327,4.2C396.686,92.792,393.81,82.144,393.81,82.144Z" transform="translate(-349.298 -70.819)"/><ellipse class="n" cx="0.72" cy="1.26" rx="0.72" ry="1.26" transform="translate(44.167 12.718)"/><path class="g" d="M283.68,201.521l.361-1.081,1.079.72Z" transform="translate(-242.752 -171.527)"/><path class="g" d="M530.9,304s-3.919,1.876-5,3.679" transform="translate(-466.617 -268.687)"/><path class="g" d="M426.949,163.03l-.359,1.079-.72-1.079Z" transform="translate(-364.427 -139.515)"/><path class="x" d="M393.81,82.144h12.95s5.18-5.18,0-7.769a17.73,17.73,0,0,0-3.515-1.241,11.562,11.562,0,0,0-14.353,12.579c.24,1.9.922,3.463,2.327,4.2C396.686,92.792,393.81,82.144,393.81,82.144Z" transform="translate(-349.298 -70.819)"/><path class="g" d="M641.972,337.974s2.627,5.712-.822,6.2-1.876-4.784-1.876-4.784-.345-1.565-1.185-1.653" transform="translate(-562.621 -297.559)"/><path class="g" d="M679.218,338.4s-3.124,5.457.268,6.247,2.293-4.6,2.293-4.6.482-1.528,1.327-1.542" transform="translate(-596.692 -298.124)"/><path class="q" d="M639.88,336.838s2.627,5.712-.822,6.2-1.876-4.784-1.876-4.784-.345-1.57-1.182-1.658" transform="translate(-560.832 -296.584)"/><path class="q" d="M680.893,336.73s-3.129,5.458.268,6.243,2.293-4.6,2.293-4.6.482-1.528,1.327-1.542" transform="translate(-598.123 -296.695)"/><rect class="z" width="0.059" height="1.115" transform="translate(77.118 45.271)"/><rect class="z" width="0.059" height="1.115" transform="translate(78.074 45.271)"/><rect class="z" width="0.059" height="1.56" transform="translate(77.556 44.916)"/><rect class="z" width="0.059" height="1.115" transform="translate(83.322 45.033)"/><rect class="z" width="0.059" height="1.115" transform="translate(84.277 45.033)"/><rect class="z" width="0.059" height="1.56" transform="translate(83.759 44.676)"/><g class="a" transform="translate(70.569 95.324)"><circle class="aa" cx="6.866" cy="6.866" r="6.866" transform="matrix(0.948, -0.318, 0.318, 0.948, 0, 4.366)"/></g><circle class="f" cx="6.427" cy="6.427" r="6.427" transform="matrix(0.948, -0.318, 0.318, 0.948, 71.124, 99.967)"/><g class="a" transform="translate(50.051 89.093)"><path class="ab" d="M474.018,700.294a2.022,2.022,0,0,1-2.5-.8,3,3,0,0,1-.13-1.639c.063-.607.117-1.131-.225-1.47a1.556,1.556,0,0,0-.609-.319c-.289-.1-.6-.177-.9-.255a8.919,8.919,0,0,1-1.547-.508,2.672,2.672,0,0,1-1.678-2.08,3.758,3.758,0,0,1,.62-2.01,2.756,2.756,0,0,0,.508-1.876c-.215-.835-1.218-1.232-2.1-1.587l-.144-.055c-1.079-.433-2.236-1.346-1.948-2.518a2.486,2.486,0,0,1,.609-1.01,3.07,3.07,0,0,0,.433-.619,2.367,2.367,0,0,0-.382-2.141,9.591,9.591,0,0,0-.62-.818,7.91,7.91,0,0,1-.884-1.252l-.04-.075a3.177,3.177,0,0,1-.548-2.362v-.144l.511.02v.144a2.783,2.783,0,0,0,.489,2.1l.04.075a7.408,7.408,0,0,0,.83,1.17c.221.273.449.555.649.857a2.716,2.716,0,0,1,.417,2.642,3.492,3.492,0,0,1-.508.721,2.156,2.156,0,0,0-.5.811c-.225.91.925,1.635,1.64,1.92l.137.055c.948.375,2.128.843,2.408,1.929a3.115,3.115,0,0,1-.551,2.238,3.318,3.318,0,0,0-.563,1.731,2.245,2.245,0,0,0,1.385,1.661,8.4,8.4,0,0,0,1.459.476c.306.079.622.163.931.265a2,2,0,0,1,.808.441,2.151,2.151,0,0,1,.374,1.887,2.589,2.589,0,0,0,.082,1.363,1.6,1.6,0,0,0,2.085.452,5.658,5.658,0,0,0,1.542-1.247c.159-.162.323-.328.491-.486a3.21,3.21,0,0,1,2.676-1.1,3.777,3.777,0,0,1,.772.25,3.818,3.818,0,0,0,.6.2,1.837,1.837,0,0,0,2.1-1.345c.019-.085.032-.175.046-.268a1.625,1.625,0,0,1,.335-.9,1.686,1.686,0,0,1,.889-.423l2.785-.643.115.5-2.785.643a1.2,1.2,0,0,0-.625.268,1.223,1.223,0,0,0-.206.636c-.014.1-.03.2-.052.3a2.347,2.347,0,0,1-2.71,1.731,4.254,4.254,0,0,1-.677-.231,3.341,3.341,0,0,0-.668-.219,2.849,2.849,0,0,0-2.236.965c-.16.151-.322.316-.478.473a6.127,6.127,0,0,1-1.688,1.35,2.406,2.406,0,0,1-.254.115Z" transform="translate(-461.914 -676.76)"/></g><path class="f" d="M474.5,698.534a2.022,2.022,0,0,1-2.5-.8,2.994,2.994,0,0,1-.13-1.639c.063-.607.117-1.131-.225-1.47a1.557,1.557,0,0,0-.609-.319c-.289-.1-.6-.177-.9-.255a8.919,8.919,0,0,1-1.547-.508,2.672,2.672,0,0,1-1.678-2.08,3.757,3.757,0,0,1,.62-2.01,2.756,2.756,0,0,0,.508-1.876c-.215-.835-1.218-1.232-2.1-1.587l-.144-.055c-1.079-.433-2.236-1.346-1.948-2.518a2.486,2.486,0,0,1,.609-1.01,3.066,3.066,0,0,0,.433-.619,2.367,2.367,0,0,0-.382-2.141,9.59,9.59,0,0,0-.62-.818,7.91,7.91,0,0,1-.884-1.252l-.04-.075a3.177,3.177,0,0,1-.548-2.362V675l.511.02v.144a2.782,2.782,0,0,0,.489,2.1l.04.075a7.416,7.416,0,0,0,.83,1.17c.221.273.449.555.649.857a2.716,2.716,0,0,1,.417,2.642,3.492,3.492,0,0,1-.508.721,2.156,2.156,0,0,0-.5.811c-.225.91.925,1.635,1.64,1.92l.137.055c.948.375,2.128.843,2.408,1.929a3.115,3.115,0,0,1-.551,2.238,3.318,3.318,0,0,0-.563,1.731,2.245,2.245,0,0,0,1.385,1.661,8.4,8.4,0,0,0,1.459.476c.306.079.622.163.931.266a2,2,0,0,1,.808.441,2.151,2.151,0,0,1,.374,1.887,2.589,2.589,0,0,0,.082,1.363,1.6,1.6,0,0,0,2.085.452,5.659,5.659,0,0,0,1.542-1.247c.159-.162.323-.328.491-.486a3.21,3.21,0,0,1,2.676-1.1,3.777,3.777,0,0,1,.772.25,3.817,3.817,0,0,0,.6.2,1.837,1.837,0,0,0,2.1-1.345c.019-.085.032-.175.046-.268a1.624,1.624,0,0,1,.335-.9,1.685,1.685,0,0,1,.889-.423L486.76,692l.115.5-2.785.643a1.205,1.205,0,0,0-.625.268,1.223,1.223,0,0,0-.206.636c-.014.1-.03.2-.052.3a2.347,2.347,0,0,1-2.71,1.731,4.25,4.25,0,0,1-.677-.231,3.344,3.344,0,0,0-.668-.219,2.849,2.849,0,0,0-2.236.965c-.16.151-.322.316-.478.473a6.129,6.129,0,0,1-1.688,1.35A2.406,2.406,0,0,1,474.5,698.534Z" transform="translate(-412.274 -586.161)"/><path class="ac" d="M661.78,748.369s3.556-.538,5.3,4.425" transform="translate(-582.893 -648.929)"/><path class="ac" d="M630.131,756.667s-2.64-3.737,2.065-7.857" transform="translate(-555.178 -649.322)"/><path class="ac" d="M638.748,771.758a3.385,3.385,0,0,1,.062-3.718" transform="translate(-562.715 -665.777)"/><path class="ac" d="M657.81,762.88s1.687.667,1.923,3.669" transform="translate(-579.496 -661.362)"/><path class="ac" d="M671.53,738.52s2.634.5,4.473,4.126" transform="translate(-591.236 -640.516)"/><path class="ac" d="M648,743.13a2.862,2.862,0,0,1,2.4-.42" transform="translate(-571.101 -643.988)"/><path class="ac" d="M654.52,792.157s1.665,1.059,5.956-2" transform="translate(-576.68 -684.706)"/><path class="ac" d="M652.47,818.6s1.042,1.037,3.21.156" transform="translate(-574.926 -709.043)"/><path class="ac" d="M625.36,754.77a5.627,5.627,0,0,0-.776,4.575" transform="translate(-550.905 -654.422)"/><path class="ac" d="M640.717,801.17a1.436,1.436,0,0,0,.949,1.453" transform="translate(-564.864 -694.127)"/><path class="ac" d="M694.055,793.38s-.066,1.876-1.105,1.988" transform="translate(-609.566 -687.461)"/><path class="ac" d="M661.1,805.654a4.158,4.158,0,0,0,3.463-1.154" transform="translate(-582.311 -696.977)"/><path class="ac" d="M672.22,766.06a2.027,2.027,0,0,1,.812,1.731" transform="translate(-591.826 -664.083)"/><path class="ac" d="M648.1,774.59a2.91,2.91,0,0,0,.4,2.1" transform="translate(-571.142 -671.382)"/><path class="ac" d="M653.66,772.82s.926,1.154.674,2.008" transform="translate(-575.944 -669.868)"/></g></svg>