<svg xmlns="http://www.w3.org/2000/svg" xmlns:xlink="http://www.w3.org/1999/xlink" viewBox="0 0 129.331 112.343"><defs><style>.a,.i,.n{fill:#6a4dff;}.a,.c,.r{opacity:0.1;}.b{fill:#464a5f;}.d{fill:#65617d;}.e{fill:#d1d9ec;}.f{fill:#53526b;}.g{fill:#b65256;}.h{fill:#ffd77c;}.i{opacity:0.3;}.j{fill:url(#a);}.k{fill:#4c495a;}.l{fill:#5f5d7e;}.m{fill:#fdc2cc;}.o{fill:#dfe6f5;}.p{fill:#fff;}.q{fill:#865a61;}.s{fill:#535461;}.t{fill:#9d9cb5;}.u{fill:none;stroke:#535461;stroke-miterlimit:10;stroke-width:2px;}</style><linearGradient id="a" x1="0.5" y1="1" x2="0.5" gradientUnits="objectBoundingBox"><stop offset="0" stop-color="gray" stop-opacity="0.251"/><stop offset="0.54" stop-color="gray" stop-opacity="0.122"/><stop offset="1" stop-color="gray" stop-opacity="0.102"/></linearGradient></defs><g transform="translate(-0.031 0.008)"><ellipse class="a" cx="44.416" cy="1.583" rx="44.416" ry="1.583" transform="translate(7.348 100.92)"/><path class="a" d="M168.133,44.689c4.377-3.9,11.248-4.7,17.5-4.387,19.644.976,37.378,10.46,52.717,21.188,5.552,3.884,11.019,8.069,14.624,13.417,7.337,10.887,5.16,25.968-5.039,34.942a52.229,52.229,0,0,1-12,7.463c-7.677,3.688-15.969,6.647-24.687,7.49a81.357,81.357,0,0,1-18.692-.727c-17.277-2.346-34.221-7.525-48.428-16.385-6.231-3.886-12.1-8.717-14.668-15s-.927-14.253,5.434-17.973a29.64,29.64,0,0,1,8.859-2.887c4.533-.96,9.141-1.907,13.232-3.86,4.226-2.017,9.23-5.918,8.394-10.383C164.481,52.792,163.766,48.585,168.133,44.689Z" transform="translate(-128.27 -40.25)"/><ellipse class="a" cx="11.879" cy="2.394" rx="11.879" ry="2.394" transform="translate(5.523 107.548)"/><ellipse class="a" cx="11.879" cy="1.051" rx="11.879" ry="1.051" transform="translate(105.606 102.639)"/><rect class="b" width="35.2" height="7.777" transform="translate(35.223 21.954)"/><rect class="c" width="35.2" height="0.202" transform="translate(35.223 21.954)"/><rect class="d" width="38.786" height="17.221" transform="translate(33.506 4.732)"/><path class="d" d="M122.359,34.57h15.016V70.983H119.7V37.234a2.659,2.659,0,0,1,2.659-2.659Z" transform="translate(-103.264 -29.838)"/><rect class="c" width="12.776" height="32.221" transform="translate(19.088 7.03)"/><rect class="e" width="12.776" height="32.221" transform="translate(18.886 6.828)"/><circle class="c" cx="1.301" cy="1.301" r="1.301" transform="translate(30.362 36.107)"/><circle class="b" cx="1.301" cy="1.301" r="1.301" transform="translate(30.362 35.904)"/><path class="d" d="M520.15,34.57h14.881a2.8,2.8,0,0,1,2.8,2.8V70.983H520.15Z" transform="translate(-448.817 -29.838)"/><rect class="c" width="12.776" height="32.221" transform="translate(73.984 7.03)"/><rect class="e" width="12.776" height="32.221" transform="translate(73.782 6.828)"/><circle class="c" cx="1.301" cy="1.301" r="1.301" transform="translate(85.259 36.107)"/><circle class="b" cx="1.301" cy="1.301" r="1.301" transform="translate(85.259 35.904)"/><rect class="c" width="13.799" height="13.799" transform="translate(36.637 7.03)"/><rect class="e" width="13.799" height="13.799" transform="translate(36.436 6.828)"/><circle class="c" cx="0.833" cy="0.833" r="0.833" transform="translate(49.402 19.997)"/><circle class="b" cx="0.833" cy="0.833" r="0.833" transform="translate(49.402 19.795)"/><rect class="c" width="13.799" height="13.799" transform="translate(68.555 20.83) rotate(180)"/><rect class="e" width="13.799" height="13.799" transform="translate(68.757 20.629) rotate(180)"/><circle class="c" cx="0.833" cy="0.833" r="0.833" transform="translate(54.124 19.997)"/><circle class="b" cx="0.833" cy="0.833" r="0.833" transform="translate(54.124 19.795)"/><rect class="c" width="0.555" height="17.221" transform="translate(52.343 4.732)"/><rect class="c" width="2.324" height="0.707" transform="translate(36.436 28.519)"/><rect class="f" width="2.324" height="0.707" transform="translate(36.436 28.317)"/><rect class="c" width="12.171" height="1.566" transform="translate(53.506 27.66)"/><rect class="f" width="12.171" height="1.566" transform="translate(53.506 27.458)"/><circle class="c" cx="0.303" cy="0.303" r="0.303" transform="translate(60.155 28.14)"/><circle class="g" cx="0.303" cy="0.303" r="0.303" transform="translate(60.155 27.938)"/><circle class="c" cx="0.303" cy="0.303" r="0.303" transform="translate(61.889 28.14)"/><circle class="h" cx="0.303" cy="0.303" r="0.303" transform="translate(61.889 27.938)"/><rect class="d" width="80.601" height="34.342" transform="translate(12.423 64.468)"/><rect class="c" width="80.601" height="0.707" transform="translate(12.423 64.468)"/><rect class="d" width="82.723" height="1.818" transform="translate(11.361 63.154)"/><rect class="c" width="82.723" height="0.303" transform="translate(11.361 63.154)"/><rect class="d" width="85.787" height="0.606" transform="translate(9.829 62.65)"/><rect class="c" width="17.676" height="5.455" transform="translate(14.997 65.679)"/><rect class="e" width="17.676" height="5.455" transform="translate(15.2 65.478)"/><rect class="c" width="17.676" height="11.06" transform="translate(14.997 73.609)"/><rect class="e" width="17.676" height="11.06" transform="translate(15.2 73.406)"/><rect class="c" width="17.676" height="11.06" transform="translate(14.997 86.334)"/><rect class="e" width="17.676" height="11.06" transform="translate(15.2 86.133)"/><rect class="c" width="5.05" height="1.01" transform="translate(21.31 67.902)"/><rect class="b" width="5.05" height="1.01" transform="translate(21.31 67.7)"/><rect class="c" width="17.676" height="5.455" transform="translate(74.49 65.679)"/><rect class="e" width="17.676" height="5.455" transform="translate(74.691 65.478)"/><rect class="e" width="17.676" height="23.736" transform="translate(74.691 72.75)"/><rect class="b" width="5.05" height="1.01" transform="translate(80.803 67.7)"/><rect class="c" width="5.05" height="1.01" transform="translate(21.31 78.86)"/><rect class="b" width="5.05" height="1.01" transform="translate(21.31 78.659)"/><rect class="c" width="5.05" height="1.01" transform="translate(21.31 90.577)"/><rect class="b" width="5.05" height="1.01" transform="translate(21.31 90.376)"/><rect class="c" width="12.878" height="19.14" transform="translate(77.292 75.249)"/><rect class="i" width="12.878" height="19.14" transform="translate(77.09 75.048)"/><rect class="c" width="82.723" height="3.434" transform="translate(11.361 98.471)"/><rect class="d" width="82.723" height="3.434" transform="translate(11.361 98.608)"/><rect class="b" width="38.786" height="24.999" transform="translate(34.391 67.253)"/><path class="c" d="M382.25,545.63s21.767,2.222,37.725.1v1.97a179.239,179.239,0,0,1-37.725-.354Z" transform="translate(-347.406 -476.356)"/><path class="e" d="M382.25,544.15s21.767,2.222,37.725.1v1.97a179.352,179.352,0,0,1-37.725-.354Z" transform="translate(-347.406 -475.079)"/><rect class="i" width="30.049" height="14.293" transform="translate(38.758 73.869)"/><rect class="c" width="38.786" height="0.758" transform="translate(34.391 67.253)"/><rect class="b" width="39.998" height="5.758" transform="translate(33.785 62.052)"/><circle class="c" cx="1.464" cy="1.464" r="1.464" transform="translate(35.602 63.213)"/><circle class="e" cx="1.464" cy="1.464" r="1.464" transform="translate(35.602 63.012)"/><circle class="c" cx="1.464" cy="1.464" r="1.464" transform="translate(39.189 63.213)"/><circle class="e" cx="1.464" cy="1.464" r="1.464" transform="translate(39.189 63.012)"/><circle class="c" cx="1.464" cy="1.464" r="1.464" transform="translate(65.55 63.213)"/><circle class="e" cx="1.464" cy="1.464" r="1.464" transform="translate(65.55 63.012)"/><circle class="c" cx="1.464" cy="1.464" r="1.464" transform="translate(69.137 63.213)"/><circle class="e" cx="1.464" cy="1.464" r="1.464" transform="translate(69.137 63.012)"/><rect class="c" width="11.162" height="3.485" transform="translate(48.027 63.061)"/><rect class="f" width="10.808" height="3.485" transform="translate(48.228 62.86)"/><rect class="c" width="0.404" height="3.56" transform="translate(37.067 62.695)"/><rect class="f" width="0.404" height="3.56" transform="translate(36.865 62.695)"/><rect class="c" width="0.404" height="3.56" transform="translate(70.601 62.695)"/><rect class="f" width="0.404" height="3.56" transform="translate(70.399 62.695)"/><rect class="c" width="0.404" height="3.56" transform="translate(68.131 63.277) rotate(45)"/><rect class="f" width="0.404" height="3.56" transform="translate(68.131 63.074) rotate(45)"/><rect class="c" width="0.404" height="3.56" transform="translate(42.432 64.476) rotate(90)"/><rect class="f" width="0.404" height="3.56" transform="translate(42.433 64.273) rotate(90)"/><rect class="c" width="38.786" height="0.589" transform="translate(34.391 91.661)"/><rect class="b" width="39.998" height="10.286" transform="translate(33.785 91.864)"/><path class="j" d="M190.206,247.683c-.193-.376-1.216-2.7-1.216-2.7l-1.712-4.439a12.687,12.687,0,0,1-1.216-2.219c0-.348-2.211-1.738-2.211-1.738s-1.8-.535-1.934-.588-2.266-.758-2.266-.758-.838-1.1-.96-.813h0l-.012-.021a2.838,2.838,0,0,1-.319-1.031.85.85,0,0,0-.014-.1,4.1,4.1,0,0,0,1.8-3.376,4.153,4.153,0,0,0-.029-.521.3.3,0,0,1,.047-.025c.034-.015.026-.027,0-.04l.026-.012c.047-.021.016-.036-.029-.053h0c.063-.027-.016-.045-.079-.074a.258.258,0,0,0-.011-.055.328.328,0,0,0,.026-.11l.016.008a.452.452,0,0,0,0-.21.243.243,0,0,1-.014.041.537.537,0,0,0-.044-.192.548.548,0,0,0-.117-.125l-.011-.008.118-1.2c1.727-.082,2.03-3.016,1.637-3.185s0-.518,0-1.226-1.3-1.5-1.3-1.5-.548.274-1.394-1.088-3.976-1.579-4.184-1.226-1.607.823-3.427,1.334-1.485,2.668-1.182,3.131a2.641,2.641,0,0,1,.425,1.279,7.427,7.427,0,0,0,.576,1.415,11.913,11.913,0,0,0,.411,3.183v.058h0a.34.34,0,0,0-.018.03.354.354,0,0,0-.027.206.422.422,0,0,0,.03.223A4.084,4.084,0,0,0,173.034,233a.626.626,0,0,0,.007.112c.025.5.04,1.1.014,1.67v.086a.659.659,0,0,0-.463.365c-.171.33-1.165.838-1.165.838s-1.741.081-1.907.4a14.541,14.541,0,0,1-2.68,1.39s-1.327.776-1.134,1.659a3.191,3.191,0,0,1-.476,1.756,8.409,8.409,0,0,0-1.908-.476l1.409,1.348-.047.073-.8,2.835a3.9,3.9,0,0,1-.548,1.234c-.274.244.248,2.433.248,2.433a10.435,10.435,0,0,1-.548,1.952c-.245.4.387,1.391.387,1.391l1.272,2.887,3.36.853.587.125c-.011.069-.022.137-.034.207a4.646,4.646,0,0,1-.636,1.995c-.635.562-.607,3.075-.607,3.075l.027,3.557s.221,4.387.111,4.546c-.07.1.07.266.439.411-.01.067-.021.137-.03.2a3.432,3.432,0,0,0,.088,1.919,1.464,1.464,0,0,1,.166.642,3,3,0,0,0,.525,1.071s-.411,2.968.274,3.984,1.271,2.861.939,3.29c0,0-.58,1.257-.3,1.819a.655.655,0,0,1-.361,1.016c-.361.133-.328,1.234-.328,1.234l.659,5.209s.359,1.071.056,1.445a3.808,3.808,0,0,0,.166,2.888c.47.643-.668,1.83-.668,1.83s-.685.99.411,1.311c0,0,.221.053-.193.481s-.5.96-.221,1.15a1.435,1.435,0,0,0,.18.089c-.011.063-.022.129-.036.2a3.343,3.343,0,0,1-.669,1.637,11.667,11.667,0,0,0-1.81,2.411c-.38.72-.548,1.391-.125,1.708a3.466,3.466,0,0,0,3.016.7,8.334,8.334,0,0,0,1.8-1.2l.25-1.043s-.166-.642.662-.883a4.273,4.273,0,0,0,1.6-1.1v-1.39a5.721,5.721,0,0,0,.581-.378s.387-1.364,0-1.818-.525-.616-.027-.91a1.017,1.017,0,0,0,.2-1.5,2.511,2.511,0,0,1-.448-2.568,23.119,23.119,0,0,0,.685-4.787,12.881,12.881,0,0,1,0-3.016c.232-.557-.266-1.685-.266-1.685a8.7,8.7,0,0,1,.47-2.037,24.686,24.686,0,0,0,.548-4.039,8.76,8.76,0,0,0,.548-2.38c0-.936-.855-3.182.411-3.771,0,0,.548.483.332,2.407a20.036,20.036,0,0,1,.635,2.942c0,.7.47,3.209.47,3.209a3.273,3.273,0,0,0,.248,1.1c.193.295,0,1.1,0,1.1s.718.669.525,1.1a3.059,3.059,0,0,0,.033,1.393l-.171,5.988s-.5,2.568.663,4.113a10.533,10.533,0,0,1-.663,2.433c-.252.16.913,1.552.913,1.552s-.322.9.332.945v1.489a3.166,3.166,0,0,0,.912,1.016c.607.428.359,1.9.359,1.9a2.525,2.525,0,0,0,2.818,1.471c2.045-.4,2.321-.588,2.21-1.257-.04-.244-.127-.685-.255-1.173a7.492,7.492,0,0,0-.96-2.406,9.957,9.957,0,0,1-1.16-2.491s-.249-.562,0-.748a.508.508,0,0,0,.137-.535,1.755,1.755,0,0,0,.023-1.123c-.218-.428.418-1.311.418-1.311l-.193-4.113.193-5.991s-.857-.99-.5-1.578-.411-1.418-.411-1.418-.084-.026.137-.7a1.666,1.666,0,0,0-.056-1.2,3.95,3.95,0,0,1,.359-2.914s.359-1.659.47-2.514c.077-.595.548-2.816.838-4.113l.047-.211c.411.022.718.048.718.048s-.635-4.413,0-5.322-.5-7.862-.5-7.862-.274-1.215-.437-2.455c-.01-.07-.018-.137-.027-.211a13.076,13.076,0,0,1,1.542-.034c1.327.079,2.625-.428,2.653-.936s.747-2.514.857-2.968A6.337,6.337,0,0,0,190.206,247.683Z" transform="translate(-158.192 -194.462)"/><path class="k" d="M198.07,801.854v2.476a4.152,4.152,0,0,1-1.545,1.1c-.8.244-.639.879-.639.879l-.239,1.038a8.216,8.216,0,0,1-1.731,1.2,3.246,3.246,0,0,1-2.9-.692c-.411-.314-.245-.984.121-1.7a11.582,11.582,0,0,1,1.744-2.4,3.34,3.34,0,0,0,.644-1.63,7.311,7.311,0,0,0,.1-.739Z" transform="translate(-182.178 -697.046)"/><path class="c" d="M198.07,818.32v.628a4.152,4.152,0,0,1-1.545,1.1c-.8.244-.639.879-.639.879l-.239,1.038a8.216,8.216,0,0,1-1.731,1.2,3.246,3.246,0,0,1-2.9-.692c-.411-.314-.245-.984.121-1.7-.018.753.206,1.6,1.29,1.567a5.5,5.5,0,0,0,3.222-1.179s-.027-1.756,1.2-2.156A3.712,3.712,0,0,0,198.07,818.32Z" transform="translate(-182.178 -711.664)"/><path class="k" d="M290.27,797.44a2.431,2.431,0,0,1-2.716-1.466s.24-1.464-.345-1.89a3.139,3.139,0,0,1-.879-1.012v-2.448l2.4-1.7,1.3,1.147.088.077a10.039,10.039,0,0,0,1.119,2.48,7.63,7.63,0,0,1,.925,2.4c.122.491.207.925.245,1.168C292.507,796.853,292.241,797.04,290.27,797.44Z" transform="translate(-264.635 -686.294)"/><path class="c" d="M290.27,817.606a2.431,2.431,0,0,1-2.716-1.465s.24-1.464-.345-1.891a3.137,3.137,0,0,1-.879-1.012v-.949a10.079,10.079,0,0,1,1.252,1.508c.212.452.24,2.1,1.224,2.4s2.9.559,3.063-.187a4.077,4.077,0,0,1,.287-.823c.122.491.207.925.245,1.168C292.507,817.02,292.241,817.206,290.27,817.606Z" transform="translate(-264.635 -706.461)"/><path class="c" d="M210.929,801.35l4.448.478v1.309c-.5.3-1.22.613-1.624.288a18.579,18.579,0,0,0-2.923-1.337C210.905,801.672,210.929,801.35,210.929,801.35Z" transform="translate(-199.485 -697.02)"/><path class="c" d="M290.111,790.322c-.613-.213-1.7.72-3.142,1.305a1.492,1.492,0,0,1-.639.137v-1.18l2.4-1.7,1.3,1.148A1.65,1.65,0,0,0,290.111,790.322Z" transform="translate(-264.635 -686.26)"/><path class="l" d="M217.693,582.9s-.085.391-.2.96c-.274,1.294-.735,3.507-.807,4.1-.107.851-.452,2.5-.452,2.5a4.047,4.047,0,0,0-.347,2.9,1.712,1.712,0,0,1,.053,1.2c-.212.666-.137.685-.137.685s.746.823.4,1.412.48,1.571.48,1.571l-.186,5.963.192,4.107s-.613.879-.4,1.305a1.8,1.8,0,0,1-.023,1.119.516.516,0,0,1-.137.532c-.244.186,0,.746,0,.746-.613-.212-1.7.718-3.142,1.305s-.96-.8-.96-.8-1.119-1.385-.879-1.545a10.938,10.938,0,0,0,.639-2.422c-1.119-1.544-.639-4.1-.639-4.1l.164-5.962a3.137,3.137,0,0,1-.032-1.386c.186-.426-.506-1.1-.506-1.1s.186-.8,0-1.1a3.4,3.4,0,0,1-.24-1.1s-.452-2.5-.452-3.2a20.46,20.46,0,0,0-.613-2.928c.214-1.919-.319-2.4-.319-2.4-1.224.585-.4,2.821-.4,3.753a8.921,8.921,0,0,1-.532,2.37,26.131,26.131,0,0,1-.533,4.019,9.283,9.283,0,0,0-.454,2.038,3.034,3.034,0,0,1,.255,1.678,13.269,13.269,0,0,0,0,3.016,23.664,23.664,0,0,1-.654,4.765,2.568,2.568,0,0,0,.432,2.557,1.033,1.033,0,0,1-.193,1.49c-.48.292-.345.454.027.906s0,1.811,0,1.811-1.518,1.2-2.184.665a25.384,25.384,0,0,0-3.061-1.411c-.266-.186-.186-.72.212-1.145s.186-.48.186-.48c-1.065-.319-.4-1.305-.4-1.305s1.1-1.171.639-1.81a3.891,3.891,0,0,1-.16-2.879c.292-.376-.053-1.438-.053-1.438l-.635-5.191s-.03-1.1.315-1.226a.659.659,0,0,0,.347-1.012c-.266-.559.292-1.81.292-1.81.321-.426-.239-2.263-.9-3.275s-.266-3.967-.266-3.967a3.035,3.035,0,0,1-.506-1.065,1.491,1.491,0,0,0-.16-.639,3.57,3.57,0,0,1-.085-1.919c.1-.7.245-1.305.245-1.305Z" transform="translate(-190.646 -508.146)"/><path class="m" d="M241.408,313.8l-5.25,1.226s-2.577-2.184-1.938-3.352a4.643,4.643,0,0,0,.35-1.815c.026-.568.011-1.161-.012-1.663-.038-.725-.1-1.261-.1-1.261s5.378-3.035,5.191,0a7.716,7.716,0,0,0,.036,1.518,2.9,2.9,0,0,0,.31,1.028c.288.511.643.52.643.52Z" transform="translate(-219.58 -269.222)"/><path class="c" d="M241.837,308.426a4.124,4.124,0,0,1-5.13-.256c-.038-.725-.1-1.261-.1-1.261s5.378-3.035,5.191,0A7.713,7.713,0,0,0,241.837,308.426Z" transform="translate(-221.731 -269.196)"/><circle class="m" cx="4.126" cy="4.126" r="4.126" transform="translate(13.575 31.644)"/><path class="c" d="M241.408,338.32l-5.25,1.226s-2.577-2.184-1.938-3.352a4.643,4.643,0,0,0,.35-1.815,2.673,2.673,0,0,0,.96,1.6,1.868,1.868,0,0,1,1.012,1.782l2.156-.079a1.435,1.435,0,0,1,.932-1.464c.266-.107.137-.585.137-.585L240,334c.288.511.643.52.643.52Z" transform="translate(-219.58 -293.738)"/><path class="c" d="M218.239,582.912s-.085.391-.2.96a8.4,8.4,0,0,0-1.686.025,28.185,28.185,0,0,1-2.93.186l-5.8.206v-.178a17.093,17.093,0,0,0-2,.137,13.976,13.976,0,0,1-3.515-.214,3.784,3.784,0,0,1-.884-.239c.1-.7.245-1.305.245-1.305Z" transform="translate(-191.192 -508.163)"/><path class="n" d="M198.216,351.468a8.412,8.412,0,0,0,.084,2.136c.16,1.234.422,2.444.422,2.444s1.1,6.923.478,7.828,0,5.3,0,5.3a13.616,13.616,0,0,0-2.422-.026c-.585.133-2.93.186-2.93.186l-5.8.206v-.18a17.106,17.106,0,0,0-2,.137,14.039,14.039,0,0,1-3.515-.212c-.986-.159-1.385-.48-1.278-.639s-.107-4.524-.107-4.524l-.026-3.541s-.027-2.5.585-3.063a4.753,4.753,0,0,0,.613-1.986c.225-1.326.345-2.806.345-2.806l-4.047-10.83-.079-.214s1.171-1.811.984-2.69,1.1-1.645,1.1-1.645a13.875,13.875,0,0,0,2.583-1.385c.16-.319,1.837-.4,1.837-.4s.96-.506,1.123-.833a.632.632,0,0,1,.447-.363,2.681,2.681,0,0,0,.96,1.623,1.867,1.867,0,0,1,1.012,1.782l2.156-.079a1.433,1.433,0,0,1,.932-1.464c.266-.106.137-.587.137-.587l.249-1.723c.115-.286.921.81.921.81s2.056.7,2.184.754,1.864.585,1.864.585,2.129,1.385,2.129,1.73a12.827,12.827,0,0,0,1.172,2.211s-.014.074-.04.21C200.009,341.672,198.411,350.323,198.216,351.468Z" transform="translate(-171.621 -293.627)"/><path class="m" d="M218.909,421.011s-4.606-1.224-5.06-1.518-3.115,1.411.137,3.727c0,0,3.976.822,5.035,0S218.909,421.011,218.909,421.011Z" transform="translate(-200.834 -367.482)"/><path class="c" d="M266.276,377.55l.559.027,1.645,4.42s.986,2.317,1.172,2.69a6.427,6.427,0,0,1,0,2.369c-.107.45-.8,2.45-.823,2.956s-1.278,1.012-2.557.932a33.072,33.072,0,0,0-4.259.319s-3.185-.333-5.139.665a17.246,17.246,0,0,1-1.117-7.4,12.5,12.5,0,0,1,2.769.079c.559.217,3.275.823,3.62.506s1.919.587,1.919.587a1.346,1.346,0,0,0,0-1.119c-.266-.639-.718-2.636-.137-3.275A41.526,41.526,0,0,0,266.276,377.55Z" transform="translate(-238.245 -331.318)"/><path class="c" d="M265.605,393.3c-1.322.089-2.8.288-2.8.288s-3.185-.333-5.139.665a17.231,17.231,0,0,1-1.119-7.4,12.5,12.5,0,0,1,2.769.08c.559.217,3.275.822,3.622.506s1.919.587,1.919.587a1.352,1.352,0,0,0,0-1.119c-.266-.639-.718-2.636-.137-3.275a41.285,41.285,0,0,0,2.343-3.755l.52.025c-.274,1.468-1.868,10.12-2.063,11.264A8.5,8.5,0,0,0,265.605,393.3Z" transform="translate(-238.927 -333.32)"/><path class="n" d="M267.048,378.33l.559.027,1.645,4.42s.986,2.315,1.172,2.688a6.466,6.466,0,0,1,0,2.37c-.106.451-.8,2.45-.823,2.956s-1.279,1.012-2.557.931a32.771,32.771,0,0,0-4.259.321s-3.186-.333-5.139.665a17.231,17.231,0,0,1-1.119-7.4,12.5,12.5,0,0,1,2.769.079c.559.217,3.275.823,3.622.506s1.919.585,1.919.585a1.348,1.348,0,0,0,0-1.117c-.266-.64-.718-2.636-.137-3.275A41.523,41.523,0,0,0,267.048,378.33Z" transform="translate(-238.91 -331.991)"/><rect class="o" width="0.781" height="7.033" transform="translate(23.184 56.53) rotate(-148.23)"/><ellipse class="o" cx="2.251" cy="1.578" rx="2.251" ry="1.578" transform="translate(24.911 49.999) rotate(-58.23)"/><ellipse class="c" cx="1.615" cy="1.132" rx="1.615" ry="1.132" transform="translate(25.625 49.693) rotate(-58.23)"/><rect class="f" width="0.781" height="4.376" transform="translate(21.291 59.587) rotate(-148.23)"/><path class="m" d="M242.458,447.248l1.624-.452s8.014.212,5.324-3.089c0,0-1.411-1.359-4.366-.267a26.953,26.953,0,0,1-3.781,1.226Z" transform="translate(-225.743 -387.809)"/><circle class="c" cx="0.319" cy="0.319" r="0.319" transform="translate(15.199 44.875)"/><circle class="c" cx="0.319" cy="0.319" r="0.319" transform="translate(20.683 44.689)"/><circle class="p" cx="0.319" cy="0.319" r="0.319" transform="translate(15.199 44.768)"/><circle class="c" cx="0.319" cy="0.319" r="0.319" transform="translate(15.652 49.295)"/><circle class="c" cx="0.319" cy="0.319" r="0.319" transform="translate(20.844 48.976)"/><circle class="p" cx="0.319" cy="0.319" r="0.319" transform="translate(15.652 49.188)"/><circle class="c" cx="0.319" cy="0.319" r="0.319" transform="translate(20.711 64.394)"/><circle class="c" cx="0.319" cy="0.319" r="0.319" transform="translate(16.505 64.394)"/><circle class="p" cx="0.319" cy="0.319" r="0.319" transform="translate(20.711 64.287)"/><circle class="c" cx="0.319" cy="0.319" r="0.319" transform="translate(16.824 69.743)"/><circle class="c" cx="0.319" cy="0.319" r="0.319" transform="translate(20.844 69.423)"/><circle class="p" cx="0.319" cy="0.319" r="0.319" transform="translate(16.824 69.637)"/><circle class="p" cx="0.319" cy="0.319" r="0.319" transform="translate(16.505 64.287)"/><circle class="p" cx="0.319" cy="0.319" r="0.319" transform="translate(20.844 69.316)"/><circle class="p" cx="0.319" cy="0.319" r="0.319" transform="translate(20.683 44.582)"/><circle class="p" cx="0.319" cy="0.319" r="0.319" transform="translate(20.844 48.869)"/><path class="c" d="M285.94,480.88s.053,7.3.214,8.6C286.154,489.479,286.211,481.224,285.94,480.88Z" transform="translate(-264.298 -420.482)"/><path class="c" d="M295.826,505.55c-.11,0,2.182,8.546,2.289,9.159S296.465,505.55,295.826,505.55Z" transform="translate(-272.826 -441.771)"/><path class="c" d="M309.05,495.45c0,.08,1.279,4.632,1.919,4.872S309.05,495.45,309.05,495.45Z" transform="translate(-284.24 -433.055)"/><path class="c" d="M328.155,430.77s-2.716.121-2.8.513S328.155,430.77,328.155,430.77Z" transform="translate(-298.313 -377.242)"/><path class="c" d="M300.248,684s-1.944.822-1.645.877S300.248,684,300.248,684Z" transform="translate(-275.199 -595.758)"/><path class="c" d="M281.451,674.96c-.075-.17,1.305.685,1.305.8A3.166,3.166,0,0,1,281.451,674.96Z" transform="translate(-260.422 -587.937)"/><path class="c" d="M294.68,695.47s1.518-.075,1.624.509S294.68,695.47,294.68,695.47Z" transform="translate(-271.84 -605.652)"/><path class="c" d="M215.05,694.569s1.645-.322,1.782,0S215.05,694.569,215.05,694.569Z" transform="translate(-203.126 -604.754)"/><path class="c" d="M216.9,768.72s.108,1.357-.292,1.677S216.9,768.72,216.9,768.72Z" transform="translate(-204.361 -668.864)"/><path class="c" d="M218.05,788.569c.521.053,3.263-.426,3.237,0S218.05,788.569,218.05,788.569Z" transform="translate(-205.715 -685.837)"/><path class="c" d="M305.153,777.57s-.935-.137-.707.487Z" transform="translate(-280.236 -676.489)"/><path class="c" d="M169.412,386.642h-.506l-.772,2.823a3.9,3.9,0,0,1-.532,1.226c-.266.24.239,2.422.239,2.422a10.462,10.462,0,0,1-.532,1.944c-.24.4.373,1.385.373,1.385l1.224,2.879,3.249.853s5.725,1.252,5.991,1.438.506-.081.685-1.811.692-5.086,1.1-5.245c0,0-3.2.345-3.461.292a13.448,13.448,0,0,0-1.544.027,8.177,8.177,0,0,0-1.944.053c-.266.16.345-.773.345-.773a2.569,2.569,0,0,0,0-1.3C173.14,392.125,173.034,383.977,169.412,386.642Z" transform="translate(-161.882 -338.703)"/><path class="c" d="M190.071,396.906c-.4.159-.9,3.515-1.1,5.245s-.426,2-.685,1.811c-.217-.152-4.032-1.006-5.457-1.322.225-1.326.345-2.806.345-2.806L179.13,389h.426c3.62-2.664,3.727,5.483,3.914,6.2a2.569,2.569,0,0,1,0,1.3s-.613.932-.347.773a8.252,8.252,0,0,1,1.944-.053,13.518,13.518,0,0,1,1.545-.026C186.88,397.258,190.071,396.906,190.071,396.906Z" transform="translate(-172.131 -340.742)"/><path class="n" d="M168.634,387.408h-.506l-.773,2.823a3.9,3.9,0,0,1-.532,1.224c-.266.24.24,2.429.24,2.429a10.518,10.518,0,0,1-.533,1.944c-.24.4.373,1.383.373,1.383l1.226,2.879,3.248.853s5.725,1.25,5.991,1.437.506-.079.685-1.81.685-5.086,1.1-5.245c0,0-3.194.345-3.46.292a13.459,13.459,0,0,0-1.545.027,8.242,8.242,0,0,0-1.944.052c-.266.159.347-.773.347-.773a2.568,2.568,0,0,0,0-1.3C172.361,392.892,172.254,384.745,168.634,387.408Z" transform="translate(-161.209 -339.364)"/><path class="c" d="M183.806,461.07s-1.464,2.769-1.73,2.45S183.806,461.07,183.806,461.07Z" transform="translate(-174.652 -403.388)"/><path class="c" d="M178.182,449.57s-1.357,1.124-.718,1.416S178.182,449.57,178.182,449.57Z" transform="translate(-170.545 -393.465)"/><path class="c" d="M193.1,439.51a9.593,9.593,0,0,1,2,.558A9.743,9.743,0,0,1,193.1,439.51Z" transform="translate(-184.186 -384.784)"/><path class="c" d="M235.219,271.661a.274.274,0,0,0-.182.285c-.108.1-.262-.016-.35-.137s-.191-.274-.326-.255a1.148,1.148,0,0,0-.186.078c-.212.067-.392-.182-.511-.4l-.624-1.153c-.411.243-.909-.011-1.322-.262s-.9-.5-1.323-.263c-.613.354-.635,1.533-1.269,1.823-.2.095-.441.074-.632.2a1.2,1.2,0,0,0-.373.609.636.636,0,0,1-.208.344.45.45,0,0,1-.215.052.916.916,0,0,1-.548-.078.467.467,0,0,1-.192-.548.229.229,0,0,1,.018-.032,1.922,1.922,0,0,0,.182-.263c.064-.169-.027-.366,0-.548.033-.313.365-.478.421-.786.023-.121,0-.25.021-.37a.494.494,0,0,1,.014-.048l-.195.137a4.6,4.6,0,0,0,.487-.917,2.825,2.825,0,0,1,1.723-1.4,4.124,4.124,0,0,1,2.129.025,7.037,7.037,0,0,1,1.9.78,1.9,1.9,0,0,1,.548.45,3.436,3.436,0,0,1,.326.6c.207.428.772.823.322.884-.374.049-.033.311.163.488a.511.511,0,0,1,.112.125.439.439,0,0,1-.023.426C235.017,271.595,235.324,271.614,235.219,271.661Z" transform="translate(-213.379 -236.439)"/><path class="q" d="M235.223,270.891a.274.274,0,0,0-.182.285c-.108.1-.262-.018-.35-.137s-.191-.274-.326-.255a1.149,1.149,0,0,0-.186.078c-.212.069-.392-.182-.511-.4-.208-.384-.411-.769-.624-1.152-.411.241-.909-.012-1.322-.263s-.9-.5-1.323-.263c-.613.354-.635,1.533-1.269,1.825-.2.093-.441.073-.632.2a1.194,1.194,0,0,0-.373.61.632.632,0,0,1-.208.343.451.451,0,0,1-.215.053.925.925,0,0,1-.548-.078.47.47,0,0,1-.192-.548.234.234,0,0,1,.018-.032,2.628,2.628,0,0,0,.182-.263c.064-.169-.027-.366,0-.548.033-.314.365-.478.421-.787.023-.121,0-.25.021-.37a.465.465,0,0,1,.014-.047l-.195.137a4.671,4.671,0,0,0,.487-.917,2.828,2.828,0,0,1,1.723-1.4,4.123,4.123,0,0,1,2.129.025,6.99,6.99,0,0,1,1.9.781,1.871,1.871,0,0,1,.548.448,3.439,3.439,0,0,1,.326.6c.207.429.772.823.322.884-.374.051-.033.313.163.489a.488.488,0,0,1,.112.123.439.439,0,0,1-.023.426C235.02,270.828,235.327,270.843,235.223,270.891Z" transform="translate(-213.383 -235.775)"/><path class="c" d="M235.209,270.126l-.043.448s-4.469-5.664-7.951.732c0,0-.016-.078-.045-.21a2.635,2.635,0,0,0,.182-.263c.064-.169-.027-.366,0-.548.033-.314.365-.478.421-.787.023-.121,0-.249.021-.37a.463.463,0,0,1,.014-.047l-.195.137a4.672,4.672,0,0,0,.487-.917,2.828,2.828,0,0,1,1.723-1.4,4.123,4.123,0,0,1,2.129.025,6.991,6.991,0,0,1,1.9.781,1.871,1.871,0,0,1,.548.448,3.436,3.436,0,0,1,.326.6c.207.429.772.823.322.884C234.671,269.687,235.013,269.953,235.209,270.126Z" transform="translate(-213.585 -235.723)"/><g class="r" transform="translate(13.577 32.747)"><path d="M235.265,281.487a.221.221,0,0,0-.051.185c-.108.1-.26-.018-.348-.137s-.192-.274-.326-.255a1.1,1.1,0,0,0-.186.078c-.214.069-.393-.182-.513-.4l-.622-1.153c-.411.243-.909-.011-1.322-.262s-.906-.5-1.323-.263c-.613.354-.635,1.533-1.269,1.823-.206.095-.443.074-.632.2a1.2,1.2,0,0,0-.373.609.644.644,0,0,1-.208.344.44.44,0,0,1-.215.052.913.913,0,0,1-.548-.077.506.506,0,0,1-.208-.293.48.48,0,0,0,.208.506.924.924,0,0,0,.548.078.474.474,0,0,0,.215-.052.65.65,0,0,0,.208-.344,1.2,1.2,0,0,1,.373-.61c.188-.129.426-.108.632-.2.635-.291.657-1.47,1.269-1.823.411-.243.909.012,1.323.263s.9.5,1.322.262l.622,1.152c.119.219.3.47.513.4a1.214,1.214,0,0,1,.186-.077c.137-.018.236.137.326.254s.24.236.348.137a.274.274,0,0,1,.182-.285C235.481,281.566,235.3,281.545,235.265,281.487Z" transform="translate(-227.109 -279.181)"/><path d="M283.651,286.544a.379.379,0,0,1,.1-.025c.2-.027.2-.119.121-.25a.315.315,0,0,1-.121.036C283.539,286.334,283.558,286.433,283.651,286.544Z" transform="translate(-275.842 -285.298)"/><path d="M286.629,293.468a.486.486,0,0,0,0-.208.313.313,0,0,1-.053.116C286.54,293.419,286.581,293.446,286.629,293.468Z" transform="translate(-278.412 -291.33)"/><path d="M228.711,292.54a.34.34,0,0,0,0,.037,1.2,1.2,0,0,0,.021.286A1.037,1.037,0,0,0,228.711,292.54Z" transform="translate(-228.49 -290.709)"/><path d="M230.75,283.06a1.657,1.657,0,0,1-.18.267l.173-.118A.9.9,0,0,1,230.75,283.06Z" transform="translate(-230.096 -282.528)"/></g><path class="n" d="M217.29,232.3a14.313,14.313,0,0,1-.439-3.334,7.641,7.641,0,0,1-.548-1.409,2.7,2.7,0,0,0-.411-1.274c-.292-.461-.613-2.6,1.139-3.116s3.1-.976,3.3-1.328,3.213-.137,4.032,1.22,1.343,1.083,1.343,1.083,1.256.787,1.256,1.491-.38,1.057,0,1.219.088,3.09-1.578,3.171l-.145,1.545S220.766,225.9,217.29,232.3Z" transform="translate(-203.654 -196.82)"/><path class="c" d="M228.275,236.55s-.387,2.263.319,3.016Z" transform="translate(-214.447 -209.647)"/><path class="c" d="M237.217,232.76s-.984,2.424-.744,2.89Z" transform="translate(-221.58 -206.376)"/><path class="c" d="M245.631,227.13s-.666,3.153-.347,3.408Z" transform="translate(-229.141 -201.518)"/><path class="c" d="M253.12,233.34s-.823,2.025-.492,2.3Z" transform="translate(-235.485 -206.877)"/><path class="c" d="M263.041,235.09s-.972,1.645-.772,1.944Z" transform="translate(-243.849 -208.387)"/><path class="c" d="M277.276,246.84s-1.039.274-.823.613Z" transform="translate(-256.086 -218.526)"/><path class="c" d="M284.915,259.37s-.932.452-.76.692Z" transform="translate(-262.74 -229.338)"/><path class="c" d="M224.34,269.62s5.952-2.417,8.53,1.057C232.87,270.677,229.741,268.017,224.34,269.62Z" transform="translate(-211.143 -237.477)"/><path class="f" d="M80.39,374.149l.829-.839,2.344,2.318-.829.839-2.156-2.132Z" transform="translate(-69.342 -322.141)"/><path class="o" d="M169,380.45a11.653,11.653,0,0,1,7.008,4.113l-1.408,1.424Z" transform="translate(-163.389 -333.82)"/><path class="m" d="M217.324,419.912a37.685,37.685,0,0,1-3.832-1.577c-.343-.3-2.361,1.465.1,3.871,0,0,3.016.857,3.814,0S217.324,419.912,217.324,419.912Z" transform="translate(-200.83 -366.483)"/><rect class="s" width="0.709" height="15.962" transform="translate(117.654 70.061)"/><path class="d" d="M963.428,660.685l-.045.72-.062,1.014-.026.422-.063,1.016-.027.424-.063,1.014-.714,11.541a1.956,1.956,0,0,1-1.952,1.834H956.76a1.955,1.955,0,0,1-1.951-1.834l-.716-11.542-.063-1.014-.026-.424-.064-1.016-.025-.422-.063-1.014-.045-.72a1.012,1.012,0,0,1,1.01-1.075h7.6a1.012,1.012,0,0,1,1.009,1.075Z" transform="translate(-840.609 -574.711)"/><path class="t" d="M835.4,632.45l-.063,1.014h-9.405l-.063-1.014Z" transform="translate(-712.627 -545.757)"/><path class="t" d="M835.873,642.93l-.063,1.016h-9.227l-.063-1.016Z" transform="translate(-713.188 -554.8)"/><path class="t" d="M836.344,653.43l-.062,1.014h-9.049l-.063-1.014Z" transform="translate(-713.749 -563.86)"/><path class="n" d="M888.934,575.153a18.4,18.4,0,0,1,5.848,7.659A16.7,16.7,0,0,1,879.83,572,18.379,18.379,0,0,1,888.934,575.153Z" transform="translate(-776.774 -499.111)"/><path class="u" d="M879.83,572s5.164,2.866,6.82,5.239,8.132,5.577,8.132,5.577" transform="translate(-776.774 -499.111)"/><path class="n" d="M934.486,540.3a10.02,10.02,0,0,1,3.183,4.169,9.095,9.095,0,0,1-8.139-5.887A10.006,10.006,0,0,1,934.486,540.3Z" transform="translate(-819.661 -470.273)"/><path class="u" d="M929.53,538.58a14.807,14.807,0,0,1,3.712,2.851c.906,1.286,4.427,3.035,4.427,3.035" transform="translate(-819.661 -470.273)"/><path class="n" d="M993.037,557.1a13.841,13.841,0,0,0-3.127,6.544,12.579,12.579,0,0,0,9.348-10.275A13.842,13.842,0,0,0,993.037,557.1Z" transform="translate(-871.764 -483.035)"/><path class="u" d="M999.258,553.37s-3.363,2.908-4.217,4.912-5.131,5.363-5.131,5.363" transform="translate(-871.764 -483.035)"/></g></svg>