<svg xmlns="http://www.w3.org/2000/svg" xmlns:xlink="http://www.w3.org/1999/xlink" viewBox="0 0 153.026 112.767"><defs><style>.a,.j{fill:#6a4dff;}.a,.f,.p{opacity:0.1;}.b{fill:url(#a);}.c{fill:url(#b);}.d{fill:url(#c);}.e{fill:#d4dfec;}.g{fill:#65617d;}.h{fill:#3f3d56;}.i{fill:#c37098;}.k{fill:#e8eaf2;}.l{opacity:0.05;}.m{fill:#fdf9f9;}.n{fill:#42312e;opacity:0.3;}.o{opacity:0.2;}.q{fill:none;stroke:#565987;stroke-miterlimit:10;}.r{fill:#ffd037;}.s{fill:#a8a8a8;}</style><linearGradient id="a" x1="48.551" y1="-136.922" x2="48.551" y2="-14.133" gradientUnits="objectBoundingBox"><stop offset="0" stop-color="gray" stop-opacity="0.251"/><stop offset="0.54" stop-color="gray" stop-opacity="0.122"/><stop offset="1" stop-color="gray" stop-opacity="0.102"/></linearGradient><linearGradient id="b" x1="0.681" y1="-0.445" x2="0.681" y2="0.552" xlink:href="#a"/><linearGradient id="c" x1="436.676" y1="-1405.264" x2="436.676" y2="354.774" xlink:href="#a"/></defs><g transform="translate(0.001 -0.034)"><ellipse class="a" cx="60.061" cy="8.495" rx="60.061" ry="8.495" transform="translate(14.115 95.812)"/><path class="a" d="M11.8,389c2.427,9.359,7.56,17.463,15.65,21.383,16.836,8.16,54.8,3.947,83.146-.879a66.758,66.758,0,0,0,36.893-19.081Z" transform="translate(-10.155 -334.712)"/><path class="a" d="M184.586,10.211H169.033A1.282,1.282,0,0,1,167.694,9a1.282,1.282,0,0,1,1.339-1.214h2.692a1.282,1.282,0,0,1-1.339-1.214,1.282,1.282,0,0,1,1.339-1.214H169.8a1.282,1.282,0,0,1-1.339-1.214A1.282,1.282,0,0,1,169.8,2.93h8.118a23.243,23.243,0,0,0-6.333-1.576c-22.122-2.58-30.031-.879-32.806.865a32.629,32.629,0,0,1-11.368,4.505c-13.655,2.553-39.181,5.621-62.321-.976C53.569,2.47,45.033,8.021,39.9,17.269H187.278a20.008,20.008,0,0,0-1.827-7.351A1.352,1.352,0,0,1,184.586,10.211Z" transform="translate(-34.336 0)"/><path class="a" d="M.334,248.9a56.265,56.265,0,0,0,.6,16.333l136.512,4.519a58.065,58.065,0,0,0,9.485-13.083Zm53.994,11.647H51.636a1.219,1.219,0,1,1,0,2.427H36.083a1.219,1.219,0,1,1,0-2.427h2.692a1.219,1.219,0,1,1,0-2.427H36.85a1.219,1.219,0,1,1,0-2.427H52.4a1.219,1.219,0,1,1,0,2.427h1.925a1.219,1.219,0,1,1,0,2.427Z" transform="translate(0 -214.154)"/><path class="a" d="M155.108,124.3,6.071,127.564A49.549,49.549,0,0,0,2.5,141.484H152.486a52.424,52.424,0,0,0,2.162-8.871A37.089,37.089,0,0,0,155.108,124.3ZM32.768,135.04H30.076a1.219,1.219,0,1,1,0,2.427H14.523a1.219,1.219,0,1,1,0-2.427h2.692a1.219,1.219,0,1,1,0-2.427H15.291a1.219,1.219,0,1,1,0-2.427H30.843a1.219,1.219,0,1,1,0,2.427h1.925a1.219,1.219,0,1,1,0,2.427Z" transform="translate(-2.152 -106.933)"/><path class="b" d="M588.751,603.5l-.251-.6a2.276,2.276,0,0,0,.028.307c0,.07.014.139.014.223A.924.924,0,0,1,588.751,603.5Z" transform="translate(-506.415 -518.777)"/><path class="c" d="M264.363,313.141l.139-1.158c.432-.321.837-.628,1.144-.865,0,.028-.014.07-.014.1.014,0,.014-.014.028-.014a.912.912,0,0,0,.321-.572.3.3,0,0,0-.056-.07.89.89,0,0,1-.112-.2.7.7,0,0,1-.642-.167l-.446.042.042-.349a.679.679,0,0,0,.167-.014.657.657,0,0,1,.028-.558c.656-1.367-2.148-1.339-2.845-1.339-.656,0-1.311-.028-1.967-.07-.711-.042-1.409-.209-2.12-.209a1.077,1.077,0,0,1-.209-.028c-.209-.028-.349-.056-.349-.056a.96.96,0,0,1-.153.181c-1.3-.865-2.218-2.9-2.622-3.975.223-.167.363-.279.363-.279s-.126-1.1-.321-2.566a7.065,7.065,0,0,1-.237-1.492c-.084-.809-.293-1.59-.335-2.4a3.525,3.525,0,0,0-.251-1.827.6.6,0,0,1-.1-.446,4.531,4.531,0,0,0-.335-1.241c-.474-.642-.167-4.254-.167-4.254a8.227,8.227,0,0,0-1.9-3.11,5.14,5.14,0,0,0-1.771-.474,8.626,8.626,0,0,0-.1-.865c.042-.6.042-1.144.028-1.632h.126c-.084-.683-.2-1.367-.293-2.05h-.028c-.335-1.618-1-2.232-1.506-2.455,1.925-1.283-1.981-2.009-1.981-2.009l-7.086-.223a.776.776,0,0,0,.363-.711c-.07-.4-.586-.67-1.269-.67h-.07v-.53h-.014a.177.177,0,0,0,.014-.084c0-.4-.921-.725-2.19-.837H235.6l-.2-.014h-.656a8.4,8.4,0,0,0-2.12.251c-.167-.53-1.339-1.144-1.339-1.144s-.2-1.158-.837-1.451-.753-1.311-.711-1.8a3.683,3.683,0,0,0-.962-1.492l-.265-1.6a3.169,3.169,0,0,0-.363-.391,2.9,2.9,0,0,0-.46-1.353,5.112,5.112,0,0,0,3.878-6.081,4.965,4.965,0,0,0-1.353-2.469l-.126-.126a2.517,2.517,0,0,0,1.144-1.032,1.045,1.045,0,0,0,.07-.223,1.323,1.323,0,0,0-.962-1.241,16.818,16.818,0,0,1-1.883-.446c-1-.46-1.479-1.674-2.469-2.176a3.809,3.809,0,0,0-2.525-.1c-1.241.265-2.664.893-2.845,2.162a8.738,8.738,0,0,1-.084,1.716c-.516,1.381-2.873.907-3.668,2.148a2.969,2.969,0,0,0-.321,1.032c-.265,1.562-.53,3.11-.809,4.673a4.985,4.985,0,0,1-.586,1.855,3.623,3.623,0,0,1-1.576,1.227,3.236,3.236,0,0,0-2.218-1.144c.014-.014.042-.028.056-.042s-3.585-.377-4.952,1.018c0,0-.418,1.688.6,2.036a5.193,5.193,0,0,0,2.246-.209,8.56,8.56,0,0,0-.139,4.073,3.372,3.372,0,0,1,.126,1.66,3.243,3.243,0,0,1-.837,1.158,7.007,7.007,0,0,0-1.506,2.706,2.268,2.268,0,0,0,.293,2.218,1.6,1.6,0,0,0,.921.418h-.014a4.948,4.948,0,0,0,1.283-.014,2.726,2.726,0,0,0,2.915-1.883c.391-.823.767-1.66,1.144-2.5.112-.237.223-.474.349-.711.5,2.678,1.032,5.314,1.032,5.314h.53l.084,1.437c-.614.265-.781.53-.725.767-.711.474-1.534,1.479-1.437,3.6-.209.028-.4.056-.614.1-7.546,1.492-12.149,10.419-10.28,19.946s9.485,16.041,17.031,14.548c5.872-1.158,9.959-6.821,10.6-13.767a9.078,9.078,0,0,0,6.625,1.311,8.585,8.585,0,0,0,1.548-.46l.014,2.818-.628,3.18c-2.553.028-4.617,2.511-4.6,5.565s2.106,5.551,4.673,5.537,4.645-2.5,4.645-5.565a5.679,5.679,0,0,0-2.8-5.077l-.112-.056c.237-1.939.391-3.6.391-3.6l-.014-3.654a10.364,10.364,0,0,0,3.1-3.32h.391s.809.028,1.046,1.255c.1.53.976,2.832,1.939,5.314a5.608,5.608,0,0,0-.084.962,4.98,4.98,0,0,0,2.134,4.226l.5,1.241-.181.1s.446,3.055,1.451,3.083c.418.642,1.158,1.66,1.6,1.492l3.236-.725.112-.014,3.32-.8,7.6-4.24C266.525,313.88,265.563,313.364,264.363,313.141Zm-53.031-46.824-.028-.07a2.386,2.386,0,0,1,.446,0A3.267,3.267,0,0,1,211.332,266.316Zm14.6-.614c.139-.265.293-.516.446-.767l.112-.181h.2a1.961,1.961,0,0,1,.614,1.032c-.028.014-.056.042-.084.056-.279.223-.53.418-.725.544a3.063,3.063,0,0,1-.628-.572Zm-.293.7a3.819,3.819,0,0,1,.209-.558h0a2.993,2.993,0,0,0-.251.851h-.014A2.166,2.166,0,0,1,225.643,266.4Zm2.134,32.109c.1.335.2.669.279,1.018l-1.437,1.283a14.784,14.784,0,0,1-1.116-2.441Zm-6.946-.474,3.389.223a15.39,15.39,0,0,0,3.166,5.719l-9.122-1.1-.279-.028c-.014-.139-.028-.279-.056-.418a3.582,3.582,0,0,0-.432-1.13l.2-.2Zm-7.7-10.545c.126-.028.251-.042.391-.07l.349,4.966s.056,1.883,1.06,2.315v5.063a2.271,2.271,0,0,0-.432.042,1.176,1.176,0,0,0-.237.07l-.181-.251-6.179-8.648-.279-.391A10.257,10.257,0,0,1,213.131,287.49Zm-6.751,4.631.293.377,6.193,7.951.181.237a3.119,3.119,0,0,0-.488.767l-.279-.042-8.174-1.381-.4-.07A15.938,15.938,0,0,1,206.38,292.121Zm-.167,18.984a19.178,19.178,0,0,1-2.2-5.914,19.647,19.647,0,0,1-.363-3.25h0l.4.042,7.951.725.265.028a3.123,3.123,0,0,0,.07.809,3.545,3.545,0,0,0,.656,1.479l-.209.181-6.263,5.621Zm9,6.988A13.327,13.327,0,0,1,207.482,313h0l.279-.321,5.719-6.765.181-.223a2.772,2.772,0,0,0,1.506.53v.307l.042,11.089v.474Zm-.656-32.751c-.014-.781.084-2.2.976-2.818l.084.042.167,2.8A11.921,11.921,0,0,0,214.554,285.342Zm1.3,14.255.251-2.79a1.075,1.075,0,0,0,.99.976l2.134.139-2.064,2.483-.181.209a3.078,3.078,0,0,0-1.144-.725Zm3.264,18.509h0a9.132,9.132,0,0,1-1.744.181l-.042-.488-.976-11.493-.028-.321a2.823,2.823,0,0,0,.642-.418l.167.237,6.57,9.443.279.391A10.387,10.387,0,0,1,219.115,318.106Zm6.193-3.878-.279-.363-7.072-9.206-.2-.251a2.217,2.217,0,0,0,.1-.279l.279.042,9.987,1.8.4.07A15.669,15.669,0,0,1,225.308,314.229Zm2.288-11.982.809-.948c.1.7.167,1.395.2,2.092A11.125,11.125,0,0,1,227.6,302.247Zm10.224-26.864h.07c.446.028.781.209.823.488a.56.56,0,0,1-.251.5,5.791,5.791,0,0,0-.851-.2A3.7,3.7,0,0,0,237.82,275.383Zm-7.63,29.333a22.294,22.294,0,0,0-.4-4.617c-.028-.112-.042-.237-.07-.349l.879-1.046,2.859.2.028,7.211A8.837,8.837,0,0,1,230.19,304.716Zm1.144-21.187a11.481,11.481,0,0,0,1.158-.223,3.4,3.4,0,0,1,.349.279h-1.465A.193.193,0,0,0,231.334,283.528Zm5.105,22.582a7,7,0,0,1-1.325.139l-.6-6.988,2.3.209,1.437,2.05.014,3.961A6.312,6.312,0,0,1,236.439,306.111Zm.377-24.577-.028.446a9.1,9.1,0,0,0-1.813-.558l-.056-.042c-.753-.474-1.855-1.116-2.818-1.674a2.533,2.533,0,0,0-.084-.642v-.028c.265-.1.53-.2.767-.279a5,5,0,0,0,2.009.391,5.351,5.351,0,0,0,1.158-.126l10.726.265c.2-.07.377-.153.53-.223a3.805,3.805,0,0,1,1.13,2.134Zm11.661,1.632a2.691,2.691,0,0,1-.014.349h0l-9.066.028a10.163,10.163,0,0,0-1.116-.8Zm-8.634,21.327v-.669l.293.418Zm1.3-1.311-.251-.335c.153.014.321.042.474.056C241.279,303,241.209,303.084,241.139,303.182Zm1.3-2.078h0c-1.018-.042-2.092-.084-2.608-.1l-.014-2.776h-.851a16.268,16.268,0,0,0,4.589-1.13A12.765,12.765,0,0,1,242.436,301.1Zm4.589,6.514-1.492-4.031a4.419,4.419,0,0,0-1.771-2.288,14.342,14.342,0,0,0,1.046-4.756,14.808,14.808,0,0,0,1.339-.739c.153,2.162.851,8.453,1.827,9.359a3.3,3.3,0,0,1,.628.948A4.409,4.409,0,0,0,247.025,307.617Zm2.915,7.811-.056-.167a2.938,2.938,0,0,0,.349.028Z" transform="translate(-173.84 -215.627)"/><path class="d" d="M623.9,435.742l.028-.042v.042Z" transform="translate(-536.878 -374.898)"/><path class="e" d="M363.934,482.152l5.607,7.211-.572.237-7.169-1.227v1.534l7.476.711.265,1.381-5.886,5.217,1.046,1.451,6.179-7.211v11.438h1.674l-.948-11.619.5,1.241,5.761,8.285,1.046-1.046-6.36-8.3-.446-.586.669.265.07.474,8.467,1.548.126-1.451-8.829-1.088-.126-.948,6.584-6.388-1.046-1.13-6.109,7.239-.586-.335.976-10.475-1.548-.181-.042,10.726-.432-.614-5.412-7.574Z" transform="translate(-311.336 -411.642)"/><path class="f" d="M363.934,482.152l5.607,7.211-.572.237-7.169-1.227v1.534l7.476.711.265,1.381-5.886,5.217,1.046,1.451,6.179-7.211v11.438h1.674l-.948-11.619.5,1.241,5.761,8.285,1.046-1.046-6.36-8.3-.446-.586.669.265.07.474,8.467,1.548.126-1.451-8.829-1.088-.126-.948,6.584-6.388-1.046-1.13-6.109,7.239-.586-.335.976-10.475-1.548-.181-.042,10.726-.432-.614-5.412-7.574Z" transform="translate(-311.336 -411.642)"/><path class="g" d="M376.49,482.584c-1.395-7.2-7.169-12.135-12.9-11.033s-9.262,7.839-7.867,15.036,7.169,12.135,12.9,11.033S377.885,489.8,376.49,482.584Zm-8.146,13.586c-5.091.976-10.21-3.4-11.452-9.792s1.9-12.372,6.974-13.362,10.21,3.4,11.452,9.792-1.883,12.372-6.974,13.362Z" transform="translate(-305.843 -405.617)"/><path class="f" d="M376.49,482.584c-1.395-7.2-7.169-12.135-12.9-11.033s-9.262,7.839-7.867,15.036,7.169,12.135,12.9,11.033S377.885,489.8,376.49,482.584Zm-8.146,13.586c-5.091.976-10.21-3.4-11.452-9.792s1.9-12.372,6.974-13.362,10.21,3.4,11.452,9.792-1.883,12.372-6.974,13.362Z" transform="translate(-305.843 -405.617)"/><ellipse class="g" cx="2.176" cy="2.441" rx="2.176" ry="2.441" transform="translate(56.918 77.135) rotate(-10.929)"/><path class="h" d="M589.2,681.513V682.8s5.5-.656,6.068-.921A31.191,31.191,0,0,0,599.243,679c0-.167-.474-.5-.474-.5l-6.249.488Z" transform="translate(-507.018 -583.832)"/><path class="f" d="M589.2,681.513V682.8s5.5-.656,6.068-.921A31.191,31.191,0,0,0,599.243,679c0-.167-.474-.5-.474-.5l-6.249.488Z" transform="translate(-507.018 -583.832)"/><path class="h" d="M556.33,713.331h.46s5.579-1.465,5.342-.181-3.975,3.613-3.975,3.613l-3.32.781-2.232.181-1.325-.391-.781-1.074Z" transform="translate(-473.716 -613.195)"/><path class="e" d="M644,666.163l2.092-.363s.5,1.3.125,1.395a21.008,21.008,0,0,1-2.2.126Z" transform="translate(-554.174 -572.904)"/><path class="e" d="M493.7,554.4h8.843v10.071h-1.381V555.6l-8.062-.349Z" transform="translate(-424.322 -477.042)"/><path class="e" d="M521.281,452.814s2.72-.377,2.315,6.221l-1.144-.809s.739-4.324-1.953-5.426Z" transform="translate(-447.9 -389.613)"/><path class="h" d="M414.379,488.1H394.6l1.018,5.105,19.472,1.311C415.09,494.53,416.108,488.365,414.379,488.1Z" transform="translate(-339.561 -419.99)"/><path class="e" d="M260.727,354.266s.418-2.148-2.036-1.841-.962-1.855-.962-1.855,4.115-.628,4.059,3.264S260.727,354.266,260.727,354.266Z" transform="translate(-221.393 -301.61)"/><path class="e" d="M365.9,344.476a2.108,2.108,0,0,1,2.566,2.19h.781s.418-2.985-3.348-3.166Z" transform="translate(-314.864 -295.559)"/><path class="e" d="M297.8,449.03l.6,10.517.725-.418V448.5Z" transform="translate(-256.263 -385.913)"/><path class="e" d="M394.6,425.986l1.046,7.086.99-.572-1.018-7.1Z" transform="translate(-339.561 -366.035)"/><path class="e" d="M401.9,449.047s1.8-1.437,3.473-1.018l.237.474s-3.292,1.018-3.4,1.506Z" transform="translate(-345.843 -385.442)"/><path class="h" d="M282.542,362.492s-2.092-.544-1.911,1.255,1.911,10.573,1.911,10.573h1.8v9.08l13.5-3.794-.962-8.578h.962l-1.618-9.861s-.711-1.018-1.311-.544c-.349.279-.7.53-1.074.781Z" transform="translate(-241.479 -310.185)"/><path class="h" d="M233.875,351.238s-.418,1.674.6,2.036,4.366-.837,4.366-.837-.893-1.688,0-2.19C238.84,350.234,235.255,349.857,233.875,351.238Z" transform="translate(-201.181 -301.316)"/><path class="h" d="M337.419,341.462s-.781,2.009.474,1.841,4.073-.921,4.073-.921-.474-1.646,0-1.883C341.966,340.5,338.507,340.626,337.419,341.462Z" transform="translate(-290.149 -292.977)"/><path class="h" d="M324.4,500.7l-12.9,4.84,2.092,3.766,11.535-4.3Z" transform="translate(-268.052 -430.832)"/><path class="h" d="M422.771,436.9l10.28.363s5.077.962.781,2.566l-13.084-.377C420.748,439.466,416.857,437.263,422.771,436.9Z" transform="translate(-360.981 -375.931)"/><path class="h" d="M383.241,543.1c.153.1,19.89,1.283,19.89,1.283l.084.684a17.053,17.053,0,0,1-13.809,4.924c-8.55-.935-8.606-1.2-8.606-1.2Z" transform="translate(-327.686 -467.318)"/><path class="f" d="M383.241,543.1c.153.1,19.89,1.283,19.89,1.283l.084.684a17.053,17.053,0,0,1-13.809,4.924c-8.55-.935-8.606-1.2-8.606-1.2Z" transform="translate(-327.686 -467.318)"/><path class="e" d="M432.783,592.8h4.966v11.661h-1.59v-10.28l-4.059-.391Z" transform="translate(-371.83 -510.086)"/><path class="g" d="M432.917,704.624c0,3.055-2.092,5.524-4.659,5.524s-4.659-2.469-4.659-5.524,2.092-5.523,4.659-5.523h.1a3.948,3.948,0,0,1,1.785.46A5.651,5.651,0,0,1,432.917,704.624Z" transform="translate(-364.516 -601.559)"/><path class="f" d="M452.314,699.56c-.321,2.552-.809,5.649-1.269,5.928-.8.474-1.716.739-1.66-.683l1.13-5.7A3.958,3.958,0,0,1,452.314,699.56Z" transform="translate(-386.702 -601.559)"/><path class="e" d="M448.785,685.09l1.73-8.69h1.576s-.865,8.9-1.66,9.387S448.729,686.526,448.785,685.09Z" transform="translate(-386.186 -582.025)"/><ellipse class="g" cx="4.031" cy="4.784" rx="4.031" ry="4.784" transform="translate(72.293 90.163)"/><path class="e" d="M540.183,634.118l1.492-7.518h1.367s-.753,7.7-1.437,8.1S540.127,635.359,540.183,634.118Z" transform="translate(-464.835 -539.171)"/><path class="e" d="M466.758,612.5s-1.255,1.018,0,1.52a13.148,13.148,0,0,0,3.822.446s.809.042,1.046,1.255S476.313,628,476.313,628l1.046-.544-4.575-12.372s-.809-2.357-2.385-2.455S466.758,612.5,466.758,612.5Z" transform="translate(-401.174 -527.038)"/><path class="e" d="M543.9,735.86s1.255,2.246,1.911,1.995.209-1.465.209-1.465l-1.2-.99Z" transform="translate(-468.036 -632.795)"/><path class="e" d="M581.514,728.083l2.385-.683s1.13,1.576.265,1.995a11.78,11.78,0,0,1-2.664.656v-1.967Z" transform="translate(-500.392 -625.911)"/><path class="h" d="M535.8,699.6s.432,3.041,1.437,3.069,6.9-3.431,6.9-3.431-.921-3.166-1.465-2.985S535.8,699.6,535.8,699.6Z" transform="translate(-461.066 -599.103)"/><path class="h" d="M550.5,731.723l4.993-.823s-.53,1.6.251,2.148l-4.268.935Z" transform="translate(-473.716 -628.923)"/><path class="h" d="M584.994,660.4a45.169,45.169,0,0,0-4.3,2.65c.042.2.683,3.362,1.13,3.389s4.24-3.222,4.24-3.222Z" transform="translate(-499.702 -568.257)"/><path class="h" d="M613.056,666.862l4.547-.962s-.028,1.66.321,1.9L613,668.7Z" transform="translate(-527.498 -572.989)"/><path class="e" d="M537.7,561.815s-.112.865.237.893,2.539-.363,3.083.391,6.1,13.321,6.1,13.321l1.046-.683L542.926,563.1A4.533,4.533,0,0,0,537.7,561.815Z" transform="translate(-462.682 -483.132)"/><path class="i" d="M324.2,324.916l.209.223,3.78,4.031.683.725.683.209,3.069.935s-.53-3.71-1.618-4.463a.51.51,0,0,1-.223-.377,1.308,1.308,0,0,1,.056-.516,4.28,4.28,0,0,1,.279-.7c.139-.265.293-.516.446-.753l.112-.167A19.026,19.026,0,0,1,333,322.378s-.67-.558-1.506-1.2c-1.465-1.13-3.445-2.525-3.236-1.632.112.446-.279,1.158-.837,1.925-.028.028-.042.056-.07.084a22.474,22.474,0,0,1-1.52,1.73C324.981,324.219,324.2,324.916,324.2,324.916Z" transform="translate(-278.981 -274.702)"/><path class="i" d="M567.26,628.1s1.339,4.352,3.543,4.979a11,11,0,0,0,4.952-.1s.8,2.19-.307,2.72-5.021-.112-5.789.14a29.324,29.324,0,0,0-2.762,1.311,13.9,13.9,0,0,1-.46-2.943,48.853,48.853,0,0,0-.837-5.4Z" transform="translate(-486.71 -540.462)"/><path class="j" d="M578.632,661.706s1.562-1.423,1.576-1.506a28.548,28.548,0,0,0,3.32.377c.642-.056,5.2-.321,3.878,1.59s-9.066,2.985-9.15,3-1.283-.948-1.088-1.813S577.851,661.678,578.632,661.706Z" transform="translate(-496.645 -568.084)"/><path class="g" d="M410.767,500l2.274.823a18.1,18.1,0,0,0,5.4-.446c2.469-.683,10.88-.139,11.954.628s1.883,3.1,1.883,3.1-.321,3.6.153,4.226,1.534,9.931,1.534,9.931-2.064,1.66-3.571,1.492-4.687-13.725-4.687-13.725L410,503.78Z" transform="translate(-352.813 -430.23)"/><path class="i" d="M547.1,665.925l1.492,1.869,1.172,1.479s.251,1.046.628,2.134c.391,1.116.907,2.273,1.395,2.4.99.251,6.556-1.116,6.556-1.116a4.446,4.446,0,0,0-3.375-3.627,3.285,3.285,0,0,1-.488-.153c-1.744-.669-2.776-2.594-3.25-3.822a5.315,5.315,0,0,1-.335-1.088Z" transform="translate(-470.79 -571.354)"/><path class="f" d="M570.8,701.8c.391,1.116.907,2.274,1.395,2.4.99.251,6.556-1.116,6.556-1.116a4.446,4.446,0,0,0-3.375-3.627,3.292,3.292,0,0,1-.488-.153A30.754,30.754,0,0,1,570.8,701.8Z" transform="translate(-491.184 -601.731)"/><path class="j" d="M569.974,700.659s4.38-2.274,4.422-2.859a15.925,15.925,0,0,0,3.515.181c.837-.209,5.593-.167,4.533,1.827s-6.835,3.571-6.835,3.571-5.37.628-5.607.335A13.246,13.246,0,0,1,569.974,700.659Z" transform="translate(-490.4 -600.44)"/><path class="i" d="M415.4,432.983s.363.181.935.418c1.827.781,5.747,2.232,6.639.656,1.158-2.064-3.529-2.092-4.059-1.785a1.57,1.57,0,0,1-1.2-.2,6.718,6.718,0,0,1-.7-.377Z" transform="translate(-357.46 -371.456)"/><path class="f" d="M346.9,321.667a5.033,5.033,0,0,0,3.906,2.65c.1.014.2.014.293.028a18.773,18.773,0,0,1,1.437-1.855s-5.077-4.226-4.728-2.832C347.932,320.118,347.514,320.872,346.9,321.667Z" transform="translate(-298.514 -274.799)"/><path class="i" d="M342.791,285.67a5.042,5.042,0,0,0,4.449,5.593h.014c.139.014.265.028.391.028a5.059,5.059,0,1,0-4.854-5.621Z" transform="translate(-294.949 -241.927)"/><path class="f" d="M415.4,432.983s.363.181.935.418a8.982,8.982,0,0,1,1.367-1.325,6.73,6.73,0,0,1-.7-.377Z" transform="translate(-357.46 -371.456)"/><path class="f" d="M371.8,360.753a4.28,4.28,0,0,1,.279-.7l-.042-.056A2.79,2.79,0,0,0,371.8,360.753Z" transform="translate(-319.941 -309.757)"/><path class="f" d="M324.2,349.9l4.673,4.994,3.752,1.144s-.53-3.71-1.618-4.463a.51.51,0,0,1-.223-.377,7.818,7.818,0,0,0,1.116,3.668s-.363,0-.809-1.214-3.557-4.505-4.087-4.924a2.989,2.989,0,0,0-1.144-.432C324.981,349.207,324.2,349.9,324.2,349.9Z" transform="translate(-278.981 -299.689)"/><path class="j" d="M310.723,350.313s.656.809,1.241.781,2.706,2.385,2.65,2.873.056,1.492.7,1.8.823,1.451.823,1.451,1.534.809,1.339,1.367,1.172,1.576,1.437,1.646-2.539,1.7-2.078,3.278-1.186,3.654-.725,4.38,2.022,5.747,1.409,6-15.064-.391-15.064-.391.5-6.639.056-7.867-.642-8.69-.976-9.764-2.078-5.914.139-6.835a5.857,5.857,0,0,1,4.952.07c.544.432,3.641,3.7,4.087,4.924s.809,1.214.809,1.214S309.733,352.279,310.723,350.313Z" transform="translate(-258.641 -299.889)"/><path class="f" d="M398.361,511.95s6.639-.042,6.96-.209,7.49-.781,9.6.7,3.1,4.7,3.1,4.7l.46,5.914,1.674,10.085s-2.859,4.2-4,2.915c-.4-.446-1.353-5.426-2.5-6.486s-1.883-9.485-1.827-10.015a2.724,2.724,0,0,0-1.813.042c-.767.391-12.261.335-12.33.321s-3.278-7.532-3.278-7.532Z" transform="translate(-339.389 -440.102)"/><path class="f" d="M547.1,665.925l1.492,1.869a10.965,10.965,0,0,0,2.65-2.706,5.323,5.323,0,0,1-.335-1.088Z" transform="translate(-470.79 -571.354)"/><path class="g" d="M397.033,513.05s6.625-.042,6.974-.209,7.49-.781,9.6.7,3.1,4.7,3.1,4.7l.46,5.914,1.674,10.085s-2.859,4.2-4,2.9c-.4-.446-1.353-5.426-2.5-6.486s-1.883-9.485-1.827-10.015a2.725,2.725,0,0,0-1.813.042c-.767.391-12.247.321-12.316.321s-3.278-7.546-3.278-7.546Z" transform="translate(-338.27 -441.048)"/><path class="f" d="M310.546,298.443c.67,0,1.339.153,2.009.139a5.669,5.669,0,0,0,3.836-2.162c.153-.167.307-.349.46-.516.265-.307.516-.628.753-.948a1.438,1.438,0,0,0,.418-.976,2.483,2.483,0,0,0-.265-.669,2.8,2.8,0,0,1,.265-2.427,3.822,3.822,0,0,1,.4-.642c.418-.6.921-1.172,1.3-1.813a3.527,3.527,0,0,0,.4-.976c.126-.516.126-1.074.223-1.59a3.68,3.68,0,0,1,1.869-2.483c.4-.209.948-.418,1.451-.683a5.057,5.057,0,0,0-8.02,6.012c-.028.028-.042.056-.07.084a22.3,22.3,0,0,1-1.52,1.744c-.879.907-1.646,1.6-1.646,1.6l.209.223a3.974,3.974,0,0,0-1.869,2.023A11.419,11.419,0,0,0,310.546,298.443Z" transform="translate(-267.182 -241.937)"/><path class="e" d="M285.594,472.4s-2.985.363-2.385,4.784l.418,6.1s.056,2.455,1.548,2.385-.823-8.843-.823-8.843-.377-3.11,1.478-3.585Z" transform="translate(-243.638 -406.479)"/><path class="e" d="M415.131,494.013h-1.018l-.153-10.266-.014-1.13s-1.074-3.543-2.873-3.78.6-.837.6-.837a5.055,5.055,0,0,1,3.459,4.617C415.186,486.188,415.131,494.013,415.131,494.013Z" transform="translate(-353.159 -411.298)"/><path class="h" d="M296.63,465.6l12.009.474s8.006,1.73,1.018,2.664l-14.213-.628C295.43,468.111,290.423,466.618,296.63,465.6Z" transform="translate(-252.582 -400.628)"/><path class="f" d="M436.653,520.3v8.8a1.094,1.094,0,0,1-.1.46h-.5L435.9,519.3A1.034,1.034,0,0,1,436.653,520.3Z" transform="translate(-375.1 -446.838)"/><path class="h" d="M303.63,511.6l17.142,1.1a1.066,1.066,0,0,1,.99,1.06v8.8a1.06,1.06,0,0,1-1.06,1.06h-.07L303.49,522.4a1.066,1.066,0,0,1-.99-1.06V512.66a1.06,1.06,0,0,1,1.06-1.06Z" transform="translate(-260.307 -440.212)"/><path class="e" d="M235.86,526.919l-.167,1.911-.8-.14-9.987-1.827-.363-.056-.084-.628-.893-.363.586.781.586.753,7.03,9.178.767.99-1.395,1.381-.683-.99-6.556-9.415-.335-.5-.67-1.632.223,2.622.935,11.438.1,1.227h-2.2V526.6l-1.7,1.981-5.747,6.709-.683.809-1.367-1.911.823-.739,6.277-5.565.642-.572-.349-1.813-1.074-.112-7.951-.739-.823-.084v-2.036l.893.153,8.16,1.395.391.07.753-.293-.544-.711-6.179-7.937-.669-.851,1.227-1.6.683.948,6.165,8.634.279.391.572.809v-1.353l.056-11.6V509.4l2.05.237-.112,1.1-1.074,11.577-.1,1.13.753.432.642-.753,6.835-8.09.572-.683,1.381,1.492-.767.739-7.476,7.239-.432.432.181,1.241.809.1L235,526.821Z" transform="translate(-180.71 -438.319)"/><path class="f" d="M235,526.821c0,.628-.042,1.255-.1,1.869l.8.14.153-1.911Zm-4.212-11.786a14.388,14.388,0,0,1,1.186,1.562l.767-.753-1.381-1.492Zm-.321,22.875.7.99,1.395-1.367-.767-.99a12.268,12.268,0,0,1-1.325,1.367Zm-8.508,2.315v1.437h2.218l-.1-1.227a10.716,10.716,0,0,1-2.12-.209Zm1.883-30.589L221.8,509.4v1.158a10.163,10.163,0,0,1,1.953.167Zm-11.019,4.715.669.851a14.112,14.112,0,0,1,1.227-1.506l-.683-.948Zm-.363,19.834,1.381,1.911.683-.795a18.491,18.491,0,0,1-1.241-1.841ZM210,522.525v2.036l.823.084a18.259,18.259,0,0,1,.056-1.953Z" transform="translate(-180.71 -438.319)"/><path class="g" d="M229.376,514.885c-1.827-9.485-9.429-15.985-16.989-14.534s-12.177,10.322-10.35,19.807,9.429,15.985,16.989,14.534S231.217,524.37,229.376,514.885ZM218.65,532.767c-6.7,1.3-13.446-4.477-15.078-12.9s2.5-16.292,9.192-17.589,13.446,4.477,15.078,12.9-2.483,16.306-9.192,17.589Z" transform="translate(-173.514 -430.358)"/><path class="f" d="M278.591,605l-.893-.363.6.781.572.753a3.37,3.37,0,0,1-.837,1.144l-.349-.488-.656-1.646.209,2.622a2.815,2.815,0,0,1-1.172.209v-2.594l-1.688,1.981a3.307,3.307,0,0,1-.7-.7l.642-.572-.349-1.813-1.074-.1a3.872,3.872,0,0,1,.279-1.311l.391.07.753-.293-.558-.711a2.788,2.788,0,0,1,1.227-.809l.293.4.572.809V601a2.95,2.95,0,0,1,.921.139l-.112,1.13.767.432.642-.753a3.751,3.751,0,0,1,.544.7l-.446.432.181,1.241.809.1a3.635,3.635,0,0,1-.139,1.283l-.363-.07Z" transform="translate(-234.836 -517.142)"/><ellipse class="g" cx="2.859" cy="3.222" rx="2.859" ry="3.222" transform="translate(37.784 84.742) rotate(-10.929)"/><path class="k" d="M420.732,436.911c0,.809-1.423,1.618-3.166,1.618s-3.166-.809-3.166-1.618,1.423-1.311,3.166-1.311S420.732,436.1,420.732,436.911Z" transform="translate(-356.599 -374.812)"/><path class="f" d="M420.732,436.911c0,.809-1.423,1.618-3.166,1.618s-3.166-.809-3.166-1.618,1.423-1.311,3.166-1.311S420.732,436.1,420.732,436.911Z" transform="translate(-356.599 -374.812)"/><ellipse class="k" cx="3.166" cy="1.465" rx="3.166" ry="1.465" transform="translate(57.787 60.634)"/><ellipse class="l" cx="1.897" cy="0.767" rx="1.897" ry="0.767" transform="translate(59.07 61.387)"/><path class="g" d="M448.063,428.57c-.07-.4-.586-.656-1.269-.669a3.265,3.265,0,0,0-.53.042c-.907.139-1.59.67-1.506,1.172.07.391.586.656,1.241.669a2.511,2.511,0,0,0,.558-.042C447.477,429.588,448.147,429.072,448.063,428.57Zm-1.548.921a2.082,2.082,0,0,1-.293.028c-.53.014-.948-.181-1-.488-.056-.363.432-.739,1.088-.837a2.629,2.629,0,0,1,.474-.028c.446.028.781.209.823.474C447.645,429,447.17,429.379,446.515,429.49Z" transform="translate(-382.716 -368.186)"/><path class="g" d="M429.585,440.456a.308.308,0,0,1-.084.209,1.875,1.875,0,0,1-1.409.446,2.1,2.1,0,0,1-1.367-.391.471.471,0,0,1-.126-.265c0-.363.67-.656,1.492-.656S429.585,440.079,429.585,440.456Z" transform="translate(-367.098 -378.427)"/><path class="f" d="M429.5,440.456a.307.307,0,0,1-.084.209,2.826,2.826,0,0,1-1.269.293h-.363a3.015,3.015,0,0,1-1.158-.237.471.471,0,0,1-.126-.265c0-.363.669-.656,1.492-.656S429.5,440.079,429.5,440.456Z" transform="translate(-367.012 -378.427)"/><path class="f" d="M446.808,427.868a1.71,1.71,0,0,1-.028.265,1.808,1.808,0,0,0-.474.028c-.656.112-1.144.488-1.088.837.056.307.474.5,1,.488a2.04,2.04,0,0,1-.223.265c-.67-.014-1.186-.279-1.241-.669-.084-.5.6-1.018,1.506-1.172A1.794,1.794,0,0,1,446.808,427.868Z" transform="translate(-382.716 -368.154)"/><path class="g" d="M415.1,424.1v.4a2.869,2.869,0,0,0,2.873,2.873h.363a2.869,2.869,0,0,0,2.873-2.873v-.4Z" transform="translate(-357.202 -364.917)"/><ellipse class="g" cx="3.069" cy="0.879" rx="3.069" ry="0.879" transform="translate(57.884 58.221)"/><ellipse class="f" cx="2.915" cy="0.795" rx="2.915" ry="0.795" transform="translate(58.038 58.249)"/><ellipse class="m" cx="2.845" cy="0.795" rx="2.845" ry="0.795" transform="translate(58.121 58.221)"/><path class="n" d="M421.684,423.367a.084.084,0,1,1,.084-.084h0A.09.09,0,0,1,421.684,423.367Zm0-.139a.056.056,0,1,0,.056.056A.06.06,0,0,0,421.684,423.228Z" transform="translate(-362.795 -364.142)"/><path class="n" d="M422.384,422.167a.084.084,0,1,1,.084-.084h0C422.453,422.126,422.426,422.167,422.384,422.167Zm0-.139a.056.056,0,1,0,.056.056.109.109,0,0,0-.056-.056Z" transform="translate(-363.397 -363.109)"/><path class="n" d="M421.684,420.267a.084.084,0,1,1,.084-.084h0A.08.08,0,0,1,421.684,420.267Zm0-.126c-.028,0-.042.028-.042.056a.037.037,0,0,0,.042.042c.028,0,.056-.014.056-.042s-.014-.056-.042-.056Z" transform="translate(-362.795 -361.474)"/><path class="n" d="M425.884,424.567a.084.084,0,1,1,.084-.084h0a.09.09,0,0,1-.084.084Zm0-.126a.056.056,0,1,0,.056.056A.051.051,0,0,0,425.884,424.442Z" transform="translate(-366.409 -365.175)"/><path class="n" d="M442.784,423.467a.09.09,0,0,1-.084-.084.08.08,0,0,1,.084-.084.084.084,0,0,1,0,.167Zm0-.139a.06.06,0,0,0-.056.056c0,.028.028.042.056.042a.037.037,0,0,0,.042-.042C442.839,423.356,442.826,423.328,442.784,423.328Z" transform="translate(-380.952 -364.228)"/><path class="n" d="M446.584,424.967a.09.09,0,0,1-.084-.084h0a.084.084,0,1,1,.167,0h0c0,.042-.042.07-.084.084Zm0-.139a.056.056,0,1,0,.056.056.06.06,0,0,0-.056-.056Z" transform="translate(-384.222 -365.519)"/><path class="n" d="M446.684,422.467a.09.09,0,0,1-.084-.084h0a.084.084,0,1,1,.167,0,.074.074,0,0,1-.084.084Zm0-.126a.056.056,0,1,0,.056.056A.06.06,0,0,0,446.684,422.342Z" transform="translate(-384.308 -363.368)"/><path class="n" d="M448.484,418.667a.084.084,0,1,1,.084-.084h0a.09.09,0,0,1-.084.084Zm0-.139a.056.056,0,1,0,.056.056A.06.06,0,0,0,448.484,418.528Z" transform="translate(-385.857 -360.098)"/><path class="n" d="M447.67,423.967c-.042,0-.07-.042-.07-.1a.066.066,0,0,1,.07-.07c.042,0,.07.042.07.1C447.739,423.926,447.712,423.953,447.67,423.967Zm0-.139a.056.056,0,1,0,.056.056A.06.06,0,0,0,447.67,423.828Z" transform="translate(-385.168 -364.658)"/><path class="n" d="M449.684,422.767a.09.09,0,0,1-.084-.084h0a.084.084,0,1,1,.084.084Zm0-.126a.056.056,0,1,0,0,.112.045.045,0,0,0,.042-.042A.049.049,0,0,0,449.684,422.642Z" transform="translate(-386.89 -363.626)"/><path class="n" d="M449.484,424.167a.08.08,0,0,1-.084-.084.084.084,0,0,1,.167,0h0A.09.09,0,0,1,449.484,424.167Zm0-.139a.056.056,0,1,0,.056.056h0a.06.06,0,0,0-.056-.056Z" transform="translate(-386.717 -364.83)"/><path class="n" d="M448.884,420.667a.084.084,0,1,1,.084-.084.09.09,0,0,1-.084.084Zm0-.126c-.028,0-.056.028-.042.056s.028.056.056.042.042-.028.056-.056c-.028-.028-.042-.042-.07-.042Z" transform="translate(-386.201 -361.819)"/><path class="n" d="M451.984,420.053a.078.078,0,0,1-.084-.07h0a.09.09,0,0,1,.084-.084h0a.09.09,0,0,1,.084.084.078.078,0,0,1-.084.07Zm0-.139a.056.056,0,1,0,.056.056A.06.06,0,0,0,451.984,419.914Z" transform="translate(-388.869 -361.302)"/><path class="n" d="M442.784,418.653a.08.08,0,0,1-.084-.084h0c0-.042.042-.07.1-.07a.066.066,0,0,1,.07.07.08.08,0,0,1-.084.084Zm0-.126a.062.062,0,0,0-.056.042h0c0,.028.014.056.042.056s.056-.014.056-.042v-.014c.014-.028-.014-.042-.042-.042Z" transform="translate(-380.952 -360.098)"/><path class="n" d="M440.77,417.667c-.042,0-.07-.042-.07-.1a.066.066,0,0,1,.07-.07c.042,0,.07.042.07.1A.168.168,0,0,1,440.77,417.667Zm0-.139c-.028,0-.042.028-.042.056a.037.037,0,0,0,.042.042c.028,0,.056-.014.056-.042s-.014-.056-.042-.056Z" transform="translate(-379.231 -359.237)"/><path class="n" d="M435.884,417.967a.09.09,0,0,1-.084-.084h0a.078.078,0,0,1,.07-.084h0a.09.09,0,0,1,.084.084h0C435.953,417.939,435.926,417.967,435.884,417.967Zm0-.126a.056.056,0,1,0,.056.056C435.926,417.856,435.912,417.842,435.884,417.842Z" transform="translate(-375.014 -359.495)"/><path class="n" d="M439.984,423.667a.09.09,0,0,1-.084-.084.08.08,0,0,1,.084-.084.084.084,0,0,1,0,.167Zm0-.139a.056.056,0,1,0,.056.056A.051.051,0,0,0,439.984,423.528Z" transform="translate(-378.543 -364.4)"/><path class="n" d="M424.384,424.353a.08.08,0,0,1-.084-.084h0c0-.042.042-.07.1-.07a.066.066,0,0,1,.07.07.08.08,0,0,1-.084.084Zm0-.14a.062.062,0,0,0-.056.042h0c0,.028.014.056.042.056s.056-.014.056-.042v-.014c.014-.014,0-.042-.042-.042Z" transform="translate(-365.118 -365.003)"/><path class="n" d="M426.884,422.867a.084.084,0,1,1,.084-.084h0C426.953,422.826,426.926,422.867,426.884,422.867Zm0-.126c-.028,0-.056.014-.056.042s.014.056.042.056h.014c.028,0,.042-.028.042-.056S426.9,422.742,426.884,422.742Z" transform="translate(-367.27 -363.712)"/><path class="n" d="M428.884,423.653a.08.08,0,0,1-.084-.084h0c0-.042.042-.07.1-.07a.066.066,0,0,1,.07.07.09.09,0,0,1-.084.084Zm0-.139a.062.062,0,0,0-.056.042h0c0,.028.014.056.042.056s.056-.014.056-.042v-.014c.014-.014-.014-.042-.042-.042Z" transform="translate(-368.991 -364.4)"/><path class="n" d="M429.284,422.067a.084.084,0,1,1,.084-.084.08.08,0,0,1-.084.084Zm0-.126a.056.056,0,1,0,.056.056h0c-.014-.028-.028-.056-.056-.056Z" transform="translate(-369.335 -363.023)"/><path class="n" d="M429.37,420.867c-.042,0-.07-.042-.07-.1a.066.066,0,0,1,.07-.07c.042,0,.07.042.07.1C429.439,420.826,429.4,420.853,429.37,420.867Zm0-.139c-.028,0-.042.028-.042.056a.037.037,0,0,0,.042.042c.028,0,.056-.014.056-.042s-.014-.056-.042-.056Z" transform="translate(-369.421 -361.991)"/><path class="n" d="M429.884,425.367a.084.084,0,1,1,.084-.084h0Q429.946,425.367,429.884,425.367Zm0-.126c-.028,0-.042.028-.042.056a.037.037,0,0,0,.042.042c.028,0,.056-.014.056-.042s-.014-.056-.042-.056Z" transform="translate(-369.851 -365.863)"/><path class="n" d="M435.584,425.467a.084.084,0,1,1,.084-.084h0C435.653,425.439,435.626,425.481,435.584,425.467Zm0-.126a.06.06,0,0,0-.056.056c0,.028.028.042.056.042a.037.037,0,0,0,.042-.042c0-.028-.014-.056-.042-.056Z" transform="translate(-374.756 -365.949)"/><path class="n" d="M434.884,424.167a.08.08,0,0,1-.084-.084.084.084,0,1,1,.167,0h0C434.953,424.126,434.926,424.167,434.884,424.167Zm0-.139c-.028,0-.056.014-.056.042s.014.056.042.056h.014c.028,0,.042-.028.042-.056S434.9,424.028,434.884,424.028Z" transform="translate(-374.154 -364.83)"/><path class="n" d="M431.984,423.467a.084.084,0,1,1,0-.167h0a.078.078,0,0,1,.084.07h0c-.014.056-.042.1-.084.1Zm0-.139a.056.056,0,1,0,.056.056C432.026,423.356,432.012,423.328,431.984,423.328Z" transform="translate(-371.658 -364.228)"/><path class="n" d="M438.084,421.267a.084.084,0,1,1,.084-.084h0C438.167,421.225,438.126,421.253,438.084,421.267Zm0-.139c-.028,0-.056.014-.056.042s.014.056.042.056h.014c.028,0,.042-.028.042-.056A.045.045,0,0,0,438.084,421.128Z" transform="translate(-376.908 -362.335)"/><path class="n" d="M435.484,422.767a.09.09,0,0,1-.084-.084h0a.084.084,0,1,1,.084.084Zm0-.126a.06.06,0,0,0-.056.056c0,.028.014.056.042.056s.056-.014.056-.042V422.7c.014-.042-.014-.056-.042-.056Z" transform="translate(-374.67 -363.626)"/><path class="n" d="M438.484,419.567a.08.08,0,0,1-.084-.084.084.084,0,0,1,.167,0h0a.08.08,0,0,1-.084.084Zm0-.139a.056.056,0,1,0,.056.056.06.06,0,0,0-.056-.056Z" transform="translate(-377.252 -360.872)"/><path class="n" d="M438.284,417.967a.09.09,0,0,1-.084-.084.08.08,0,0,1,.084-.084.084.084,0,0,1,0,.167Zm0-.126a.06.06,0,0,0-.056.056c0,.028.028.042.056.042a.037.037,0,0,0,.042-.042C438.339,417.856,438.312,417.842,438.284,417.842Z" transform="translate(-377.08 -359.495)"/><path class="n" d="M437.17,419.567c-.042,0-.07-.042-.07-.1a.066.066,0,0,1,.07-.07c.042,0,.07.042.07.1A.066.066,0,0,1,437.17,419.567Zm0-.126a.056.056,0,1,0,.056.056.051.051,0,0,0-.056-.056Z" transform="translate(-376.133 -360.872)"/><path class="n" d="M434.184,422.267a.084.084,0,1,1,.084-.084h0A.08.08,0,0,1,434.184,422.267Zm0-.126c-.028,0-.042.028-.042.056a.037.037,0,0,0,.042.042c.028,0,.056-.014.056-.042s-.014-.056-.042-.056Z" transform="translate(-373.552 -363.195)"/><path class="n" d="M431.984,421.867a.084.084,0,1,1,.084-.084h0c-.014.042-.042.084-.084.084Zm0-.139c-.028,0-.042.028-.042.056a.037.037,0,0,0,.042.042c.028,0,.056-.014.056-.042s-.014-.056-.042-.056Z" transform="translate(-371.658 -362.851)"/><path class="n" d="M434.884,419.267a.09.09,0,0,1-.084-.084.08.08,0,0,1,.084-.084.074.074,0,0,1,.084.084c0,.056-.042.07-.084.084Zm0-.139a.056.056,0,1,0,.056.056.06.06,0,0,0-.056-.056Z" transform="translate(-374.154 -360.614)"/><path class="n" d="M430.756,420.112a.056.056,0,1,1,.056-.056A.06.06,0,0,1,430.756,420.112Zm0-.084a.028.028,0,1,0,.028.028c0-.014,0-.028-.028-.028Z" transform="translate(-370.626 -361.388)"/><path class="n" d="M431.956,420.812a.056.056,0,1,1,.056-.056h0C432,420.784,431.97,420.812,431.956,420.812Zm0-.084a.028.028,0,1,0,.028.028.03.03,0,0,0-.028-.028Z" transform="translate(-371.658 -361.991)"/><path class="n" d="M437.356,417.912a.056.056,0,1,1,.056-.056.06.06,0,0,1-.056.056Zm0-.084a.028.028,0,1,0,.028.028h0a.03.03,0,0,0-.028-.028Z" transform="translate(-376.305 -359.495)"/><path class="n" d="M438.156,424.012a.056.056,0,1,1,.056-.056C438.2,423.984,438.184,424.012,438.156,424.012Zm0-.084a.028.028,0,1,0,.028.028.03.03,0,0,0-.028-.028Z" transform="translate(-376.994 -364.744)"/><path class="n" d="M439.056,424.5a.06.06,0,0,1-.056-.056c0-.028.028-.042.056-.042a.037.037,0,0,1,.042.042c.014.042-.014.056-.042.056Zm0-.084a.028.028,0,1,0,.028.028c.014-.014-.014-.028-.028-.028Z" transform="translate(-377.768 -365.175)"/><path class="n" d="M437.956,423.012a.056.056,0,1,1,.056-.056C438,422.984,437.984,423.012,437.956,423.012Zm0-.084a.028.028,0,1,0,.028.028.03.03,0,0,0-.028-.028Z" transform="translate(-376.822 -363.884)"/><path class="n" d="M445.142,419.7c-.028,0-.042-.028-.042-.056a.037.037,0,0,1,.042-.042c.028,0,.056.014.056.042s-.014.056-.042.056Zm0-.1c-.014,0-.028.028-.028.042a.03.03,0,0,0,.028.028c.014,0,.042-.014.042-.028s-.014-.028-.042-.042Z" transform="translate(-383.017 -361.044)"/><path class="n" d="M445.456,420.7a.062.062,0,0,1-.056-.042h0c0-.028.014-.056.042-.056s.056.014.056.042v.014c.014.014-.014.042-.042.042Zm0-.084a.03.03,0,0,0-.028.028h0c0,.014.028.028.042.028a.03.03,0,0,0,.028-.028c0-.014-.014-.042-.042-.028Z" transform="translate(-383.275 -361.905)"/><path class="n" d="M445.156,421.412a.056.056,0,1,1,.056-.056C445.2,421.384,445.184,421.412,445.156,421.412Zm0-.084a.028.028,0,1,0,.028.028.03.03,0,0,0-.028-.028Z" transform="translate(-383.017 -362.507)"/><path class="n" d="M444.156,424.012a.056.056,0,1,1,.056-.056A.051.051,0,0,1,444.156,424.012Zm0-.084c-.014,0-.042.014-.042.028s.014.042.028.042h.014c.014,0,.028-.028.028-.042S444.17,423.942,444.156,423.928Z" transform="translate(-382.157 -364.744)"/><path class="n" d="M449.956,421.612a.056.056,0,1,1,.056-.056A.06.06,0,0,1,449.956,421.612Zm0-.084a.03.03,0,0,0-.028.028h0a.028.028,0,1,0,.028-.028Z" transform="translate(-387.148 -362.679)"/><path class="n" d="M441.356,423.812a.056.056,0,1,1,.056-.056A.06.06,0,0,1,441.356,423.812Zm0-.084a.028.028,0,1,0,.028.028c.014-.014,0-.028-.028-.028Z" transform="translate(-379.747 -364.572)"/><path class="n" d="M444.456,422.312a.056.056,0,1,1,.056-.056C444.5,422.284,444.484,422.312,444.456,422.312Zm0-.084a.03.03,0,0,0-.028.028h0a.028.028,0,0,0,.056,0h0A.03.03,0,0,0,444.456,422.228Z" transform="translate(-382.415 -363.281)"/><path class="n" d="M443.156,424.812a.056.056,0,1,1,.056-.056A.051.051,0,0,1,443.156,424.812Zm0-.084a.028.028,0,1,0,.028.028h0C443.2,424.742,443.184,424.728,443.156,424.728Z" transform="translate(-381.296 -365.433)"/><path class="n" d="M451.156,422.212a.056.056,0,0,1,0-.112h0a.06.06,0,0,1,.056.056A.051.051,0,0,1,451.156,422.212Zm0-.07a.028.028,0,1,0,.028.028c0-.014,0-.028-.028-.028Z" transform="translate(-388.18 -363.195)"/><path class="n" d="M446.556,418.312a.056.056,0,1,1,.056-.056h0c-.014.042-.028.056-.056.056Zm0-.084a.028.028,0,1,0,.028.028h0a.03.03,0,0,0-.028-.028Z" transform="translate(-384.222 -359.839)"/><path class="n" d="M434.156,417.912a.056.056,0,1,1,.056-.056A.06.06,0,0,1,434.156,417.912Zm0-.084c-.014,0-.042.014-.042.028s.014.042.028.042h.014c.014,0,.028-.028.028-.042A.03.03,0,0,0,434.156,417.828Z" transform="translate(-373.552 -359.495)"/><path class="n" d="M423.856,421a.06.06,0,0,1-.056-.056c0-.028.028-.042.056-.042a.037.037,0,0,1,.042.042C423.9,420.984,423.884,421,423.856,421Zm0-.084a.028.028,0,1,0,.028.028.03.03,0,0,0-.028-.028Z" transform="translate(-364.688 -362.163)"/><path class="n" d="M432.856,418.312a.056.056,0,1,1,.056-.056A.051.051,0,0,1,432.856,418.312Zm0-.084a.028.028,0,1,0,.028.028h0c.014-.014,0-.028-.028-.028Z" transform="translate(-372.433 -359.839)"/><path class="n" d="M424.756,422.612a.056.056,0,1,1,.056-.056A.051.051,0,0,1,424.756,422.612Zm0-.084a.028.028,0,1,0,.028.028.03.03,0,0,0-.028-.028Z" transform="translate(-365.463 -363.54)"/><path class="n" d="M426.056,420.412a.056.056,0,1,1,.056-.056h0A.051.051,0,0,1,426.056,420.412Zm0-.084a.028.028,0,1,0,.028.028h0c.014-.014,0-.028-.028-.028Z" transform="translate(-366.581 -361.647)"/><path class="n" d="M419.542,422c-.028,0-.042-.028-.042-.056a.037.037,0,0,1,.042-.042c.028,0,.056.014.056.042s-.014.056-.042.056Zm0-.084a.028.028,0,1,0,.028.028h0c.014,0,0-.028-.028-.028Z" transform="translate(-360.988 -363.023)"/><path class="n" d="M428.656,425.112a.056.056,0,0,1,0-.112h0a.06.06,0,0,1,.056.056A.051.051,0,0,1,428.656,425.112Zm0-.07a.028.028,0,1,0,.028.028c0-.014,0-.028-.028-.028Z" transform="translate(-368.819 -365.691)"/><path class="n" d="M431.356,425.312a.056.056,0,1,1,.056-.056C431.4,425.284,431.384,425.312,431.356,425.312Zm0-.084a.03.03,0,0,0-.028.028h0a.03.03,0,0,0,.028.028h0a.03.03,0,0,0,.028-.028h0A.03.03,0,0,0,431.356,425.228Z" transform="translate(-371.142 -365.863)"/><circle class="n" cx="0.042" cy="0.042" r="0.042" transform="translate(58.679 59.086)"/><circle class="n" cx="0.042" cy="0.042" r="0.042" transform="translate(58.972 58.528)"/><circle class="n" cx="0.042" cy="0.042" r="0.042" transform="translate(59.377 58.779)"/><circle class="n" cx="0.042" cy="0.042" r="0.042" transform="translate(59.112 58.416)"/><circle class="n" cx="0.042" cy="0.042" r="0.042" transform="translate(60.576 58.681)"/><circle class="n" cx="0.042" cy="0.042" r="0.042" transform="translate(59.307 58.626)"/><circle class="n" cx="0.042" cy="0.042" r="0.042" transform="translate(59.154 58.612)"/><circle class="n" cx="0.042" cy="0.042" r="0.042" transform="translate(59.447 58.919)"/><circle class="n" cx="0.042" cy="0.042" r="0.042" transform="translate(61.664 58.681)"/><circle class="n" cx="0.042" cy="0.042" r="0.042" transform="translate(62.264 58.793)"/><circle class="n" cx="0.042" cy="0.042" r="0.042" transform="translate(62.097 59.295)"/><circle class="n" cx="0.042" cy="0.042" r="0.042" transform="translate(62.32 59.128)"/><circle class="n" cx="0.042" cy="0.042" r="0.042" transform="translate(61.65 59.337)"/><circle class="n" cx="0.042" cy="0.042" r="0.042" transform="translate(61.511 58.667)"/><circle class="n" cx="0.042" cy="0.042" r="0.042" transform="translate(61.009 59.253)"/><circle class="n" cx="0.042" cy="0.042" r="0.042" transform="translate(61.901 58.807)"/><circle class="n" cx="0.042" cy="0.042" r="0.042" transform="translate(61.469 59.379)"/><circle class="n" cx="0.042" cy="0.042" r="0.042" transform="translate(59.684 59.295)"/><circle class="n" cx="0.042" cy="0.042" r="0.042" transform="translate(62.139 58.946)"/><circle class="n" cx="0.042" cy="0.042" r="0.042" transform="translate(63.073 58.877)"/><circle class="n" cx="0.028" cy="0.028" r="0.028" transform="translate(62.822 58.654)"/><circle class="n" cx="0.028" cy="0.028" r="0.028" transform="translate(61.888 58.584)"/><circle class="n" cx="0.028" cy="0.028" r="0.028" transform="translate(60.102 58.96)"/><circle class="n" cx="0.028" cy="0.028" r="0.028" transform="translate(62.557 58.877)"/><circle class="n" cx="0.028" cy="0.028" r="0.028" transform="translate(61.692 58.542)"/><circle class="n" cx="0.028" cy="0.028" r="0.028" transform="translate(62.431 58.681)"/><circle class="n" cx="0.028" cy="0.028" r="0.028" transform="translate(61.985 58.388)"/><circle class="n" cx="0.028" cy="0.028" r="0.028" transform="translate(61.664 58.333)"/><circle class="n" cx="0.028" cy="0.028" r="0.028" transform="translate(60.214 58.472)"/><circle class="n" cx="0.028" cy="0.028" r="0.028" transform="translate(60.535 58.514)"/><circle class="n" cx="0.028" cy="0.028" r="0.028" transform="translate(59.726 58.807)"/><circle class="n" cx="0.028" cy="0.028" r="0.028" transform="translate(61.357 58.821)"/><circle class="n" cx="0.028" cy="0.028" r="0.028" transform="translate(61.539 58.863)"/><circle class="n" cx="0.028" cy="0.028" r="0.028" transform="translate(60.465 58.919)"/><circle class="n" cx="0.028" cy="0.028" r="0.028" transform="translate(60.939 58.974)"/><circle class="n" cx="0.028" cy="0.028" r="0.028" transform="translate(60.437 58.598)"/><circle class="n" cx="0.028" cy="0.028" r="0.028" transform="translate(61.511 58.974)"/><circle class="n" cx="0.028" cy="0.028" r="0.028" transform="translate(61.344 59.002)"/><circle class="n" cx="0.028" cy="0.028" r="0.028" transform="translate(58.861 58.542)"/><circle class="n" cx="0.028" cy="0.028" r="0.028" transform="translate(59.851 58.654)"/><circle class="n" cx="0.028" cy="0.028" r="0.028" transform="translate(59.502 58.43)"/><circle class="n" cx="0.028" cy="0.028" r="0.028" transform="translate(59.377 58.96)"/><circle class="n" cx="0.028" cy="0.028" r="0.028" transform="translate(59.53 58.612)"/><circle class="n" cx="0.028" cy="0.028" r="0.028" transform="translate(58.596 58.737)"/><circle class="n" cx="0.028" cy="0.028" r="0.028" transform="translate(62.641 58.612)"/><circle class="n" cx="0.042" cy="0.042" r="0.042" transform="translate(62.962 58.542)"/><circle class="n" cx="0.042" cy="0.042" r="0.042" transform="translate(63.24 58.974)"/><circle class="n" cx="0.042" cy="0.042" r="0.042" transform="translate(63.031 58.751)"/><circle class="n" cx="0.042" cy="0.042" r="0.042" transform="translate(63.129 59.03)"/><circle class="n" cx="0.042" cy="0.042" r="0.042" transform="translate(63.24 58.821)"/><circle class="n" cx="0.042" cy="0.042" r="0.042" transform="translate(62.92 58.779)"/><circle class="n" cx="0.042" cy="0.042" r="0.042" transform="translate(63.366 58.779)"/><circle class="n" cx="0.042" cy="0.042" r="0.042" transform="translate(59.614 58.695)"/><circle class="n" cx="0.042" cy="0.042" r="0.042" transform="translate(60.186 58.305)"/><circle class="n" cx="0.042" cy="0.042" r="0.042" transform="translate(60.869 59.142)"/><circle class="n" cx="0.042" cy="0.042" r="0.042" transform="translate(60.004 58.305)"/><circle class="n" cx="0.042" cy="0.042" r="0.042" transform="translate(59.753 58.333)"/><circle class="n" cx="0.042" cy="0.042" r="0.042" transform="translate(60.827 58.556)"/><circle class="n" cx="0.042" cy="0.042" r="0.042" transform="translate(58.693 58.835)"/><circle class="n" cx="0.042" cy="0.042" r="0.042" transform="translate(59.042 59.197)"/><circle class="n" cx="0.042" cy="0.042" r="0.042" transform="translate(60.381 59.365)"/><circle class="n" cx="0.042" cy="0.042" r="0.042" transform="translate(60.074 59.197)"/><circle class="n" cx="0.042" cy="0.042" r="0.042" transform="translate(61.009 59.407)"/><path class="f" d="M423.587,418.7s-1.59.07-.837.586,2.9.223,2.9.223,1.186-.293.418-.656a3.672,3.672,0,0,0-1.925-.126s-1.325.237-.307.46c0,0,1.227.112,1.283-.139s-.683-.07-.683-.07.391.084.126.126-.572-.028-.572-.112.4-.139.516-.126.725-.1.962.181a.093.093,0,0,1-.014.139c-.014.014-.014.014-.028.014a3.128,3.128,0,0,1-1.66.126C422.583,419.149,423.587,418.7,423.587,418.7Z" transform="translate(-363.611 -360.23)"/><path class="i" d="M402.409,452.6s3.166,1.758,4.756,2.776,4.352,3.836,1.7,3.975-6.667-4.9-6.667-4.9Z" transform="translate(-346.101 -389.441)"/><path class="f" d="M318.462,373.659s-.335,2.134.335,2.288.781,1.8.558,1.827,1.227,1.172.893,1.73.279,1.158.851,1.269a2.356,2.356,0,0,1,1.562.948,5.852,5.852,0,0,0,2.664,1.52c.614.07.4,2.441-.293,2.622s-2.929-1.325-3.682-.418-3.041,2.762-4.1,2.246-2.859-2.176-3.71-2.315-1.841-9.68-1.088-11.131S314.654,370.478,318.462,373.659Z" transform="translate(-268.64 -320.138)"/><path class="j" d="M310.543,376.125c.181,3.18.767,6.988,1.3,7.086.837.139,2.636,1.785,3.71,2.315s3.348-1.339,4.1-2.246,2.985.6,3.682.418.921-2.553.293-2.622a5.71,5.71,0,0,1-2.664-1.52,2.323,2.323,0,0,0-1.562-.948c-.572-.112-1.186-.725-.851-1.269s-1.116-1.7-.893-1.73c.084-.014.126-.265.1-.586-.056-.488-.251-1.144-.656-1.241a.415.415,0,0,1-.251-.209,4.917,4.917,0,0,1-.084-2.078c-1.911-1.59-3.222-1.8-4.157-1.437a3.974,3.974,0,0,0-1.869,2.023A11.789,11.789,0,0,0,310.543,376.125Z" transform="translate(-267.179 -318.28)"/><path class="h" d="M260.838,256.819c.279-.586-.279-1.241-.893-1.465s-1.3-.181-1.883-.446c-1-.46-1.479-1.674-2.455-2.176a3.809,3.809,0,0,0-2.525-.112c-1.241.265-2.664.879-2.859,2.134a7.654,7.654,0,0,1-.1,1.7c-.516,1.367-2.887.893-3.682,2.134a2.636,2.636,0,0,0-.321,1.018l-.823,4.645a3.578,3.578,0,0,1-2.943,3.375,4.41,4.41,0,0,1-1.967.446,1.833,1.833,0,0,0-.99.014,1.236,1.236,0,0,0-.544.809,8.346,8.346,0,0,0-.181,4.1,3.322,3.322,0,0,1,.112,1.646,3.564,3.564,0,0,1-.837,1.158,6.854,6.854,0,0,0-1.506,2.692,2.234,2.234,0,0,0,.279,2.2,2.667,2.667,0,0,0,2.176.418,3.659,3.659,0,0,0,2.232-.767,4.1,4.1,0,0,0,.7-1.1l1.158-2.469c.614-1.311,1.395-2.762,2.79-3.083a13.7,13.7,0,0,1,2.72.056c2.148-.084,3.738-1.925,5.063-3.627a1.438,1.438,0,0,0,.418-.976,2.482,2.482,0,0,0-.265-.669,3.2,3.2,0,0,1,.67-3.069,8.785,8.785,0,0,0,1.7-2.79c.126-.516.126-1.074.223-1.6a3.68,3.68,0,0,1,1.869-2.483C259.01,258.117,260.405,257.712,260.838,256.819Z" transform="translate(-203.33 -217.219)"/><path class="o" d="M260.838,256.819c.279-.586-.279-1.241-.893-1.465s-1.3-.181-1.883-.446c-1-.46-1.479-1.674-2.455-2.176a3.809,3.809,0,0,0-2.525-.112c-1.241.265-2.664.879-2.859,2.134a7.654,7.654,0,0,1-.1,1.7c-.516,1.367-2.887.893-3.682,2.134a2.636,2.636,0,0,0-.321,1.018l-.823,4.645a3.578,3.578,0,0,1-2.943,3.375,4.41,4.41,0,0,1-1.967.446,1.833,1.833,0,0,0-.99.014,1.236,1.236,0,0,0-.544.809,8.346,8.346,0,0,0-.181,4.1,3.322,3.322,0,0,1,.112,1.646,3.564,3.564,0,0,1-.837,1.158,6.854,6.854,0,0,0-1.506,2.692,2.234,2.234,0,0,0,.279,2.2,2.667,2.667,0,0,0,2.176.418,3.659,3.659,0,0,0,2.232-.767,4.1,4.1,0,0,0,.7-1.1l1.158-2.469c.614-1.311,1.395-2.762,2.79-3.083a13.7,13.7,0,0,1,2.72.056c2.148-.084,3.738-1.925,5.063-3.627a1.438,1.438,0,0,0,.418-.976,2.482,2.482,0,0,0-.265-.669,3.2,3.2,0,0,1,.67-3.069,8.785,8.785,0,0,0,1.7-2.79c.126-.516.126-1.074.223-1.6a3.68,3.68,0,0,1,1.869-2.483C259.01,258.117,260.405,257.712,260.838,256.819Z" transform="translate(-203.33 -217.219)"/><g class="p" transform="translate(34.34 35.262)"><path d="M262.365,364.128c-.084-.014-.167-.014-.265-.028a2.906,2.906,0,0,1,.321.042Z" transform="translate(-259.882 -348.548)"/><path d="M247.2,281.208a3.574,3.574,0,0,0,2.232-.767,3.786,3.786,0,0,0,.7-1.1c.391-.823.767-1.646,1.158-2.469.614-1.3,1.395-2.748,2.79-3.083a14.825,14.825,0,0,1,2.72.056c2.148-.084,3.738-1.925,5.063-3.627a1.437,1.437,0,0,0,.418-.976,2.232,2.232,0,0,0-.265-.656,3.2,3.2,0,0,1,.67-3.069,8.786,8.786,0,0,0,1.7-2.79c.126-.516.126-1.074.223-1.6a3.68,3.68,0,0,1,1.869-2.483c.809-.432,2.2-.823,2.636-1.73.279-.586-.279-1.241-.893-1.465s-1.3-.181-1.883-.446c-1-.46-1.479-1.674-2.455-2.176a2.117,2.117,0,0,0-.711-.223,2.314,2.314,0,0,1,.976.265c.976.5,1.451,1.73,2.455,2.176.586.265,1.269.237,1.883.446s1.172.879.893,1.465c-.432.893-1.827,1.283-2.636,1.73a3.62,3.62,0,0,0-1.869,2.483c-.112.53-.1,1.074-.223,1.6a9.043,9.043,0,0,1-1.7,2.79,3.263,3.263,0,0,0-.67,3.069,1.978,1.978,0,0,1,.265.67,1.438,1.438,0,0,1-.418.976c-1.311,1.7-2.915,3.543-5.063,3.627a13.665,13.665,0,0,0-2.72-.056c-1.395.335-2.176,1.785-2.79,3.083-.391.823-.767,1.646-1.158,2.469a3.573,3.573,0,0,1-.683,1.1,3.75,3.75,0,0,1-2.232.767,4.935,4.935,0,0,1-1.283.014C246.535,281.264,246.87,281.25,247.2,281.208Z" transform="translate(-246.2 -252.6)"/></g><path class="f" d="M384.5,392.1s1.995,2.72,1.883,3.947a5.762,5.762,0,0,0,.237,2.232" transform="translate(-330.87 -337.38)"/><path class="f" d="M405,412.1s.823,3.459,1.1,3.459S405,412.1,405,412.1Z" transform="translate(-348.51 -354.59)"/><path class="n" d="M626.47,444.239a.066.066,0,0,1-.07-.07h0a.07.07,0,1,1,.07.07Zm0-.126c-.028,0-.042.028-.042.056s.014.042.042.056h0c.028,0,.042-.028.042-.056S626.5,444.114,626.47,444.114Z" transform="translate(-539.029 -382.127)"/><path class="n" d="M628.47,443.139a.07.07,0,0,1,0-.139h0a.07.07,0,1,1,0,.139Zm0-.126c-.028,0-.042.028-.042.056a.06.06,0,0,0,.056.056c.028,0,.042-.028.042-.056a.06.06,0,0,0-.056-.056Z" transform="translate(-540.75 -381.18)"/><path class="n" d="M628.184,444.353a.077.077,0,1,1,.07-.084h0A.088.088,0,0,1,628.184,444.353Zm0-.139c-.028,0-.042.028-.042.056s.014.042.042.056h0c.028,0,.042-.028.042-.056s-.014-.042-.042-.056Z" transform="translate(-540.492 -382.213)"/><path class="n" d="M628.742,441.812c-.028,0-.042-.028-.042-.056a.044.044,0,1,1,.084,0c0,.028-.014.056-.042.056Zm0-.084a.028.028,0,1,0,.028.028.03.03,0,0,0-.028-.028Z" transform="translate(-541.008 -380.062)"/><path class="n" d="M629.756,442.412a.056.056,0,1,1,.056-.056A.06.06,0,0,1,629.756,442.412Zm0-.07a.028.028,0,1,0,.028.028A.03.03,0,0,0,629.756,442.342Z" transform="translate(-541.869 -380.578)"/><circle class="n" cx="0.042" cy="0.042" r="0.042" transform="translate(87.985 61.694)"/><circle class="n" cx="0.042" cy="0.042" r="0.042" transform="translate(88.152 61.792)"/><circle class="n" cx="0.042" cy="0.042" r="0.042" transform="translate(87.943 61.583)"/><circle class="n" cx="0.042" cy="0.042" r="0.042" transform="translate(88.027 61.848)"/><circle class="n" cx="0.042" cy="0.042" r="0.042" transform="translate(88.152 61.638)"/><circle class="n" cx="0.042" cy="0.042" r="0.042" transform="translate(87.831 61.611)"/><circle class="n" cx="0.042" cy="0.042" r="0.042" transform="translate(88.264 61.611)"/><ellipse class="a" cx="2.859" cy="0.391" rx="2.859" ry="0.391" transform="translate(114.863 99.243)"/><ellipse class="a" cx="2.859" cy="0.391" rx="2.859" ry="0.391" transform="translate(125.813 100.345)"/><ellipse class="a" cx="2.859" cy="0.391" rx="2.859" ry="0.391" transform="translate(138.715 98.852)"/><ellipse class="a" cx="2.036" cy="0.279" rx="2.036" ry="0.279" transform="translate(122.256 103.623)"/><ellipse class="a" cx="2.036" cy="0.279" rx="2.036" ry="0.279" transform="translate(133.624 103.344)"/><path class="j" d="M913.087,587.589s-4-13.139.628-18.4a8.718,8.718,0,0,1,9.164-2.971,3.291,3.291,0,0,1,2.106,1.744c.614,1.325.5,3.487-3.85,6.012-7.281,4.212-7.741,10-7.741,10Z" transform="translate(-784.345 -486.937)"/><path class="q" d="M929.774,581.5s-11.814,3.7-9.164,19.514" transform="translate(-791.868 -500.362)"/><path class="q" d="M939.2,591a2.623,2.623,0,0,1,1.116,2.748" transform="translate(-808.199 -508.537)"/><path class="q" d="M966.6,594.13a2.044,2.044,0,0,0-2.2-.46" transform="translate(-829.884 -510.69)"/><path class="q" d="M933.1,632.414s-1.744-.893-2.2.223" transform="translate(-801.056 -543.884)"/><path class="q" d="M915.7,647.654s1.311-.112,1.339.53" transform="translate(-787.977 -557.282)"/><path class="j" d="M921.8,664.524s4.7-9.555,5.984-9.345c.614.1.893.7,1.018,1.311a3.933,3.933,0,0,1-.251,2.329A10.373,10.373,0,0,1,921.8,664.524Z" transform="translate(-793.226 -563.761)"/><path class="q" d="M928.186,668.2s-4.924,7.142-5.886,7.462" transform="translate(-793.656 -574.969)"/><line class="q" x1="1.144" transform="translate(133.833 94.347)"/><line class="q" x1="1.799" y2="0.084" transform="translate(131.796 96.956)"/><line class="q" x2="0.195" y2="0.948" transform="translate(132.508 94.863)"/><line class="q" x2="0.042" y2="0.851" transform="translate(130.583 97.723)"/><path class="j" d="M879.143,664.524s-4.7-9.555-5.984-9.345c-.614.1-.893.7-1.018,1.311a3.921,3.921,0,0,0,.251,2.329A10.336,10.336,0,0,0,879.143,664.524Z" transform="translate(-750.429 -563.761)"/><path class="q" d="M880.1,668.2s4.924,7.142,5.886,7.462" transform="translate(-757.342 -574.969)"/><line class="q" x2="1.144" transform="translate(122.312 94.347)"/><line class="q" x2="1.799" y2="0.084" transform="translate(123.692 96.956)"/><line class="q" x1="0.195" y2="0.948" transform="translate(124.585 94.863)"/><line class="q" x1="0.042" y2="0.851" transform="translate(126.663 97.723)"/><path class="j" d="M964.815,730.179a.847.847,0,0,0,.279-.4.357.357,0,0,0-.181-.4c-.167-.07-.349.056-.488.167a.74.74,0,0,1-.474.237.7.7,0,0,0,.223-.683.418.418,0,0,0-.056-.14.3.3,0,0,0-.377.028,1.411,1.411,0,0,0-.46,1.186,1.908,1.908,0,0,1,0-.488.5.5,0,0,0-.181-.432.635.635,0,0,0-.279-.07.6.6,0,0,0-.46.126.46.46,0,0,0,.014.558,1.767,1.767,0,0,0,.474.377,1.053,1.053,0,0,1,.335.321c.014.014.014.042.028.056h1.018A2.755,2.755,0,0,0,964.815,730.179Z" transform="translate(-828.053 -627.198)"/><path class="j" d="M836.443,702.679a.794.794,0,0,0,.265-.4.385.385,0,0,0-.181-.418c-.167-.07-.349.056-.488.181a.679.679,0,0,1-.474.237.7.7,0,0,0,.223-.683.266.266,0,0,0-.07-.14.3.3,0,0,0-.377.028,1.4,1.4,0,0,0-.46,1.186,2.847,2.847,0,0,1,0-.488.5.5,0,0,0-.181-.432.635.635,0,0,0-.279-.07.6.6,0,0,0-.46.126.46.46,0,0,0,.014.558,1.766,1.766,0,0,0,.474.377,1.054,1.054,0,0,1,.335.321c.014.014.014.042.028.056h1.018A3.235,3.235,0,0,0,836.443,702.679Z" transform="translate(-717.563 -603.534)"/><path class="j" d="M879.243,730.179a.794.794,0,0,0,.265-.4.357.357,0,0,0-.181-.4c-.167-.07-.349.056-.488.167a.74.74,0,0,1-.474.237.7.7,0,0,0,.223-.683.266.266,0,0,0-.07-.14.3.3,0,0,0-.377.028,1.411,1.411,0,0,0-.46,1.186,1.908,1.908,0,0,1,0-.488.5.5,0,0,0-.181-.432.635.635,0,0,0-.279-.07.6.6,0,0,0-.46.126.46.46,0,0,0,.014.558,1.767,1.767,0,0,0,.474.377,1.054,1.054,0,0,1,.335.321c.014.014.014.042.028.056h1.018A2.9,2.9,0,0,0,879.243,730.179Z" transform="translate(-754.393 -627.198)"/><path class="j" d="M1009.771,682.4s.377.5-.181,1.255-1.018,1.395-.837,1.869c0,0,.837-1.409,1.534-1.423S1010.524,683.251,1009.771,682.4Z" transform="translate(-868.015 -587.188)"/><path class="f" d="M1010.018,682.4a1.525,1.525,0,0,1,.084.153c.669.8,1.032,1.52.391,1.534-.6.014-1.325,1.088-1.492,1.367a.106.106,0,0,0,.028.056s.837-1.409,1.534-1.423S1010.771,683.251,1010.018,682.4Z" transform="translate(-868.263 -587.188)"/><path class="r" d="M1020.884,686.279c0,.181-.014.321-.042.321s-.042-.14-.042-.321.028-.1.042-.1S1020.884,686.1,1020.884,686.279Z" transform="translate(-878.417 -590.425)"/><path class="r" d="M1021.2,687.711c-.153.084-.293.14-.307.112s.112-.112.265-.2.1-.028.112,0S1021.368,687.627,1021.2,687.711Z" transform="translate(-878.496 -591.648)"/><path class="j" d="M996.532,682.4s-.391.5.181,1.255,1.018,1.395.837,1.869c0,0-.851-1.409-1.534-1.423S995.779,683.251,996.532,682.4Z" transform="translate(-856.799 -587.188)"/><path class="f" d="M996.47,682.4a1.526,1.526,0,0,0-.084.153c-.67.8-1.032,1.52-.391,1.534.6.014,1.325,1.088,1.492,1.367,0,.014-.014.042-.014.056s-.851-1.409-1.534-1.423S995.717,683.251,996.47,682.4Z" transform="translate(-856.737 -587.188)"/><path class="r" d="M996.7,686.279a.163.163,0,1,0,.084,0c0-.181-.028-.1-.042-.1S996.7,686.1,996.7,686.279Z" transform="translate(-857.679 -590.425)"/><path class="r" d="M994.338,687.711c.153.084.293.14.307.112s-.1-.112-.251-.2-.1-.028-.112,0S994.185,687.627,994.338,687.711Z" transform="translate(-855.568 -591.648)"/><path class="s" d="M997.5,700.7a3.777,3.777,0,0,0,1.395-.265c.321-.237,1.646-.5,1.73-.139s1.6,1.827.4,1.841a9.6,9.6,0,0,1-3.124-.391C997.584,701.542,997.5,700.7,997.5,700.7Z" transform="translate(-858.367 -602.438)"/><path class="o" d="M1001.143,705.625a9.6,9.6,0,0,1-3.124-.391c-.251-.153-.349-.683-.377-.935H997.6s.07.865.391,1.06a10.533,10.533,0,0,0,3.124.391c.349,0,.474-.125.46-.307C1001.533,705.555,1001.394,705.611,1001.143,705.625Z" transform="translate(-858.453 -606.033)"/><ellipse class="a" cx="5.077" cy="0.865" rx="5.077" ry="0.865" transform="translate(9.037 104.055)"/><path class="j" d="M89.849,689.2s-7.072,3.654-3.417,7.951a1.368,1.368,0,0,0,1.339.865s-.2-.363.558-.656a4.032,4.032,0,0,0,.767-.4,1.836,1.836,0,0,0,.683-.907h0s1.451-1.939.321-5.51c0,0,.139-1.018.014-1.172l-.865,1.172a2.4,2.4,0,0,1,.99,1.465s-.921-1.465-1.13-1.3c-.042.042-.432.642-.432.642a4.011,4.011,0,0,1,1.66,2.4s-.865-1.9-1.8-2.162l-.53.962a4.116,4.116,0,0,1,1.869,2.566s-.976-1.953-1.967-2.343l-.391,1s1.618,1.032,1.771,2.315c0,0-1.353-2.134-1.841-2.078a5.141,5.141,0,0,0-.265,1.241s1.144.767,1.172,1.52c0,0-1.06-1.339-1.227-1.241a5.444,5.444,0,0,0,.265,2.036,4.116,4.116,0,0,1-.474-2.036,2.258,2.258,0,0,0-.683,1.088s-.307-.739.7-1.423a5.351,5.351,0,0,1,.209-1.172,4.867,4.867,0,0,0-1.548,1.186s.167-.976,1.646-1.451l.377-1.018a6.97,6.97,0,0,0-1.925,1.172s.321-.962,2.036-1.423l.5-.948a8.239,8.239,0,0,0-1.939.948,3.38,3.38,0,0,1,2.106-1.214l.418-.586s-.948.335-1.214.46-.321.056-.321.056a3.386,3.386,0,0,1,1.7-.767A10.441,10.441,0,0,0,89.849,689.2Z" transform="translate(-73.474 -593.04)"/></g></svg>