<svg xmlns="http://www.w3.org/2000/svg" viewBox="0 0 172.144 112.767"><defs><style>.a,.c{fill:#6a4dff;}.a,.h,.l,.n{opacity:0.1;}.b{opacity:0.5;}.d{fill:#ffb9b9;}.e{opacity:0.05;}.f{fill:#737a9d;}.g{fill:#4c4c78;}.i,.n{fill:#fff;}.i,.o{opacity:0.2;}.j{fill:#cbcdda;}.k{fill:#b96b6b;}.m{opacity:0.8;}.p{fill:none;stroke:#6a4dff;stroke-miterlimit:10;}</style></defs><g transform="translate(-0.002 -0.005)"><path class="a" d="M93.335,151.869c-1.3,3.924,2.515,7.453,5.512,10.295a40.38,40.38,0,0,1,9.5,13.848,22.3,22.3,0,0,1,1.966,9.973c-.689,9.674-9.8,16.119-17.078,22.527a10.559,10.559,0,0,0-2.663,3.11c-1.929,3.964,1.35,8.533,4.962,11.061,12.862,9,31.427,6.322,43.9-3.2,6.46-4.935,12.013-11.645,19.842-13.839,5.006-1.4,10.319-.734,15.5-.3a165.009,165.009,0,0,0,23.348.277c2.731-.169,5.586-.432,7.873-1.932,5.79-3.794,4.813-12.789,8.992-18.308,3-3.966,8.136-5.5,12.6-7.687a39.431,39.431,0,0,0,16.511-15.321c3.586-6.1,5.444-13.044,7.257-19.886,1.367-5.141,2.739-10.524,1.581-15.717s-5.728-10.042-11.027-9.586c-4.069.349-7.306,3.564-11.225,4.715-9.387,2.764-18.5-6.837-28.238-5.91-6.131.582-11.076,5.232-14.815,10.126s-6.9,10.4-11.839,14.091c-7.679,5.738-18.2,5.941-27.6,4.083s-18.419-5.515-27.925-6.734c-5.6-.717-9.892,2.619-14.934,4.454C100.712,143.682,95.05,146.679,93.335,151.869Z" transform="translate(-90 -115.91)"/><ellipse class="a" cx="12.276" cy="3.73" rx="12.276" ry="3.73" transform="translate(11.007 105.313)"/><ellipse class="a" cx="32.787" cy="2.175" rx="32.787" ry="2.175" transform="translate(106.573 59.163)"/><g class="b" transform="translate(107.817 11.548)"><path class="c" d="M699.835,68.4h0a1.715,1.715,0,0,1,1.715,1.715v47.677H698.12V70.113A1.715,1.715,0,0,1,699.835,68.4Z" transform="translate(-688.114 -68.4)"/><path class="c" d="M922.723,68.4h0a1.715,1.715,0,0,1,1.715,1.715v47.677H921V70.113a1.715,1.715,0,0,1,1.723-1.713Z" transform="translate(-873.378 -68.4)"/><rect class="c" width="3.429" height="61.067" rx="1.715" transform="translate(61.067 7.228) rotate(90)"/><rect class="c" width="2.687" height="12.88" rx="1.343" transform="translate(6.3 2.501)"/><rect class="c" width="2.687" height="10.472" rx="1.343" transform="translate(3.613 3.706)"/><rect class="c" width="2.687" height="12.88" rx="1.343" transform="translate(54.766 15.382) rotate(180)"/><rect class="c" width="2.687" height="10.472" rx="1.343" transform="translate(57.452 14.177) rotate(180)"/></g><g class="b" transform="translate(132.057 31.503)"><path class="c" d="M785.362,186.64h7.011a2.869,2.869,0,0,1,2.869,2.869v12.043H782.5V189.509A2.869,2.869,0,0,1,785.362,186.64Z" transform="translate(-782.493 -186.64)"/><rect class="c" width="1.865" height="6.216" transform="translate(5.438 13.831)"/><rect class="c" width="1.865" height="6.216" transform="translate(1.708 20.823)"/><rect class="c" width="1.865" height="6.216" transform="translate(9.478 20.823)"/><rect class="c" width="12.742" height="1.71" transform="translate(0 19.579)"/></g><ellipse class="a" cx="69.924" cy="5.127" rx="69.924" ry="5.127" transform="translate(9.921 92.417)"/><path class="d" d="M670.36,567.325s4.817,2.175,7.147,2.175a30.586,30.586,0,0,1,3.882,1.244c1.4.623,6.837.932,6.837.932s6.371,2.331,7.147,3.419,3.107-3.882,3.107-3.882l-1.244-3.107L673.778,563.6Z" transform="translate(-572.411 -488.039)"/><path class="e" d="M670.36,567.325s4.817,2.175,7.147,2.175a30.586,30.586,0,0,1,3.882,1.244c1.4.623,6.837.932,6.837.932s6.371,2.331,7.147,3.419,3.107-3.882,3.107-3.882l-1.244-3.107L673.778,563.6Z" transform="translate(-572.411 -488.039)"/><path class="f" d="M811.23,600.164s2.952,3.882,1.71,6.216-.776,2.331,0,2.486,5.127,1.089,5.595-2.331,1.4-11.032,1.4-11.032l-6.379-.623S815.27,600.63,811.23,600.164Z" transform="translate(-689.507 -514.04)"/><path class="g" d="M593.94,543.046l13.363,6.216s4.2-3.264,3.882-4.972l-15.539-3.73Z" transform="translate(-508.889 -468.888)"/><path class="h" d="M593.94,543.046l13.363,6.216s4.2-3.264,3.882-4.972l-15.539-3.73Z" transform="translate(-508.889 -468.888)"/><path class="d" d="M752.618,548.774l-1.4,3.418-3.257.773a20.8,20.8,0,0,0-2.918-2.039,11.6,11.6,0,0,0-6.245-1.846s-8.7-1.4-9.168-2.025c0,0-5.595-1.244-6.837-1.089a8.765,8.765,0,0,1-3.058-.824c-1.257-.506-2.381-1.041-2.381-1.041l4.04-6.371a10.86,10.86,0,0,0,1.451.506,29.926,29.926,0,0,0,8.339,1.04c6.526,0,15.539,6.682,15.539,6.682s.089.03.243.076c.675.2,2.6.685,3.487-.076C751.529,545.044,752.618,548.774,752.618,548.774Z" transform="translate(-611.471 -466.535)"/><path class="h" d="M888.99,588.646l-1.4,3.418-3.257.773a20.8,20.8,0,0,0-2.918-2.039c4.739.356,1.909-4.876,1.909-4.876h.01c.675.2,2.6.685,3.487-.076C887.9,584.917,888.99,588.646,888.99,588.646Z" transform="translate(-747.842 -506.408)"/><path class="f" d="M881.52,590.348s3.758,5.271,2.177,8.239-.989,2.967,0,3.166,6.53,1.386,7.122-2.967c.456-3.347.056-9.77-.154-12.558A1.332,1.332,0,0,0,889.218,585l-5.5.506S886.664,590.942,881.52,590.348Z" transform="translate(-747.934 -505.826)"/><path class="c" d="M262.71,523.794l.155,7.615,1.71,1.242h5.905l1.087-1.553v-7.3l-1.71-1.554h-5.593Z" transform="translate(-218.371 -434.098)"/><path class="i" d="M353.642,648.28s1.089,6.992,0,7.615l-.776-.155-.155-7.458Z" transform="translate(-308.371 -558.428)"/><path class="c" d="M433.713,638.474l1.244-1.244h5.907l1.244,1.244s1.554,4.506.311,7.458l-1.4,1.4h-5.907l-1.4-1.244Z" transform="translate(-375.7 -549.243)"/><path class="h" d="M262.71,523.794l.155,7.615,1.71,1.242h5.905l1.087-1.553v-7.3l-1.71-1.554h-5.593Z" transform="translate(-218.371 -434.098)"/><path class="h" d="M433.713,638.474l1.244-1.244h5.907l1.244,1.244s1.554,4.506.311,7.458l-1.4,1.4h-5.907l-1.4-1.244Z" transform="translate(-375.7 -549.243)"/><path class="i" d="M435.109,644.911s1.244,5.439,0,7.3h-1.4V644.6Z" transform="translate(-375.7 -555.369)"/><path class="d" d="M405.19,491.76s.621,6.06.621,6.837a52.533,52.533,0,0,0,.621,10.877c.932,4.97-.621,11.186-.621,11.186h5.127l2.175-16.782-1.554-8.857-.621-2.8Z" transform="translate(-351.994 -428.324)"/><path class="e" d="M405.19,491.76s.621,6.06.621,6.837a52.533,52.533,0,0,0,.621,10.877c.932,4.97-.621,11.186-.621,11.186h5.127l2.175-16.782-1.554-8.857-.621-2.8Z" transform="translate(-351.994 -428.324)"/><path class="j" d="M382.433,400.03s-6.837.155-1.4,11.5a53.742,53.742,0,0,1,1.4,5.439c0,.778,6.992.776,7.763,0s-1.244-7.147-1.244-10.1S386.939,399.1,382.433,400.03Z" transform="translate(-330.168 -351.978)"/><path class="e" d="M382.433,400.03s-6.837.155-1.4,11.5a53.742,53.742,0,0,1,1.4,5.439c0,.778,6.992.776,7.763,0s-1.244-7.147-1.244-10.1S386.939,399.1,382.433,400.03Z" transform="translate(-330.168 -351.978)"/><path class="d" d="M334.054,361s5.907,6.371,10.877,1.71l-.621,16.472s-8.081-9.789-13.67-9.012Z" transform="translate(-290.025 -319.632)"/><path class="h" d="M722.8,538.3c-.236,1.821-.979,5.655-3.11,6.9-1.257-.506-2.381-1.041-2.381-1.041l4.04-6.371A10.864,10.864,0,0,0,722.8,538.3Z" transform="translate(-611.437 -466.585)"/><path class="g" d="M585.442,460.654s-.466,7.615-4.2,8.236l-22.527-4.064a6.8,6.8,0,0,1-2.994-1.35,15.473,15.473,0,0,1-2.685-2.579,2.143,2.143,0,0,1-.538-1.333c.155-1.71,6.992-5.75,4.661-12.9a4.261,4.261,0,0,1,1.094-.628c1.946-.808,6.425-1.4,12.891,5.289C571.147,451.337,583.111,460.972,585.442,460.654Z" transform="translate(-474.44 -389.921)"/><path class="c" d="M296.78,527.483l.155,7.615,1.708,1.244h5.905l1.089-1.554v-7.3l-1.71-1.553h-5.595Z" transform="translate(-246.691 -437.165)"/><path class="i" d="M387.712,652s1.089,6.992,0,7.615l-.776-.155L386.78,652Z" transform="translate(-336.691 -561.52)"/><path class="c" d="M488.06,641.234l1.244-1.244h5.907l1.244,1.244s1.554,4.506.311,7.458l-1.4,1.4h-5.907l-1.4-1.244Z" transform="translate(-420.878 -551.537)"/><path class="i" d="M489.449,647.671s1.244,5.439,0,7.3h-1.4V647.36Z" transform="translate(-420.869 -557.663)"/><path class="c" d="M433.138,664.86h8.406a1.261,1.261,0,0,1,1.192,1.321h0a1.262,1.262,0,0,1-1.192,1.321h-8.406a1.275,1.275,0,0,1-1.181-1.475h0A1.241,1.241,0,0,1,433.138,664.86Z" transform="translate(-374.235 -572.21)"/><path class="h" d="M557.619,460a43.6,43.6,0,0,1-4.589,2.577,2.143,2.143,0,0,1-.538-1.333c.155-1.71,6.992-5.75,4.661-12.9a4.258,4.258,0,0,1,1.094-.628,4.745,4.745,0,0,0,1.082-.149S560.726,457.824,557.619,460Z" transform="translate(-474.432 -391.592)"/><path class="j" d="M375.657,370.51a34.626,34.626,0,0,0,4.584,3.807c2.079,1.362-1.632-12.354-1.632-12.354s2.3-1.856,3.654-2.959a4.631,4.631,0,0,1,3.22-1.046c3.11.2,8.808,1.509,13.405,7.814,6.682,9.168,12.742,7.3,12.742,7.3s1.4,10.256-1.71,12.432-6.526,2.952-5.907,4.2-2.8-6.06-10.567-7.3-16.317-6.682-16.16-9.323C377.289,373.076,375.036,371.292,375.657,370.51Z" transform="translate(-327.355 -317.097)"/><path class="h" d="M340.494,366.63a7.809,7.809,0,0,0-.118-1.34c-2.035-1.013-1.747-2.39-1.747-2.39l-3.419,9.168a7.239,7.239,0,0,1,4.007.844C341.034,371.475,340.494,369.109,340.494,366.63Z" transform="translate(-293.824 -321.211)"/><circle class="d" cx="7.77" cy="7.77" r="7.77" transform="translate(32.063 37.486)"/><path class="h" d="M267.555,330.729a2,2,0,0,1-.781,1.181,1.481,1.481,0,0,1-1.656-.236,2.792,2.792,0,0,1-.82-1.549,5.2,5.2,0,0,1,.084-2.54c.2-.7.552-1.35.7-2.067.157-.763.078-1.561.253-2.321a7.106,7.106,0,0,1,1.578-2.717,2.805,2.805,0,0,1,1.828-1.215l3.252-.981a10.988,10.988,0,0,1,1.894-.452,6.559,6.559,0,0,1,2.462.216,5.671,5.671,0,0,1,1.786.8,6.6,6.6,0,0,1,1.409,1.426c1.72,2.248,2.7,5.926,4.474,8.138-.7.216-1.4-.506-2.1-.287a.493.493,0,0,1-.316.025.518.518,0,0,1-.231-.257,5.379,5.379,0,0,0-2.749-2.353c-.861-.326-2.025-.324-2.5.466a2.8,2.8,0,0,0-.106,1.823,1.839,1.839,0,0,1-.419,1.73,1.809,1.809,0,0,1-.908.307,10,10,0,0,1-4.5-.44c-.506-.169-1.021-.7-1.556-.528C267.913,329.123,267.746,330.117,267.555,330.729Z" transform="translate(-234.782 -283.721)"/><path class="k" d="M266.545,329.728a2,2,0,0,1-.781,1.181,1.481,1.481,0,0,1-1.656-.236,2.792,2.792,0,0,1-.82-1.549,5.2,5.2,0,0,1,.084-2.54c.2-.7.552-1.35.7-2.067.157-.763.078-1.561.253-2.321a7.107,7.107,0,0,1,1.578-2.717,2.8,2.8,0,0,1,1.828-1.215l3.252-.981a10.988,10.988,0,0,1,1.894-.451,6.56,6.56,0,0,1,2.462.216,5.673,5.673,0,0,1,1.786.8,6.6,6.6,0,0,1,1.409,1.426c1.72,2.248,2.7,5.925,4.474,8.138-.7.216-1.4-.506-2.1-.287a.493.493,0,0,1-.316.025.518.518,0,0,1-.235-.257,5.379,5.379,0,0,0-2.749-2.353c-.861-.326-2.025-.324-2.5.466a2.8,2.8,0,0,0-.106,1.823,1.839,1.839,0,0,1-.419,1.73,1.809,1.809,0,0,1-.908.307,10,10,0,0,1-4.5-.44c-.506-.169-1.021-.7-1.556-.528C266.9,328.121,266.736,329.115,266.545,329.728Z" transform="translate(-233.942 -282.89)"/><g class="l" transform="translate(48.182 44.443)"><path d="M394.207,379.22l-.527.425s2.175,8.038,2.262,11.2C397.052,390.541,394.915,381.941,394.207,379.22Z" transform="translate(-390.608 -379.22)"/><path d="M410.164,446.131c-3.107,2.175-6.526,2.952-5.907,4.2s-2.8-6.061-10.567-7.3c-7.289-1.166-15.262-6.025-16.092-8.8-1.165-1-2.012-1.841-2.012-1.841-.621.776,1.632,2.564,1.632,2.564-.155,2.641,8.391,8.081,16.16,9.323s11.188,8.546,10.567,7.3,2.8-2.025,5.907-4.2a5.335,5.335,0,0,0,1.7-3.424A4.032,4.032,0,0,1,410.164,446.131Z" transform="translate(-375.478 -423.408)"/></g><path class="d" d="M442.159,487.457c-.466.621-.776,6.992-.776,6.992s1.856,9.168-3.882,8.236-.776-7.458-.776-7.458l-.776-9.012c-2.952-7.763-2.331-13.363-2.331-13.363l-.552-5.075-.226-2.072,6.682-1.554a11.6,11.6,0,0,0,.059,3.519c.255,2.758.717,6.115.717,6.115C441.692,475.336,442.625,486.834,442.159,487.457Z" transform="translate(-374.977 -405.374)"/><path class="h" d="M414.653,380.7s-6.837.155-1.4,11.5a53.743,53.743,0,0,1,1.4,5.439c0,.778,6.992.776,7.763,0s-1.244-7.147-1.244-10.1S419.159,379.765,414.653,380.7Z" transform="translate(-356.95 -335.908)"/><path class="h" d="M439.542,467.669a19.758,19.758,0,0,1-6.516.108L432.8,465.7l6.682-1.554A11.805,11.805,0,0,0,439.542,467.669Z" transform="translate(-374.944 -405.374)"/><path class="j" d="M412.813,380.7s-6.837.155-1.4,11.5a53.742,53.742,0,0,1,1.4,5.439c0,.778,6.992.776,7.763,0s-1.244-7.147-1.244-10.1S417.319,379.765,412.813,380.7Z" transform="translate(-355.421 -335.908)"/><g class="b" transform="translate(6.911 69.114)"><path class="c" d="M46.7,409.5l-4.948.1-.807,1.11v3.838l1.009.707H46.7l1.011-1.111v-3.635Z" transform="translate(-40.94 -409.498)"/><path class="i" d="M140.078,526.008s-4.545.707-4.948,0l.1-.506,4.847-.1Z" transform="translate(-134.423 -525.4)"/><path class="c" d="M139.087,591.23l.808.808v3.838l-.808.808s-2.928,1.013-4.847.2l-.91-.91V592.14l.808-.91Z" transform="translate(-132.927 -580.12)"/><path class="i" d="M142.866,592.14s-3.534.808-4.746,0v-.91h4.948Z" transform="translate(-136.908 -580.12)"/><path class="c" d="M147.608,555.543v5.463a.82.82,0,0,1-.859.775h0a.82.82,0,0,1-.859-.775v-5.463a.831.831,0,0,1,.959-.77h0A.808.808,0,0,1,147.608,555.543Z" transform="translate(-143.367 -549.812)"/><path class="c" d="M93.647,410.42l-4.948.1-.808,1.11v3.838l1.011.707h4.746l1.009-1.111v-3.635Z" transform="translate(-79.966 -410.263)"/><path class="i" d="M187.028,526.938s-4.545.707-4.948,0l.1-.506,4.847-.1Z" transform="translate(-173.449 -526.173)"/><path class="c" d="M186.037,592.152l.808.808V596.8l-.808.808s-2.928,1.013-4.847.2l-.91-.91V593.06l.808-.91Z" transform="translate(-171.953 -580.885)"/><path class="i" d="M189.826,593.06s-3.534.808-4.746,0v-.91h4.948Z" transform="translate(-175.943 -580.885)"/><path class="c" d="M194.538,556.463v5.463a.82.82,0,0,1-.859.775h0a.82.82,0,0,1-.859-.775v-5.463a.831.831,0,0,1,.959-.77h0A.808.808,0,0,1,194.538,556.463Z" transform="translate(-182.377 -550.576)"/><path class="c" d="M158.439,427.74l-4.074.083-.665.915V431.9l.832.581h3.907l.83-.915V428.57Z" transform="translate(-134.67 -424.66)"/><path class="i" d="M251.214,544.148s-3.742.582-4.074,0l.083-.415,3.99-.083Z" transform="translate(-227.529 -540.57)"/><path class="c" d="M250.409,597.83l.665.665v3.159l-.665.665s-2.41.832-3.99.169l-.749-.748v-3.163l.665-.748Z" transform="translate(-226.307 -585.606)"/><path class="i" d="M253.517,598.578s-2.91.665-3.907,0v-.748h4.074Z" transform="translate(-229.582 -585.606)"/><path class="c" d="M257.424,568.431v4.5a.675.675,0,0,1-.707.635h0a.675.675,0,0,1-.707-.638v-4.494a.684.684,0,0,1,.79-.633h0A.665.665,0,0,1,257.424,568.431Z" transform="translate(-234.902 -560.635)"/><path class="c" d="M197.089,428.49l-4.074.084-.665.913v3.159l.832.582h3.907l.832-.915v-2.992Z" transform="translate(-166.797 -425.283)"/><path class="i" d="M289.874,544.908s-3.742.582-4.074,0l.083-.415,3.99-.083Z" transform="translate(-259.664 -541.202)"/><path class="c" d="M289.067,598.573l.665.665V602.4l-.665.665s-2.41.832-3.99.169l-.748-.748v-3.166l.665-.748Z" transform="translate(-258.443 -586.221)"/><path class="i" d="M292.177,599.318s-2.91.665-3.907,0v-.748h4.072Z" transform="translate(-261.718 -586.221)"/><path class="c" d="M296.034,569.191v4.5a.675.675,0,0,1-.707.638h0a.675.675,0,0,1-.707-.638v-4.5a.684.684,0,0,1,.79-.633h0A.665.665,0,0,1,296.034,569.191Z" transform="translate(-266.996 -561.267)"/></g><g class="m" transform="translate(15.784 95.099)"><path class="c" d="M187.509,703.658a2.987,2.987,0,0,0-3.544,1.3,3.845,3.845,0,0,0,.051,3.7,5.434,5.434,0,0,0,5.266,2.984c2.5-.133,3.337-2.045,3.563-3.823a3.927,3.927,0,0,0-5.215-4.2Z" transform="translate(-183.515 -699.332)"/><path class="n" d="M184.523,708.494a3.844,3.844,0,0,1-.051-3.7,2.987,2.987,0,0,1,3.544-1.3l.123-.044a3.892,3.892,0,0,1,2.81.062,3.892,3.892,0,0,0-3.318-.317l-.123.044a2.988,2.988,0,0,0-3.544,1.3,3.845,3.845,0,0,0,.051,3.7,5.827,5.827,0,0,0,2.7,2.56A5.929,5.929,0,0,1,184.523,708.494Z" transform="translate(-183.515 -698.982)"/><path class="o" d="M199.86,711s.886.7,3.038,0" transform="translate(-197.101 -705.662)"/><path class="c" d="M198.74,681s1.519,4.118,1.394,5.195l1.2-.127s-2.025-3.61-1.519-5.063Z" transform="translate(-196.17 -680.725)"/><path class="o" d="M198.74,681s1.519,4.118,1.394,5.195l1.2-.127s-2.025-3.61-1.519-5.063Z" transform="translate(-196.17 -680.725)"/><path class="c" d="M212.359,679.982s-2.393-1.224-3.463-.213-1.235,3.595-1.235,3.595A4.174,4.174,0,0,0,212.359,679.982Z" transform="translate(-203.585 -679.369)"/><path class="n" d="M212.359,679.982s-2.393-1.224-3.463-.213-1.235,3.595-1.235,3.595A4.174,4.174,0,0,0,212.359,679.982Z" transform="translate(-203.585 -679.369)"/><path class="p" d="M207.66,686.375s.628-3,4.7-3.375" transform="translate(-203.585 -682.387)"/></g><path class="c" d="M247.329,725.748a2.988,2.988,0,0,0-3.544,1.3,3.845,3.845,0,0,0,.051,3.7,5.434,5.434,0,0,0,5.266,2.984c2.5-.133,3.337-2.045,3.563-3.823a3.927,3.927,0,0,0-5.215-4.2Z" transform="translate(-217.455 -622.595)"/><path class="n" d="M244.373,730.594a3.845,3.845,0,0,1-.051-3.7,2.987,2.987,0,0,1,3.544-1.3l.123-.044a3.892,3.892,0,0,1,2.81.062,3.892,3.892,0,0,0-3.318-.317l-.123.044a2.987,2.987,0,0,0-3.544,1.3,3.845,3.845,0,0,0,.051,3.7,5.827,5.827,0,0,0,2.7,2.56A5.929,5.929,0,0,1,244.373,730.594Z" transform="translate(-217.48 -622.253)"/><path class="o" d="M259.71,733.09s.886.7,3.038,0" transform="translate(-231.066 -628.925)"/><path class="c" d="M258.58,703.07s1.519,4.118,1.394,5.195l1.2-.127s-2.025-3.61-1.519-5.063Z" transform="translate(-230.127 -603.971)"/><path class="o" d="M258.58,703.07s1.519,4.118,1.394,5.195l1.2-.127s-2.025-3.61-1.519-5.063Z" transform="translate(-230.127 -603.971)"/><path class="c" d="M272.209,702.082s-2.393-1.224-3.463-.213-1.235,3.595-1.235,3.595A4.176,4.176,0,0,0,272.209,702.082Z" transform="translate(-237.55 -602.641)"/><path class="n" d="M272.209,702.082s-2.393-1.224-3.463-.213-1.235,3.595-1.235,3.595A4.176,4.176,0,0,0,272.209,702.082Z" transform="translate(-237.55 -602.641)"/><path class="p" d="M267.51,708.515s.628-3,4.7-3.375" transform="translate(-237.55 -605.692)"/><path class="c" d="M127.842,648.414s.235-.262-.206-.366v-.43h.265a2.272,2.272,0,0,0-1.8-2.221v-.521h.069V644.2h-1.7v.675h.049v.528a2.272,2.272,0,0,0-1.769,2.214h.236v.414s-.56.265,0,.737.473.825.473.825-.236.884-.707,1v8.228a1.828,1.828,0,0,0,1.828,1.828h1.445a1.828,1.828,0,0,0,1.821-1.826V650.6s-.825-.619-.675-1a9.282,9.282,0,0,1,.675-1.18Z" transform="translate(-117.208 -555.037)"/></g></svg>