<svg xmlns="http://www.w3.org/2000/svg" xmlns:xlink="http://www.w3.org/1999/xlink" viewBox="0 0 154 124.676"><defs><style>.a{fill:url(#a);}.b,.n{fill:#6a4dff;}.c{fill:url(#b);}.d,.e,.f,.g,.j,.k,.l,.m,.p,.q,.r,.s{fill:none;}.d,.j,.p{stroke:#707070;}.d,.e,.l,.m,.s{stroke-miterlimit:10;}.d,.e,.f,.g{stroke-width:5px;}.e,.f,.g,.k,.l{stroke:#6a4dff;}.f,.g,.j,.k,.p,.q,.r{stroke-linejoin:round;}.g,.p,.q,.r{stroke-linecap:round;}.h{fill:#64ffda;}.i{fill:url(#c);}.j,.k,.l{stroke-width:3px;}.m,.s{stroke:#535461;}.m,.p,.q{stroke-width:2px;}.n{opacity:0.3;}.o{fill:#fff;opacity:0.4;}.q,.r{stroke:#64ffda;}.t{opacity:0.25;}.u{fill:#252223;opacity:0.1;}.v{fill:url(#d);}.w{fill:url(#e);}.x{fill:url(#f);}.y{opacity:0.05;}</style><linearGradient id="a" x1="0.5" y1="3.379" x2="0.5" y2="4.379" gradientUnits="objectBoundingBox"><stop offset="0" stop-color="gray" stop-opacity="0.251"/><stop offset="0.54" stop-color="gray" stop-opacity="0.122"/><stop offset="1" stop-color="gray" stop-opacity="0.102"/></linearGradient><linearGradient id="b" x1="0.5" y1="-7.014" x2="0.5" y2="-6.014" xlink:href="#a"/><linearGradient id="c" x1="3.364" y1="16.757" x2="3.364" y2="17.757" xlink:href="#a"/><linearGradient id="d" x1="102.102" y1="-327.313" x2="103.094" y2="-327.313" xlink:href="#a"/><linearGradient id="e" x1="102.127" y1="-329.358" x2="103.127" y2="-329.358" xlink:href="#a"/><linearGradient id="f" x1="102.127" y1="-327.313" x2="103.127" y2="-327.313" xlink:href="#a"/></defs><path class="a" d="M112.758,22.42V10.306h-3.871l-1.17-6.865h1.6V0h-8.775V3.441h1.617l-1.187,6.865H97.1V22.712h.1v4.869h24.329V22.42Z" transform="translate(-78.323)"/><path class="b" d="M128.111,24.1H119.8l1.807-10.5h4.7Z" transform="translate(-97.117 -11.26)"/><rect class="c" width="28.906" height="14.814" transform="translate(16.523 104.94)"/><rect class="b" width="26.05" height="13.025" transform="translate(17.968 104.94)"/><rect class="d" width="18.239" height="78.081" transform="translate(21.943 26.859)"/><rect class="e" width="16.466" height="78.081" transform="translate(22.855 26.859)"/><path class="f" d="M137.266,244.014H120.8L137.18,230.8" transform="translate(-97.945 -191.088)"/><path class="f" d="M120.8,320.711h16.466L120.886,307.6" transform="translate(-97.945 -254.674)"/><path class="f" d="M137.266,396.514H120.8L137.18,383.3" transform="translate(-97.945 -317.349)"/><path class="f" d="M120.386,473.211h16.466L120.3,460.1" transform="translate(-97.531 -380.935)"/><path class="g" d="M120.886,156.1l16.38,12.939H120.8" transform="translate(-97.945 -129.241)"/><line class="e" y1="12.664" x2="16.294" transform="translate(22.941 92.19)"/><rect class="b" width="23.073" height="4.887" transform="translate(19.517 21.972)"/><rect class="b" width="14.832" height="11.769" transform="translate(19.414 10.496)"/><rect class="h" width="5.059" height="4.697" transform="translate(29.187 10.496)"/><rect class="e" width="16.656" height="7.416" transform="translate(2.5 18.91)"/><rect class="e" width="66.777" height="7.416" transform="translate(42.676 18.91)"/><path class="f" d="M50.9,109.9v7.416l8.328-7.416" transform="translate(-40.072 -90.99)"/><path class="f" d="M398.207,117.316V109.9l-6.607,7.416" transform="translate(-322.151 -90.99)"/><path class="f" d="M355.916,110.4v7.227l-7.416-7.141" transform="translate(-286.467 -91.404)"/><path class="f" d="M311.819,117.488V109.9l-7.519,7.416" transform="translate(-249.872 -90.99)"/><path class="f" d="M260.7,118.919V111.5l7.5,6.951V111.4" transform="translate(-213.774 -92.232)"/><path class="f" d="M439.189,109.986v7.227L430.5,109.9" transform="translate(-354.358 -90.99)"/><path class="f" d="M489.775,118.316V110.9L481,118.144" transform="translate(-396.169 -91.818)"/><path class="f" d="M541.189,110.986v7.055L532.5,110.9" transform="translate(-438.807 -91.818)"/><path class="i" d="M532.732,158.422c2.615,0,4.732-1.256,4.732-2.822H528C528,157.166,530.116,158.422,532.732,158.422Z" transform="translate(-435.082 -128.827)"/><path class="h" d="M536.164,157.768c2.306,0,4.164-.964,4.164-2.168H532C532,156.8,533.858,157.768,536.164,157.768Z" transform="translate(-438.393 -128.827)"/><rect class="b" width="8.328" height="3.252" transform="translate(22.683 0.723)"/><line class="f" x2="8.328" y2="7.416" transform="translate(2.5 18.91)"/><line class="j" x1="20.716" y2="17.275" transform="translate(2.5 2.34)"/><line class="k" x1="20.716" y2="16.57" transform="translate(2.5 2.34)"/><line class="j" x2="35.462" y2="17.275" transform="translate(30.271 2.34)"/><line class="l" x2="35.462" y2="16.57" transform="translate(30.271 2.34)"/><line class="f" x1="7.055" y2="7.605" transform="translate(102.382 18.72)"/><line class="j" x2="79.613" y2="17.361" transform="translate(29.823 2.254)"/><line class="k" x2="79.613" y2="16.466" transform="translate(29.823 2.254)"/><rect class="b" width="26.05" height="13.025" transform="translate(17.968 104.94)"/><path class="m" d="M97.8,724.6" transform="translate(-78.903 -599.924)"/><path class="n" d="M343.184,110.743h-3.1V103h-1.893v7.743H327.182v48.865h-8.431v-5.162h-5.162v5.162h-8.431V143.09H290.017V132.078h-6.538V143.09h-.344v21.164h-6.882V151.865h-8.259v12.388h-6.882v-38.2h-5.334V113.324H236.162v12.733H231v67.276H343.184Z" transform="translate(-189.184 -85.278)"/><rect class="o" width="7.227" height="4.129" transform="translate(45.085 44.736)"/><rect class="o" width="7.227" height="4.129" transform="translate(61.259 44.736)"/><rect class="o" width="7.227" height="4.129" transform="translate(45.085 52.823)"/><rect class="o" width="7.227" height="4.129" transform="translate(61.259 52.823)"/><rect class="o" width="7.227" height="4.129" transform="translate(45.085 60.91)"/><rect class="o" width="7.227" height="4.129" transform="translate(61.259 60.91)"/><rect class="o" width="7.227" height="4.129" transform="translate(45.085 68.997)"/><rect class="o" width="7.227" height="4.129" transform="translate(61.259 68.997)"/><rect class="o" width="7.227" height="4.129" transform="translate(45.085 77.083)"/><rect class="o" width="7.227" height="4.129" transform="translate(61.259 77.083)"/><rect class="o" width="7.227" height="4.129" transform="translate(45.085 85.17)"/><path class="p" d="M546.059,171.644a2.529,2.529,0,1,1-2.529-2.529h0v-27.5" transform="translate(-445.845 -112.814)"/><path class="q" d="M546.614,174.064a2.357,2.357,0,1,1-2.357-2.357h0V144.779" transform="translate(-446.59 -115.629)"/><rect class="o" width="7.227" height="4.129" transform="translate(61.259 85.17)"/><path class="r" d="M520.4,256.323l6.143-9.223,6.16,9.223" transform="translate(-428.789 -186.584)"/><path class="h" d="M517.081,296.7a.637.637,0,0,0,0,1.273A.637.637,0,0,0,517.081,296.7Z" transform="translate(-425.54 -227.649)"/><path class="h" d="M588.581,296.7a.637.637,0,0,0,0,1.273A.637.637,0,0,0,588.581,296.7Z" transform="translate(-484.737 -227.649)"/><rect class="o" width="7.227" height="4.129" transform="translate(45.085 93.257)"/><rect class="o" width="7.227" height="4.129" transform="translate(61.259 93.257)"/><rect class="o" width="16.862" height="2.065" transform="translate(74.508 83.106)"/><rect class="o" width="16.862" height="2.065" transform="translate(74.508 86.203)"/><rect class="o" width="16.862" height="2.065" transform="translate(74.508 89.3)"/><rect class="o" width="16.862" height="2.065" transform="translate(118.555 84.138)"/><rect class="o" width="16.862" height="2.065" transform="translate(118.555 87.235)"/><rect class="o" width="16.862" height="2.065" transform="translate(118.555 90.332)"/><rect class="o" width="16.862" height="2.065" transform="translate(74.508 92.397)"/><rect class="o" width="16.862" height="2.065" transform="translate(74.508 95.494)"/><rect class="o" width="16.862" height="2.065" transform="translate(74.508 98.591)"/><rect class="o" width="4.646" height="6.022" transform="translate(97.564 61.77)"/><rect class="o" width="4.646" height="6.022" transform="translate(107.716 61.77)"/><rect class="o" width="4.646" height="6.022" transform="translate(97.564 71.405)"/><rect class="o" width="4.646" height="6.022" transform="translate(107.716 71.405)"/><rect class="o" width="4.646" height="6.022" transform="translate(97.564 81.041)"/><rect class="o" width="4.646" height="6.022" transform="translate(107.716 81.041)"/><rect class="o" width="4.646" height="6.022" transform="translate(97.564 90.676)"/><rect class="o" width="4.646" height="6.022" transform="translate(107.716 90.676)"/><rect class="o" width="6.194" height="7.915" transform="translate(137.998 29.422)"/><rect class="o" width="6.194" height="7.915" transform="translate(137.998 40.779)"/><rect class="o" width="6.194" height="7.915" transform="translate(137.998 52.135)"/><rect class="o" width="6.194" height="7.915" transform="translate(137.998 63.491)"/><rect class="o" width="6.194" height="7.915" transform="translate(137.998 74.847)"/><rect class="o" width="6.194" height="7.915" transform="translate(137.998 86.203)"/><rect class="o" width="3.097" height="6.538" transform="translate(46.978 31.659)"/><path class="b" d="M263.059,560.979s-13.541,8.173,11.425,20.751c0,0,5.506-10.22-.585-18.548a8.2,8.2,0,0,0-10.633-2.323Z" transform="translate(-212.691 -463.489)"/><path class="s" d="M281.6,565.6s11.6,8.861,11.27,20.923" transform="translate(-231.078 -468.282)"/><path class="m" d="M342.742,468.509s-4.25-14.419.791-25.018a22.736,22.736,0,0,0,1.841-14.281,36.77,36.77,0,0,0-2.03-6.71" transform="translate(-280.314 -349.804)"/><path class="b" d="M341.7,367.866c0,1.772-3.2,6.882-3.2,6.882s-3.2-5.127-3.2-6.882a3.2,3.2,0,1,1,6.4-.138v.138Z" transform="translate(-275.535 -301.863)"/><path class="b" d="M372.335,416.973c-.964,1.48-6.435,4.043-6.435,4.043s.1-6.039,1.067-7.519a3.2,3.2,0,0,1,5.368,3.476Z" transform="translate(-300.873 -341.197)"/><path class="b" d="M365.488,508.614c-1.583.791-7.588.241-7.588.241s3.132-5.162,4.715-5.953a3.2,3.2,0,0,1,2.873,5.712Z" transform="translate(-294.249 -416.114)"/><path class="b" d="M348.633,583.049c-1.428,1.05-7.433,1.531-7.433,1.531s2.22-5.609,3.63-6.676a3.2,3.2,0,1,1,3.837,5.11Z" transform="translate(-280.423 -477.937)"/><path class="b" d="M321.984,439.292c1.273,1.222,7.175,2.512,7.175,2.512s-1.445-5.867-2.719-7.089a3.2,3.2,0,0,0-4.56,4.491.457.457,0,0,1,.1.086Z" transform="translate(-263.667 -359.128)"/><path class="b" d="M299.277,522.914c1.583.792,7.588.241,7.588.241s-3.132-5.162-4.714-5.953a3.2,3.2,0,0,0-2.873,5.712Z" transform="translate(-244.298 -427.954)"/><path class="b" d="M293.866,610.4c1.428,1.05,7.433,1.531,7.433,1.531s-2.22-5.609-3.63-6.659a3.192,3.192,0,0,0-3.8,5.127Z" transform="translate(-240.178 -500.622)"/><path class="t" d="M341.7,367.866c0,1.772-3.2,6.882-3.2,6.882s-3.2-5.127-3.2-6.882a3.2,3.2,0,1,1,6.4-.138v.138Z" transform="translate(-275.535 -301.863)"/><path class="t" d="M372.335,416.973c-.964,1.48-6.435,4.043-6.435,4.043s.1-6.039,1.067-7.519a3.2,3.2,0,0,1,5.368,3.476Z" transform="translate(-300.873 -341.197)"/><path class="t" d="M365.488,508.614c-1.583.791-7.588.241-7.588.241s3.132-5.162,4.715-5.953a3.2,3.2,0,0,1,2.873,5.712Z" transform="translate(-294.249 -416.114)"/><path class="t" d="M348.633,583.049c-1.428,1.05-7.433,1.531-7.433,1.531s2.22-5.609,3.63-6.676a3.2,3.2,0,1,1,3.837,5.11Z" transform="translate(-280.423 -477.937)"/><path class="t" d="M321.984,439.292c1.273,1.222,7.175,2.512,7.175,2.512s-1.445-5.867-2.719-7.089a3.2,3.2,0,0,0-4.56,4.491.457.457,0,0,1,.1.086Z" transform="translate(-263.667 -359.128)"/><path class="t" d="M299.277,522.914c1.583.792,7.588.241,7.588.241s-3.132-5.162-4.714-5.953a3.2,3.2,0,0,0-2.873,5.712Z" transform="translate(-244.298 -427.954)"/><path class="t" d="M293.866,610.4c1.428,1.05,7.433,1.531,7.433,1.531s-2.22-5.609-3.63-6.659a3.192,3.192,0,0,0-3.8,5.127Z" transform="translate(-240.178 -500.622)"/><path class="m" d="M835.166,541.208s-2.288-7.743.43-13.438a12.3,12.3,0,0,0,1-7.674,21.174,21.174,0,0,0-1.084-3.6" transform="translate(-688.651 -427.63)"/><path class="b" d="M834.741,487.221c0,.946-1.721,3.7-1.721,3.7s-1.721-2.753-1.721-3.7a1.721,1.721,0,1,1,3.441,0Z" transform="translate(-686.195 -401.964)"/><path class="b" d="M851.158,512.854c-.516.792-3.458,2.168-3.458,2.168s.052-3.252.568-4.043a1.723,1.723,0,0,1,2.977,1.738A.955.955,0,0,1,851.158,512.854Z" transform="translate(-699.774 -422.35)"/><path class="b" d="M847.478,562.822c-.843.43-4.078.138-4.078.138s1.686-2.77,2.529-3.2a1.718,1.718,0,0,1,1.549,3.063Z" transform="translate(-696.214 -463.319)"/><path class="b" d="M838.392,602.954c-.757.568-3.992.826-3.992.826s1.187-3.011,1.962-3.579a1.712,1.712,0,0,1,2.03,2.753Z" transform="translate(-688.762 -496.689)"/><path class="b" d="M823.932,525.175c.688.654,3.854,1.342,3.854,1.342s-.774-3.149-1.463-3.82a1.717,1.717,0,1,0-2.512,2.34,1.127,1.127,0,0,0,.12.138Z" transform="translate(-679.619 -432.314)"/><path class="b" d="M812.049,570.422c.843.43,4.078.138,4.078.138s-1.686-2.77-2.529-3.2a1.714,1.714,0,0,0-2.271.86,1.687,1.687,0,0,0,.723,2.2Z" transform="translate(-669.526 -469.611)"/><path class="b" d="M809.158,617.624c.757.568,3.992.826,3.992.826s-1.2-3.011-1.961-3.579a1.711,1.711,0,0,0-2.03,2.753Z" transform="translate(-667.323 -508.829)"/><path class="u" d="M437.493,126.752h-1.187a.827.827,0,1,0,.069-1.652h-9.653a.827.827,0,0,0,0,1.652h1.187a.827.827,0,0,0-.069,1.652h-1.583a.827.827,0,1,0-.069,1.652h9.653a.827.827,0,1,0,.069-1.652h1.583a.827.827,0,0,0,.069-1.652Z" transform="translate(-350.132 -87.575)"/><path class="u" d="M683.493,247.752h-1.187a.827.827,0,0,0,.069-1.652h-9.653a.827.827,0,0,0,0,1.652h1.187a.827.827,0,1,0-.069,1.652h-1.583a.827.827,0,1,0-.069,1.652h9.653a.827.827,0,0,0,.069-1.652h1.583a.827.827,0,1,0,.069-1.652Z" transform="translate(-553.805 -203.756)"/><path class="v" d="M627.606,443.2l-.206.155A1.07,1.07,0,0,0,627.606,443.2Z" transform="translate(-517.379 -366.942)"/><path class="w" d="M628.506,444.1l-.206.155A.47.47,0,0,0,628.506,444.1Z" transform="translate(-518.124 -367.688)"/><path class="x" d="M628.506,443.2l-.206.155A1.073,1.073,0,0,0,628.506,443.2Z" transform="translate(-518.124 -366.942)"/><rect class="y" width="0.086" height="2.202" transform="matrix(0.192, -0.982, 0.982, 0.192, 114.823, 30.176)"/></svg>